<svg xmlns="http://www.w3.org/2000/svg" xmlns:xlink="http://www.w3.org/1999/xlink" viewBox="0 0 800 800"><defs><style>.cls-1{isolation:isolate;}.cls-2{opacity:0;}.cls-3{opacity:0.01;}.cls-4{opacity:0.02;}.cls-5{opacity:0.02;}.cls-6{opacity:0.03;}.cls-7{opacity:0.04;}.cls-8{opacity:0.05;}.cls-9{opacity:0.05;}.cls-10{opacity:0.06;}.cls-11{opacity:0.07;}.cls-12{opacity:0.08;}.cls-13{opacity:0.08;}.cls-14{opacity:0.09;}.cls-15{opacity:0.1;}.cls-16{opacity:0.11;}.cls-17{opacity:0.11;}.cls-18{opacity:0.12;}.cls-19{opacity:0.13;}.cls-20{opacity:0.14;}.cls-21{opacity:0.14;}.cls-22{opacity:0.15;}.cls-23{opacity:0.16;}.cls-24,.cls-25{opacity:0.5;}.cls-24,.cls-37,.cls-51,.cls-54,.cls-63,.cls-66,.cls-77{mix-blend-mode:color-dodge;}.cls-24{fill:url(#Gradiente_sem_nome_6);}.cls-25,.cls-26,.cls-27,.cls-49,.cls-60,.cls-74{mix-blend-mode:screen;}.cls-25{fill:url(#Gradiente_sem_nome_5);}.cls-26{fill:url(#Gradiente_sem_nome_4);}.cls-27{fill:url(#Gradiente_sem_nome_3);}.cls-28{fill:url(#linear-gradient);}.cls-29,.cls-32,.cls-38,.cls-39{mix-blend-mode:multiply;}.cls-29{fill:url(#linear-gradient-2);}.cls-30{fill:url(#linear-gradient-3);}.cls-31{fill:url(#linear-gradient-4);}.cls-32{fill:url(#linear-gradient-5);}.cls-33{fill:url(#linear-gradient-6);}.cls-34{fill:#fff;}.cls-35{fill:url(#New_Gradient_Swatch_copy_8);}.cls-36{fill:url(#New_Gradient_Swatch_copy_8-2);}.cls-37{fill:url(#radial-gradient);}.cls-38{fill:#bcbec0;}.cls-40{fill:#d1d3d4;}.cls-41{fill:#603913;}.cls-42{fill:#9d9eb3;}.cls-43{fill:url(#New_Gradient_Swatch_copy_22);}.cls-44{fill:url(#New_Gradient_Swatch_copy_22-2);}.cls-45{fill:url(#New_Gradient_Swatch_copy_22-3);}.cls-46{fill:url(#New_Gradient_Swatch_copy_14);}.cls-47{fill:url(#New_Gradient_Swatch_copy_14-3);}.cls-48{fill:url(#New_Gradient_Swatch_copy_14-4);}.cls-49{fill:url(#New_Gradient_Swatch_1);}.cls-50{fill:url(#New_Gradient_Swatch_copy_16);}.Graphic-Style-2{fill:url(#linear-gradient-7);}.cls-51{fill:url(#radial-gradient-2);}.cls-52{fill:url(#New_Gradient_Swatch_copy_8-3);}.cls-53{fill:url(#New_Gradient_Swatch_copy_8-4);}.cls-54{fill:url(#radial-gradient-3);}.cls-55{fill:url(#New_Gradient_Swatch_copy_22-4);}.cls-56{fill:url(#New_Gradient_Swatch_copy_22-6);}.cls-57{fill:url(#New_Gradient_Swatch_copy_19);}.cls-58{fill:url(#New_Gradient_Swatch_copy_19-3);}.cls-59{fill:url(#New_Gradient_Swatch_copy_19-4);}.cls-60{fill:url(#New_Gradient_Swatch_1-2);}.cls-61{fill:url(#New_Gradient_Swatch_copy_21);}.cls-62{fill:url(#New_Gradient_Swatch_copy_13);}.cls-63{fill:url(#radial-gradient-4);}.cls-64{fill:url(#New_Gradient_Swatch_copy_8-5);}.cls-65{fill:url(#New_Gradient_Swatch_copy_8-6);}.cls-66{fill:url(#radial-gradient-5);}.cls-67{fill:url(#New_Gradient_Swatch_copy_22-7);}.cls-68{fill:url(#New_Gradient_Swatch_copy_22-8);}.cls-69{fill:url(#New_Gradient_Swatch_copy_22-9);}.cls-70{fill:url(#New_Gradient_Swatch_copy_15);}.cls-71{fill:url(#New_Gradient_Swatch_copy_15-2);}.cls-72{fill:url(#New_Gradient_Swatch_copy_15-3);}.cls-73{fill:url(#New_Gradient_Swatch_copy_15-4);}.cls-74{fill:url(#New_Gradient_Swatch_1-3);}.cls-75{fill:url(#linear-gradient-8);}.cls-76{fill:url(#New_Gradient_Swatch_copy_9);}.cls-77{fill:url(#radial-gradient-6);}.cls-78{fill:none;}</style><radialGradient id="Gradiente_sem_nome_6" cx="1357.9" cy="-1795.81" r="195.49" gradientTransform="matrix(1.08, 0, 0, 0.75, -1084.64, 1633.66)" gradientUnits="userSpaceOnUse"><stop offset="0" stop-color="#ff63ce"/><stop offset="0.02" stop-color="#f760c7" stop-opacity="0.97"/><stop offset="0.18" stop-color="#b64793" stop-opacity="0.71"/><stop offset="0.34" stop-color="#7f3166" stop-opacity="0.5"/><stop offset="0.49" stop-color="#512042" stop-opacity="0.32"/><stop offset="0.64" stop-color="#2e1225" stop-opacity="0.18"/><stop offset="0.78" stop-color="#150811" stop-opacity="0.08"/><stop offset="0.9" stop-color="#050204" stop-opacity="0.02"/><stop offset="1" stop-opacity="0"/></radialGradient><linearGradient id="Gradiente_sem_nome_5" x1="427.17" y1="109.03" x2="223.88" y2="303.71" gradientUnits="userSpaceOnUse"><stop offset="0" stop-color="#2af6ff"/><stop offset="0.02" stop-color="#29eef7" stop-opacity="0.97"/><stop offset="0.13" stop-color="#1fb7be" stop-opacity="0.74"/><stop offset="0.25" stop-color="#17868b" stop-opacity="0.55"/><stop offset="0.37" stop-color="#105d60" stop-opacity="0.38"/><stop offset="0.49" stop-color="#0a3b3e" stop-opacity="0.24"/><stop offset="0.62" stop-color="#062123" stop-opacity="0.14"/><stop offset="0.74" stop-color="#030f0f" stop-opacity="0.06"/><stop offset="0.87" stop-color="#010404" stop-opacity="0.01"/><stop offset="1" stop-opacity="0"/></linearGradient><linearGradient id="Gradiente_sem_nome_4" x1="506" y1="139.36" x2="171.49" y2="271.68" gradientUnits="userSpaceOnUse"><stop offset="0" stop-color="#43e8e1"/><stop offset="0.09" stop-color="#36bdb7" stop-opacity="0.81"/><stop offset="0.22" stop-color="#288b87" stop-opacity="0.6"/><stop offset="0.34" stop-color="#1c605d" stop-opacity="0.42"/><stop offset="0.47" stop-color="#123e3c" stop-opacity="0.27"/><stop offset="0.6" stop-color="#0a2321" stop-opacity="0.15"/><stop offset="0.73" stop-color="#040f0f" stop-opacity="0.07"/><stop offset="0.86" stop-color="#010404" stop-opacity="0.02"/><stop offset="1" stop-opacity="0"/></linearGradient><linearGradient id="Gradiente_sem_nome_3" x1="529.41" y1="212.67" x2="294.71" y2="446.14" xlink:href="#Gradiente_sem_nome_4"/><linearGradient id="linear-gradient" x1="492.33" y1="347.15" x2="434.45" y2="143.52" gradientUnits="userSpaceOnUse"><stop offset="0" stop-color="#d4d1d8"/><stop offset="1" stop-color="#fff"/></linearGradient><linearGradient id="linear-gradient-2" x1="456.45" y1="226.43" x2="438.59" y2="187.13" gradientUnits="userSpaceOnUse"><stop offset="0" stop-color="#fff"/><stop offset="1" stop-color="#e6e7e8"/></linearGradient><linearGradient id="linear-gradient-3" x1="65.4" y1="-19.81" x2="392.14" y2="174.42" xlink:href="#linear-gradient"/><linearGradient id="linear-gradient-4" x1="298.01" y1="267.8" x2="465.2" y2="244.76" xlink:href="#linear-gradient"/><linearGradient id="linear-gradient-5" x1="456.97" y1="409.4" x2="461.35" y2="317.41" gradientUnits="userSpaceOnUse"><stop offset="0" stop-color="#fff"/><stop offset="1" stop-color="#dedfe0"/></linearGradient><linearGradient id="linear-gradient-6" x1="719.03" y1="370.69" x2="463.61" y2="204.93" xlink:href="#linear-gradient"/><linearGradient id="New_Gradient_Swatch_copy_8" x1="505.91" y1="474.39" x2="556.78" y2="459.15" gradientUnits="userSpaceOnUse"><stop offset="0.04" stop-color="#ffa98c"/><stop offset="0.32" stop-color="#ffb892"/><stop offset="0.86" stop-color="#fee1a3"/><stop offset="1" stop-color="#feeca8"/></linearGradient><linearGradient id="New_Gradient_Swatch_copy_8-2" x1="467.35" y1="482.54" x2="560.23" y2="461.71" xlink:href="#New_Gradient_Swatch_copy_8"/><radialGradient id="radial-gradient" cx="515.83" cy="472.35" r="17.54" gradientUnits="userSpaceOnUse"><stop offset="0" stop-color="#fff"/><stop offset="0.07" stop-color="#d8d8d8"/><stop offset="0.16" stop-color="#a6a6a6"/><stop offset="0.26" stop-color="#797979"/><stop offset="0.37" stop-color="#545454"/><stop offset="0.47" stop-color="#353535"/><stop offset="0.59" stop-color="#1e1e1e"/><stop offset="0.7" stop-color="#0d0d0d"/><stop offset="0.84" stop-color="#030303"/><stop offset="1"/></radialGradient><radialGradient id="New_Gradient_Swatch_copy_22" cx="498.73" cy="389.21" r="48.54" gradientUnits="userSpaceOnUse"><stop offset="0" stop-color="#eeebf2"/><stop offset="0.58" stop-color="#d4d1d8"/><stop offset="0.94" stop-color="#a5a6b9"/><stop offset="1" stop-color="#9d9eb3"/></radialGradient><radialGradient id="New_Gradient_Swatch_copy_22-2" cx="498.73" cy="389.21" r="48.54" xlink:href="#New_Gradient_Swatch_copy_22"/><radialGradient id="New_Gradient_Swatch_copy_22-3" cx="498.73" cy="389.21" r="48.54" xlink:href="#New_Gradient_Swatch_copy_22"/><radialGradient id="New_Gradient_Swatch_copy_14" cx="501.66" cy="390.92" r="44.15" gradientUnits="userSpaceOnUse"><stop offset="0" stop-color="#2af6ff"/><stop offset="1" stop-color="#138bbd"/></radialGradient><radialGradient id="New_Gradient_Swatch_copy_14-3" cx="501.66" cy="390.92" r="44.15" xlink:href="#New_Gradient_Swatch_copy_14"/><radialGradient id="New_Gradient_Swatch_copy_14-4" cx="501.66" cy="390.92" r="44.15" xlink:href="#New_Gradient_Swatch_copy_14"/><linearGradient id="New_Gradient_Swatch_1" x1="490.23" y1="370.35" x2="509.63" y2="405.32" gradientUnits="userSpaceOnUse"><stop offset="0" stop-color="#fff"/><stop offset="1"/></linearGradient><linearGradient id="New_Gradient_Swatch_copy_16" x1="-3715.32" y1="484.64" x2="-3728.38" y2="467.13" gradientTransform="translate(4251.38)" gradientUnits="userSpaceOnUse"><stop offset="0.04" stop-color="#1bb0d4"/><stop offset="0.2" stop-color="#1ebfdd"/><stop offset="0.53" stop-color="#27e8f6"/><stop offset="0.63" stop-color="#2af6ff"/><stop offset="0.87" stop-color="#1bb0d4"/></linearGradient><linearGradient id="linear-gradient-7" x1="-3745.39" y1="482.4" x2="-3702.59" y2="472.81" gradientTransform="translate(3983.34 1945) rotate(30.31)" gradientUnits="userSpaceOnUse"><stop offset="0.04" stop-color="#138bbd"/><stop offset="0.23" stop-color="#169ac7"/><stop offset="0.59" stop-color="#1fc3df"/><stop offset="1" stop-color="#2af6ff"/></linearGradient><radialGradient id="radial-gradient-2" cx="-3719.63" cy="476.47" r="8.16" gradientTransform="translate(4251.38)" xlink:href="#radial-gradient"/><linearGradient id="New_Gradient_Swatch_copy_8-3" x1="381.63" y1="592.75" x2="432.5" y2="577.52" xlink:href="#New_Gradient_Swatch_copy_8"/><linearGradient id="New_Gradient_Swatch_copy_8-4" x1="343.07" y1="600.9" x2="435.95" y2="580.08" xlink:href="#New_Gradient_Swatch_copy_8"/><radialGradient id="radial-gradient-3" cx="391.55" cy="590.71" r="17.54" xlink:href="#radial-gradient"/><radialGradient id="New_Gradient_Swatch_copy_22-4" cx="373.74" cy="507.73" r="51.76" xlink:href="#New_Gradient_Swatch_copy_22"/><radialGradient id="New_Gradient_Swatch_copy_22-6" cx="373.74" cy="507.73" r="51.76" xlink:href="#New_Gradient_Swatch_copy_22"/><radialGradient id="New_Gradient_Swatch_copy_19" cx="377.39" cy="509.28" r="44.15" gradientUnits="userSpaceOnUse"><stop offset="0" stop-color="#a56ef4"/><stop offset="1" stop-color="#6b24d6"/></radialGradient><radialGradient id="New_Gradient_Swatch_copy_19-3" cx="377.39" cy="509.28" r="44.15" xlink:href="#New_Gradient_Swatch_copy_19"/><radialGradient id="New_Gradient_Swatch_copy_19-4" cx="377.39" cy="509.28" r="44.15" xlink:href="#New_Gradient_Swatch_copy_19"/><linearGradient id="New_Gradient_Swatch_1-2" x1="365.95" y1="488.71" x2="385.35" y2="523.68" xlink:href="#New_Gradient_Swatch_1"/><linearGradient id="New_Gradient_Swatch_copy_21" x1="-3839.6" y1="603" x2="-3852.66" y2="585.49" gradientTransform="translate(4251.38)" gradientUnits="userSpaceOnUse"><stop offset="0.04" stop-color="#6b24d6"/><stop offset="0.2" stop-color="#7733dc"/><stop offset="0.5" stop-color="#975ced"/><stop offset="0.63" stop-color="#a56ef4"/><stop offset="0.87" stop-color="#6b24d6"/></linearGradient><linearGradient id="New_Gradient_Swatch_copy_13" x1="-3869.67" y1="600.76" x2="-3826.87" y2="591.17" gradientTransform="translate(4251.38)" gradientUnits="userSpaceOnUse"><stop offset="0.04" stop-color="#6b24d6"/><stop offset="0.29" stop-color="#7733dc"/><stop offset="0.79" stop-color="#975ced"/><stop offset="1" stop-color="#a56ef4"/></linearGradient><radialGradient id="radial-gradient-4" cx="-3843.91" cy="594.84" r="8.16" gradientTransform="translate(4251.38)" xlink:href="#radial-gradient"/><linearGradient id="New_Gradient_Swatch_copy_8-5" x1="254.39" y1="532.58" x2="305.26" y2="517.35" xlink:href="#New_Gradient_Swatch_copy_8"/><linearGradient id="New_Gradient_Swatch_copy_8-6" x1="215.83" y1="540.73" x2="308.71" y2="519.91" xlink:href="#New_Gradient_Swatch_copy_8"/><radialGradient id="radial-gradient-5" cx="264.32" cy="530.54" r="17.54" xlink:href="#radial-gradient"/><radialGradient id="New_Gradient_Swatch_copy_22-7" cx="247.49" cy="447.9" r="48.74" xlink:href="#New_Gradient_Swatch_copy_22"/><radialGradient id="New_Gradient_Swatch_copy_22-8" cx="247.49" cy="447.9" r="48.74" xlink:href="#New_Gradient_Swatch_copy_22"/><radialGradient id="New_Gradient_Swatch_copy_22-9" cx="247.49" cy="447.9" r="48.74" xlink:href="#New_Gradient_Swatch_copy_22"/><radialGradient id="New_Gradient_Swatch_copy_15" cx="250.15" cy="449.11" r="44.15" gradientUnits="userSpaceOnUse"><stop offset="0" stop-color="#ff63ce"/><stop offset="1" stop-color="#9f19ab"/></radialGradient><radialGradient id="New_Gradient_Swatch_copy_15-2" cx="250.15" cy="449.11" r="44.15" xlink:href="#New_Gradient_Swatch_copy_15"/><radialGradient id="New_Gradient_Swatch_copy_15-3" cx="250.15" cy="449.11" r="44.15" xlink:href="#New_Gradient_Swatch_copy_15"/><radialGradient id="New_Gradient_Swatch_copy_15-4" cx="250.15" cy="449.11" r="44.15" xlink:href="#New_Gradient_Swatch_copy_15"/><linearGradient id="New_Gradient_Swatch_1-3" x1="238.71" y1="428.54" x2="258.11" y2="463.52" xlink:href="#New_Gradient_Swatch_1"/><linearGradient id="linear-gradient-8" x1="-3966.84" y1="542.83" x2="-3979.9" y2="525.33" gradientTransform="translate(4251.38)" gradientUnits="userSpaceOnUse"><stop offset="0.04" stop-color="#9f19ab"/><stop offset="0.16" stop-color="#ae25b1"/><stop offset="0.41" stop-color="#d744bf"/><stop offset="0.63" stop-color="#ff63ce"/><stop offset="0.87" stop-color="#dc48c1"/></linearGradient><linearGradient id="New_Gradient_Swatch_copy_9" x1="-3996.91" y1="540.59" x2="-3954.11" y2="531" gradientTransform="translate(3978.33 2079.9) rotate(30.31)" gradientUnits="userSpaceOnUse"><stop offset="0.04" stop-color="#9f19ab"/><stop offset="0.24" stop-color="#ae25b1"/><stop offset="0.65" stop-color="#d744bf"/><stop offset="1" stop-color="#ff63ce"/></linearGradient><radialGradient id="radial-gradient-6" cx="-3971.15" cy="534.67" r="8.16" gradientTransform="translate(4251.38)" xlink:href="#radial-gradient"/></defs><title>email</title><g class="cls-1"><g id="Camada_1" data-name="Camada 1"><path class="cls-2" d="M177,631.55l15.51,9.19,33.65-1.47c17.26-.76,33.72,6.24,43.24,18.39l9.85,12.57c6.07,7.75,16.64,12.13,27.63,11.46l18.61-1.14a56.31,56.31,0,0,1,35.65,9.7l9.69,6.83,39.91,9.32c10.65,2.49,22.06-.32,29.44-7.26l78.16-73.45,78.16-73.45c8.31-7.81-.26-20-12.37-17.59l-201.57,39.8-201.58,39.8C171.31,616.15,168.87,626.75,177,631.55Z"/><path class="cls-3" d="M384.74,575.72,189,614.28c-9.18,1.81-11.08,12-3.38,16.6l15.09,8.86,32.64-1.23c16.44-.72,33,6.2,42,17.77l9.91,12.13c5.78,7.38,16.88,11.86,27.35,11.22l18.33-.9c12.31-.75,24.75,2.35,34.22,9l9.3,6.44,38.29,8.64c10.15,2.37,21.23-.49,28.26-7.09l75.17-70.57,48.27-45.28,27.39-25.7c7.91-7.43.09-19.31-11.44-17L482.6,556.44Z"/><path class="cls-4" d="M387,577,197.1,614.31c-8.72,1.73-10.09,11.57-2.77,15.91L209,638.73l31.63-1c15.62-.68,32.22,6.16,40.83,17.16l10,11.68c5.5,7,17.12,11.6,27.07,11l18.06-.66c11.7-.71,23.79,2,32.78,8.34l8.92,6,36.67,8c9.64,2.25,20.39-.66,27.07-6.93l72.18-67.69L560.85,581l26.49-24.81c7.51-7.06.44-18.64-10.52-16.47l-94.93,18.66Z"/><path class="cls-5" d="M389.18,578.26l-184,36.09c-8.26,1.63-9.1,11.09-2.17,15.2l14.24,8.17,30.62-.74c14.8-.65,31.46,6.12,39.63,16.54l10,11.24c5.2,6.64,17.36,11.33,26.78,10.75l17.8-.42c11.08-.68,22.81,1.66,31.33,7.67l8.54,5.65,35,7.29c9.13,2.13,19.56-.82,25.88-6.76l69.2-64.81L557.2,582l25.58-23.9c7.12-6.69.79-18-9.59-15.93l-92,18.05Z"/><path class="cls-6" d="M391.41,579.53,213.25,614.38c-7.8,1.54-8.11,10.62-1.55,14.51l13.82,7.82,29.61-.49c14-.61,30.7,6.07,38.42,15.91l10.08,10.81c4.92,6.27,17.6,11,26.5,10.51l17.53-.18c10.47-.64,21.85,1.31,29.9,7l8.16,5.26,33.42,6.61a28.52,28.52,0,0,0,24.7-6.6L510,623.62l43.5-40.56,24.68-23c6.72-6.32,1.14-17.31-8.66-15.37l-89.08,17.43Z"/><path class="cls-7" d="M393.63,580.8l-172.3,33.61c-7.34,1.45-7.12,10.15-1,13.81l13.4,7.48,28.6-.24c13.15-.58,29.95,6,37.21,15.29l10.15,10.37c4.63,5.9,17.84,10.78,26.21,10.27l17.27.06c9.85-.6,20.88,1,28.45,6.31l7.78,4.87,31.8,5.93c8.12,1.9,17.89-1.14,23.51-6.43l63.22-59,41.9-39L573.66,562a8.61,8.61,0,0,0-7.73-14.81L479.78,564Z"/><path class="cls-8" d="M395.85,582.07,229.41,614.45c-6.88,1.36-6.13,9.68-.34,13.1l13,7.14h27.59c12.33-.54,29.2,6,36,14.67l10.2,9.92c4.34,5.54,18.08,10.52,25.94,10l17,.3c9.24-.57,19.91.63,27,5.63l7.4,4.48L423.36,685c7.61,1.77,17.05-1.32,22.33-6.27l60.23-56.15,40.31-37.4L569.1,564c5.93-5.58,1.85-16-6.81-14.27l-83.22,16.19Z"/><path class="cls-9" d="M398.07,583.34,237.49,614.48c-6.43,1.27-5.14,9.21.26,12.41l12.55,6.79,26.58.26c11.51-.51,28.45,5.94,34.8,14L322,657.47c4.05,5.17,18.32,10.25,25.65,9.8l16.73.54c8.62-.53,18.94.28,25.57,5l7,4.09,28.56,4.58c7.11,1.66,16.22-1.48,21.14-6.1l57.24-53.27,38.72-35.82,22-20.33c5.53-5.2,2.2-15.3-5.88-13.71l-80.29,15.57Z"/><path class="cls-10" d="M400.3,584.61l-154.74,29.9c-6,1.18-4.14,8.74.87,11.71l12.14,6.45,25.56.5c10.69-.46,27.7,5.91,33.6,13.43l10.32,9c3.76,4.79,18.57,10,25.37,9.56l16.46.78c8-.49,18-.06,24.13,4.28l6.63,3.69,26.95,3.9c6.59,1.54,15.37-1.64,19.94-5.93l54.26-50.39,37.12-34.25L560,567.86c5.14-4.83,2.55-14.63-5-13.15l-77.37,14.95Z"/><path class="cls-11" d="M402.52,585.88,253.64,614.55c-5.51,1.09-3.15,8.27,1.48,11l11.71,6.1,24.56.75c9.86-.43,26.94,5.87,32.39,12.81l10.38,8.6c3.47,4.43,18.8,9.71,25.08,9.33l16.2,1c7.38-.46,17-.41,22.68,3.6l6.25,3.3,25.33,3.22c6.08,1.43,14.54-1.8,18.76-5.77L499.72,621l35.54-32.67,20.16-18.53c4.74-4.46,2.9-14-4-12.61L477,571.55Z"/><path class="cls-12" d="M404.74,587.15l-143,27.43c-5.05,1-2.16,7.8,2.08,10.31l11.29,5.76,23.55,1c9-.4,26.19,5.82,31.18,12.19L340.27,652c3.18,4.06,19,9.44,24.79,9.09L381,662.34c6.77-.41,16-.74,21.25,2.93l5.87,2.91,23.7,2.55c5.58,1.3,13.7-2,17.57-5.61l48.28-44.61,33.94-31.1,19.25-17.64c4.35-4.09,3.26-13.3-3.09-12l-71.51,13.72Z"/><path class="cls-13" d="M407,588.42,269.8,614.61c-4.59.91-1.17,7.33,2.69,9.62l10.86,5.42,22.54,1.24c8.22-.36,25.44,5.78,30,11.57l10.5,7.72c2.89,3.69,19.28,9.17,24.52,8.85l15.66,1.49c6.15-.37,15.07-1.08,19.8,2.25l5.49,2.53,22.08,1.86c5.07,1.18,12.87-2.14,16.38-5.44L495.59,620l32.35-29.52,18.35-16.75c4-3.71,3.61-12.63-2.16-11.49l-68.58,13.09Z"/><path class="cls-14" d="M409.19,589.69l-131.32,25c-4.13.81-.17,6.85,3.3,8.91l10.45,5.08,21.52,1.49c7.4-.33,24.69,5.73,28.77,10.94l10.57,7.29c2.6,3.32,19.52,8.9,24.23,8.61l15.39,1.73c5.54-.34,14.1-1.43,18.37,1.58l5.1,2.13L436,663.59c4.56,1.07,12-2.3,15.2-5.27l42.3-38.85,30.76-27.94,17.44-15.85c3.56-3.35,4-12-1.23-10.95l-65.66,12.48Z"/><path class="cls-15" d="M411.41,591,286,614.68c-3.67.73.82,6.39,3.9,8.21l10,4.74,20.51,1.74c6.58-.29,23.94,5.69,27.57,10.32l10.62,6.84c2.32,3,19.76,8.64,23.95,8.38l15.12,2c4.93-.3,13.14-1.77,16.93.9l4.72,1.74,18.84.5c4.06,1,11.2-2.46,14-5.1l39.31-36,29.17-26.37,16.54-15c3.17-3,4.31-11.3-.3-10.39L474.14,579.1Z"/><path class="cls-16" d="M413.63,592.23,294,614.72c-3.21.63,1.81,5.91,4.51,7.51l9.6,4.39,19.51,2c5.75-.25,23.18,5.66,26.36,9.71l10.68,6.4c2,2.58,20,8.36,23.66,8.14l14.86,2.21c4.31-.26,12.17-2.12,15.48.22l4.34,1.35,17.22-.17c3.55.83,10.37-2.63,12.83-5l36.32-33.08L517,593.64l15.64-14.06c2.77-2.6,4.66-10.63.63-9.83L473.43,581Z"/><path class="cls-17" d="M415.85,593.5,302.11,614.75c-2.76.54,2.8,5.44,5.11,6.81l9.18,4.05,18.5,2.23c4.93-.21,22.43,5.61,25.15,9.09l10.74,6c1.74,2.21,20.24,8.09,23.39,7.9l14.58,2.45c3.7-.23,11.21-2.46,14.05-.46l3.95,1,15.6-.85c3,.71,9.53-2.8,11.64-4.78l33.34-30.2,26-23.21,14.73-13.16c2.37-2.23,5-10,1.55-9.29l-56.87,10.63Z"/><path class="cls-18" d="M418.08,594.77l-107.9,20c-2.29.45,3.8,5,5.73,6.12l8.76,3.7,17.48,2.48c4.11-.18,21.68,5.57,24,8.46l10.8,5.52c1.44,1.85,20.48,7.83,23.1,7.67l14.32,2.69c3.08-.19,10.23-2.81,12.6-1.14l3.57.57,14-1.53c2.54.6,8.7-3,10.45-4.61l30.35-27.31,24.39-21.64,13.83-12.27c2-1.86,5.36-9.3,2.48-8.73l-54,10Z"/><path class="cls-19" d="M420.3,596l-102,18.78c-1.83.36,4.79,4.5,6.33,5.41l8.34,3.36,16.47,2.73c3.29-.14,20.93,5.53,22.75,7.84L383,639.24c1.16,1.48,20.73,7.56,22.82,7.43l14.05,2.93c2.46-.15,9.27-3.15,11.16-1.81l3.2.17,12.35-2.2c2,.47,7.86-3.13,9.27-4.45l27.36-24.43L506,596.82l12.92-11.38c1.58-1.48,5.72-8.63,3.41-8.17l-51,9.38Z"/><path class="cls-20" d="M422.52,597.31l-96.18,17.54c-1.38.27,5.78,4,6.94,4.72l7.91,3,15.46,3c2.47-.11,20.18,5.48,21.54,7.22l10.92,4.64c.87,1.1,21,7.29,22.53,7.19l13.79,3.17c1.84-.12,8.3-3.49,9.72-2.49l2.81-.22,10.73-2.88c1.52.35,7-3.29,8.08-4.28l24.37-21.55,21.21-18.49,12-10.47c1.19-1.12,6.07-8,4.34-7.63l-48.1,8.77Z"/><path class="cls-21" d="M424.74,598.58l-90.32,16.3c-.92.18,6.77,3.56,7.54,4l7.49,2.67,14.46,3.23c1.64-.08,19.42,5.44,20.33,6.6l11,4.19c.57.74,21.2,7,22.24,7L431,646c1.23-.07,7.33-3.83,8.28-3.16l2.43-.61,9.11-3.56c1,.24,6.19-3.45,6.9-4.11l21.38-18.67,19.61-16.91,11.12-9.58c.79-.74,6.42-7.3,5.26-7.07l-45.16,8.15Z"/><path class="cls-22" d="M427,599.85l-84.48,15.07c-.46.09,7.77,3.08,8.15,3.31l7.08,2.34L371.16,624c.82,0,18.67,5.4,19.12,6l11,3.76c.29.37,21.44,6.75,22,6.72l13.25,3.64c.61,0,6.36-4.17,6.83-3.84l2.05-1,7.49-4.24c.51.12,5.36-3.62,5.71-3.95L477,615.32,495,600l10.21-8.69c.39-.37,6.77-6.63,6.19-6.51l-42.24,7.53Z"/><polygon class="cls-23" points="350.57 614.95 396.33 628.63 442.09 642.31 474.95 614.8 491.38 601.05 507.81 587.29 468.5 594.21 429.19 601.12 350.57 614.95"/><ellipse class="cls-24" cx="384.7" cy="281.64" rx="211.55" ry="147.18" transform="translate(-42.13 69.19) rotate(-9.75)"/><polygon class="cls-25" points="267.62 207.3 80 261.15 257.86 439.82 548.68 173.01 267.62 207.3"/><polygon class="cls-26" points="642 92.98 135.22 332.62 130.35 282.27 86.5 258.71 642 92.98"/><polygon class="cls-27" points="642 92.98 192.07 416.27 291.16 456.06 351.25 521.85 642 92.98"/><polygon class="cls-28" points="642 92.98 250.47 276.96 287.62 396.64 642 92.98"/><polygon class="cls-29" points="642 92.98 250.47 276.96 287.62 396.64 642 92.98"/><polygon class="cls-30" points="642 92.98 250.47 276.96 185.27 281.43 146.69 245.7 642 92.98"/><polygon class="cls-31" points="642 92.98 324.77 320.19 287.62 396.64 642 92.98"/><polygon class="cls-32" points="642 92.98 324.77 320.19 287.62 396.64 642 92.98"/><polygon class="cls-33" points="642 92.98 324.77 320.19 374.25 374.67 434.98 396.81 642 92.98"/><polygon class="cls-34" points="434.98 396.81 374.25 374.67 324.77 320.19 287.62 396.64 250.47 276.96 185.27 281.43 146.69 245.7 186.7 280.36 251.58 276.51 287.98 391.63 324.77 320.19 374.43 372.34 434.98 396.81"/><path class="cls-35" d="M528.15,475.43,506,452.37c-1.36-1.42-2.9-1.56-3.45-.31l-5.28,12c-.55,1.24.11,3.4,1.47,4.81l22.17,23.07c1.36,1.41,2.91,1.55,3.46.3l5.28-12C530.17,479,529.51,476.84,528.15,475.43Z"/><path class="cls-36" d="M527.5,475.64l-22.17-23.06c-1.36-1.41-2.91-1.55-3.46-.31l-5.28,12c-.55,1.25.11,3.41,1.47,4.82l22.18,23.06c1.36,1.42,2.9,1.55,3.45.31l5.28-12C529.52,479.21,528.86,477.06,527.5,475.64Z"/><path class="cls-37" d="M527.5,475.64l-22.17-23.06c-1-1-2.09-1.38-2.82-1a3.31,3.31,0,0,1,2.1,1.15l22.17,23.06c1.36,1.41,2,3.57,1.47,4.81l-5.28,12a1.32,1.32,0,0,1-.63.7,1.32,1.32,0,0,0,1.35-.84l5.28-12C529.52,479.21,528.86,477.06,527.5,475.64Z"/><path class="cls-38" d="M503.64,451.51l-.05,0,7.52,24.65,17.69,1.58a.64.64,0,0,0,0-.07l-16.92-3.2Z"/><g class="cls-39"><path class="cls-40" d="M516.12,476.58,522,493h.06l-5-16.35Z"/><path class="cls-40" d="M508.58,467.85l-11.74-1.05,0,.07L509,469.16Z"/></g><path class="cls-41" d="M504.67,456.75a2.29,2.29,0,0,1-1.5-1.66c-.22-.82.09-1.41.69-1.32a2.29,2.29,0,0,1,1.5,1.66C505.58,456.25,505.27,456.84,504.67,456.75Z"/><path class="cls-42" d="M504.47,455.9a.51.51,0,0,1-.41-.21l-22.93-33.88.82-.55,22.52,33.27L527,421.26l.82.55-22.92,33.88A.52.52,0,0,1,504.47,455.9Z"/><path class="cls-42" d="M504.47,455.9a.49.49,0,0,1-.47-.34l-11.18-33.87.94-.31,10.71,32.46,10.71-32.46.94.31-11.18,33.87A.49.49,0,0,1,504.47,455.9Z"/><path class="cls-43" d="M534,411.35a23.08,23.08,0,0,0-.31-3.73,37.47,37.47,0,0,0-.71-4.16,30.42,30.42,0,0,0-5.27-10.77c-8.7-9.78-23.32-6.87-23.32-6.87s-14.62-2.91-23.31,6.86a30.51,30.51,0,0,0-5.29,10.8,37,37,0,0,0-.7,4.15,23,23,0,0,0-.31,3.72c0,3.38.73,7,5.47,9.07,5.36,4,14.18,6.59,24.14,6.59s18.77-2.6,24.14-6.59C533,418.66,534,414.75,534,411.35Z"/><path class="cls-44" d="M495,426.2c4,3.53,14.74,3.7,18.82,0-.13-22.4-4.29-40.38-9.41-40.38S495.09,403.8,495,426.2Z"/><path class="cls-45" d="M509.79,381.57a29.06,29.06,0,0,0-10.84,0,35.79,35.79,0,0,1,5.42,4.25A35.79,35.79,0,0,1,509.79,381.57Z"/><path class="cls-46" d="M504.37,385.82c-13.1,0-23.75,15.4-24.13,34.61,0,5.56,10.74,7.77,14.72,5.77C495.09,403.8,499.25,385.82,504.37,385.82Z"/><path class="cls-46" d="M504.37,385.82c5.12,0,9.28,18,9.41,40.38,3.41,2,14.3-.21,14.72-5.77C528.12,401.22,517.47,385.82,504.37,385.82Z"/><path class="cls-47" d="M481.06,392.68c8.69-9.77,23.31-6.86,23.31-6.86a35.79,35.79,0,0,0-5.42-4.25A29.49,29.49,0,0,0,481.06,392.68Z"/><path class="cls-48" d="M527.69,392.69a29.52,29.52,0,0,0-17.9-11.12,35.79,35.79,0,0,0-5.42,4.25S519,382.91,527.69,392.69Z"/><path class="cls-49" d="M525.27,396.25c0,7.82-9.25,14.17-20.67,14.17s-20.68-6.35-20.68-14.17,9.25-14.17,20.68-14.17S525.27,388.42,525.27,396.25Z"/><path class="cls-50" d="M537,480.6c0,2.34-.81,4-2.12,4.8l-2.28,1.41c-1.37.76-.5-1-2.57-2.17a16.66,16.66,0,0,1-7.56-13c0-2.37-2.19-2.39-.84-3.18l2.54-1.45c1.36-.74,3.22-.6,5.27.58A16.65,16.65,0,0,1,537,480.6Z"/><ellipse class="Graphic-Style-2" cx="526.93" cy="477.71" rx="6.15" ry="10.65" transform="translate(-169.06 331.24) rotate(-30.31)"/><path class="cls-51" d="M527.29,468.85c-2-1.15-3.82-1.31-5.17-.63a6,6,0,0,1,4.52.89,16.66,16.66,0,0,1,7.56,13c0,2.5-.92,4.21-2.39,4.95,1.84-.52,3-2.35,3-5.2A16.65,16.65,0,0,0,527.29,468.85Z"/><path class="cls-34" d="M525,481.74a6.29,6.29,0,0,1-1.1-1.6,4,4,0,0,1-.39-1.43.17.17,0,0,1,.07-.16.17.17,0,0,1,.18,0l1.1.63a.79.79,0,0,1,.36.49,3,3,0,0,0,1.58,1.88,1.5,1.5,0,0,0,1.14.28c.27-.1.41-.39.41-.86a2.15,2.15,0,0,0-.37-1.26,3.43,3.43,0,0,0-1.11-1l-1.23-.71a.51.51,0,0,1-.2-.21.54.54,0,0,1-.09-.28V477c0-.18,0-.28.16-.32l2.13-1.16-3.41-2a.58.58,0,0,1-.22-.22.63.63,0,0,1-.08-.28v-.92a.22.22,0,0,1,.08-.2.23.23,0,0,1,.22,0l5.14,3a.5.5,0,0,1,.21.22.52.52,0,0,1,.09.29v.84c0,.16,0,.25-.16.29l-2,1.24.14.1a6.28,6.28,0,0,1,1.82,1.85,4.35,4.35,0,0,1,.68,2.35,1.79,1.79,0,0,1-.43,1.33,1.35,1.35,0,0,1-1.17.36,4.17,4.17,0,0,1-1.7-.62A7.39,7.39,0,0,1,525,481.74Z"/><path class="cls-52" d="M403.87,593.79,381.7,570.73c-1.37-1.42-2.91-1.55-3.46-.31l-5.28,12c-.55,1.25.11,3.4,1.47,4.82l22.17,23.06c1.36,1.41,2.91,1.55,3.46.31l5.28-12C405.89,597.36,405.23,595.2,403.87,593.79Z"/><path class="cls-53" d="M403.22,594l-22.17-23.07c-1.36-1.41-2.91-1.55-3.46-.3l-5.28,12c-.55,1.24.11,3.4,1.47,4.81L396,610.48c1.36,1.42,2.9,1.56,3.45.31l5.28-12C405.24,597.58,404.58,595.42,403.22,594Z"/><path class="cls-54" d="M403.22,594l-22.17-23.07c-1-1-2.09-1.38-2.82-1a3.31,3.31,0,0,1,2.1,1.15l22.17,23.06c1.36,1.41,2,3.57,1.47,4.81l-5.28,12a1.34,1.34,0,0,1-.63.69,1.32,1.32,0,0,0,1.35-.84l5.28-12C405.24,597.58,404.58,595.42,403.22,594Z"/><path class="cls-38" d="M379.36,569.87h0l7.5,24.64,17.69,1.58s0-.05,0-.07l-16.92-3.2Z"/><g class="cls-39"><path class="cls-40" d="M391.84,595l5.88,16.42h.06l-5-16.35Z"/><path class="cls-40" d="M384.3,586.21l-11.74-1.05,0,.07,12.11,2.29Z"/></g><path class="cls-41" d="M380.39,575.11a2.27,2.27,0,0,1-1.5-1.66c-.22-.82.09-1.41.69-1.31a2.26,2.26,0,0,1,1.5,1.65C381.3,574.61,381,575.2,380.39,575.11Z"/><path class="cls-42" d="M380.19,574.27a.52.52,0,0,1-.41-.22l-22.93-33.88.82-.55,22.52,33.27,22.51-33.27.82.55L380.6,574.05A.53.53,0,0,1,380.19,574.27Z"/><path class="cls-42" d="M380.19,574.27a.51.51,0,0,1-.47-.34l-11.18-33.88.94-.31,10.71,32.46,10.71-32.46.94.31-11.18,33.88A.51.51,0,0,1,380.19,574.27Z"/><path class="cls-55" d="M409.7,529.71a22.87,22.87,0,0,0-.31-3.72,37.08,37.08,0,0,0-.71-4.16,30.38,30.38,0,0,0-5.27-10.78c-8.7-9.78-23.32-6.87-23.32-6.87s-14.62-2.91-23.31,6.86a30.6,30.6,0,0,0-5.29,10.8,37,37,0,0,0-.7,4.15,23,23,0,0,0-.31,3.72c0,3.38.73,7,5.47,9.07,5.36,4,14.18,6.59,24.14,6.59s18.77-2.6,24.14-6.59C408.74,537,409.7,533.12,409.7,529.71Z"/><path class="cls-55" d="M370.68,544.56c4,3.54,14.74,3.71,18.82,0-.13-22.39-4.29-40.38-9.41-40.38S370.81,522.17,370.68,544.56Z"/><path class="cls-56" d="M385.51,499.93a29.06,29.06,0,0,0-10.84,0,35.79,35.79,0,0,1,5.42,4.25A35.79,35.79,0,0,1,385.51,499.93Z"/><path class="cls-57" d="M380.09,504.18c-13.1,0-23.75,15.4-24.13,34.61,0,5.56,10.74,7.77,14.72,5.77C370.81,522.17,375,504.18,380.09,504.18Z"/><path class="cls-57" d="M380.09,504.18c5.12,0,9.28,18,9.41,40.38,3.41,2,14.3-.21,14.72-5.77C403.84,519.58,393.19,504.18,380.09,504.18Z"/><path class="cls-58" d="M356.78,511c8.69-9.77,23.31-6.86,23.31-6.86a35.79,35.79,0,0,0-5.42-4.25A29.49,29.49,0,0,0,356.78,511Z"/><path class="cls-59" d="M403.41,511.05a29.52,29.52,0,0,0-17.9-11.12,35.79,35.79,0,0,0-5.42,4.25S394.71,501.27,403.41,511.05Z"/><path class="cls-60" d="M401,514.61c0,7.82-9.26,14.17-20.68,14.17s-20.68-6.35-20.68-14.17,9.26-14.17,20.68-14.17S401,506.78,401,514.61Z"/><path class="cls-61" d="M412.68,599c0,2.34-.81,4-2.12,4.8l-2.28,1.41c-1.37.76-.5-1-2.57-2.17a16.66,16.66,0,0,1-7.56-13c0-2.37-2.19-2.39-.84-3.18l2.54-1.45c1.36-.74,3.22-.6,5.27.58A16.65,16.65,0,0,1,412.68,599Z"/><path class="cls-62" d="M410.21,600.43c0,4.79-3.39,6.72-7.56,4.31a16.66,16.66,0,0,1-7.56-13c0-4.79,3.39-6.72,7.56-4.31A16.66,16.66,0,0,1,410.21,600.43Z"/><path class="cls-63" d="M403,587.22c-2-1.16-3.82-1.31-5.17-.64a6,6,0,0,1,4.52.89,16.67,16.67,0,0,1,7.56,13c0,2.49-.92,4.2-2.39,4.94,1.84-.52,3-2.35,3-5.2A16.63,16.63,0,0,0,403,587.22Z"/><path class="cls-34" d="M402.32,600.86a.6.6,0,0,1-.08-.28V593.5l-1.81.55a.21.21,0,0,1-.18,0,.6.6,0,0,1-.22-.27l-.52-1.07a.52.52,0,0,1-.06-.22.18.18,0,0,1,.13-.2l2.68-.84a.44.44,0,0,1,.3.07l1.08.62a.62.62,0,0,1,.2.22.52.52,0,0,1,.08.28v8.94c0,.09,0,.16-.08.19a.21.21,0,0,1-.2,0l-1.11-.65A.53.53,0,0,1,402.32,600.86Z"/><path class="cls-64" d="M276.63,533.62l-22.17-23.06c-1.36-1.41-2.91-1.55-3.46-.31l-5.28,12c-.55,1.25.11,3.4,1.47,4.82l22.17,23.06c1.36,1.41,2.91,1.55,3.46.31l5.28-12C278.65,537.19,278,535,276.63,533.62Z"/><path class="cls-65" d="M276,533.84l-22.17-23.06c-1.36-1.42-2.91-1.56-3.46-.31l-5.28,12c-.54,1.24.11,3.4,1.47,4.81l22.18,23.07c1.36,1.41,2.91,1.55,3.45.3l5.28-12C278,537.41,277.34,535.25,276,533.84Z"/><path class="cls-66" d="M276,533.84l-22.17-23.06c-1-1-2.09-1.38-2.82-1a3.31,3.31,0,0,1,2.1,1.15L275.26,534c1.36,1.42,2,3.57,1.47,4.82l-5.27,12a1.36,1.36,0,0,1-.64.69,1.32,1.32,0,0,0,1.35-.84l5.28-12C278,537.41,277.34,535.25,276,533.84Z"/><path class="cls-38" d="M252.12,509.7h-.05l7.53,24.64,17.68,1.58a.19.19,0,0,0,0-.07l-16.92-3.2Z"/><g class="cls-39"><path class="cls-40" d="M264.6,534.78l5.89,16.42h.05l-5-16.35Z"/><path class="cls-40" d="M257.06,526l-11.73-1a.14.14,0,0,0,0,.07l12.12,2.29Z"/></g><path class="cls-41" d="M253.15,514.94a2.25,2.25,0,0,1-1.5-1.66c-.22-.82.09-1.41.69-1.31a2.25,2.25,0,0,1,1.5,1.66C254.06,514.45,253.75,515,253.15,514.94Z"/><path class="cls-42" d="M253,514.1a.49.49,0,0,1-.41-.22L229.62,480l.81-.55L253,512.73l22.52-33.28.81.55-22.92,33.88A.49.49,0,0,1,253,514.1Z"/><path class="cls-42" d="M253,514.1a.51.51,0,0,1-.47-.34L241.3,479.88l.94-.3L253,512l10.71-32.45.94.3-11.18,33.88A.51.51,0,0,1,253,514.1Z"/><path class="cls-67" d="M282.47,469.55a23,23,0,0,0-.32-3.73,37.14,37.14,0,0,0-.7-4.16,30.57,30.57,0,0,0-5.28-10.78c-8.69-9.77-23.32-6.86-23.32-6.86s-14.62-2.91-23.31,6.86a30.47,30.47,0,0,0-5.29,10.79,39.82,39.82,0,0,0-.7,4.15,23,23,0,0,0-.31,3.73c0,3.38.73,7,5.47,9.06,5.37,4,14.18,6.59,24.14,6.59s18.78-2.6,24.14-6.59C281.5,476.86,282.47,473,282.47,469.55Z"/><path class="cls-68" d="M243.44,484.39c4,3.54,14.74,3.71,18.82,0C262.13,462,258,444,252.85,444S243.57,462,243.44,484.39Z"/><path class="cls-69" d="M258.28,439.77a28.56,28.56,0,0,0-10.85,0,35.07,35.07,0,0,1,5.42,4.25A34.87,34.87,0,0,1,258.28,439.77Z"/><path class="cls-70" d="M252.85,444c-13.09,0-23.75,15.4-24.13,34.6,0,5.56,10.74,7.78,14.72,5.77C243.57,462,247.73,444,252.85,444Z"/><path class="cls-71" d="M252.85,444c5.12,0,9.28,18,9.41,40.37,3.41,2,14.3-.21,14.72-5.77C276.6,459.42,266,444,252.85,444Z"/><path class="cls-72" d="M229.54,450.88c8.69-9.77,23.31-6.86,23.31-6.86a35.07,35.07,0,0,0-5.42-4.25A29.49,29.49,0,0,0,229.54,450.88Z"/><path class="cls-73" d="M276.17,450.88a29.49,29.49,0,0,0-17.89-11.11,34.87,34.87,0,0,0-5.43,4.25S267.48,441.11,276.17,450.88Z"/><path class="cls-74" d="M273.76,454.44c0,7.83-9.26,14.17-20.68,14.17s-20.68-6.34-20.68-14.17,9.26-14.17,20.68-14.17S273.76,446.62,273.76,454.44Z"/><path class="cls-75" d="M285.44,538.79c0,2.34-.81,4-2.12,4.8L281,545c-1.37.77-.49-1-2.57-2.16a16.66,16.66,0,0,1-7.55-13c0-2.37-2.19-2.39-.85-3.18l2.54-1.45c1.36-.73,3.22-.6,5.27.59A16.63,16.63,0,0,1,285.44,538.79Z"/><ellipse class="cls-76" cx="275.41" cy="535.9" rx="6.15" ry="10.65" transform="translate(-232.82 212.26) rotate(-30.31)"/><path class="cls-77" d="M275.77,527.05c-2-1.16-3.81-1.31-5.17-.64a6,6,0,0,1,4.52.89,16.67,16.67,0,0,1,7.56,13c0,2.49-.92,4.21-2.39,4.94,1.85-.51,3-2.35,3-5.2A16.63,16.63,0,0,0,275.77,527.05Z"/><path class="cls-34" d="M272.54,538.91a.6.6,0,0,1-.08-.28v-.71a.44.44,0,0,1,.3-.48l1.86-1.05a11.19,11.19,0,0,0,1.31-.49,1.94,1.94,0,0,0,.69-.51,1,1,0,0,0,.23-.67,2.42,2.42,0,0,0-.3-1.19,2.38,2.38,0,0,0-.91-.9c-.4-.23-.71-.27-.94-.13a1,1,0,0,0-.42.8c0,.1-.07.15-.14.16a.37.37,0,0,1-.22-.05l-1.08-.62a.54.54,0,0,1-.25-.44,2.29,2.29,0,0,1,.39-1.29,1.3,1.3,0,0,1,1-.53,3,3,0,0,1,1.6.49,6.24,6.24,0,0,1,1.62,1.32,5.55,5.55,0,0,1,1,1.61,4.66,4.66,0,0,1,.33,1.69,2,2,0,0,1-.45,1.41,3.05,3.05,0,0,1-1.39.79l-1.66,1,3.38,1.95a.58.58,0,0,1,.22.22.64.64,0,0,1,.08.3v1c0,.1,0,.17-.08.19a.23.23,0,0,1-.22,0l-5.72-3.31A.53.53,0,0,1,272.54,538.91Z"/><rect class="cls-78" width="800" height="800"/></g></g></svg>