<svg xmlns="http://www.w3.org/2000/svg" xmlns:xlink="http://www.w3.org/1999/xlink" viewBox="0 0 601.64 546.69"><defs><style>.cls-1{isolation:isolate;}.cls-2,.cls-25,.cls-3,.cls-4,.cls-5{opacity:0.3;}.cls-3{fill:url(#linear-gradient);}.cls-4{fill:url(#linear-gradient-2);}.cls-5{fill:url(#linear-gradient-3);}.cls-10,.cls-6,.cls-60,.cls-7,.cls-8,.cls-9{opacity:0.2;}.cls-6{fill:url(#linear-gradient-4);}.cls-7{fill:url(#linear-gradient-5);}.cls-8{fill:url(#linear-gradient-6);}.cls-9{fill:url(#linear-gradient-7);}.cls-10{fill:url(#linear-gradient-8);}.cls-11,.cls-12,.cls-13,.cls-44,.cls-49,.cls-50,.cls-66,.cls-67,.cls-79,.cls-80,.cls-81,.cls-90,.cls-91,.cls-92,.cls-93,.cls-98,.cls-99{mix-blend-mode:color-dodge;}.cls-11{fill:url(#Gradiente_sem_nome_20);}.cls-12,.cls-13{opacity:0.5;}.cls-12{fill:url(#Gradiente_sem_nome_5);}.cls-13{fill:url(#Gradiente_sem_nome_3);}.cls-14,.cls-15,.cls-16,.cls-17,.cls-18,.cls-19,.cls-20,.cls-21,.cls-22,.cls-23,.cls-24,.cls-25{fill:#231f20;}.cls-14{opacity:0.07;}.cls-15{opacity:0.09;}.cls-16{opacity:0.11;}.cls-17{opacity:0.13;}.cls-18{opacity:0.16;}.cls-19{opacity:0.18;}.cls-20{opacity:0.2;}.cls-21{opacity:0.22;}.cls-22{opacity:0.24;}.cls-23{opacity:0.26;}.cls-24{opacity:0.28;}.cls-26{fill:url(#linear-gradient-9);}.cls-27{fill:url(#linear-gradient-10);}.cls-28{fill:url(#linear-gradient-11);}.cls-29{fill:url(#linear-gradient-12);}.cls-30{fill:url(#linear-gradient-13);}.cls-31{fill:url(#linear-gradient-14);}.cls-32{fill:url(#linear-gradient-15);}.cls-33{fill:url(#linear-gradient-16);}.cls-34{fill:url(#linear-gradient-17);}.cls-35{fill:url(#linear-gradient-18);}.cls-36{fill:url(#linear-gradient-19);}.cls-37{fill:url(#linear-gradient-20);}.cls-38{fill:url(#linear-gradient-21);}.cls-39{fill:url(#linear-gradient-22);}.cls-40{fill:url(#linear-gradient-23);}.cls-41{fill:url(#linear-gradient-24);}.cls-42{fill:url(#linear-gradient-25);}.cls-43{fill:url(#linear-gradient-26);}.cls-45{fill:url(#radial-gradient);}.cls-46{fill:url(#radial-gradient-2);}.cls-47{fill:url(#radial-gradient-3);}.cls-48{fill:url(#radial-gradient-4);}.cls-49{fill:url(#radial-gradient-5);}.cls-50{fill:url(#radial-gradient-6);}.cls-51{fill:url(#linear-gradient-27);}.cls-52{fill:url(#linear-gradient-28);}.cls-53{fill:url(#linear-gradient-29);}.cls-54{fill:url(#linear-gradient-30);}.cls-55{fill:url(#linear-gradient-31);}.cls-56{fill:url(#linear-gradient-32);}.cls-57{fill:url(#linear-gradient-33);}.cls-58{fill:url(#linear-gradient-34);}.cls-59{fill:url(#linear-gradient-35);}.cls-61{fill:url(#linear-gradient-36);}.cls-62{fill:url(#linear-gradient-37);}.cls-63{fill:url(#radial-gradient-7);}.cls-64{fill:url(#radial-gradient-8);}.cls-65{fill:url(#radial-gradient-9);}.cls-66{fill:url(#radial-gradient-10);}.cls-67{fill:url(#radial-gradient-11);}.cls-68{fill:url(#linear-gradient-38);}.cls-69{fill:url(#linear-gradient-39);}.cls-70{fill:url(#linear-gradient-40);}.cls-71{fill:url(#linear-gradient-41);}.cls-72{fill:url(#linear-gradient-42);}.cls-73{fill:url(#linear-gradient-43);}.cls-74{fill:url(#linear-gradient-44);}.cls-75{fill:url(#linear-gradient-45);}.cls-76{fill:url(#linear-gradient-46);}.cls-77{fill:url(#radial-gradient-12);}.cls-78{fill:url(#radial-gradient-13);}.cls-79{fill:url(#radial-gradient-14);}.cls-80{fill:url(#radial-gradient-15);}.cls-81{fill:url(#radial-gradient-16);}.cls-82{fill:url(#linear-gradient-47);}.cls-83{fill:url(#linear-gradient-48);}.cls-84{fill:url(#linear-gradient-49);}.cls-85{fill:url(#linear-gradient-50);}.cls-86{fill:url(#radial-gradient-17);}.cls-87{fill:url(#radial-gradient-18);}.cls-88{fill:url(#radial-gradient-19);}.cls-89{fill:url(#radial-gradient-20);}.cls-90{fill:url(#radial-gradient-21);}.cls-91{fill:url(#radial-gradient-22);}.cls-92{fill:url(#radial-gradient-23);}.cls-93{fill:url(#Gradiente_sem_nome_7);}.cls-100,.cls-101,.cls-102,.cls-103,.cls-104,.cls-105,.cls-106,.cls-107,.cls-108,.cls-109,.cls-110,.cls-111,.cls-112,.cls-113,.cls-114,.cls-115,.cls-116,.cls-117,.cls-118,.cls-94,.cls-95,.cls-96,.cls-97{mix-blend-mode:screen;}.cls-94{fill:url(#Gradiente_sem_nome_10);}.cls-96{fill:url(#Gradiente_sem_nome_25);}.cls-97{fill:url(#Gradiente_sem_nome_25-2);}.cls-98{fill:url(#Gradiente_sem_nome_8);}.cls-99{fill:url(#Gradiente_sem_nome_6);}.cls-100{fill:url(#Gradiente_sem_nome_13);}.cls-101{fill:url(#Gradiente_sem_nome_9);}.cls-102{fill:url(#Gradiente_sem_nome_24);}.cls-103{fill:url(#Gradiente_sem_nome_24-2);}.cls-104{fill:url(#Gradiente_sem_nome_24-3);}.cls-105{fill:url(#Gradiente_sem_nome_23);}.cls-106{fill:url(#Gradiente_sem_nome_23-2);}.cls-107{fill:url(#Gradiente_sem_nome_26);}.cls-108{fill:url(#Gradiente_sem_nome_27);}.cls-109{fill:url(#Gradiente_sem_nome_27-2);}.cls-110{fill:url(#Gradiente_sem_nome_27-3);}.cls-111{fill:url(#Gradiente_sem_nome_27-4);}.cls-112{fill:url(#Gradiente_sem_nome_27-5);}.cls-113{fill:url(#Gradiente_sem_nome_27-6);}.cls-114{fill:url(#Gradiente_sem_nome_22);}.cls-115{fill:url(#Gradiente_sem_nome_22-2);}.cls-116{fill:url(#Gradiente_sem_nome_21);}.cls-117{fill:url(#Gradiente_sem_nome_21-2);}.cls-118{fill:url(#Gradiente_sem_nome_21-3);}</style><linearGradient id="linear-gradient" x1="221.59" y1="410.19" x2="317.26" y2="410.19" gradientUnits="userSpaceOnUse"><stop offset="0" stop-color="#1bb0d4"/><stop offset="0.11" stop-color="#1ebfdd"/><stop offset="0.24" stop-color="#23d8ec"/><stop offset="0.37" stop-color="#1ec0dd"/><stop offset="0.44" stop-color="#1bb0d4"/><stop offset="0.5" stop-color="#1bb0d4"/><stop offset="0.51" stop-color="#1bb0d4"/><stop offset="0.55" stop-color="#20c6e2"/><stop offset="0.56" stop-color="#1bafd4"/><stop offset="0.58" stop-color="#179bc7"/><stop offset="0.61" stop-color="#148fc0"/><stop offset="0.63" stop-color="#138bbd"/></linearGradient><linearGradient id="linear-gradient-2" x1="5.24" y1="463.21" x2="306.37" y2="395.71" gradientUnits="userSpaceOnUse"><stop offset="0.04" stop-color="#138bbd"/><stop offset="0.23" stop-color="#169ac7"/><stop offset="0.59" stop-color="#1fc3df"/><stop offset="1" stop-color="#2af6ff"/></linearGradient><linearGradient id="linear-gradient-3" x1="230.24" y1="455.84" x2="242.52" y2="474.31" xlink:href="#linear-gradient-2"/><linearGradient id="linear-gradient-4" x1="503.41" y1="438.91" x2="733.91" y2="369.89" gradientUnits="userSpaceOnUse"><stop offset="0.04" stop-color="#9f19ab"/><stop offset="0.24" stop-color="#ae25b1"/><stop offset="0.65" stop-color="#d744bf"/><stop offset="1" stop-color="#ff63ce"/></linearGradient><linearGradient id="linear-gradient-5" x1="427.44" y1="456.44" x2="504.23" y2="439.23" xlink:href="#linear-gradient-4"/><linearGradient id="linear-gradient-6" x1="445.55" y1="444.18" x2="387.37" y2="444.18" gradientUnits="userSpaceOnUse"><stop offset="0" stop-color="#9f19ab"/><stop offset="0.17" stop-color="#ae25b1"/><stop offset="0.49" stop-color="#d744bf"/><stop offset="0.77" stop-color="#ff63ce"/><stop offset="0.92" stop-color="#dc48c1"/></linearGradient><linearGradient id="linear-gradient-7" x1="244.96" y1="510.18" x2="462.79" y2="510.18" gradientUnits="userSpaceOnUse"><stop offset="0.07" stop-color="#fcce9e"/><stop offset="0.52" stop-color="#fac099"/><stop offset="0.59" stop-color="#ffe1a6"/><stop offset="0.59" stop-color="#ffe4a7"/><stop offset="0.61" stop-color="#fdd4a1"/><stop offset="0.64" stop-color="#fabd98"/><stop offset="0.67" stop-color="#f8af92"/><stop offset="0.7" stop-color="#f7aa90"/><stop offset="1" stop-color="#f9b695"/></linearGradient><linearGradient id="linear-gradient-8" x1="224.58" y1="477.6" x2="282.82" y2="464.54" gradientUnits="userSpaceOnUse"><stop offset="0.04" stop-color="#ffa98c"/><stop offset="0.32" stop-color="#ffb892"/><stop offset="0.86" stop-color="#fee1a3"/><stop offset="1" stop-color="#feeca8"/></linearGradient><radialGradient id="Gradiente_sem_nome_20" cx="-4152.94" cy="37807.46" r="25.28" gradientTransform="matrix(-0.01, 0.62, -0.18, 0, 7135.42, 3199.6)" gradientUnits="userSpaceOnUse"><stop offset="0" stop-color="#972a74"/><stop offset="0.04" stop-color="#8a266a" stop-opacity="0.92"/><stop offset="0.19" stop-color="#601b4a" stop-opacity="0.64"/><stop offset="0.35" stop-color="#3d112f" stop-opacity="0.41"/><stop offset="0.51" stop-color="#230a1b" stop-opacity="0.23"/><stop offset="0.67" stop-color="#0f040c" stop-opacity="0.1"/><stop offset="0.83" stop-color="#040103" stop-opacity="0.03"/><stop offset="1" stop-opacity="0"/></radialGradient><radialGradient id="Gradiente_sem_nome_5" cx="530.04" cy="-2844.88" r="294.69" gradientTransform="translate(-235.43 1921.73) scale(1 0.61)" gradientUnits="userSpaceOnUse"><stop offset="0" stop-color="#fa45c1"/><stop offset="0.21" stop-color="#cb389d" stop-opacity="0.81"/><stop offset="0.67" stop-color="#571843" stop-opacity="0.35"/><stop offset="1" stop-opacity="0"/></radialGradient><radialGradient id="Gradiente_sem_nome_3" cx="541.65" cy="-2541.11" r="294.69" xlink:href="#Gradiente_sem_nome_5"/><linearGradient id="linear-gradient-9" x1="462.5" y1="-5.87" x2="323.6" y2="258.85" gradientUnits="userSpaceOnUse"><stop offset="0.04" stop-color="#6b24d6"/><stop offset="0.29" stop-color="#7733dc"/><stop offset="0.79" stop-color="#975ced"/><stop offset="1" stop-color="#a56ef4"/></linearGradient><linearGradient id="linear-gradient-10" x1="366.75" y1="259.85" x2="601.19" y2="133.03" xlink:href="#linear-gradient-9"/><linearGradient id="linear-gradient-11" x1="351.71" y1="285.88" x2="449.59" y2="406.36" xlink:href="#linear-gradient-9"/><linearGradient id="linear-gradient-12" x1="378.44" y1="281.47" x2="612.88" y2="154.65" xlink:href="#linear-gradient-9"/><linearGradient id="linear-gradient-13" x1="387.44" y1="287.24" x2="387.48" y2="287.28" xlink:href="#linear-gradient-9"/><linearGradient id="linear-gradient-14" x1="388.47" y1="286.87" x2="388.5" y2="286.9" xlink:href="#linear-gradient-9"/><linearGradient id="linear-gradient-15" x1="87.3" y1="321.44" x2="501.18" y2="228.66" xlink:href="#linear-gradient-9"/><linearGradient id="linear-gradient-16" x1="390.48" y1="274.75" x2="441.01" y2="274.75" gradientUnits="userSpaceOnUse"><stop offset="0" stop-color="#6b24d6"/><stop offset="0.07" stop-color="#712dd9"/><stop offset="0.16" stop-color="#7734dc"/><stop offset="0.32" stop-color="#8c4fe7"/><stop offset="0.48" stop-color="#a56ef4"/><stop offset="0.87" stop-color="#6b24d6"/></linearGradient><linearGradient id="linear-gradient-17" x1="386.92" y1="253.47" x2="386.97" y2="253.53" xlink:href="#linear-gradient-9"/><linearGradient id="linear-gradient-18" x1="388.01" y1="252.97" x2="388.17" y2="253.17" xlink:href="#linear-gradient-9"/><linearGradient id="linear-gradient-19" x1="271.73" y1="252.85" x2="272.24" y2="252.73" xlink:href="#linear-gradient-9"/><linearGradient id="linear-gradient-20" x1="145.52" y1="205.52" x2="276.16" y2="176.24" xlink:href="#linear-gradient-9"/><linearGradient id="linear-gradient-21" x1="272.81" y1="252.85" x2="273.01" y2="252.81" xlink:href="#linear-gradient-9"/><linearGradient id="linear-gradient-22" x1="263.26" y1="287.61" x2="276.32" y2="284.68" xlink:href="#linear-gradient-9"/><linearGradient id="linear-gradient-23" x1="271.25" y1="287.2" x2="273.75" y2="286.63" xlink:href="#linear-gradient-9"/><linearGradient id="linear-gradient-24" x1="274.5" y1="286.61" x2="274.73" y2="286.56" xlink:href="#linear-gradient-9"/><linearGradient id="linear-gradient-25" x1="306.83" y1="297.91" x2="307.14" y2="297.84" xlink:href="#linear-gradient-9"/><linearGradient id="linear-gradient-26" x1="277.68" y1="260.29" x2="323.59" y2="260.29" gradientUnits="userSpaceOnUse"><stop offset="0" stop-color="#7c3adf"/><stop offset="0.04" stop-color="#7733dc"/><stop offset="0.14" stop-color="#6e28d8"/><stop offset="0.25" stop-color="#6b24d6"/><stop offset="0.56" stop-color="#9a60ee"/><stop offset="0.97" stop-color="#7734dc"/></linearGradient><radialGradient id="radial-gradient" cx="429.5" cy="220.03" r="14.69" gradientUnits="userSpaceOnUse"><stop offset="0" stop-color="#fff"/><stop offset="0.07" stop-color="#d8d8d8"/><stop offset="0.16" stop-color="#a6a6a6"/><stop offset="0.26" stop-color="#797979"/><stop offset="0.37" stop-color="#545454"/><stop offset="0.47" stop-color="#353535"/><stop offset="0.59" stop-color="#1e1e1e"/><stop offset="0.7" stop-color="#0d0d0d"/><stop offset="0.84" stop-color="#030303"/><stop offset="1"/></radialGradient><radialGradient id="radial-gradient-2" cx="416.42" cy="275.05" r="36.09" xlink:href="#radial-gradient"/><radialGradient id="radial-gradient-3" cx="249.03" cy="244.24" r="20.22" xlink:href="#radial-gradient"/><radialGradient id="radial-gradient-4" cx="300.46" cy="240.49" r="18.42" xlink:href="#radial-gradient"/><radialGradient id="radial-gradient-5" cx="-1150.07" cy="32968.17" r="23.76" gradientTransform="matrix(-0.01, 0.91, -0.22, 0, 7751.8, 1398.36)" gradientUnits="userSpaceOnUse"><stop offset="0" stop-color="#4916a1"/><stop offset="0.07" stop-color="#3f138a"/><stop offset="0.22" stop-color="#2c0d60"/><stop offset="0.37" stop-color="#1c083e"/><stop offset="0.52" stop-color="#100523"/><stop offset="0.68" stop-color="#07020f"/><stop offset="0.83" stop-color="#020104"/><stop offset="1"/></radialGradient><radialGradient id="radial-gradient-6" cx="-1185.27" cy="33481.52" r="23.76" xlink:href="#radial-gradient-5"/><linearGradient id="linear-gradient-27" x1="350" y1="40.13" x2="194.82" y2="335.89" xlink:href="#linear-gradient-2"/><linearGradient id="linear-gradient-28" x1="282.99" y1="292.3" x2="336.72" y2="276.21" xlink:href="#linear-gradient-2"/><linearGradient id="linear-gradient-29" x1="99.26" y1="311.09" x2="99.27" y2="311.1" xlink:href="#linear-gradient-2"/><linearGradient id="linear-gradient-30" x1="221.59" y1="340.47" x2="317.26" y2="340.47" xlink:href="#linear-gradient"/><linearGradient id="linear-gradient-31" x1="0.06" y1="394.65" x2="311.78" y2="324.77" xlink:href="#linear-gradient-2"/><linearGradient id="linear-gradient-32" x1="242.13" y1="343.77" x2="292.91" y2="420.15" xlink:href="#linear-gradient-2"/><linearGradient id="linear-gradient-33" x1="260.52" y1="371.44" x2="281.15" y2="402.45" xlink:href="#linear-gradient-2"/><linearGradient id="linear-gradient-34" x1="214.37" y1="362.25" x2="265.03" y2="438.43" xlink:href="#linear-gradient-2"/><linearGradient id="linear-gradient-35" x1="232.72" y1="389.85" x2="253.29" y2="420.78" xlink:href="#linear-gradient-2"/><linearGradient id="linear-gradient-36" x1="242.13" y1="428.66" x2="292.91" y2="505.03" xlink:href="#linear-gradient-2"/><linearGradient id="linear-gradient-37" x1="260.52" y1="456.32" x2="281.15" y2="487.33" xlink:href="#linear-gradient-2"/><radialGradient id="radial-gradient-7" cx="152.6" cy="338.8" r="78.44" xlink:href="#radial-gradient"/><radialGradient id="radial-gradient-8" cx="287.75" cy="278.25" r="10.87" xlink:href="#radial-gradient"/><radialGradient id="radial-gradient-9" cx="249.96" cy="317.35" r="34.88" xlink:href="#radial-gradient"/><radialGradient id="radial-gradient-10" cx="-1029.23" cy="38536.56" r="23.76" gradientTransform="matrix(-0.01, 0.92, -0.18, 0, 7155.83, 1354.13)" gradientUnits="userSpaceOnUse"><stop offset="0" stop-color="#972a74"/><stop offset="0.04" stop-color="#8a266a"/><stop offset="0.19" stop-color="#601b4a"/><stop offset="0.35" stop-color="#3d112f"/><stop offset="0.51" stop-color="#230a1b"/><stop offset="0.67" stop-color="#0f040c"/><stop offset="0.83" stop-color="#040103"/><stop offset="1"/></radialGradient><radialGradient id="radial-gradient-11" cx="-529.59" cy="2365.46" r="25.85" gradientTransform="matrix(0.52, 0, 0, 1.04, 523.27, -2130.16)" xlink:href="#radial-gradient-10"/><linearGradient id="linear-gradient-38" x1="373.07" y1="307.83" x2="590.44" y2="307.83" xlink:href="#linear-gradient-4"/><linearGradient id="linear-gradient-39" x1="611.53" y1="61" x2="456.35" y2="356.75" xlink:href="#linear-gradient-4"/><linearGradient id="linear-gradient-40" x1="485.15" y1="283.43" x2="433.94" y2="283.43" gradientUnits="userSpaceOnUse"><stop offset="0" stop-color="#9f19ab"/><stop offset="0.14" stop-color="#ae25b1"/><stop offset="0.4" stop-color="#d744bf"/><stop offset="0.63" stop-color="#ff63ce"/><stop offset="0.87" stop-color="#dc48c1"/></linearGradient><linearGradient id="linear-gradient-41" x1="524.13" y1="329.23" x2="564.05" y2="412.09" xlink:href="#linear-gradient-4"/><linearGradient id="linear-gradient-42" x1="502.23" y1="367.52" x2="740.72" y2="296.1" xlink:href="#linear-gradient-4"/><linearGradient id="linear-gradient-43" x1="324.66" y1="341.88" x2="461.74" y2="311.15" xlink:href="#linear-gradient-4"/><linearGradient id="linear-gradient-44" x1="424.78" y1="385.29" x2="507.5" y2="366.75" xlink:href="#linear-gradient-4"/><linearGradient id="linear-gradient-45" x1="420.25" y1="379.27" x2="460.17" y2="462.13" xlink:href="#linear-gradient-4"/><linearGradient id="linear-gradient-46" x1="445.55" y1="372.43" x2="387.37" y2="372.43" xlink:href="#linear-gradient-6"/><radialGradient id="radial-gradient-12" cx="402.12" cy="319.75" r="23.52" xlink:href="#radial-gradient"/><radialGradient id="radial-gradient-13" cx="462.97" cy="271.05" r="16.92" xlink:href="#radial-gradient"/><radialGradient id="radial-gradient-14" cx="-341.3" cy="32018.01" r="23.76" gradientTransform="matrix(-0.01, 1.03, -0.24, 0, 7926.94, 800.96)" gradientUnits="userSpaceOnUse"><stop offset="0" stop-color="#ad3185"/><stop offset="0.1" stop-color="#8a276a"/><stop offset="0.24" stop-color="#601b4a"/><stop offset="0.39" stop-color="#3e112f"/><stop offset="0.54" stop-color="#230a1b"/><stop offset="0.69" stop-color="#0f040c"/><stop offset="0.84" stop-color="#040103"/><stop offset="1"/></radialGradient><radialGradient id="radial-gradient-15" cx="405.52" cy="371.57" r="54.68" xlink:href="#radial-gradient"/><radialGradient id="radial-gradient-16" cx="553.96" cy="344.39" r="58.36" xlink:href="#radial-gradient"/><linearGradient id="linear-gradient-47" x1="461.05" y1="171.39" x2="327.63" y2="425.66" xlink:href="#linear-gradient-8"/><linearGradient id="linear-gradient-48" x1="244.96" y1="440.2" x2="462.79" y2="440.2" xlink:href="#linear-gradient-7"/><linearGradient id="linear-gradient-49" x1="204.74" y1="396.91" x2="317.14" y2="371.71" xlink:href="#linear-gradient-8"/><linearGradient id="linear-gradient-50" x1="380.88" y1="371.14" x2="316.71" y2="371.14" gradientUnits="userSpaceOnUse"><stop offset="0.04" stop-color="#f7aa90"/><stop offset="0.23" stop-color="#f9b996"/><stop offset="0.61" stop-color="#ffe2a6"/><stop offset="0.63" stop-color="#ffe4a7"/><stop offset="0.87" stop-color="#f7aa90"/></linearGradient><radialGradient id="radial-gradient-17" cx="410.13" cy="371.38" r="0.16" xlink:href="#radial-gradient"/><radialGradient id="radial-gradient-18" cx="370.58" cy="363.71" r="8.85" xlink:href="#radial-gradient"/><radialGradient id="radial-gradient-19" cx="259.03" cy="375.79" r="12.64" xlink:href="#radial-gradient"/><radialGradient id="radial-gradient-20" cx="320" cy="427.22" r="81.28" xlink:href="#radial-gradient"/><radialGradient id="radial-gradient-21" cx="606.71" cy="37815.48" r="19.38" gradientTransform="matrix(-0.01, 1.29, -0.18, 0, 7174.16, -235.97)" xlink:href="#radial-gradient-10"/><radialGradient id="radial-gradient-22" cx="-1012.16" cy="38484.16" r="19.38" gradientTransform="matrix(-0.01, 0.92, -0.18, 0, 7155.71, 1386.85)" xlink:href="#radial-gradient-10"/><radialGradient id="radial-gradient-23" cx="-410.05" cy="-1201.71" r="33.1" gradientTransform="matrix(0.48, -0.2, 0.25, 0.61, 872.45, 1118.56)" xlink:href="#radial-gradient-10"/><radialGradient id="Gradiente_sem_nome_7" cx="372.41" cy="498.25" r="81.69" gradientTransform="matrix(1, 0, 0, 1, 0, 0)" xlink:href="#Gradiente_sem_nome_5"/><radialGradient id="Gradiente_sem_nome_10" cx="373.1" cy="522.9" r="22.27" gradientTransform="translate(370.55 -119.46) rotate(35.28)" gradientUnits="userSpaceOnUse"><stop offset="0.09" stop-color="#c211a1"/><stop offset="0.09" stop-color="#b9109b"/><stop offset="0.13" stop-color="#5b0663"/><stop offset="0.15" stop-color="#510558" stop-opacity="0.89"/><stop offset="0.21" stop-color="#38043d" stop-opacity="0.61"/><stop offset="0.29" stop-color="#230226" stop-opacity="0.39"/><stop offset="0.37" stop-color="#130115" stop-opacity="0.21"/><stop offset="0.48" stop-color="#080109" stop-opacity="0.09"/><stop offset="0.62" stop-color="#020002" stop-opacity="0.02"/><stop offset="1" stop-opacity="0"/></radialGradient><radialGradient id="Gradiente_sem_nome_25" cx="483.56" cy="163.73" r="25.16" gradientUnits="userSpaceOnUse"><stop offset="0" stop-color="#dc3daa"/><stop offset="0.13" stop-color="#b7338d" stop-opacity="0.82"/><stop offset="0.36" stop-color="#7b225f" stop-opacity="0.53"/><stop offset="0.57" stop-color="#4c153b" stop-opacity="0.3"/><stop offset="0.76" stop-color="#2a0c21" stop-opacity="0.14"/><stop offset="0.91" stop-color="#160611" stop-opacity="0.04"/><stop offset="1" stop-color="#0e040b" stop-opacity="0"/></radialGradient><radialGradient id="Gradiente_sem_nome_25-2" cx="483.56" cy="163.73" r="8.18" xlink:href="#Gradiente_sem_nome_25"/><radialGradient id="Gradiente_sem_nome_8" cx="113.89" cy="326.69" r="67.03" gradientTransform="matrix(1, 0, 0, 1, 0, 0)" xlink:href="#Gradiente_sem_nome_5"/><radialGradient id="Gradiente_sem_nome_6" cx="553.77" cy="379.68" r="68.06" gradientTransform="translate(274.85 -229.63) rotate(30.37)" xlink:href="#Gradiente_sem_nome_5"/><radialGradient id="Gradiente_sem_nome_13" cx="554.99" cy="394.69" r="22.27" gradientTransform="translate(835.16 -226.04) rotate(78.87)" xlink:href="#Gradiente_sem_nome_10"/><radialGradient id="Gradiente_sem_nome_9" cx="146.62" cy="403.02" r="22.27" gradientTransform="translate(506.71 170.09) rotate(77.09)" xlink:href="#Gradiente_sem_nome_10"/><radialGradient id="Gradiente_sem_nome_24" cx="419.4" cy="108.2" r="18.58" xlink:href="#Gradiente_sem_nome_25"/><radialGradient id="Gradiente_sem_nome_24-2" cx="419.4" cy="130.88" r="4.63" xlink:href="#Gradiente_sem_nome_25"/><radialGradient id="Gradiente_sem_nome_24-3" cx="419.12" cy="113.28" r="9.04" xlink:href="#Gradiente_sem_nome_25"/><radialGradient id="Gradiente_sem_nome_23" cx="-354.85" cy="3162.76" r="17.13" gradientTransform="matrix(0.87, 0.5, 0, 1.15, 650.56, -3338.21)" xlink:href="#Gradiente_sem_nome_25"/><radialGradient id="Gradiente_sem_nome_23-2" cx="-349.27" cy="3157.68" r="6.24" gradientTransform="matrix(0.87, 0.5, 0, 1.15, 650.56, -3338.21)" xlink:href="#Gradiente_sem_nome_25"/><radialGradient id="Gradiente_sem_nome_26" cx="555.86" cy="232.9" r="20.28" xlink:href="#Gradiente_sem_nome_25"/><radialGradient id="Gradiente_sem_nome_27" cx="438.79" cy="280.18" r="87.49" xlink:href="#Gradiente_sem_nome_25"/><radialGradient id="Gradiente_sem_nome_27-2" cx="418.01" cy="194.87" r="54.06" xlink:href="#Gradiente_sem_nome_25"/><radialGradient id="Gradiente_sem_nome_27-3" cx="267.95" cy="217.98" r="70.04" xlink:href="#Gradiente_sem_nome_25"/><radialGradient id="Gradiente_sem_nome_27-4" cx="226.39" cy="304.13" r="94.71" xlink:href="#Gradiente_sem_nome_25"/><radialGradient id="Gradiente_sem_nome_27-5" cx="516.6" cy="251.81" r="27.82" xlink:href="#Gradiente_sem_nome_25"/><radialGradient id="Gradiente_sem_nome_27-6" cx="389.53" cy="162.97" r="30.89" xlink:href="#Gradiente_sem_nome_25"/><radialGradient id="Gradiente_sem_nome_22" cx="275.71" cy="104.61" r="25.31" xlink:href="#Gradiente_sem_nome_25"/><radialGradient id="Gradiente_sem_nome_22-2" cx="275.71" cy="105.28" r="13.33" xlink:href="#Gradiente_sem_nome_25"/><radialGradient id="Gradiente_sem_nome_21" cx="167" cy="198.33" r="9.16" xlink:href="#Gradiente_sem_nome_25"/><radialGradient id="Gradiente_sem_nome_21-2" cx="179.47" cy="183.6" r="14.25" xlink:href="#Gradiente_sem_nome_25"/><radialGradient id="Gradiente_sem_nome_21-3" cx="191.94" cy="168.87" r="19.47" xlink:href="#Gradiente_sem_nome_25"/></defs><title>icon-sobre-nascemos</title><g class="cls-1"><g id="Layer_1" data-name="Layer 1"><g class="cls-2"><path class="cls-3" d="M276.68,412c-2,1.17-5.54.45-5.82-1.2-.6-3.5-3.41-6.89-8.43-9.44-8.84-4.5-23.83-4.56-32.68-.13-11,5.51-11.4,15.17-1.22,21.05a35.1,35.1,0,0,0,15.32,4.17c1.73.1,2.85.89,3,1.76h0v0a.27.27,0,0,0,0,.09V416.88c5.7.11,11.34,1.23,15.57,3.38,5,2.55,7.83,5.95,8.43,9.45.28,1.65,3.79,2.36,5.82,1.2l38.25-22.09,1.68-.35V388.9Z" transform="translate(-35.28 -52.38)"/><path class="cls-4" d="M102.65,393.22c-2.22-1.28-3.35-3-3.39-4.62v18.22l0,0c-.31,1.91.8,3.89,3.35,5.36l103.24,59.61V452.82Z" transform="translate(-35.28 -52.38)"/><path class="cls-5" d="M245.88,429.74l-40,23.08v18.95l40-23.09a1.68,1.68,0,0,0,1-1.25h0v-.2a.21.21,0,0,1,0-.08V428.29A1.62,1.62,0,0,1,245.88,429.74Z" transform="translate(-35.28 -52.38)"/><path class="cls-6" d="M590.42,406.14h.08V387.18l-.08,0c.08,1.75-1,3.51-3.33,4.84l-102.6,59.24v19L587.09,411C589.4,409.66,590.5,407.89,590.42,406.14Z" transform="translate(-35.28 -52.38)"/><path class="cls-7" d="M443.84,427.81a6.77,6.77,0,0,0-4.54-.6v19a6.77,6.77,0,0,1,4.54.6l40.65,23.47v-19Z" transform="translate(-35.28 -52.38)"/><path class="cls-8" d="M436.44,429.38c-.35,3.22-2.64,6.36-6.88,8.81-9.44,5.45-24.9,5.33-34.2-.35-3.56-2.18-5.65-4.89-6.29-7.69l-.17.05v16.41c-.3,3.65,1.85,7.36,6.46,10.18,9.3,5.68,24.76,5.8,34.2.35,4.24-2.45,6.53-5.6,6.88-8.81.12-1.08,1.34-1.86,2.86-2.17v-19C437.78,427.52,436.56,428.3,436.44,429.38Z" transform="translate(-35.28 -52.38)"/><path class="cls-9" d="M381.77,534.05c-3.53,3-10.68,3.84-16,1.79l-121.1-47.06v19l121.1,47c5.3,2.06,12.45,1.26,16-1.78l80.75-69.63V464.43Z" transform="translate(-35.28 -52.38)"/><path class="cls-10" d="M256,470.37c-6.33-2.45-10-6.35-10.53-10.41v16.93c-.34,2.86.88,5.73,3.5,8.2l13.68-9C264.71,474.27,261,472.32,256,470.37Z" transform="translate(-35.28 -52.38)"/><path class="cls-11" d="M374.09,557.4c-2.5,0-4.46-7.09-4.36-15.77s2.21-15.69,4.72-15.66,4.46,7.09,4.36,15.77S376.6,557.43,374.09,557.4Z" transform="translate(-35.28 -52.38)"/></g><ellipse class="cls-12" cx="294.82" cy="180.38" rx="294.82" ry="180.38"/><ellipse class="cls-13" cx="306.44" cy="366.31" rx="294.82" ry="180.38"/><polygon class="cls-14" points="11.62 346.63 335.08 498.19 583.62 320.54 308.59 164.72 11.62 346.63"/><polygon class="cls-15" points="18.84 343.97 334.43 493.7 578.7 319.11 308.39 165.96 18.84 343.97"/><polygon class="cls-16" points="26.06 341.31 333.78 489.21 573.77 317.67 308.2 167.21 26.06 341.31"/><polygon class="cls-17" points="33.28 338.65 333.13 484.71 568.84 316.24 308 168.46 33.28 338.65"/><polygon class="cls-18" points="40.5 336 332.47 480.22 563.91 314.81 307.81 169.7 40.5 336"/><polygon class="cls-19" points="47.72 333.34 331.82 475.73 558.99 313.37 307.61 170.95 47.72 333.34"/><polygon class="cls-20" points="54.94 330.68 331.17 471.24 554.06 311.94 307.42 172.19 54.94 330.68"/><polygon class="cls-21" points="62.16 328.03 330.52 466.75 549.13 310.5 307.22 173.44 62.16 328.03"/><polygon class="cls-22" points="69.38 325.37 329.87 462.26 544.21 309.07 307.02 174.69 69.38 325.37"/><polygon class="cls-23" points="76.6 322.71 329.22 457.77 539.28 307.63 306.83 175.94 76.6 322.71"/><polygon class="cls-24" points="83.82 320.06 328.57 453.28 534.35 306.2 306.63 177.18 83.82 320.06"/><polygon class="cls-25" points="91.03 317.4 327.92 448.79 529.42 304.76 306.44 178.43 91.03 317.4"/><path class="cls-26" d="M279.1,241c7.26-7.12,23.56-9.25,35.61-4.43,9.69,3.87,13.41,12.27,8.13,18.3-3,3.43-8,5.82-13.7,7-2.69.56-3,2.7-.52,3.54l48.87,16.73,29-28.42c1.87-1.84,6.69-1.57,7.85.47,1.89,3.29,5.91,6.2,11.74,7.95,10.92,3.29,24.57,1.17,31.09-4.82,7.15-6.58,3.41-15.25-8.14-19.21a39.33,39.33,0,0,0-16.53-1.71c-3.65.39-6.41-1.91-4.52-3.75l29-28.43-125.54-43c-5.49-1.87-12.55-.84-15.77,2.32L222,235.81l48.93,16.75c2.45.84,5.52-.32,5.06-1.94C275.09,247.42,276,244,279.1,241Z" transform="translate(-35.28 -52.38)"/><path class="cls-27" d="M412.5,236.45A39.33,39.33,0,0,1,429,238.16a25.71,25.71,0,0,1,5.52,2.6l2.43-2.39v-34.1L408,232.7C406.09,234.54,408.85,236.84,412.5,236.45Z" transform="translate(-35.28 -52.38)"/><path class="cls-28" d="M440.62,251.66a10.64,10.64,0,0,1-3.45,5.71c-6.52,6-20.17,8.11-31.09,4.82-5.83-1.75-9.85-4.66-11.74-7.95-1.16-2-6-2.31-7.85-.47l-29,28.42-48.87-16.73c-2.48-.84-2.17-3,.52-3.54,5.71-1.19,10.7-3.58,13.7-7,5.28-6,1.56-14.43-8.13-18.3-12-4.82-28.35-2.69-35.61,4.43-3.06,3-4,6.38-3.1,9.58.46,1.62-2.61,2.78-5.06,1.94L222,235.81v34.11l48.93,16.75c2.45.84,5.52-.33,5.06-1.95-.91-3.19,0-6.58,3.1-9.58,5.8-5.69,17.38-8.18,27.95-6.49v28.76c-.32.79.16,1.68,1.57,2.16l48.87,16.73,29-28.43c1.87-1.84,6.69-1.56,7.85.47,1.89,3.3,5.91,6.2,11.74,8,10.92,3.29,24.57,1.16,31.09-4.83,3-2.76,4.06-5.88,3.45-8.87Z" transform="translate(-35.28 -52.38)"/><path class="cls-29" d="M390.86,286.68V252.57a5.78,5.78,0,0,0-4.37,1.2l-29,28.42V316.3l29-28.43A5.78,5.78,0,0,1,390.86,286.68Z" transform="translate(-35.28 -52.38)"/><path class="cls-30" d="M387.54,287.19l-.2.08Z" transform="translate(-35.28 -52.38)"/><path class="cls-31" d="M388.51,286.85l-.1,0Z" transform="translate(-35.28 -52.38)"/><path class="cls-32" d="M308.62,265.46c-2.48-.85-2.17-3,.52-3.54,5.71-1.19,10.7-3.58,13.7-7,5.28-6,1.56-14.43-8.13-18.3-12-4.82-28.35-2.69-35.61,4.43-3.06,3-4,6.38-3.1,9.58.46,1.62-2.61,2.78-5.06,1.94L222,235.81v34.11l48.93,16.75c2.45.84,5.52-.33,5.06-1.95-.91-3.19,0-6.58,3.1-9.58,5.8-5.69,17.38-8.18,27.95-6.49v28.76c-.32.79.16,1.68,1.57,2.16l48.87,16.73V282.2Z" transform="translate(-35.28 -52.38)"/><path class="cls-33" d="M440.62,282.6V251.66a10.64,10.64,0,0,1-3.45,5.71c-6.52,6-20.17,8.11-31.09,4.82-5.83-1.75-9.85-4.66-11.74-7.95-.85-1.49-3.65-2-5.83-1.49a7.69,7.69,0,0,1,2.35-.18v34.11a4.37,4.37,0,0,1,3.48,1.66c1.89,3.3,5.91,6.2,11.74,8,10.92,3.29,24.57,1.16,31.09-4.83C440.17,288.71,441.23,285.59,440.62,282.6Z" transform="translate(-35.28 -52.38)"/><path class="cls-34" d="M387.34,253.16a3.54,3.54,0,0,0-.85.61A3.54,3.54,0,0,1,387.34,253.16Z" transform="translate(-35.28 -52.38)"/><path class="cls-35" d="M388.41,252.76a5.6,5.6,0,0,0-.87.33A4.75,4.75,0,0,1,388.41,252.76Z" transform="translate(-35.28 -52.38)"/><path class="cls-36" d="M271.9,252.79h0Z" transform="translate(-35.28 -52.38)"/><polygon class="cls-37" points="232.11 198.97 186.73 183.43 186.73 183.43 232.11 198.97"/><path class="cls-38" d="M272.94,252.83h0Z" transform="translate(-35.28 -52.38)"/><path class="cls-39" d="M270.94,286.67l-3.55-1.22,3.55,1.22a4.6,4.6,0,0,0,1,.22A4.6,4.6,0,0,1,270.94,286.67Z" transform="translate(-35.28 -52.38)"/><path class="cls-40" d="M272.06,286.9a5.7,5.7,0,0,0,.82,0A5.7,5.7,0,0,1,272.06,286.9Z" transform="translate(-35.28 -52.38)"/><path class="cls-41" d="M274.65,286.57h0C274.57,286.6,274.55,286.61,274.65,286.57Z" transform="translate(-35.28 -52.38)"/><path class="cls-42" d="M307,297.65a1.3,1.3,0,0,0,0,.44Z" transform="translate(-35.28 -52.38)"/><path class="cls-43" d="M307,264.09c-.26-.87.49-1.82,2.16-2.17,5.71-1.19,10.7-3.58,13.7-7,5.28-6,1.56-14.43-8.13-18.3-12-4.82-28.35-2.69-35.61,4.43-3.06,3-4,6.38-3.1,9.58.22.78-.39,1.45-1.35,1.85v34.09c.29-.15,1.62-.88,1.35-1.84-.91-3.19,0-6.58,3.1-9.58,5.79-5.68,17.33-8.17,27.88-6.5Z" transform="translate(-35.28 -52.38)"/><g class="cls-44"><path class="cls-45" d="M407.85,233.6a1.79,1.79,0,0,1,.13-.14L437,205l-1.72-.59L408,231.18A1.62,1.62,0,0,0,407.85,233.6Z" transform="translate(-35.28 -52.38)"/><path class="cls-46" d="M437.17,255.85c-6.52,6-20.17,8.11-31.09,4.83-5.83-1.76-9.85-4.67-11.74-8-1.16-2-6-2.31-7.85-.47l-29,28.43L308.62,264a3.39,3.39,0,0,1-1.06-.59c-1.09.88-.79,2.23,1.06,2.86L357.49,283l29-28.43c1.87-1.84,6.69-1.56,7.85.48,1.89,3.29,5.91,6.2,11.74,7.95,10.92,3.29,24.57,1.16,31.09-4.83,2.84-2.61,3.94-5.56,3.53-8.41A10.41,10.41,0,0,1,437.17,255.85Z" transform="translate(-35.28 -52.38)"/><path class="cls-47" d="M275.75,250.2c-.78,1-3,1.48-4.81.85l-47.21-16.17L222,236.57l48.93,16.75c2.45.84,5.52-.33,5.06-1.94A9.92,9.92,0,0,1,275.75,250.2Z" transform="translate(-35.28 -52.38)"/><path class="cls-48" d="M325.16,248.49c.7-5.08-3.21-10.5-10.45-13.4-12-4.82-28.35-2.69-35.61,4.43-2.7,2.64-3.75,5.58-3.34,8.42a10.56,10.56,0,0,1,3.34-6.14c7.26-7.13,23.56-9.25,35.61-4.44C320.88,239.83,324.62,244.13,325.16,248.49Z" transform="translate(-35.28 -52.38)"/></g><path class="cls-49" d="M414.8,289.87c-2.93,0-5.19-9.75-5.05-21.71s2.61-21.62,5.54-21.59,5.19,9.75,5,21.71S417.72,289.9,414.8,289.87Z" transform="translate(-35.28 -52.38)"/><path class="cls-50" d="M300.73,256.52c-2.92,0-5.18-9.75-5.05-21.71s2.62-21.62,5.55-21.59,5.18,9.76,5,21.71S303.66,256.56,300.73,256.52Z" transform="translate(-35.28 -52.38)"/><path class="cls-51" d="M228.53,344.93c-10.18-5.88-9.79-15.54,1.22-21,8.85-4.43,23.84-4.37,32.68.12,5,2.55,7.83,5.95,8.43,9.45.28,1.65,3.79,2.36,5.82,1.19l39.94-23.06L276,288.13c-2.63-1.52-1-4.14,2.7-4.28,6-.21,11.84-1.72,16.2-4.53,8.16-5.27,7.92-13.44-.55-18.61-9.29-5.68-24.75-5.8-34.19-.35-4.24,2.45-6.53,5.59-6.88,8.8-.23,2.15-4.76,3.1-7.4,1.58L205.2,247.27,102.6,306.51c-4.49,2.58-4.46,6.8.05,9.4l103.24,59.61,40-23.09c2-1.15.79-3.17-2-3.32A35,35,0,0,1,228.53,344.93Z" transform="translate(-35.28 -52.38)"/><path class="cls-52" d="M294.87,279.32c-4.36,2.81-10.22,4.32-16.2,4.53-3.7.14-5.33,2.76-2.7,4.28l24.73,14.28V271.58C300.22,274.38,298.29,277.11,294.87,279.32Z" transform="translate(-35.28 -52.38)"/><path class="cls-53" d="M99.26,311.08h0v0Z" transform="translate(-35.28 -52.38)"/><path class="cls-54" d="M276.68,334.65c-2,1.17-5.54.46-5.82-1.2-.6-3.49-3.41-6.89-8.43-9.44-8.84-4.49-23.83-4.55-32.68-.12-11,5.5-11.4,15.16-1.22,21a35,35,0,0,0,15.32,4.18c1.73.09,2.85.89,3,1.76h0v0a.27.27,0,0,0,0,.09v3.75c5.7.11,11.34,1.24,15.57,3.39,5,2.55,7.83,5.95,8.43,9.44.28,1.65,3.79,2.37,5.82,1.2l38.25-22.09,1.68-.35V311.6Z" transform="translate(-35.28 -52.38)"/><path class="cls-55" d="M102.65,315.91c-2.22-1.28-3.35-3-3.39-4.62v33.39l0,0c-.31,1.91.8,3.89,3.35,5.36l103.24,59.6v-34.1Z" transform="translate(-35.28 -52.38)"/><path class="cls-56" d="M246.86,350.87h0v0Z" transform="translate(-35.28 -52.38)"/><path class="cls-57" d="M246.86,350.87h0v0Z" transform="translate(-35.28 -52.38)"/><path class="cls-58" d="M245.88,352.43l-40,23.09v34.1l40-23.08a1.7,1.7,0,0,0,1-1.25h0v-.2a.27.27,0,0,1,0-.09V351A1.61,1.61,0,0,1,245.88,352.43Z" transform="translate(-35.28 -52.38)"/><path class="cls-59" d="M245.88,352.43l-40,23.09v34.1l40-23.08a1.7,1.7,0,0,0,1-1.25h0v-.2a.27.27,0,0,1,0-.09V351A1.61,1.61,0,0,1,245.88,352.43Z" transform="translate(-35.28 -52.38)"/><g class="cls-60"><path class="cls-61" d="M246.86,435.75h0v0Z" transform="translate(-35.28 -52.38)"/><path class="cls-62" d="M246.86,435.75h0v0Z" transform="translate(-35.28 -52.38)"/></g><g class="cls-44"><path class="cls-63" d="M245.65,351.05,205.89,374,102.65,314.4a6.89,6.89,0,0,1-3.09-3.22c-.87,2.17.15,4.55,3.09,6.25L205.89,377l40-23.09C247.38,353.08,247.08,351.74,245.65,351.05Z" transform="translate(-35.28 -52.38)"/><path class="cls-64" d="M294.87,277.8c-4.36,2.82-10.22,4.33-16.2,4.54-3.49.12-5.13,2.46-3.11,4a5.39,5.39,0,0,1,3.11-1c6-.21,11.84-1.72,16.2-4.53,4.62-3,6.54-6.9,5.81-10.67C300.17,272.93,298.25,275.62,294.87,277.8Z" transform="translate(-35.28 -52.38)"/><path class="cls-65" d="M276.68,333.14c-2,1.17-5.54.45-5.82-1.2-.6-3.5-3.41-6.9-8.43-9.44-8.84-4.5-23.83-4.56-32.68-.13-6.44,3.22-9.21,7.85-8.41,12.32.64-3.45,3.43-6.8,8.41-9.29,8.85-4.43,23.84-4.37,32.68.13,5,2.55,7.83,6,8.43,9.44.28,1.65,3.79,2.37,5.82,1.2l39.93-23.06L314,311.6Z" transform="translate(-35.28 -52.38)"/></g><path class="cls-66" d="M245.22,347.2c-2.36,0-4.15-9.89-4-22s2.16-22,4.52-21.93,4.16,9.89,4,22S247.58,347.23,245.22,347.2Z" transform="translate(-35.28 -52.38)"/><ellipse class="cls-67" cx="248.65" cy="323.17" rx="13.4" ry="26.81" transform="translate(-139.45 66.39) rotate(-22.34)"/><path class="cls-68" d="M461.16,274.29c10.18,5.88,9.79,15.54-1.22,21-8.85,4.42-23.84,4.36-32.69-.13-5-2.55-7.82-5.95-8.42-9.44-.29-1.66-3.8-2.37-5.82-1.2l-39.94,23.06,40.65,23.46c2.63,1.52,1,4.15-2.7,4.28-6,.21-11.84,1.72-16.2,4.53-8.17,5.27-7.92,13.45.54,18.62,9.3,5.67,24.76,5.8,34.2.34,4.24-2.44,6.53-5.59,6.88-8.8.23-2.14,4.76-3.1,7.4-1.58L484.49,372l102.6-59.23c4.48-2.59,4.46-6.8-.05-9.41L483.79,243.7l-40,23.09c-2,1.15-.79,3.17,2,3.32A35,35,0,0,1,461.16,274.29Z" transform="translate(-35.28 -52.38)"/><path class="cls-69" d="M461.16,274.29c10.18,5.88,9.79,15.54-1.22,21-8.85,4.42-23.84,4.36-32.69-.13-5-2.55-7.82-5.95-8.42-9.44-.29-1.66-3.8-2.37-5.82-1.2l-39.94,23.06,40.65,23.46c2.63,1.52,1,4.15-2.7,4.28-6,.21-11.84,1.72-16.2,4.53-8.17,5.27-7.92,13.45.54,18.62,9.3,5.67,24.76,5.8,34.2.34,4.24-2.44,6.53-5.59,6.88-8.8.23-2.14,4.76-3.1,7.4-1.58L484.49,372l102.6-59.23c4.48-2.59,4.46-6.8-.05-9.41L483.79,243.7l-40,23.09c-2,1.15-.79,3.17,2,3.32A35,35,0,0,1,461.16,274.29Z" transform="translate(-35.28 -52.38)"/><path class="cls-70" d="M459.94,295.34c11-5.51,11.4-15.17,1.22-21a35,35,0,0,0-15.33-4.18c-1.8-.09-2.93-1-3-1.86h-.06V298.6C449,298.73,455.31,297.65,459.94,295.34Z" transform="translate(-35.28 -52.38)"/><path class="cls-71" d="M590.42,342h.08v-34.1l-.08,0c.08,1.75-1,3.51-3.33,4.84L484.49,372v34.11l102.6-59.24C589.4,345.49,590.5,343.72,590.42,342Z" transform="translate(-35.28 -52.38)"/><path class="cls-72" d="M590.42,342h.08v-34.1l-.08,0c.08,1.75-1,3.51-3.33,4.84L484.49,372v34.11l102.6-59.24C589.4,345.49,590.5,343.72,590.42,342Z" transform="translate(-35.28 -52.38)"/><path class="cls-73" d="M394.82,339.9c4.36-2.81,10.21-4.32,16.2-4.53,3.69-.13,5.33-2.76,2.7-4.28l-40.65-23.46v34.1l15.83,9.14.17-.05C388.2,347,390.09,343,394.82,339.9Z" transform="translate(-35.28 -52.38)"/><path class="cls-74" d="M443.84,348.48a6.76,6.76,0,0,0-4.54-.59V382a6.77,6.77,0,0,1,4.54.6l40.65,23.47V372Z" transform="translate(-35.28 -52.38)"/><path class="cls-75" d="M436.44,350.06c-.35,3.21-2.64,6.36-6.88,8.8-9.44,5.46-24.9,5.33-34.2-.34-3.56-2.18-5.65-4.9-6.29-7.7l-.17.05v31.57c-.3,3.65,1.85,7.36,6.46,10.18,9.3,5.68,24.76,5.8,34.2.35,4.24-2.45,6.53-5.6,6.88-8.81.12-1.08,1.34-1.86,2.86-2.17v-34.1C437.78,348.19,436.56,349,436.44,350.06Z" transform="translate(-35.28 -52.38)"/><path class="cls-76" d="M436.44,350.06c-.35,3.21-2.64,6.36-6.88,8.8-9.44,5.46-24.9,5.33-34.2-.34-3.56-2.18-5.65-4.9-6.29-7.7l-.17.05v31.57c-.3,3.65,1.85,7.36,6.46,10.18,9.3,5.68,24.76,5.8,34.2.35,4.24-2.45,6.53-5.6,6.88-8.81.12-1.08,1.34-1.86,2.86-2.17v-34.1C437.78,348.19,436.56,349,436.44,350.06Z" transform="translate(-35.28 -52.38)"/><g class="cls-44"><path class="cls-77" d="M414.13,332.89c1.2-.94,1.26-2.35-.41-3.31l-38-21.95-2.63,1.51,40.65,23.47A4.21,4.21,0,0,1,414.13,332.89Z" transform="translate(-35.28 -52.38)"/><path class="cls-78" d="M445.83,271.63a35,35,0,0,1,15.33,4.18c4.23,2.44,6.61,5.54,7.18,8.72.77-4.18-1.61-8.54-7.18-11.76a35.11,35.11,0,0,0-15.33-4.17,4.76,4.76,0,0,1-1.79-.43l-.24.14C441.8,269.46,443,271.48,445.83,271.63Z" transform="translate(-35.28 -52.38)"/></g><path class="cls-79" d="M400,387.35c-3.08,0-5.46-11-5.31-24.54s2.78-24.46,5.87-24.42,5.47,11,5.31,24.54S403.11,387.39,400,387.35Z" transform="translate(-35.28 -52.38)"/><path class="cls-80" d="M443.84,347c-2.64-1.52-7.17-.57-7.4,1.57-.35,3.21-2.64,6.36-6.88,8.81-9.44,5.45-24.9,5.33-34.2-.35-3.67-2.24-5.79-5.05-6.35-7.95-.72,3.9,1.4,8,6.35,11,9.3,5.68,24.76,5.8,34.2.35,4.24-2.45,6.53-5.59,6.88-8.81.23-2.14,4.76-3.09,7.4-1.57l40.36,23.3v-3Z" transform="translate(-35.28 -52.38)"/><path class="cls-81" d="M587.09,314.23c2.9-1.67,3.9-4,3-6.19a6.73,6.73,0,0,1-3,3.16l-102.6,59.24-.29-.17v3l.29.17Z" transform="translate(-35.28 -52.38)"/><path class="cls-82" d="M406,379.76c-8,6.87-24.46,8.45-36,3.24-9.29-4.18-12.17-12.69-6.3-18.54,3.34-3.32,8.55-5.54,14.37-6.54,2.76-.47,3.27-2.59.88-3.52l-47.14-18.31L300,363.5c-2.06,1.77-6.84,1.34-7.8-.74-1.55-3.34-5.28-6.38-10.93-8.32-10.58-3.65-24.43-2-31.53,3.78-7.79,6.33-4.92,15.11,6.22,19.44a38.38,38.38,0,0,0,16.34,2.25c3.68-.27,6.21,2.12,4.14,3.9l-31.79,27.41,121.1,47.06c5.3,2.06,12.45,1.26,16-1.79l80.75-69.62-47.2-18.34c-2.36-.92-5.55.14-5.25,1.77C410.66,373.52,409.38,376.87,406,379.76Z" transform="translate(-35.28 -52.38)"/><path class="cls-83" d="M381.77,456.49c-3.53,3.05-10.68,3.85-16,1.79l-121.1-47.06v34.11l121.1,47.05c5.3,2.06,12.45,1.26,16-1.78L462.52,421v-34.1Z" transform="translate(-35.28 -52.38)"/><path class="cls-84" d="M272.34,379.91A38.38,38.38,0,0,1,256,377.66c-6.33-2.46-10-6.35-10.53-10.42v32.09c-.34,2.86.88,5.74,3.5,8.2l27.51-23.72C278.55,382,276,379.64,272.34,379.91Z" transform="translate(-35.28 -52.38)"/><path class="cls-85" d="M378.09,357.92c-5.82,1-11,3.22-14.37,6.54-5.87,5.85-3,14.36,6.3,18.54a35.7,35.7,0,0,0,10.35,2.77V356.52A2.8,2.8,0,0,1,378.09,357.92Z" transform="translate(-35.28 -52.38)"/><g class="cls-44"><path class="cls-86" d="M410.16,371.16a1.12,1.12,0,0,0-.07.45C410.11,371.46,410.15,371.31,410.16,371.16Z" transform="translate(-35.28 -52.38)"/><path class="cls-87" d="M363.72,362.94a9.4,9.4,0,0,0-2.9,8.43,9.93,9.93,0,0,1,2.9-5.39c3.34-3.32,8.55-5.55,14.37-6.54,2.64-.45,3.2-2.41,1.14-3.39a4.63,4.63,0,0,1-1.14.36C372.27,357.4,367.06,359.63,363.72,362.94Z" transform="translate(-35.28 -52.38)"/><path class="cls-88" d="M256,379.17a38.23,38.23,0,0,0,16.34,2.26,5.89,5.89,0,0,1,4,1l.14-.13c2.07-1.78-.46-4.16-4.14-3.9A38.07,38.07,0,0,1,256,376.14c-6.12-2.38-9.73-6.1-10.46-10C244.56,371.08,248.31,376.19,256,379.17Z" transform="translate(-35.28 -52.38)"/><path class="cls-89" d="M381.77,455c-3.53,3-10.68,3.84-16,1.78L247.11,410.65l-2.42,2.09,121.1,47.05c5.3,2.06,12.45,1.26,16-1.78l80.75-69.63-2.42-.94Z" transform="translate(-35.28 -52.38)"/></g><path class="cls-90" d="M373.36,496c-1.92,0-3.36-11.23-3.2-25s1.84-25,3.76-25,3.36,11.24,3.2,25S375.28,496,373.36,496Z" transform="translate(-35.28 -52.38)"/><path class="cls-91" d="M254.28,397.72c-1.92,0-3.39-8-3.28-17.85s1.76-17.79,3.68-17.77,3.39,8,3.28,17.85S256.2,397.74,254.28,397.72Z" transform="translate(-35.28 -52.38)"/><path class="cls-92" d="M388.51,455c4.61,11.22,1.24,23.24-7.52,26.84s-19.61-2.57-24.23-13.8-1.24-23.24,7.52-26.84S383.89,443.79,388.51,455Z" transform="translate(-35.28 -52.38)"/><path class="cls-93" d="M372.54,523.56a9.89,9.89,0,0,1-3.62-.68L244.41,474.33l.56-1.42,124.5,48.56A8.43,8.43,0,0,0,378,520l84-71.35,1,1.15-84,71.35A9.92,9.92,0,0,1,372.54,523.56Z" transform="translate(-35.28 -52.38)"/><circle class="cls-94" cx="373.1" cy="522.9" r="22.27" transform="translate(-268.77 259.16) rotate(-35.28)"/><g class="cls-95"><path class="cls-96" d="M493.18,192.06a16.56,16.56,0,0,1-4.36-.62.78.78,0,0,1-.5-.44l-2.88-7.07a17.6,17.6,0,0,1-2.26-1.11,20.85,20.85,0,0,1-1.93-1.26l-2.56,3.3a.72.72,0,0,1-.52.3.81.81,0,0,1-.58-.19,45.85,45.85,0,0,1-5.44-5.73.77.77,0,0,1-.14-.65l1.26-5.31a40,40,0,0,1-3.21-5.53l-5.26-1.59a.77.77,0,0,1-.49-.44,45,45,0,0,1-2.26-7.56.78.78,0,0,1,.13-.59.77.77,0,0,1,.52-.31l4.16-.52c-.08-.85-.13-1.59-.13-2.29a19.76,19.76,0,0,1,.17-2.48l-4.7-6a.75.75,0,0,1-.14-.66,15.48,15.48,0,0,1,2.34-5.11.81.81,0,0,1,.53-.31.74.74,0,0,1,.58.18l5.08,4.33a8.34,8.34,0,0,1,2.62-1.5L472,136.35a.76.76,0,0,1,.67-.89,15.65,15.65,0,0,1,5.63.56.78.78,0,0,1,.5.44l2.88,7.07a18.27,18.27,0,0,1,2.26,1.11,21.59,21.59,0,0,1,1.93,1.26l2.56-3.3a.71.71,0,0,1,.52-.29.76.76,0,0,1,.58.18,45.27,45.27,0,0,1,5.44,5.74.74.74,0,0,1,.14.64l-1.26,5.31a40,40,0,0,1,3.21,5.53l5.26,1.59a.74.74,0,0,1,.48.45,44.32,44.32,0,0,1,2.27,7.55.78.78,0,0,1-.13.59.77.77,0,0,1-.52.31l-4.16.52c.08.84.12,1.59.12,2.29a18.07,18.07,0,0,1-.17,2.49l4.71,6a.72.72,0,0,1,.13.66,15.28,15.28,0,0,1-2.34,5.11.77.77,0,0,1-.52.31.73.73,0,0,1-.58-.18l-5.08-4.32a8.52,8.52,0,0,1-2.62,1.49l1.21,6.52a.76.76,0,0,1-.68.9C494,192,493.61,192.06,493.18,192.06Zm-3.6-2a14.63,14.63,0,0,0,3.89.48l-1.18-6.34a.76.76,0,0,1,.55-.87,7,7,0,0,0,3.14-1.79.76.76,0,0,1,1,0l4.93,4.21a14.2,14.2,0,0,0,1.55-3.56l-4.67-6a.77.77,0,0,1-.15-.58,18.45,18.45,0,0,0,.2-2.59,24.16,24.16,0,0,0-.2-2.85.75.75,0,0,1,.65-.84l4.09-.52a43.23,43.23,0,0,0-1.88-6.16l-5.24-1.58a.76.76,0,0,1-.46-.4,38.73,38.73,0,0,0-3.41-5.89.73.73,0,0,1-.12-.61l1.25-5.27a44.49,44.49,0,0,0-4.42-4.72l-2.51,3.24a.77.77,0,0,1-1.06.15,21.8,21.8,0,0,0-2.38-1.61,17.85,17.85,0,0,0-2.36-1.13.79.79,0,0,1-.42-.42l-2.86-7a14.55,14.55,0,0,0-3.89-.47l1.18,6.34a.76.76,0,0,1-.55.87,6.82,6.82,0,0,0-3.14,1.79.77.77,0,0,1-1,0l-4.94-4.21a14.46,14.46,0,0,0-1.54,3.57l4.67,6a.78.78,0,0,1,.15.57,17.26,17.26,0,0,0-.2,2.59,22.43,22.43,0,0,0,.2,2.85.76.76,0,0,1-.66.85l-4.08.51a43.23,43.23,0,0,0,1.88,6.16l5.23,1.58a.74.74,0,0,1,.47.41,39.12,39.12,0,0,0,3.41,5.88.74.74,0,0,1,.12.61l-1.25,5.28a45.36,45.36,0,0,0,4.42,4.71l2.51-3.24a.76.76,0,0,1,1.06-.14,23.1,23.1,0,0,0,2.38,1.6,17.89,17.89,0,0,0,2.36,1.14.74.74,0,0,1,.42.41Z" transform="translate(-35.28 -52.38)"/><path class="cls-97" d="M486.46,172.78a6.58,6.58,0,0,1-3.28-1A15.06,15.06,0,0,1,476.35,160c0-3.23,1.69-5.32,4.31-5.32a6.58,6.58,0,0,1,3.28,1,15.07,15.07,0,0,1,6.83,11.79C490.77,170.69,489.08,172.78,486.46,172.78Zm-5.8-16.58c-1.75,0-2.8,1.42-2.8,3.8a13.4,13.4,0,0,0,6.08,10.48,5.25,5.25,0,0,0,2.52.79c1.75,0,2.79-1.43,2.79-3.81A13.42,13.42,0,0,0,483.18,157,5.22,5.22,0,0,0,480.66,156.2Z" transform="translate(-35.28 -52.38)"/></g><polygon class="cls-98" points="170.24 385.94 38.52 309.9 39.28 308.59 171 384.63 170.24 385.94"/><rect class="cls-99" x="472.4" y="390.83" width="176.21" height="1.52" transform="translate(-156.34 284.68) rotate(-30.37)"/><circle class="cls-100" cx="554.99" cy="394.69" r="22.27" transform="translate(25.34 810.7) rotate(-78.87)"/><circle class="cls-101" cx="146.62" cy="403.02" r="22.27" transform="translate(-314.25 403.54) rotate(-77.09)"/><g class="cls-95"><path class="cls-102" d="M423.76,130.57h0a3.13,3.13,0,0,1-1.56-.46l-6.36-3.68a6.52,6.52,0,0,1-3-5.19V118a15.63,15.63,0,0,0-2.64-8c-3.39-5.36-5.05-11.46-4.43-16.31s3.62-7.85,7.85-7.85a11.3,11.3,0,0,1,4.56,1.06c8,3.56,15,14.74,15,23.93,0,4.56-1.76,8-4.82,9.31-1.54.68-2.38,2.3-2.38,4.56V128a2.92,2.92,0,0,1-.57,1.85A2,2,0,0,1,423.76,130.57ZM413.61,87.34c-3.46,0-5.83,2.44-6.35,6.52-.57,4.51,1,10.23,4.21,15.31a17.18,17.18,0,0,1,2.87,8.79v3.28a5.06,5.06,0,0,0,2.25,3.88L423,128.8a1.69,1.69,0,0,0,.8.26h0a.55.55,0,0,0,.46-.21,1.49,1.49,0,0,0,.23-.9v-3.27c0-2.85,1.2-5,3.29-5.94,2.49-1.11,3.91-4,3.91-7.93,0-8.67-6.59-19.2-14.1-22.55A9.79,9.79,0,0,0,413.61,87.34Z" transform="translate(-35.28 -52.38)"/><path class="cls-103" d="M421.6,135.93a2.28,2.28,0,0,1-1.17-.34L417.61,134a5.57,5.57,0,0,1-2.38-4.49v-3.65l8.34,4.82v2.77C423.57,135.15,422.58,135.93,421.6,135.93Zm-4.86-7.48v1a4.11,4.11,0,0,0,1.63,3.18l2.81,1.63a.88.88,0,0,0,.42.13c.31,0,.46-.52.46-1v-1.89Z" transform="translate(-35.28 -52.38)"/><path class="cls-104" d="M420.33,124.53h-1.51V111.84l-.08,0L413,102l12.18,7-4.88,2.78Zm-3.14-18.35,2.49,4.29,2.48-1.41Z" transform="translate(-35.28 -52.38)"/></g><g class="cls-95"><path class="cls-105" d="M350.06,156.61a14.56,14.56,0,0,1-7.18-2.18c-8.55-4.94-15.51-17-15.51-26.77,0-7,3.57-11.47,9.1-11.47a14.46,14.46,0,0,1,7.17,2.18c8.56,4.94,15.52,16.95,15.52,26.77C359.16,152.11,355.59,156.61,350.06,156.61Zm-13.59-38.9c-4.68,0-7.59,3.81-7.59,10,0,9.34,6.62,20.76,14.76,25.46a13.21,13.21,0,0,0,6.42,2c4.67,0,7.58-3.81,7.58-10,0-9.34-6.62-20.76-14.76-25.46A13.21,13.21,0,0,0,336.47,117.71Z" transform="translate(-35.28 -52.38)"/><path class="cls-106" d="M353.09,141.64,343,137.31a.75.75,0,0,1-.46-.69V124H344v12.1l9.66,4.13Z" transform="translate(-35.28 -52.38)"/></g><g class="cls-95"><path class="cls-107" d="M548.87,252.08h0c-2.52,0-5.45-1.5-8-4.12a.62.62,0,0,1-.18-.53A.64.64,0,0,1,541,247l4.87-2.78L541,235.8l-4.88,2.78a.62.62,0,0,1-.56,0,.62.62,0,0,1-.37-.42c-1.39-5-.43-9.33,2.45-11s6.89-.33,10.44,3.07l9.46-5.39c-1.2-4.82-.21-8.9,2.58-10.49s7.16-.25,10.79,3.42a.62.62,0,0,1,.18.53.68.68,0,0,1-.32.48l-4.87,2.77,4.86,8.38,4.88-2.78a.65.65,0,0,1,.56,0,.66.66,0,0,1,.38.42c1.38,5,.42,9.34-2.46,11s-6.88.34-10.44-3.07l-9.46,5.39c1.2,4.82.21,8.9-2.58,10.49A5.41,5.41,0,0,1,548.87,252.08Zm-6.52-4.43c2.19,2,4.53,3.15,6.52,3.15h0a4.18,4.18,0,0,0,2.11-.53c2.36-1.34,3.08-5.08,1.86-9.52a.63.63,0,0,1,.3-.73l10.31-5.88a.64.64,0,0,1,.77.11c3.2,3.22,6.91,4.53,9.24,3.2s3-4.63,2.06-8.71l-4.7,2.67a.65.65,0,0,1-.87-.23l-5.5-9.5a.62.62,0,0,1-.07-.48.69.69,0,0,1,.31-.4l4.68-2.67c-3-2.8-6.45-3.86-8.63-2.62-2.36,1.34-3.08,5.08-1.86,9.53a.62.62,0,0,1-.3.72l-10.31,5.88a.64.64,0,0,1-.77-.11c-3.2-3.22-6.91-4.54-9.24-3.2s-3,4.63-2.06,8.71l4.7-2.67a.65.65,0,0,1,.87.23l5.5,9.5a.62.62,0,0,1,.07.48.72.72,0,0,1-.3.4Z" transform="translate(-35.28 -52.38)"/></g><g class="cls-95"><path class="cls-108" d="M413.34,352.51a.76.76,0,0,1-.76-.76v-3a.76.76,0,1,1,1.52,0v3A.76.76,0,0,1,413.34,352.51Zm0-6.06a.76.76,0,0,1-.76-.76v-3a.76.76,0,0,1,1.52,0v3A.76.76,0,0,1,413.34,346.45Zm0-6.07a.76.76,0,0,1-.76-.76v-3a.76.76,0,0,1,1.52,0v3A.76.76,0,0,1,413.34,340.38Zm0-6.06a.76.76,0,0,1-.76-.76v-3a.76.76,0,1,1,1.52,0v3A.76.76,0,0,1,413.34,334.32Zm0-6.06a.76.76,0,0,1-.76-.76v-3a.76.76,0,0,1,1.52,0v3A.76.76,0,0,1,413.34,328.26Zm0-6.07a.76.76,0,0,1-.76-.75v-3a.76.76,0,0,1,1.52,0v3A.76.76,0,0,1,413.34,322.19Zm0-6.06a.76.76,0,0,1-.76-.76v-3a.76.76,0,1,1,1.52,0v3A.76.76,0,0,1,413.34,316.13Zm0-6.06a.76.76,0,0,1-.76-.76v-3a.76.76,0,1,1,1.52,0v3A.76.76,0,0,1,413.34,310.07Zm0-6.07a.75.75,0,0,1-.76-.75v-3a.76.76,0,0,1,1.52,0v3A.75.75,0,0,1,413.34,304Zm0-6.06a.76.76,0,0,1-.76-.76v-3a.76.76,0,1,1,1.52,0v3A.76.76,0,0,1,413.34,297.94Zm0-6.06a.76.76,0,0,1-.76-.76v-3a.76.76,0,1,1,1.52,0v3A.76.76,0,0,1,413.34,291.88Zm0-6.07a.75.75,0,0,1-.76-.75v-3a.76.76,0,1,1,1.52,0v3A.75.75,0,0,1,413.34,285.81Zm0-6.06a.76.76,0,0,1-.76-.76v-3a.76.76,0,1,1,1.52,0v3A.76.76,0,0,1,413.34,279.75Zm1.84-5a.76.76,0,0,1-.65-.36.75.75,0,0,1,.25-1l2.6-1.57a.75.75,0,1,1,.78,1.29l-2.59,1.57A.72.72,0,0,1,415.18,274.72Zm5.18-3.14a.78.78,0,0,1-.65-.36.76.76,0,0,1,.26-1l2.59-1.57a.76.76,0,1,1,.79,1.29l-2.6,1.57A.68.68,0,0,1,420.36,271.58Zm5.19-3.14a.75.75,0,0,1-.39-1.4l2.59-1.57a.75.75,0,1,1,.78,1.29l-2.59,1.57A.7.7,0,0,1,425.55,268.44Zm5.19-3.14a.76.76,0,0,1-.4-1.4l2.6-1.57a.77.77,0,0,1,1,.25.76.76,0,0,1-.26,1l-2.59,1.57A.7.7,0,0,1,430.74,265.3Zm5.18-3.14a.78.78,0,0,1-.65-.36.76.76,0,0,1,.26-1l2.59-1.57a.76.76,0,0,1,.79,1.29l-2.6,1.57A.68.68,0,0,1,435.92,262.16Zm5.19-3.14a.75.75,0,0,1-.39-1.4l2.59-1.57a.75.75,0,1,1,.78,1.29l-2.59,1.57A.7.7,0,0,1,441.11,259Zm5.19-3.14a.76.76,0,0,1-.4-1.4l2.6-1.57a.75.75,0,0,1,1,.25.76.76,0,0,1-.26,1l-2.59,1.57A.7.7,0,0,1,446.3,255.88Zm5.18-3.14a.78.78,0,0,1-.65-.36.76.76,0,0,1,.26-1l2.59-1.57a.76.76,0,1,1,.79,1.29l-2.59,1.57A.73.73,0,0,1,451.48,252.74Zm5.19-3.14a.75.75,0,0,1-.39-1.4l2.59-1.57a.76.76,0,0,1,.79,1.29l-2.6,1.57A.7.7,0,0,1,456.67,249.6Zm5.19-3.14a.76.76,0,0,1-.4-1.4l2.6-1.57a.75.75,0,1,1,.78,1.29l-2.59,1.57A.7.7,0,0,1,461.86,246.46Zm5.18-3.14a.78.78,0,0,1-.65-.36.76.76,0,0,1,.26-1l2.59-1.57a.76.76,0,1,1,.79,1.29l-2.6,1.57A.68.68,0,0,1,467,243.32Zm5.19-3.14a.75.75,0,0,1-.39-1.4l2.59-1.57a.75.75,0,1,1,.78,1.29l-2.59,1.57A.7.7,0,0,1,472.23,240.18Zm5.19-3.14a.76.76,0,0,1-.4-1.4l2.6-1.57a.75.75,0,0,1,1,.25.76.76,0,0,1-.26,1l-2.59,1.57A.72.72,0,0,1,477.42,237Zm5.18-3.14a.78.78,0,0,1-.65-.36.76.76,0,0,1,.26-1l.48-.29v-1.62a.76.76,0,1,1,1.51,0v2a.75.75,0,0,1-.36.64l-.85.51A.68.68,0,0,1,482.6,233.9Zm.84-5.59a.75.75,0,0,1-.75-.75v-3a.76.76,0,0,1,1.51,0v3A.75.75,0,0,1,483.44,228.31Zm0-6.06a.76.76,0,0,1-.75-.76v-3a.76.76,0,1,1,1.51,0v3A.76.76,0,0,1,483.44,222.25Zm0-6.06a.76.76,0,0,1-.75-.76v-3a.76.76,0,1,1,1.51,0v3A.76.76,0,0,1,483.44,216.19Zm0-6.07a.75.75,0,0,1-.75-.75v-3a.76.76,0,1,1,1.51,0v3A.75.75,0,0,1,483.44,210.12Zm0-6.06a.76.76,0,0,1-.75-.76v-3a.76.76,0,1,1,1.51,0v3A.76.76,0,0,1,483.44,204.06Zm0-6.06a.76.76,0,0,1-.75-.76v-3a.76.76,0,1,1,1.51,0v3A.76.76,0,0,1,483.44,198Zm0-6.06a.76.76,0,0,1-.75-.76v-3a.76.76,0,1,1,1.51,0v3A.76.76,0,0,1,483.44,191.94Z" transform="translate(-35.28 -52.38)"/><path class="cls-109" d="M418,250.57a.75.75,0,0,1-.75-.76v-.75a.75.75,0,0,1,.75-.76.76.76,0,0,1,.76.76v.75A.76.76,0,0,1,418,250.57Zm0-3.79a.75.75,0,0,1-.75-.75v-3a.74.74,0,0,1,.75-.75.75.75,0,0,1,.76.75v3A.76.76,0,0,1,418,246.78Zm0-6.06a.75.75,0,0,1-.75-.76v-3a.75.75,0,0,1,.75-.76.76.76,0,0,1,.76.76v3A.76.76,0,0,1,418,240.72Zm0-6.06a.75.75,0,0,1-.75-.76v-3a.75.75,0,0,1,.75-.76.76.76,0,0,1,.76.76v3A.76.76,0,0,1,418,234.66Zm0-6.07a.74.74,0,0,1-.75-.75v-3a.75.75,0,0,1,.75-.75.76.76,0,0,1,.76.75v3A.75.75,0,0,1,418,228.59Zm0-6.06a.75.75,0,0,1-.75-.76v-3A.75.75,0,0,1,418,218a.76.76,0,0,1,.76.76v3A.76.76,0,0,1,418,222.53Zm0-6.06a.75.75,0,0,1-.75-.76v-3a.75.75,0,0,1,.75-.76.76.76,0,0,1,.76.76v3A.76.76,0,0,1,418,216.47Zm0-6.07a.74.74,0,0,1-.75-.75v-3a.75.75,0,0,1,.75-.76.76.76,0,0,1,.76.76v3A.75.75,0,0,1,418,210.4Zm0-6.06a.75.75,0,0,1-.75-.76v-3a.75.75,0,0,1,.75-.76.76.76,0,0,1,.76.76v3A.76.76,0,0,1,418,204.34Zm0-6.06a.75.75,0,0,1-.75-.76v-3a.75.75,0,0,1,.75-.76.76.76,0,0,1,.76.76v3A.76.76,0,0,1,418,198.28Zm0-6.06a.75.75,0,0,1-.75-.76v-3a.75.75,0,0,1,.75-.76.76.76,0,0,1,.76.76v3A.76.76,0,0,1,418,192.22Zm0-6.07a.75.75,0,0,1-.75-.76v-3a.75.75,0,0,1,.75-.76.76.76,0,0,1,.76.76v3A.76.76,0,0,1,418,186.15Zm0-6.06a.75.75,0,0,1-.75-.76v-3a.75.75,0,0,1,.75-.76.76.76,0,0,1,.76.76v3A.76.76,0,0,1,418,180.09Zm0-6.06a.75.75,0,0,1-.75-.76v-3a.75.75,0,0,1,.75-.76.76.76,0,0,1,.76.76v3A.76.76,0,0,1,418,174Zm0-6.07a.75.75,0,0,1-.75-.76v-3a.74.74,0,0,1,.75-.75.75.75,0,0,1,.76.75v3A.76.76,0,0,1,418,168Zm0-6.06a.75.75,0,0,1-.75-.76v-3a.75.75,0,0,1,.75-.76.76.76,0,0,1,.76.76v3A.76.76,0,0,1,418,161.9Zm0-6.06a.75.75,0,0,1-.75-.76v-3a.75.75,0,0,1,.75-.76.76.76,0,0,1,.76.76v3A.76.76,0,0,1,418,155.84Zm0-6.07a.75.75,0,0,1-.75-.75v-3a.74.74,0,0,1,.75-.75.75.75,0,0,1,.76.75v3A.76.76,0,0,1,418,149.77Zm0-6.06a.75.75,0,0,1-.75-.76v-3a.75.75,0,0,1,.75-.76.76.76,0,0,1,.76.76v3A.76.76,0,0,1,418,143.71Z" transform="translate(-35.28 -52.38)"/><path class="cls-110" d="M276.54,268.26a.76.76,0,0,1-.76-.76v-3a.76.76,0,0,1,1.52,0v3A.76.76,0,0,1,276.54,268.26Zm0-6.07a.76.76,0,0,1-.76-.76v-3a.76.76,0,0,1,1.52,0v3A.76.76,0,0,1,276.54,262.19Zm0-6.06a.76.76,0,0,1-.76-.76v-3a.76.76,0,0,1,1.52,0v3A.76.76,0,0,1,276.54,256.13Zm0-6.06a.76.76,0,0,1-.76-.76v-3a.76.76,0,0,1,1.52,0v3A.76.76,0,0,1,276.54,250.07Zm0-6.07a.76.76,0,0,1-.76-.75v-3a.76.76,0,0,1,1.52,0v3A.76.76,0,0,1,276.54,244Zm0-6.06a.76.76,0,0,1-.76-.76v-3a.76.76,0,0,1,1.52,0v3A.76.76,0,0,1,276.54,237.94Zm0-6.06a.76.76,0,0,1-.76-.76v-3a.76.76,0,0,1,1.52,0v3A.76.76,0,0,1,276.54,231.88Zm0-6.07a.75.75,0,0,1-.76-.75v-3a.76.76,0,0,1,1.52,0v3A.75.75,0,0,1,276.54,225.81Zm0-6.06a.76.76,0,0,1-.76-.76v-3a.76.76,0,0,1,1.52,0v3A.76.76,0,0,1,276.54,219.75Zm0-6.06a.76.76,0,0,1-.76-.76v-3a.76.76,0,0,1,1.52,0v3A.76.76,0,0,1,276.54,213.69Zm0-6.07a.75.75,0,0,1-.76-.75v-3a.76.76,0,1,1,1.52,0v3A.75.75,0,0,1,276.54,207.62Zm0-6.06a.76.76,0,0,1-.76-.76v-3a.76.76,0,0,1,1.52,0v3A.76.76,0,0,1,276.54,201.56Zm0-6.06a.76.76,0,0,1-.76-.76v-3a.76.76,0,0,1,1.52,0v3A.76.76,0,0,1,276.54,195.5Zm0-6.06a.76.76,0,0,1-.76-.76v-3a.76.76,0,0,1,1.52,0v3A.76.76,0,0,1,276.54,189.44Zm0-6.07a.76.76,0,0,1-.76-.76v-3a.76.76,0,0,1,1.52,0v3A.76.76,0,0,1,276.54,183.37Zm0-6.06a.76.76,0,0,1-.76-.76v-3a.76.76,0,0,1,1.52,0v3A.76.76,0,0,1,276.54,177.31Zm0-6.06a.76.76,0,0,1-.76-.76v-3a.76.76,0,0,1,1.52,0v3A.76.76,0,0,1,276.54,171.25Zm0-6.07a.76.76,0,0,1-.76-.76v-3a.76.76,0,0,1,1.52,0v3A.76.76,0,0,1,276.54,165.18Zm0-6.06a.76.76,0,0,1-.76-.76v-3a.76.76,0,0,1,1.52,0v3A.76.76,0,0,1,276.54,159.12Zm0-6.06a.76.76,0,0,1-.76-.76v-3a.76.76,0,0,1,1.52,0v3A.76.76,0,0,1,276.54,153.06Zm0-6.07a.76.76,0,0,1-.76-.75v-3a.76.76,0,0,1,1.52,0v3A.76.76,0,0,1,276.54,147Zm0-6.06a.76.76,0,0,1-.76-.76v-3a.76.76,0,0,1,1.52,0v3A.76.76,0,0,1,276.54,140.93Z" transform="translate(-35.28 -52.38)"/><path class="cls-111" d="M267.45,364.76a.76.76,0,0,1-.76-.76v-3a.76.76,0,1,1,1.51,0v3A.76.76,0,0,1,267.45,364.76Zm0-6.06a.76.76,0,0,1-.76-.76v-3a.76.76,0,1,1,1.51,0v3A.76.76,0,0,1,267.45,358.7Zm0-6.07a.75.75,0,0,1-.76-.75v-3a.76.76,0,1,1,1.51,0v3A.75.75,0,0,1,267.45,352.63Zm0-6.06a.76.76,0,0,1-.76-.76v-3a.76.76,0,1,1,1.51,0v3A.76.76,0,0,1,267.45,346.57Zm0-6.06a.76.76,0,0,1-.76-.76v-3a.76.76,0,1,1,1.51,0v3A.76.76,0,0,1,267.45,340.51Zm0-6.06a.76.76,0,0,1-.76-.76v-3a.76.76,0,1,1,1.51,0v3A.76.76,0,0,1,267.45,334.45Zm0-6.07a.76.76,0,0,1-.76-.76v-3a.76.76,0,0,1,1.51,0v3A.76.76,0,0,1,267.45,328.38Zm0-6.06a.76.76,0,0,1-.76-.76v-3a.76.76,0,1,1,1.51,0v3A.76.76,0,0,1,267.45,322.32Zm0-6.06a.76.76,0,0,1-.76-.76v-3a.76.76,0,1,1,1.51,0v3A.76.76,0,0,1,267.45,316.26Zm0-6.07a.76.76,0,0,1-.76-.75v-3a.76.76,0,0,1,1.51,0v3A.76.76,0,0,1,267.45,310.19Zm0-6.06a.76.76,0,0,1-.76-.76v-3a.76.76,0,1,1,1.51,0v3A.76.76,0,0,1,267.45,304.13Zm0-6.06a.76.76,0,0,1-.76-.76v-3a.76.76,0,1,1,1.51,0v3A.76.76,0,0,1,267.45,298.07Zm-2.09-4.85a.85.85,0,0,1-.38-.09l-2.64-1.49a.77.77,0,0,1-.29-1,.76.76,0,0,1,1-.29l2.64,1.49a.76.76,0,0,1,.29,1A.75.75,0,0,1,265.36,293.22Zm-5.29-3a.74.74,0,0,1-.37-.1l-2.64-1.49a.76.76,0,0,1,.74-1.32l2.65,1.49a.75.75,0,0,1,.28,1A.74.74,0,0,1,260.07,290.25Zm-5.28-3a.74.74,0,0,1-.37-.1l-2.64-1.49a.76.76,0,1,1,.74-1.32l2.64,1.49a.76.76,0,0,1-.37,1.42Zm-5.28-3a.71.71,0,0,1-.37-.1l-2.64-1.48a.76.76,0,1,1,.74-1.32l2.64,1.48a.76.76,0,0,1,.29,1A.77.77,0,0,1,249.51,284.29Zm-5.28-3a.78.78,0,0,1-.37-.09l-2.64-1.49a.76.76,0,1,1,.74-1.32l2.64,1.49a.75.75,0,0,1-.37,1.41Zm-5.28-3a.69.69,0,0,1-.37-.1l-2.64-1.49a.76.76,0,0,1,.74-1.32l2.64,1.49a.76.76,0,0,1-.37,1.42Zm-5.28-3a.75.75,0,0,1-.38-.1l-2.64-1.49a.76.76,0,0,1,.75-1.32l2.64,1.49a.76.76,0,0,1-.37,1.42Zm-5.29-3a.74.74,0,0,1-.37-.1l-2.64-1.48a.78.78,0,0,1-.29-1,.76.76,0,0,1,1-.28l2.64,1.48a.76.76,0,0,1,.28,1A.75.75,0,0,1,228.38,272.38Zm-5.28-3a.81.81,0,0,1-.37-.09l-2.64-1.49a.76.76,0,0,1,.74-1.32l2.64,1.49a.75.75,0,0,1-.37,1.41Zm-5.28-3a.71.71,0,0,1-.37-.1l-2.64-1.49a.76.76,0,0,1,.74-1.32l2.64,1.49a.75.75,0,0,1,.29,1A.76.76,0,0,1,217.82,266.43Zm-5.28-3a.69.69,0,0,1-.37-.1l-2.64-1.49a.74.74,0,0,1-.29-1,.76.76,0,0,1,1-.29l2.64,1.49a.76.76,0,0,1-.37,1.42Zm-5.28-3a.69.69,0,0,1-.37-.1l-2.65-1.48a.76.76,0,0,1-.28-1,.75.75,0,0,1,1-.28l2.64,1.48a.76.76,0,0,1-.37,1.42Zm-5.28-3a.85.85,0,0,1-.38-.09L199,255.91a.77.77,0,0,1-.29-1,.76.76,0,0,1,1-.29l2.64,1.49a.76.76,0,0,1,.29,1A.75.75,0,0,1,202,257.49Zm-5.29-3a.86.86,0,0,1-.37-.1l-2.64-1.49a.77.77,0,0,1-.29-1,.75.75,0,0,1,1-.29l2.65,1.49a.75.75,0,0,1,.28,1A.74.74,0,0,1,196.69,254.52Zm-5.28-3a.74.74,0,0,1-.37-.1L188.4,250a.76.76,0,0,1,.74-1.32l2.64,1.49a.76.76,0,0,1-.37,1.42Zm-5.28-3a.71.71,0,0,1-.37-.1L183.12,247a.74.74,0,0,1-.29-1,.76.76,0,0,1,1-.29l2.64,1.49a.75.75,0,0,1,.29,1A.76.76,0,0,1,186.13,248.56Zm-5.28-3a.78.78,0,0,1-.37-.09l-.56-.32a.76.76,0,0,1-.39-.66v-2.39a.76.76,0,1,1,1.52,0v1.95l.17.1a.75.75,0,0,1-.37,1.41Zm-.56-5.73a.76.76,0,0,1-.76-.76v-3a.76.76,0,1,1,1.52,0v3A.76.76,0,0,1,180.29,239.85Zm0-6.06a.76.76,0,0,1-.76-.76v-3a.76.76,0,1,1,1.52,0v3A.76.76,0,0,1,180.29,233.79Zm0-6.07a.76.76,0,0,1-.76-.76v-3a.76.76,0,0,1,1.52,0v3A.76.76,0,0,1,180.29,227.72Zm0-6.06a.76.76,0,0,1-.76-.76v-3a.76.76,0,1,1,1.52,0v3A.76.76,0,0,1,180.29,221.66Zm0-6.06a.76.76,0,0,1-.76-.76v-3a.76.76,0,1,1,1.52,0v3A.76.76,0,0,1,180.29,215.6Zm0-6.07a.76.76,0,0,1-.76-.76v-1.9a.76.76,0,1,1,1.52,0v1.9A.76.76,0,0,1,180.29,209.53Z" transform="translate(-35.28 -52.38)"/><path class="cls-112" d="M548.81,271.74a.75.75,0,0,1-.38-.1l-2.61-1.53a.76.76,0,0,1,.76-1.31l2.62,1.53a.76.76,0,0,1-.39,1.41Zm1-1.38a.76.76,0,0,1-.76-.75v-3a.76.76,0,0,1,1.52,0v3A.76.76,0,0,1,549.76,270.36Zm-6.18-1.68a.76.76,0,0,1-.38-.11L540.59,267a.76.76,0,0,1,.76-1.31l2.62,1.53a.76.76,0,0,1-.39,1.42Zm-5.23-3.07a.76.76,0,0,1-.38-.11L535.36,264a.75.75,0,0,1-.27-1,.76.76,0,0,1,1-.27l2.62,1.54a.75.75,0,0,1,.27,1A.77.77,0,0,1,538.35,265.61Zm11.41-1.31a.76.76,0,0,1-.76-.76v-3a.76.76,0,0,1,1.52,0v3A.76.76,0,0,1,549.76,264.3Zm-16.64-1.76a.75.75,0,0,1-.38-.1l-2.61-1.54a.75.75,0,0,1-.27-1,.76.76,0,0,1,1-.27l2.62,1.54a.76.76,0,0,1-.39,1.41Zm-5.22-3.07a.76.76,0,0,1-.39-.1l-2.61-1.54a.76.76,0,0,1,.76-1.31l2.62,1.54a.76.76,0,0,1,.27,1A.75.75,0,0,1,527.9,259.47Zm21.86-1.23a.76.76,0,0,1-.76-.76v-1.86a.76.76,0,0,1,1.52,0v1.86A.76.76,0,0,1,549.76,258.24Zm-27.09-1.84a.78.78,0,0,1-.39-.1l-2.61-1.53a.77.77,0,0,1-.27-1,.75.75,0,0,1,1-.27l2.62,1.53a.76.76,0,0,1,.27,1A.75.75,0,0,1,522.67,256.4Zm-5.23-3.07a.78.78,0,0,1-.39-.1l-2.61-1.53a.76.76,0,0,1-.27-1,.75.75,0,0,1,1-.27l2.62,1.53a.76.76,0,0,1,.27,1A.75.75,0,0,1,517.44,253.33Zm-5.23-3.06a.79.79,0,0,1-.39-.11l-2.61-1.53a.76.76,0,0,1-.27-1,.77.77,0,0,1,1-.27l2.61,1.54a.76.76,0,0,1-.38,1.41ZM507,247.2a.78.78,0,0,1-.39-.1L504,245.56a.76.76,0,0,1-.27-1,.77.77,0,0,1,1-.27l2.61,1.54a.75.75,0,0,1,.27,1A.74.74,0,0,1,507,247.2Zm-5.23-3.07a.78.78,0,0,1-.39-.1l-2.61-1.54a.75.75,0,0,1-.27-1,.77.77,0,0,1,1-.28l2.61,1.54a.76.76,0,0,1,.27,1A.75.75,0,0,1,501.75,244.13Zm-5.23-3.07a.78.78,0,0,1-.39-.1l-2.61-1.54a.76.76,0,1,1,.77-1.3l2.61,1.53a.76.76,0,0,1,.27,1A.75.75,0,0,1,496.52,241.06ZM491.29,238a.75.75,0,0,1-.38-.1l-2.62-1.53a.76.76,0,0,1-.27-1,.75.75,0,0,1,1-.27l2.61,1.53a.76.76,0,0,1,.27,1A.75.75,0,0,1,491.29,238Zm-5.23-3.06a.76.76,0,0,1-.38-.11l-2.62-1.53a.76.76,0,0,1,.77-1.31l2.61,1.53a.77.77,0,0,1,.27,1A.76.76,0,0,1,486.06,234.93Z" transform="translate(-35.28 -52.38)"/><path class="cls-113" d="M414.86,162a1.09,1.09,0,0,1-.25,0l-1-.34a.75.75,0,0,1-.47-1,.76.76,0,0,1,1-.47l1,.33a.76.76,0,0,1-.24,1.48ZM411,160.72a.67.67,0,0,1-.24,0l-2.87-1a.76.76,0,0,1-.48-1,.77.77,0,0,1,1-.47l2.88,1a.76.76,0,0,1-.25,1.47Zm-5.74-1.94a.67.67,0,0,1-.24,0l-2.88-1a.76.76,0,0,1,.49-1.44l2.87,1a.77.77,0,0,1,.48,1A.76.76,0,0,1,405.26,158.78Zm-5.74-1.94a.73.73,0,0,1-.25,0l-2.87-1a.76.76,0,0,1,.49-1.44l2.87,1a.76.76,0,0,1-.24,1.48Zm-5.75-1.94a1,1,0,0,1-.24,0l-2.87-1a.76.76,0,1,1,.48-1.44l2.88,1a.76.76,0,0,1-.25,1.48ZM388,153a.67.67,0,0,1-.24,0l-2.88-1a.75.75,0,0,1-.47-1,.76.76,0,0,1,1-.47l2.87,1A.75.75,0,0,1,388,153ZM382.29,151a.73.73,0,0,1-.25,0l-2.87-1a.74.74,0,0,1-.47-1,.76.76,0,0,1,1-.47l2.87,1a.76.76,0,0,1-.24,1.47Zm-5.75-1.94a.67.67,0,0,1-.24,0l-2.87-1a.76.76,0,0,1,.48-1.44l2.87,1a.77.77,0,0,1,.48,1A.76.76,0,0,1,376.54,149.07Zm-5.74-1.94a1.09,1.09,0,0,1-.25,0l-2.87-1a.76.76,0,0,1,.49-1.44l2.87,1a.76.76,0,0,1-.24,1.48Zm-5.75-1.94a1,1,0,0,1-.24,0l-2.87-1a.76.76,0,0,1-.48-1,.77.77,0,0,1,1-.47l2.88,1a.76.76,0,0,1-.25,1.48Z" transform="translate(-35.28 -52.38)"/></g><g class="cls-95"><path class="cls-114" d="M275.57,133.45a.62.62,0,0,1-.27,0c-11.2-4.39-18.94-10.92-20.39-28.5l-.38-4.73a.75.75,0,0,1,.38-.72l.27-.15c7.14-4,14-10.47,19.88-18.56a.66.66,0,0,1,.23-.21,1,1,0,0,1,.63-.13c5.66,1.27,12.6-.28,19.56-4.37l.28-.16a.73.73,0,0,1,.78,0,.77.77,0,0,1,.36.7l-.39,5.18c-1.42,19-9,34.18-20,51.19a.85.85,0,0,1-.26.24l-.28.16A.75.75,0,0,1,275.57,133.45Zm-19.49-32.92.34,4.25c1.36,16.56,8.57,22.85,19,27,10.76-16.69,18.2-31.64,19.59-50.18l.28-3.75C288.49,81.66,281.72,83.11,276,82,270.14,90,263.25,96.43,256.08,100.53Z" transform="translate(-35.28 -52.38)"/><path class="cls-115" d="M275.64,120.42a.69.69,0,0,1-.28,0c-6.93-2.72-10-7-10.67-14.91l-.2-2.42a.76.76,0,0,1,.38-.72l.14-.08a33.08,33.08,0,0,0,10.07-9.4.8.8,0,0,1,.23-.22.94.94,0,0,1,.59-.1c2.8.63,6.27-.15,9.75-2.2l.14-.08a.76.76,0,0,1,1.14.71l-.2,2.65c-.73,9.8-4.65,17.64-10.31,26.4a.86.86,0,0,1-.26.24l-.14.08A.72.72,0,0,1,275.64,120.42Zm-9.6-17,.16,2c.67,8.14,4.15,11.32,9.21,13.42,5.39-8.4,9.11-16,9.81-25.27l.1-1.25A14.94,14.94,0,0,1,276,94.09,34.41,34.41,0,0,1,266,103.39Z" transform="translate(-35.28 -52.38)"/></g><g class="cls-95"><path class="cls-116" d="M163.06,210.4a.69.69,0,0,1-.37-.1.73.73,0,0,1-.38-.65V191.57a.76.76,0,0,1,.38-.66l7.87-4.54a.74.74,0,0,1,.76,0,.75.75,0,0,1,.38.65V205.1a.78.78,0,0,1-.38.66l-7.88,4.54A.72.72,0,0,1,163.06,210.4Zm.76-18.39v16.32l6.36-3.67V188.34Z" transform="translate(-35.28 -52.38)"/><path class="cls-117" d="M175.54,203.2a.7.7,0,0,1-.38-.1.73.73,0,0,1-.38-.65V169.31a.76.76,0,0,1,.38-.66L183,164.1a.79.79,0,0,1,.76,0,.78.78,0,0,1,.38.66V197.9a.78.78,0,0,1-.38.66l-7.88,4.54A.69.69,0,0,1,175.54,203.2Zm.75-33.46v31.39l6.36-3.67V166.07Z" transform="translate(-35.28 -52.38)"/><path class="cls-118" d="M188,196a.72.72,0,0,1-.38-.1.73.73,0,0,1-.38-.65V147a.73.73,0,0,1,.38-.65l7.87-4.55a.74.74,0,0,1,.76,0,.76.76,0,0,1,.38.66v48.2a.76.76,0,0,1-.38.66l-7.87,4.54A.75.75,0,0,1,188,196Zm.75-48.52v46.45l6.36-3.67V143.81Z" transform="translate(-35.28 -52.38)"/></g></g></g></svg>