<svg id="Camada_1" data-name="Camada 1" xmlns="http://www.w3.org/2000/svg" viewBox="0 0 102 115.57"><defs><style>.cls-1{fill:#00c172;}.cls-2{fill:#fff;}</style></defs><title>icon</title><path class="cls-1" d="M106.91,27.46,64.62,2.93a8.75,8.75,0,0,0-8.74,0L13.59,27.46A8.68,8.68,0,0,0,9.25,35V84.1a8.7,8.7,0,0,0,4.34,7.53l42.29,24.52a8.7,8.7,0,0,0,8.74,0l42.29-24.52a8.7,8.7,0,0,0,4.34-7.53V35A8.68,8.68,0,0,0,106.91,27.46Z" transform="translate(-9.25 -1.76)"/><path class="cls-2" d="M92.72,61.46,68.43,34a1.05,1.05,0,0,0-1.82.49L63.74,48.8,25.21,31.42A1,1,0,0,0,24,32.81L59.41,89a1.31,1.31,0,0,0,1.94.32L92.53,63.75A1.59,1.59,0,0,0,92.72,61.46Zm-22-14.3a.87.87,0,0,1,1.53-.43l7.87,9.4L70.06,51.58Zm10.91,18-16.42,13,2.52-14.91-6.06-2.78-3,16.68-19.51-31a.84.84,0,0,1,1-1.21L81.43,63.18A1.17,1.17,0,0,1,81.68,65.17Z" transform="translate(-9.25 -1.76)"/></svg>