<svg xmlns="http://www.w3.org/2000/svg" viewBox="0 0 84.33 80.36"><defs><style>.cls-1{fill:#7c40ff;}.cls-2,.cls-4{fill:#fff;}.cls-2{opacity:0.7;}.cls-3{opacity:0.4;}.cls-4{opacity:0.8;}.cls-5{opacity:0.3;}</style></defs><title>icon-file</title><g id="Folder"><rect class="cls-1" x="2.53" y="44.63" width="0.42" height="6.39" transform="translate(-7.7 -4.28) rotate(-6.67)"/><rect class="cls-1" x="3.36" y="53.34" width="0.42" height="3.22" transform="translate(-8.52 -4.13) rotate(-6.67)"/><path class="cls-1" d="M31.32,31.69l-.49-1.39a4.48,4.48,0,0,0-4.74-2.95L6.39,29.66a4.48,4.48,0,0,0-3.93,5L8.07,82.57a3.07,3.07,0,0,0,3.41,2.69L82,77a3.07,3.07,0,0,0,2.69-3.41L79.8,32.17a3.07,3.07,0,0,0-3.4-2.7L35.47,34.26A3.94,3.94,0,0,1,31.32,31.69Z" transform="translate(-2.16 -4.92)"/><rect class="cls-1" x="13.86" y="12.75" width="22.71" height="31.28" transform="translate(-7.22 0.56) rotate(-11.27)"/><rect class="cls-2" x="13.86" y="12.75" width="22.71" height="31.28" transform="translate(-7.22 0.56) rotate(-11.27)"/><g class="cls-3"><path class="cls-1" d="M30.32,18.22,16.6,21a1.21,1.21,0,0,1-1.44-1h0a1.21,1.21,0,0,1,1-1.44l13.72-2.74a1.23,1.23,0,0,1,1.44,1h0A1.22,1.22,0,0,1,30.32,18.22Z" transform="translate(-2.16 -4.92)"/><path class="cls-1" d="M31.33,23.29,17.61,26a1.23,1.23,0,0,1-1.44-1h0a1.22,1.22,0,0,1,1-1.44l13.72-2.73a1.21,1.21,0,0,1,1.44,1h0A1.22,1.22,0,0,1,31.33,23.29Z" transform="translate(-2.16 -4.92)"/><path class="cls-1" d="M32.34,28.37,18.62,31.1a1.23,1.23,0,0,1-1.44-1h0a1.23,1.23,0,0,1,1-1.45L31.86,26a1.24,1.24,0,0,1,1.45,1h0A1.24,1.24,0,0,1,32.34,28.37Z" transform="translate(-2.16 -4.92)"/><path class="cls-1" d="M33.35,33.44,19.63,36.17a1.21,1.21,0,0,1-1.44-1h0a1.22,1.22,0,0,1,1-1.44L32.87,31a1.24,1.24,0,0,1,1.45,1h0A1.23,1.23,0,0,1,33.35,33.44Z" transform="translate(-2.16 -4.92)"/><path class="cls-1" d="M30.61,39.26l-10,2a1.23,1.23,0,0,1-1.44-1h0a1.23,1.23,0,0,1,1-1.44l10-2a1.23,1.23,0,0,1,1.45,1h0A1.23,1.23,0,0,1,30.61,39.26Z" transform="translate(-2.16 -4.92)"/></g><rect class="cls-1" x="44.54" y="6.32" width="22.71" height="31.28" transform="translate(-4.62 2.86) rotate(-7.79)"/><rect class="cls-2" x="44.54" y="6.32" width="22.71" height="31.28" transform="translate(-4.62 2.86) rotate(-7.79)"/><g class="cls-3"><path class="cls-1" d="M61.61,12.11,47.75,14a1.23,1.23,0,0,1-1.38-1h0a1.22,1.22,0,0,1,1.05-1.39L61.27,9.68a1.22,1.22,0,0,1,1.39,1.05h0A1.23,1.23,0,0,1,61.61,12.11Z" transform="translate(-2.16 -4.92)"/><path class="cls-1" d="M62.31,17.24,48.45,19.13a1.23,1.23,0,0,1-1.38-1.05h0a1.22,1.22,0,0,1,1-1.38L62,14.8a1.23,1.23,0,0,1,1.38,1h0A1.24,1.24,0,0,1,62.31,17.24Z" transform="translate(-2.16 -4.92)"/><path class="cls-1" d="M53,23.73l-3.82.53a1.23,1.23,0,0,1-1.38-1.05h0a1.24,1.24,0,0,1,1-1.39l3.82-.52A1.23,1.23,0,0,1,54,22.35h0A1.23,1.23,0,0,1,53,23.73Z" transform="translate(-2.16 -4.92)"/><path class="cls-1" d="M60.38,22.72l-3.82.52a1.22,1.22,0,0,1-1.39-1h0a1.23,1.23,0,0,1,1-1.38L60,20.29a1.24,1.24,0,0,1,1.39,1.05h0A1.23,1.23,0,0,1,60.38,22.72Z" transform="translate(-2.16 -4.92)"/><path class="cls-1" d="M63.71,27.49,49.85,29.38a1.23,1.23,0,0,1-1.38-1.05h0A1.23,1.23,0,0,1,49.52,27l13.86-1.9a1.23,1.23,0,0,1,1.38,1.05h0A1.24,1.24,0,0,1,63.71,27.49Z" transform="translate(-2.16 -4.92)"/><path class="cls-1" d="M60.63,33.13,50.55,34.51a1.23,1.23,0,0,1-1.38-1h0a1.24,1.24,0,0,1,1-1.39L60.29,30.7a1.23,1.23,0,0,1,1.39,1.05h0A1.23,1.23,0,0,1,60.63,33.13Z" transform="translate(-2.16 -4.92)"/></g><rect class="cls-1" x="22.49" y="10.38" width="22.71" height="31.28" transform="translate(-4.29 -1.88) rotate(-4.98)"/><rect class="cls-4" x="22.49" y="10.38" width="22.71" height="31.28" transform="translate(-4.29 -1.88) rotate(-4.98)"/><g class="cls-3"><path class="cls-1" d="M40,16.46,26.09,17.68a1.23,1.23,0,0,1-1.33-1.12h0a1.24,1.24,0,0,1,1.12-1.33L39.82,14a1.23,1.23,0,0,1,1.33,1.11h0A1.22,1.22,0,0,1,40,16.46Z" transform="translate(-2.16 -4.92)"/><path class="cls-1" d="M40.48,21.62,26.54,22.83a1.23,1.23,0,0,1-1.33-1.12h0a1.23,1.23,0,0,1,1.12-1.33l13.94-1.21a1.23,1.23,0,0,1,1.33,1.12h0A1.24,1.24,0,0,1,40.48,21.62Z" transform="translate(-2.16 -4.92)"/><path class="cls-1" d="M40.93,26.77,27,28a1.23,1.23,0,0,1-1.33-1.11h0a1.22,1.22,0,0,1,1.12-1.33l13.93-1.22A1.22,1.22,0,0,1,42,25.44h0A1.23,1.23,0,0,1,40.93,26.77Z" transform="translate(-2.16 -4.92)"/><path class="cls-1" d="M41.38,31.92,27.44,33.14A1.23,1.23,0,0,1,26.11,32h0a1.22,1.22,0,0,1,1.12-1.33l13.93-1.21a1.22,1.22,0,0,1,1.33,1.11h0A1.22,1.22,0,0,1,41.38,31.92Z" transform="translate(-2.16 -4.92)"/><path class="cls-1" d="M38,37.41l-10.13.88a1.23,1.23,0,0,1-1.33-1.12h0a1.23,1.23,0,0,1,1.12-1.33L37.8,35a1.22,1.22,0,0,1,1.33,1.12h0A1.23,1.23,0,0,1,38,37.41Z" transform="translate(-2.16 -4.92)"/></g><rect class="cls-1" x="49.42" y="8.46" width="22.71" height="31.28" transform="translate(-3.25 -1.96) rotate(-2.76)"/><rect class="cls-4" x="49.42" y="8.46" width="22.71" height="31.28" transform="translate(-3.25 -1.96) rotate(-2.76)"/><g class="cls-3"><path class="cls-1" d="M67.33,14.79l-14,.68a1.24,1.24,0,0,1-1.29-1.17h0A1.23,1.23,0,0,1,53.24,13l14-.67a1.22,1.22,0,0,1,1.29,1.17h0A1.23,1.23,0,0,1,67.33,14.79Z" transform="translate(-2.16 -4.92)"/><path class="cls-1" d="M67.58,20l-14,.67a1.23,1.23,0,0,1-1.29-1.17h0a1.23,1.23,0,0,1,1.17-1.28l14-.68a1.23,1.23,0,0,1,1.29,1.17h0A1.23,1.23,0,0,1,67.58,20Z" transform="translate(-2.16 -4.92)"/><path class="cls-1" d="M57.71,25.61l-3.85.19a1.24,1.24,0,0,1-1.29-1.17h0a1.22,1.22,0,0,1,1.17-1.28l3.85-.19a1.24,1.24,0,0,1,1.29,1.17h0A1.23,1.23,0,0,1,57.71,25.61Z" transform="translate(-2.16 -4.92)"/><path class="cls-1" d="M65.17,25.25l-3.85.19A1.23,1.23,0,0,1,60,24.27h0A1.22,1.22,0,0,1,61.21,23l3.85-.19A1.23,1.23,0,0,1,66.34,24h0A1.23,1.23,0,0,1,65.17,25.25Z" transform="translate(-2.16 -4.92)"/><path class="cls-1" d="M68.08,30.29l-14,.68a1.23,1.23,0,0,1-1.29-1.17h0A1.24,1.24,0,0,1,54,28.51l14-.67A1.24,1.24,0,0,1,69.25,29h0A1.23,1.23,0,0,1,68.08,30.29Z" transform="translate(-2.16 -4.92)"/><path class="cls-1" d="M64.51,35.64l-10.15.49A1.22,1.22,0,0,1,53.07,35h0a1.23,1.23,0,0,1,1.17-1.29l10.15-.49a1.23,1.23,0,0,1,1.29,1.17h0A1.23,1.23,0,0,1,64.51,35.64Z" transform="translate(-2.16 -4.92)"/></g><path class="cls-1" d="M37.61,32.57l-.36-1.35a4,4,0,0,0-4.41-2.88l-19.7,2.31a4.94,4.94,0,0,0-4.35,4.87L9.91,82.45A2.71,2.71,0,0,0,13,85.08l70.48-8.24a3.39,3.39,0,0,0,3-3.35l-1-40.56A2.71,2.71,0,0,0,82.4,30.3L41.48,35.08A3.47,3.47,0,0,1,37.61,32.57Z" transform="translate(-2.16 -4.92)"/><path class="cls-5" d="M37.61,32.57l-.36-1.35a4,4,0,0,0-4.41-2.88l-19.7,2.31a4.94,4.94,0,0,0-4.35,4.87L9.91,82.45A2.71,2.71,0,0,0,13,85.08l70.48-8.24a3.39,3.39,0,0,0,3-3.35l-1-40.56A2.71,2.71,0,0,0,82.4,30.3L41.48,35.08A3.47,3.47,0,0,1,37.61,32.57Z" transform="translate(-2.16 -4.92)"/></g></svg>