<svg xmlns="http://www.w3.org/2000/svg" xmlns:xlink="http://www.w3.org/1999/xlink" viewBox="0 0 1055.15 1230.48"><defs><style>.cls-1{isolation:isolate;}.cls-13,.cls-2,.cls-40,.cls-41,.cls-51{opacity:0.5;}.cls-16,.cls-17,.cls-18,.cls-19,.cls-2,.cls-20,.cls-21,.cls-22,.cls-24,.cls-34,.cls-35,.cls-36,.cls-37,.cls-38,.cls-39,.cls-51{mix-blend-mode:color-dodge;}.cls-2{fill:url(#Gradiente_sem_nome_1561);}.cls-10,.cls-11,.cls-12,.cls-13,.cls-15,.cls-3,.cls-4,.cls-6,.cls-7,.cls-8,.cls-9{fill:#02173d;}.cls-3,.cls-7{opacity:0.6;}.cls-10,.cls-11,.cls-12,.cls-13,.cls-14,.cls-3,.cls-4,.cls-40,.cls-41,.cls-42,.cls-43,.cls-5,.cls-9{mix-blend-mode:screen;}.cls-19,.cls-21,.cls-4{opacity:0.3;}.cls-10,.cls-6{opacity:0.8;}.cls-8,.cls-9{opacity:0.4;}.cls-12,.cls-14{opacity:0.2;}.cls-16{opacity:0.7;fill:url(#Gradiente_sem_nome_1559);}.cls-17,.cls-22{opacity:0.15;}.cls-17{fill:url(#Gradiente_sem_nome_1559-2);}.cls-18,.cls-20{opacity:0.1;}.cls-18{fill:url(#Gradiente_sem_nome_1559-3);}.cls-19{fill:url(#Gradiente_sem_nome_1559-4);}.cls-20{fill:url(#Gradiente_sem_nome_1559-5);}.cls-21{fill:url(#Gradiente_sem_nome_1559-6);}.cls-22{fill:url(#Gradiente_sem_nome_1559-7);}.cls-23{fill:url(#linear-gradient);}.cls-24{fill:url(#radial-gradient);}.cls-25{fill:url(#linear-gradient-2);}.cls-26{fill:url(#radial-gradient-2);}.cls-27{fill:url(#linear-gradient-3);}.cls-28{fill:url(#radial-gradient-3);}.cls-29{fill:url(#linear-gradient-4);}.cls-30{fill:url(#radial-gradient-4);}.cls-31{fill:url(#linear-gradient-5);}.cls-32{fill:#bfd4b9;}.cls-32,.cls-45,.cls-48{mix-blend-mode:multiply;}.cls-33{fill:url(#New_Gradient_Swatch_copy_2);}.cls-34{fill:url(#radial-gradient-5);}.cls-35{fill:url(#radial-gradient-6);}.cls-36{fill:url(#radial-gradient-7);}.cls-37{fill:url(#radial-gradient-8);}.cls-38{fill:url(#Gradiente_sem_nome_1552);}.cls-39{fill:url(#Gradiente_sem_nome_1562);}.cls-41{fill:url(#Gradiente_sem_nome_1550);}.cls-42{fill:url(#Gradiente_sem_nome_1549);}.cls-43{fill:url(#Gradiente_sem_nome_1548);}.cls-44{fill:url(#linear-gradient-6);}.cls-45{fill:url(#linear-gradient-7);}.cls-46{fill:url(#linear-gradient-8);}.cls-47{fill:url(#linear-gradient-9);}.cls-48{fill:url(#linear-gradient-10);}.cls-49{fill:url(#linear-gradient-11);}.cls-50{fill:#fff;}.cls-51{fill:url(#Gradiente_sem_nome_1544);}</style><radialGradient id="Gradiente_sem_nome_1561" cx="-1168.28" cy="375.23" r="639.02" gradientTransform="translate(1278.49 253.98) scale(0.7 0.96)" gradientUnits="userSpaceOnUse"><stop offset="0" stop-color="#3f2afa"/><stop offset="0.21" stop-color="#3322cb" stop-opacity="0.81"/><stop offset="0.67" stop-color="#160f57" stop-opacity="0.35"/><stop offset="1" stop-opacity="0"/></radialGradient><radialGradient id="Gradiente_sem_nome_1559" cx="3868.79" cy="-17.1" r="68.64" gradientTransform="matrix(2.75, -0.23, 0.07, 0.9, -10357.39, 1798.16)" gradientUnits="userSpaceOnUse"><stop offset="0" stop-color="#3825dc"/><stop offset="0.11" stop-color="#2e1eb5" stop-opacity="0.82"/><stop offset="0.28" stop-color="#20157f" stop-opacity="0.58"/><stop offset="0.45" stop-color="#150e51" stop-opacity="0.37"/><stop offset="0.61" stop-color="#0c082e" stop-opacity="0.21"/><stop offset="0.76" stop-color="#050315" stop-opacity="0.09"/><stop offset="0.89" stop-color="#010105" stop-opacity="0.02"/><stop offset="1" stop-opacity="0"/></radialGradient><radialGradient id="Gradiente_sem_nome_1559-2" cx="6435.52" cy="-6072.18" r="68.64" gradientTransform="matrix(0.72, -1.5, 0.53, 0.26, -939.55, 12165.3)" xlink:href="#Gradiente_sem_nome_1559"/><radialGradient id="Gradiente_sem_nome_1559-3" cx="8664.56" cy="12670.3" r="68.64" gradientTransform="matrix(-1.65, 0.17, -0.06, -0.59, 15813.57, 6806.14)" xlink:href="#Gradiente_sem_nome_1559"/><radialGradient id="Gradiente_sem_nome_1559-4" cx="3927.49" cy="15090.96" r="68.64" gradientTransform="matrix(-0.24, 1.64, -0.58, -0.09, 10303.78, -4426.02)" xlink:href="#Gradiente_sem_nome_1559"/><radialGradient id="Gradiente_sem_nome_1559-5" cx="3652.62" cy="-835.15" r="68.64" gradientTransform="matrix(1.92, -0.43, 0.2, 0.88, -6154.1, 3068.63)" xlink:href="#Gradiente_sem_nome_1559"/><radialGradient id="Gradiente_sem_nome_1559-6" cx="2518.81" cy="4174.04" r="68.64" gradientTransform="matrix(1.67, 1.04, -0.47, 0.76, -1535.83, -4850.18)" xlink:href="#Gradiente_sem_nome_1559"/><radialGradient id="Gradiente_sem_nome_1559-7" cx="2290.63" cy="4826.74" r="68.64" gradientTransform="matrix(1.58, 1.17, -0.53, 0.72, -668.98, -5410.16)" xlink:href="#Gradiente_sem_nome_1559"/><linearGradient id="linear-gradient" x1="-6349.22" y1="5827.73" x2="-6877.27" y2="5120.15" gradientTransform="translate(9171.92 1299.7) rotate(45)" gradientUnits="userSpaceOnUse"><stop offset="0.06" stop-color="#002441"/><stop offset="0.21" stop-color="#012642"/><stop offset="0.29" stop-color="#032e47"/><stop offset="0.35" stop-color="#073b4f"/><stop offset="0.4" stop-color="#0d4d5b"/><stop offset="0.42" stop-color="#105761"/><stop offset="0.47" stop-color="#145b65"/><stop offset="0.53" stop-color="#1f6873"/><stop offset="0.6" stop-color="#327d88"/><stop offset="0.66" stop-color="#4c9ba7"/><stop offset="0.69" stop-color="#5bacb8"/><stop offset="0.7" stop-color="#53a3ae"/><stop offset="0.73" stop-color="#36828d"/><stop offset="0.76" stop-color="#216a75"/><stop offset="0.79" stop-color="#145c66"/><stop offset="0.81" stop-color="#105761"/><stop offset="0.83" stop-color="#0e505c"/><stop offset="0.89" stop-color="#06384d"/><stop offset="0.95" stop-color="#022944"/><stop offset="1" stop-color="#002441"/></linearGradient><radialGradient id="radial-gradient" cx="-6627.76" cy="5323.66" r="332.58" gradientTransform="translate(9171.92 1299.7) rotate(45)" gradientUnits="userSpaceOnUse"><stop offset="0" stop-color="#fff"/><stop offset="0.07" stop-color="#d8d8d8"/><stop offset="0.16" stop-color="#a6a6a6"/><stop offset="0.26" stop-color="#797979"/><stop offset="0.37" stop-color="#545454"/><stop offset="0.47" stop-color="#353535"/><stop offset="0.59" stop-color="#1e1e1e"/><stop offset="0.7" stop-color="#0d0d0d"/><stop offset="0.84" stop-color="#030303"/><stop offset="1"/></radialGradient><linearGradient id="linear-gradient-2" x1="-1024.94" y1="5492.73" x2="-1698.96" y2="5586.3" gradientTransform="translate(5329.55 -2542.67) rotate(45)" gradientUnits="userSpaceOnUse"><stop offset="0" stop-color="#105761"/><stop offset="0.3" stop-color="#05354c"/><stop offset="0.49" stop-color="#002441"/><stop offset="1" stop-color="#00121f"/></linearGradient><radialGradient id="radial-gradient-2" cx="-1248.63" cy="1255.02" r="339.38" gradientTransform="translate(2754.88 31.99) rotate(45) scale(1 1.5)" gradientUnits="userSpaceOnUse"><stop offset="0" stop-color="#5946ff"/><stop offset="0.41" stop-color="#0f24ab"/><stop offset="0.53" stop-color="#1033b2"/><stop offset="0.78" stop-color="#125cc5"/><stop offset="0.82" stop-color="#1264c9"/><stop offset="0.88" stop-color="#1373cc"/><stop offset="0.99" stop-color="#169cd5"/><stop offset="1" stop-color="#16a1d6"/></radialGradient><linearGradient id="linear-gradient-3" x1="-1948.57" y1="5680.69" x2="-517.61" y2="5359.92" gradientTransform="translate(5329.55 -2542.67) rotate(45)" gradientUnits="userSpaceOnUse"><stop offset="0" stop-color="#b9ced8"/><stop offset="1" stop-color="#d0e7f2"/></linearGradient><radialGradient id="radial-gradient-3" cx="-1248.62" cy="1255.02" r="242.41" xlink:href="#radial-gradient-2"/><linearGradient id="linear-gradient-4" x1="-1715.26" y1="5628.39" x2="-761.28" y2="5414.54" xlink:href="#linear-gradient-3"/><radialGradient id="radial-gradient-4" cx="-1248.62" cy="1255.02" r="145.45" xlink:href="#radial-gradient-2"/><linearGradient id="linear-gradient-5" x1="-1481.94" y1="5576.09" x2="-1004.95" y2="5469.16" xlink:href="#linear-gradient-3"/><linearGradient id="New_Gradient_Swatch_copy_2" x1="376.81" y1="483.77" x2="676.02" y2="477.43" gradientUnits="userSpaceOnUse"><stop offset="0.04" stop-color="#0f24ab"/><stop offset="0.27" stop-color="#1d2aba"/><stop offset="0.72" stop-color="#403ae3"/><stop offset="1" stop-color="#5946ff"/></linearGradient><radialGradient id="radial-gradient-5" cx="-1180.95" cy="5523.12" r="311.87" gradientTransform="translate(5329.55 -2542.67) rotate(45)" xlink:href="#radial-gradient"/><radialGradient id="radial-gradient-6" cx="-1200.14" cy="5523.44" r="222.76" gradientTransform="translate(5329.55 -2542.67) rotate(45)" xlink:href="#radial-gradient"/><radialGradient id="radial-gradient-7" cx="-1220.42" cy="5523.58" r="134" gradientTransform="translate(5329.55 -2542.67) rotate(45)" xlink:href="#radial-gradient"/><radialGradient id="radial-gradient-8" cx="-1240.04" cy="5523.79" r="44.98" gradientTransform="translate(5329.55 -2542.67) rotate(45)" xlink:href="#radial-gradient"/><radialGradient id="Gradiente_sem_nome_1552" cx="-4981.14" cy="14619.4" r="136.58" gradientTransform="matrix(0.09, 0.51, -0.65, 0.11, 10815.2, 1228.35)" gradientUnits="userSpaceOnUse"><stop offset="0" stop-color="#271a97"/><stop offset="0.04" stop-color="#24188a" stop-opacity="0.92"/><stop offset="0.19" stop-color="#191160" stop-opacity="0.64"/><stop offset="0.35" stop-color="#100b3d" stop-opacity="0.41"/><stop offset="0.51" stop-color="#090623" stop-opacity="0.23"/><stop offset="0.67" stop-color="#04030f" stop-opacity="0.1"/><stop offset="0.83" stop-color="#010104" stop-opacity="0.03"/><stop offset="1" stop-opacity="0"/></radialGradient><radialGradient id="Gradiente_sem_nome_1562" cx="-7833.42" cy="3462.34" r="136.58" gradientTransform="matrix(0.43, 0.18, -0.18, 0.42, 4595.56, 808.03)" gradientUnits="userSpaceOnUse"><stop offset="0" stop-color="#281a9c"/><stop offset="0.06" stop-color="#23178a" stop-opacity="0.89"/><stop offset="0.21" stop-color="#191060" stop-opacity="0.62"/><stop offset="0.36" stop-color="#100a3d" stop-opacity="0.39"/><stop offset="0.52" stop-color="#090623" stop-opacity="0.22"/><stop offset="0.67" stop-color="#04030f" stop-opacity="0.1"/><stop offset="0.83" stop-color="#010104" stop-opacity="0.02"/><stop offset="1" stop-opacity="0"/></radialGradient><linearGradient id="Gradiente_sem_nome_1550" x1="-468.2" y1="340.08" x2="-639.81" y2="504.43" gradientTransform="translate(888.47 411.63) rotate(27.32)" gradientUnits="userSpaceOnUse"><stop offset="0" stop-color="#83ff1a"/><stop offset="0.02" stop-color="#7ff719" stop-opacity="0.97"/><stop offset="0.13" stop-color="#62be13" stop-opacity="0.74"/><stop offset="0.25" stop-color="#488b0e" stop-opacity="0.55"/><stop offset="0.37" stop-color="#32600a" stop-opacity="0.38"/><stop offset="0.49" stop-color="#203e06" stop-opacity="0.24"/><stop offset="0.62" stop-color="#122304" stop-opacity="0.14"/><stop offset="0.74" stop-color="#080f02" stop-opacity="0.06"/><stop offset="0.87" stop-color="#020400" stop-opacity="0.01"/><stop offset="1" stop-opacity="0"/></linearGradient><linearGradient id="Gradiente_sem_nome_1549" x1="-423.37" y1="378.45" x2="-679.96" y2="479.94" gradientTransform="translate(888.47 411.63) rotate(27.32)" gradientUnits="userSpaceOnUse"><stop offset="0" stop-color="#8ee829"/><stop offset="0.09" stop-color="#73bd21" stop-opacity="0.81"/><stop offset="0.22" stop-color="#558b19" stop-opacity="0.6"/><stop offset="0.34" stop-color="#3b6011" stop-opacity="0.42"/><stop offset="0.47" stop-color="#263e0b" stop-opacity="0.27"/><stop offset="0.6" stop-color="#152306" stop-opacity="0.15"/><stop offset="0.73" stop-color="#090f03" stop-opacity="0.07"/><stop offset="0.86" stop-color="#020401" stop-opacity="0.02"/><stop offset="1" stop-opacity="0"/></linearGradient><linearGradient id="Gradiente_sem_nome_1548" x1="-394.39" y1="418.38" x2="-547.85" y2="571.03" xlink:href="#Gradiente_sem_nome_1549"/><linearGradient id="linear-gradient-6" x1="-404.79" y1="485.58" x2="-437.67" y2="369.88" gradientTransform="translate(888.47 411.63) rotate(27.32)" gradientUnits="userSpaceOnUse"><stop offset="0" stop-color="#b9ced8"/><stop offset="0.68" stop-color="#e8eff2"/><stop offset="1" stop-color="#fff"/></linearGradient><linearGradient id="linear-gradient-7" x1="-425.17" y1="416.99" x2="-435.32" y2="394.66" gradientTransform="translate(888.47 411.63) rotate(27.32)" gradientUnits="userSpaceOnUse"><stop offset="0" stop-color="#fff"/><stop offset="1" stop-color="#cee8cc"/></linearGradient><linearGradient id="linear-gradient-8" x1="-647.38" y1="277.07" x2="-461.72" y2="387.44" xlink:href="#linear-gradient-6"/><linearGradient id="linear-gradient-9" x1="-515.2" y1="440.49" x2="-420.2" y2="427.4" xlink:href="#linear-gradient-6"/><linearGradient id="linear-gradient-10" x1="-424.87" y1="520.95" x2="-422.39" y2="468.68" gradientTransform="translate(888.47 411.63) rotate(27.32)" gradientUnits="userSpaceOnUse"><stop offset="0" stop-color="#fff"/><stop offset="1" stop-color="#c7e0c5"/></linearGradient><linearGradient id="linear-gradient-11" x1="-275.99" y1="498.95" x2="-421.1" y2="404.78" xlink:href="#linear-gradient-6"/><radialGradient id="Gradiente_sem_nome_1544" cx="768.3" cy="-1655.91" r="476.12" gradientTransform="matrix(0.86, 0.43, -0.31, 0.63, -572.37, 1163.54)" gradientUnits="userSpaceOnUse"><stop offset="0" stop-color="#5946ff"/><stop offset="0.02" stop-color="#5644f7" stop-opacity="0.97"/><stop offset="0.18" stop-color="#4032b6" stop-opacity="0.71"/><stop offset="0.34" stop-color="#2c237f" stop-opacity="0.5"/><stop offset="0.49" stop-color="#1c1651" stop-opacity="0.32"/><stop offset="0.64" stop-color="#100d2e" stop-opacity="0.18"/><stop offset="0.78" stop-color="#070615" stop-opacity="0.08"/><stop offset="0.9" stop-color="#020105" stop-opacity="0.02"/><stop offset="1" stop-opacity="0"/></radialGradient></defs><title>icon-business-model</title><g class="cls-1"><g id="brainstorm"><ellipse class="cls-2" cx="456.25" cy="615.24" rx="449.74" ry="615.24"/><path class="cls-3" d="M525.33,1042.19c-81.4,0-158-18.36-215.79-51.71-57.92-33.44-89.82-77.87-89.82-125.13,0-46.83,31.43-90.77,88.48-123.71,56.89-32.85,132.65-50.94,213.32-50.94,81.39,0,158,18.37,215.78,51.71,57.92,33.44,89.82,77.88,89.82,125.13,0,46.84-31.43,90.77-88.48,123.72C681.75,1024.11,606,1042.19,525.33,1042.19Zm-3.81-349.57c-80.34,0-155.76,18-212.36,50.68-56.43,32.58-87.52,75.93-87.52,122.05,0,46.54,31.56,90.39,88.87,123.47,57.46,33.18,133.75,51.46,214.82,51.46,80.33,0,155.75-18,212.35-50.68C794.12,957,825.2,913.67,825.2,867.54c0-46.53-31.56-90.38-88.86-123.47C678.87,710.89,602.58,692.62,521.52,692.62Z" transform="translate(10.52 92.4)"/><path class="cls-4" d="M525.24,1035.92c-78.19,0-151.83-17.65-207.34-49.71C262.05,954,231.29,911.06,231.29,865.4c0-45.27,30.3-87.7,85.32-119.46,54.69-31.58,127.49-49,205-49,78.2,0,151.83,17.65,207.35,49.7,55.85,32.24,86.6,75.15,86.6,120.82,0,45.27-30.3,87.69-85.32,119.46C675.54,1018.53,602.74,1035.92,525.24,1035.92ZM521.6,700.81c-76.84,0-149,17.21-203.07,48.45-53.78,31-83.41,72.3-83.41,116.14,0,44.24,30.08,86,84.69,117.5,54.95,31.72,127.9,49.19,205.43,49.19,76.84,0,149-17.21,203.08-48.45,53.78-31.06,83.39-72.3,83.39-116.14,0-44.24-30.07-86-84.68-117.5C672.09,718.28,599.13,700.81,521.6,700.81Z" transform="translate(10.52 92.4)"/><g class="cls-5"><path class="cls-6" d="M413,930.18c-61.34-35.42-61.65-92.66-.69-127.86A164.42,164.42,0,0,1,431.41,793l-5.88-4.84a177.1,177.1,0,0,0-20.4,10c-64.83,37.43-64.5,98.52.74,136.19A198,198,0,0,0,451.32,953l4.26-5.31A186,186,0,0,1,413,930.18Z" transform="translate(10.52 92.4)"/><path class="cls-7" d="M679.13,857.49l10.11-.5c-3.77-20.94-19.37-41.32-46.74-57.53l-7.21,4.16C660.92,818.83,675.55,837.9,679.13,857.49Z" transform="translate(10.52 92.4)"/><path class="cls-6" d="M632.08,801.78l7.21-4.16c-57.71-32.41-145.95-36.1-210.07-11l5.88,4.84C495.28,767.91,577.85,771.37,632.08,801.78Z" transform="translate(10.52 92.4)"/><path class="cls-8" d="M689.61,859.59l-10.1.49c3.35,25.31-11.62,51.21-45,70.5-19.55,11.28-43,18.9-67.91,22.92l2.66,5.65c26.59-4.26,51.67-12.38,72.5-24.41C677.3,914.22,693.21,886.58,689.61,859.59Z" transform="translate(10.52 92.4)"/><path class="cls-7" d="M459.67,948.8l-4.26,5.3c34.55,9,73.27,10.92,109.49,5.72l-2.66-5.65C528.31,959,492.05,957.24,459.67,948.8Z" transform="translate(10.52 92.4)"/></g><path class="cls-9" d="M520.49,755.4c-92.85.47-169.84,39.14-186.18,90.13l17.63,1.83c14.89-46.15,84.56-81.14,168.61-81.63ZM350.61,845.29l-13.71-1.42c17.73-49.48,93.35-85.58,181.69-86.54l0,6.5C436.91,764.83,366.83,798.83,350.61,845.29Z" transform="translate(10.52 92.4)"/><path class="cls-3" d="M525,755.4l0,10.33c41,.36,78.65,8.9,108.29,22.91l11.46-7.89C612,765.22,570.32,755.77,525,755.4Zm108.16,31c-30.52-14.22-67.17-22-106.2-22.6l0-6.5c41.28.58,81.54,9,114,23.74Z" transform="translate(10.52 92.4)"/><path class="cls-10" d="M648.17,782.44l-11.44,7.88c37.27,18.56,61,45.94,61.19,76.43.1,17.88-8,34.65-22.08,49.2l15.52,5.19c15.64-16.06,24.56-34.6,24.45-54.36C715.63,833.13,689.37,802.9,648.17,782.44Zm42.65,136.49-11.53-3.85c13.55-14.8,20.63-31.46,20.55-48.34-.16-29.3-21.75-57.11-59.38-76.67l7.87-5.41c41.52,20.91,65.4,50.8,65.57,82.13C714,885,706,903,690.82,918.93Z" transform="translate(10.52 92.4)"/><path class="cls-11" d="M581.43,961.63a289.71,289.71,0,0,1-56.9,5.54H524c-96.22-.17-174.73-45.5-175-101a59.09,59.09,0,0,1,2.2-16.22l-17.63-1.83a65.9,65.9,0,0,0-2.47,18c.33,61.24,86.9,111.22,193,111.41h.61a320.49,320.49,0,0,0,63-6.15Zm-57.39,14C419,975.4,333.31,926.27,333,866.08a63.33,63.33,0,0,1,2-15.93l13.78,1.42A61.13,61.13,0,0,0,347,866.13c.3,56.6,79.68,102.78,176.94,103h.55a292.49,292.49,0,0,0,56-5.32l4,6.24a318.65,318.65,0,0,1-59.83,5.58Z" transform="translate(10.52 92.4)"/><path class="cls-3" d="M673.62,918.18c-20,19.38-51,34.53-88,42.58l6.18,9.72c41-8.88,75.27-25.65,97.33-47.1ZM588.71,962c35.35-8.08,65.54-22.8,85.4-41.68l11.39,3.82c-21.74,20.06-54.5,35.66-92.8,44.14Z" transform="translate(10.52 92.4)"/><path class="cls-12" d="M599.1,743.74l16.47-30.11c-4.13-.84-8.19-1.79-12.37-2.52l-17.09,30C590.49,741.9,594.79,742.84,599.1,743.74ZM395.52,758.31l-32.58-25.53c-3.57,1.42-7.06,2.92-10.52,4.45L384.49,763C388.11,761.36,391.77,759.78,395.52,758.31ZM621,749.05l21.82-28.93c-3.95-1.09-7.86-2.23-11.87-3.2L608.5,745.69C612.73,746.7,616.83,747.9,621,749.05Zm80.81,37.83c2.82,2.1,5.58,4.22,8.15,6.4l44-18.65c-2.49-2.07-5.12-4.09-7.78-6.1Zm-15.52-10.37q4.8,2.88,9.24,5.89l40.36-21.22c-2.84-1.9-5.79-3.77-8.8-5.62Zm19.48-32.71L669,767.1c3.48,1.7,6.87,3.49,10.2,5.33l36.28-23.55Q710.7,746.27,705.74,743.8Zm-246.36-2.87L442,710.82c-4.16.72-8.23,1.65-12.34,2.47l16.79,30.17C450.72,742.58,455,741.66,459.38,740.93Zm310.15,48.15c-2.1-2.21-4.41-4.36-6.69-6.51l-47.52,15.56c2.43,2.26,4.85,4.52,7,6.83ZM437,745.38l-22.72-28.85c-4,1-7.91,2.09-11.85,3.16l22.15,29C428.73,747.56,432.82,746.37,437,745.38Zm139.38-5.6,10.92-31c-4.25-.58-8.46-1.25-12.75-1.72L563,738C567.52,738.51,572,739.15,576.41,739.78ZM415.68,751.21l-27.81-27.34c-3.8,1.2-7.51,2.52-11.24,3.83l27.26,27.52C407.79,753.83,411.68,752.46,415.68,751.21Zm137.48-14,5.24-31.49c-4.33-.32-8.65-.66-13-.88l-5.89,31.48C544.08,736.51,548.62,736.83,553.16,737.2Zm-47.25-1-6.21-31.5c-4.35.2-8.67.52-13,.83l5.59,31.5C496.82,736.74,501.36,736.43,505.91,736.25Zm-23.47,1.64-11.9-31c-4.28.46-8.49,1.11-12.73,1.68l11.24,31C473.5,739,477.94,738.35,482.44,737.89Zm200-4.53-32.31,25.41c3.76,1.48,7.44,3.08,11.07,4.71L693,737.85C689.54,736.31,686,734.79,682.47,733.36Zm66.91,137.46,54.84-.09c.08-2.52.07-5-.05-7.55l-54.83-.28A74.72,74.72,0,0,1,749.38,870.82Zm-22,52.67,50.24,12.8c1.86-2.28,3.81-4.53,5.47-6.84l-50-13.12C731.4,918.75,729.35,921.12,727.38,923.49Zm-11.31,12,47.68,15.74c2.26-2.15,4.55-4.3,6.62-6.49L723,928.65C720.86,931,718.47,933.21,716.07,935.46Zm-13.43,11.2,44.6,18.52c2.64-2,5.25-4,7.71-6.07l-44.22-18.82C708.18,942.46,705.45,944.57,702.64,946.66ZM517.28,996.88l.48,31.66c4.37.07,8.72.08,13.08,0L531,996.9C526.41,997,521.85,997,517.28,996.88ZM297.47,862.08l-54.84.08c-.09,2.53-.07,5,0,7.55l54.85.29A74.73,74.73,0,0,1,297.47,862.08ZM529.58,736l-.5-31.67c-4.36-.06-8.71-.07-13.08,0L515.86,736C520.44,735.92,525,735.93,529.58,736ZM745.84,843.59l53.6-6.68c-.82-2.47-2-4.91-3-7.36l-53.64,6.3C743.91,838.42,745,841,745.84,843.59Zm3,13.56,54.52-3.39c-.37-2.51-1-5-1.53-7.51l-54.53,3C747.92,851.9,748.47,854.52,748.83,857.15Zm-16.25-39.82,49.83-12.94c-1.68-2.32-3.66-4.58-5.54-6.86l-50.11,12.6C728.76,812.52,730.84,814.89,732.58,817.33Zm7.85,12.93,52-9.88c-1.26-2.4-2.9-4.75-4.36-7.13L736,822.76C737.51,825.25,739.14,827.73,740.43,830.26Zm2.73,67.58,53.7,6.49c1-2.45,2.12-4.88,2.91-7.35l-53.68-6.87C745.29,892.71,744.23,895.27,743.16,897.84Zm4.32-13.42,54.57,3.23c.54-2.5,1.1-5,1.44-7.5l-54.55-3.59A79.21,79.21,0,0,1,747.48,884.42Zm-11,26.49,52.26,9.69c1.42-2.37,3-4.71,4.28-7.11l-52.16-10.07C739.56,906,738,908.42,736.44,910.91Zm-79-186.55L629.92,751.6c4,1.26,7.93,2.65,11.83,4l27-27.43C665,726.9,661.25,725.57,657.43,724.36ZM367.64,960.46,331.36,984q4.8,2.61,9.74,5.08l36.74-23.31C374.37,964.08,371,962.31,367.64,960.46Zm173.29,36.19,6.22,31.49c4.35-.19,8.67-.51,13-.83l-5.58-31.5C550,996.16,545.49,996.46,540.93,996.65Zm-93.19-7.5-16.46,30.12c4.12.84,8.19,1.79,12.36,2.51l17.11-30C456.36,991,452.07,990.05,447.74,989.15Zm45.95,6.54-5.24,31.5c4.33.32,8.65.66,13,.87l5.88-31.47C502.77,996.38,498.23,996.06,493.69,995.69ZM385.61,969.42l-31.79,25.63c3.48,1.54,7,3.06,10.56,4.49l32.31-25.41C392.93,972.64,389.25,971.05,385.61,969.42Zm19.49,7.82-27,27.44c3.73,1.31,7.45,2.65,11.27,3.86l27.52-27.25C412.92,980,409,978.64,405.1,977.24Zm20.79,6.6-21.84,28.94c3.95,1.08,7.86,2.22,11.88,3.2l22.42-28.78C434.13,986.2,430,985,425.89,983.84Zm44.54,9.27-10.91,31c4.25.58,8.46,1.25,12.75,1.72l11.56-30.95C479.33,994.38,474.89,993.75,470.43,993.11Zm199.65-26.79,37,23.44q4.9-2.44,9.67-5L680.23,961C676.91,962.86,673.54,964.63,670.08,966.32Zm-18.75,8.27,32.58,25.53c3.56-1.42,7.05-2.93,10.52-4.45l-32.07-25.75C658.73,971.54,655.08,973.12,651.33,974.59ZM564.41,995l11.9,31c4.27-.45,8.49-1.1,12.73-1.67l-11.25-31C573.35,993.92,568.9,994.54,564.41,995Zm122.84-38,41,21.09q4.5-2.75,8.73-5.58l-40.59-21.37C693.48,953.11,690.41,955.06,687.25,957Zm-56.08,24.7L659,1009c3.8-1.2,7.51-2.52,11.23-3.82L643,977.67C639.06,979.06,635.17,980.44,631.17,981.68ZM587.47,992l17.42,30.12c4.16-.71,8.23-1.65,12.34-2.47l-16.79-30.18C596.13,990.31,591.84,991.23,587.47,992Zm22.35-4.45,22.72,28.86c4-1,7.91-2.09,11.84-3.16l-22.15-29C618.11,985.34,614,986.52,609.82,987.51ZM301,889.31,247.41,896c.82,2.47,2,4.9,3,7.35L304,897C302.93,894.47,301.83,891.9,301,889.31Zm9.4-67.32-52.26-9.7c-1.43,2.37-3,4.72-4.28,7.12L306,829.47C307.28,827,308.89,824.47,310.41,822Zm-6.72,13.07-53.7-6.5c-1,2.45-2.12,4.89-2.91,7.35l53.68,6.88C301.55,840.19,302.62,837.63,303.69,835.06Zm15.78-25.66-50.25-12.79c-1.85,2.28-3.8,4.53-5.47,6.84l50,13.12C315.45,814.14,317.49,811.78,319.47,809.4Zm24.73-23.17-44.59-18.51c-2.64,2-5.25,4-7.71,6.07l44.22,18.81C338.67,790.43,341.4,788.32,344.2,786.23Zm-13.43,11.21L283.1,781.7c-2.27,2.15-4.55,4.29-6.62,6.49l47.35,16C326,801.93,328.38,799.68,330.77,797.44ZM311,971.71q4.26,2.87,8.8,5.62l40.8-20.94q-4.8-2.89-9.23-5.9ZM299.36,848.47l-54.57-3.22c-.53,2.5-1.09,5-1.43,7.5l54.55,3.59A79.9,79.9,0,0,1,299.36,848.47Zm60.24-72.56-41-21.08q-4.5,2.74-8.74,5.58l40.6,21.37Q354.84,778.78,359.6,775.91ZM298,875.74l-54.52,3.4c.37,2.51,1,5,1.52,7.5l54.53-3C298.93,881,298.37,878.37,298,875.74Zm-20.7,68.08c2.09,2.2,4.4,4.35,6.69,6.51l47.51-15.56c-2.42-2.26-4.84-4.52-7-6.84Zm15.57,14.45c2.49,2.07,5.12,4.09,7.79,6.1L345.08,946c-2.83-2.1-5.59-4.22-8.16-6.39Zm21.39-42.7-49.85,12.94c1.69,2.32,3.66,4.58,5.54,6.86l50.12-12.61C318.09,920.37,316,918,314.28,915.57Zm-7.85-12.94-52.06,9.88c1.26,2.41,2.91,4.76,4.36,7.14l52.16-9.51C309.34,907.65,307.71,905.16,306.43,902.63Zm70.34-136-37-23.44c-3.28,1.62-6.5,3.31-9.67,5l36.53,23.68C369.94,770,373.31,768.26,376.77,766.58Z" transform="translate(10.52 92.4)"/><path class="cls-13" d="M701.78,786.88c2.82,2.1,5.58,4.22,8.15,6.4l44-18.65c-2.49-2.07-5.12-4.09-7.78-6.1Zm-286.1-35.67-27.81-27.34c-3.8,1.2-7.51,2.52-11.24,3.83l27.26,27.52C407.79,753.83,411.68,752.46,415.68,751.21Zm137.48-14,5.24-31.49c-4.33-.32-8.65-.66-13-.88l-5.89,31.48C544.08,736.51,548.62,736.83,553.16,737.2Zm-47.25-1-6.21-31.5c-4.35.2-8.67.52-13,.83l5.59,31.5C496.82,736.74,501.36,736.43,505.91,736.25Zm176.56-2.89-32.31,25.41c3.76,1.48,7.44,3.08,11.07,4.71L693,737.85C689.54,736.31,686,734.79,682.47,733.36Zm20.17,213.3,44.6,18.52c2.64-2,5.25-4,7.71-6.07l-44.22-18.82C708.18,942.46,705.45,944.57,702.64,946.66ZM517.28,996.88l.48,31.66c4.37.07,8.72.08,13.08,0L531,996.9C526.41,997,521.85,997,517.28,996.88ZM297.47,862.08l-54.84.08c-.09,2.53-.07,5,0,7.55l54.85.29A74.73,74.73,0,0,1,297.47,862.08Zm448.37-18.49,53.6-6.68c-.82-2.47-2-4.91-3-7.36l-53.64,6.3C743.91,838.42,745,841,745.84,843.59Zm-2.68,54.25,53.7,6.49c1-2.45,2.12-4.88,2.91-7.35l-53.68-6.87C745.29,892.71,744.23,895.27,743.16,897.84Zm-317.27,86-21.84,28.94c3.95,1.08,7.86,2.22,11.88,3.2l22.42-28.78C434.13,986.2,430,985,425.89,983.84Zm205.28-2.16L659,1009c3.8-1.2,7.51-2.52,11.23-3.82L643,977.67C639.06,979.06,635.17,980.44,631.17,981.68ZM301,889.31,247.41,896c.82,2.47,2,4.9,3,7.35L304,897C302.93,894.47,301.83,891.9,301,889.31ZM344.2,786.23l-44.59-18.51c-2.64,2-5.25,4-7.71,6.07l44.22,18.81C338.67,790.43,341.4,788.32,344.2,786.23Zm-51.31,172c2.49,2.07,5.12,4.09,7.79,6.1L345.08,946c-2.83-2.1-5.59-4.22-8.16-6.39Z" transform="translate(10.52 92.4)"/><path class="cls-4" d="M395.52,758.31l-32.58-25.53c-3.57,1.42-7.06,2.92-10.52,4.45L384.49,763C388.11,761.36,391.77,759.78,395.52,758.31ZM621,749.05l21.82-28.93c-3.95-1.09-7.86-2.23-11.87-3.2L608.5,745.69C612.73,746.7,616.83,747.9,621,749.05Zm84.77-5.25L669,767.1c3.48,1.7,6.87,3.49,10.2,5.33l36.28-23.55Q710.7,746.27,705.74,743.8ZM437,745.38l-22.72-28.85c-4,1-7.91,2.09-11.85,3.16l22.15,29C428.73,747.56,432.82,746.37,437,745.38Zm139.38-5.6,10.92-31c-4.25-.58-8.46-1.25-12.75-1.72L563,738C567.52,738.51,572,739.15,576.41,739.78ZM716.07,935.46l47.68,15.74c2.26-2.15,4.55-4.3,6.62-6.49L723,928.65C720.86,931,718.47,933.21,716.07,935.46Zm32.76-78.31,54.52-3.39c-.37-2.51-1-5-1.53-7.51l-54.53,3C747.92,851.9,748.47,854.52,748.83,857.15Zm-16.25-39.82,49.83-12.94c-1.68-2.32-3.66-4.58-5.54-6.86l-50.11,12.6C728.76,812.52,730.84,814.89,732.58,817.33Zm7.85,12.93,52-9.88c-1.26-2.4-2.9-4.75-4.36-7.13L736,822.76C737.51,825.25,739.14,827.73,740.43,830.26Zm-4,80.65,52.26,9.69c1.42-2.37,3-4.71,4.28-7.11l-52.16-10.07C739.56,906,738,908.42,736.44,910.91ZM493.69,995.69l-5.24,31.5c4.33.32,8.65.66,13,.87l5.88-31.47C502.77,996.38,498.23,996.06,493.69,995.69ZM385.61,969.42l-31.79,25.63c3.48,1.54,7,3.06,10.56,4.49l32.31-25.41C392.93,972.64,389.25,971.05,385.61,969.42Zm84.82,23.69-10.91,31c4.25.58,8.46,1.25,12.75,1.72l11.56-30.95C479.33,994.38,474.89,993.75,470.43,993.11Zm180.9-18.52,32.58,25.53c3.56-1.42,7.05-2.93,10.52-4.45l-32.07-25.75C658.73,971.54,655.08,973.12,651.33,974.59ZM587.47,992l17.42,30.12c4.16-.71,8.23-1.65,12.34-2.47l-16.79-30.18C596.13,990.31,591.84,991.23,587.47,992ZM301,889.31,247.41,896c.82,2.47,2,4.9,3,7.35L304,897C302.93,894.47,301.83,891.9,301,889.31Zm2.68-54.25-53.7-6.5c-1,2.45-2.12,4.89-2.91,7.35l53.68,6.88C301.55,840.19,302.62,837.63,303.69,835.06Zm40.51-48.83-44.59-18.51c-2.64,2-5.25,4-7.71,6.07l44.22,18.81C338.67,790.43,341.4,788.32,344.2,786.23ZM314.28,915.57l-49.85,12.94c1.69,2.32,3.66,4.58,5.54,6.86l50.12-12.61C318.09,920.37,316,918,314.28,915.57Z" transform="translate(10.52 92.4)"/><path class="cls-12" d="M601.8,666.68c-3.73-.5-7.41-1.16-11.15-1.59l-8.3,22.21c3.9.44,7.79.94,11.67,1.46Zm-16.8,19,6.91-18.5c1.69.21,3.37.47,5,.72l2.3.35-6.49,18.4C590,686.29,587.46,686,585,685.68Zm52.59-13c-3.62-.72-7.19-1.55-10.84-2.21L614.5,692q5.71,1,11.36,2.14Zm-20.08,17.9,10.23-18c1.78.34,3.56.72,5.29,1.09l1.64.35-9.81,17.93C622.46,691.46,620,691,617.51,690.54Zm95.76,30.61,22.66-18.25c-3.07-1.35-6.14-2.67-9.27-3.95l-23,18.13C706.88,718.39,710.09,719.76,713.27,721.15Zm13.7-20c1.78.74,3.56,1.49,5.29,2.24L713,718.93c-1.94-.84-3.79-1.63-5.59-2.38ZM565.16,662.9c-3.81-.28-7.59-.62-11.4-.82l-4.21,22.55q5.94.3,11.87.73Zm-13.33,19.93,3.51-18.74c1.92.12,3.86.27,5.74.42l1.84.14-3.1,18.68C557.24,683.15,554.6,683,551.83,682.83Zm153.2,8c-3.28-1.14-6.55-2.31-9.9-3.39l-19.64,19.46q5.21,1.67,10.34,3.47Zm-26,15.22,16.58-16.42c2,.65,4,1.34,5.9,2l-16.24,16.52C683.17,707.43,681.1,706.73,679.07,706.06Zm-6.94-25.34c-3.48-.93-6.91-1.94-10.42-2.81l-16,20.59q5.49,1.35,10.91,2.82ZM649,697.36l13.46-17.28c1.91.48,3.82,1,5.67,1.53l.78.21-13.07,17.31C653.62,698.54,651.36,698,649,697.36ZM495.33,684.54,490.87,662c-3.81.19-7.59.52-11.39.78l4,22.49Q489.38,684.81,495.33,684.54Zm-11.9-20.16c1.93-.15,3.9-.3,5.88-.41L493,682.73c-2.76.14-5.39.29-8,.46l-3.31-18.69Zm-113.8,42-19.86-19.52c-3.33,1.06-6.58,2.22-9.86,3.35l19.42,19.61Q364.43,708,369.63,706.35ZM349.25,689,366,705.5c-2,.66-4.06,1.35-6.19,2.08L343.41,691C345.33,690.33,347.29,689.65,349.25,689Zm50.11,9-16.27-20.65c-3.5.85-6.93,1.84-10.39,2.76l15.77,20.66Q393.87,699.39,399.36,698.06Zm-22.83-16.94c1.91-.52,3.86-1.06,5.82-1.55L396,696.91c-2.35.58-4.6,1.16-6.79,1.74L376,681.28Zm-34.94,35.3-23.23-18.21c-3.11,1.26-6.17,2.59-9.22,3.91L332,720.46Q336.75,718.39,341.59,716.42Zm-23.53-16,19.76,15.48c-1.78.74-3.61,1.52-5.53,2.36l-19.47-15.63C314.52,701.88,316.28,701.14,318.06,700.41Zm112.39-8.8L418,670.05c-3.65.64-7.2,1.47-10.82,2.17l12,21.49C422.87,693,426.66,692.27,430.45,691.61Zm-18.64-18.38c1.7-.36,3.44-.72,5.18-1.05l10.43,18c-2.47.44-4.92.9-7.31,1.36l-10-18Zm326.84,60.29,25.85-16.78c-2.82-1.51-5.66-3-8.55-4.46l-26.18,16.61Q734.26,731.14,738.65,733.52Zm17.41-19c1.5.76,3,1.56,4.66,2.42l-22.16,14.39c-1.64-.87-3.29-1.74-4.93-2.59Zm-293.51-27.4L454,664.84c-3.74.42-7.41,1.07-11.13,1.55l8,22.11Q456.71,687.74,462.55,687.08Zm-14.8-19.45c1.64-.24,3.32-.49,5-.71l7.11,18.54c-2.44.28-5,.59-7.69.94L445.49,668ZM528.4,684l-.35-22.64c-2.3,0-4.6,0-6.9,0l-4.57,0-.11,22.63,5,0C523.77,683.91,526.09,683.93,528.4,684Zm-9.92-20.76h2.67l5,0,.29,18.8c-1.66,0-3.32,0-5,0H518.4Zm-202.9,64.94-26.37-16.71q-4.29,2.18-8.49,4.43l26,16.87C309.66,731.17,312.6,729.63,315.58,728.14Zm-26.47-14.51L311.71,728c-1.62.84-3.25,1.69-4.86,2.56L284.49,716C286.09,715.18,287.62,714.39,289.11,713.63ZM810.28,944.36l35.77,9.11c1.61-2,3.32-4,4.8-6l-35.77-9.39C813.54,940.19,812,942.28,810.28,944.36Zm37.28,4.23-1.42,1.74c-.27.33-.54.65-.8,1l-31.73-8.08c.74-1,1.49-1.94,2.24-3Zm-24.95-21.92,37.22,6.91c1.23-2.09,2.65-4.14,3.76-6.25l-37.35-7.2Q824.53,923.42,822.61,926.67Zm38,2-.91,1.46-.81,1.29-33.24-6.17c.55-1,1.11-2,1.65-3Zm-29-20.38L869.93,913c.84-2.15,2-4.27,2.68-6.43l-38.52-4.93C833.35,903.84,832.52,906.08,831.64,908.32Zm3.76-4.63,34.53,4.42c-.19.46-.4.93-.62,1.4l-.6,1.36-34.4-4.16C834.7,905.67,835.06,904.67,835.4,903.69Zm-40.64,57.5,34,11.21c2-1.89,4-3.77,5.8-5.69l-33.82-11.47C798.8,957.24,796.81,959.23,794.76,961.19ZM831,967.54c-.82.8-1.65,1.6-2.47,2.38l-.31.3-29.86-9.86c1-1,2-2,2.88-2.91Zm6.3-78,38.94,2.3c.45-2.2,1-4.38,1.35-6.57l-39.1-2.58C838.17,885,837.79,887.24,837.31,889.52Zm2.83-4.82,35.2,2.32c-.15.71-.32,1.44-.48,2.18-.05.2-.09.4-.14.61l-35.1-2.08C839.8,886.74,840,885.73,840.14,884.7ZM755,991.54l29.23,15q3.91-2.43,7.67-4.9L763,986.44Q759.11,989,755,991.54Zm33.12,10.31c-1.27.81-2.59,1.65-4,2.52l-25.25-13c1.42-.91,2.83-1.81,4.19-2.71ZM776.27,977l31.78,13.2c2.29-1.77,4.58-3.53,6.76-5.33l-31.53-13.42C781,973.29,778.67,975.14,776.27,977Zm34.85,8.38c-1.08.86-2.19,1.72-3.36,2.62l-27.7-11.5c1.24-1,2.41-1.91,3.54-2.83Zm-49.44-238,28.77-15.13c-2.51-1.66-5.1-3.3-7.72-4.92l-29.06,14.92C756.4,743.88,759.08,745.58,761.68,747.32Zm25-15.3-24.88,13.07c-1.38-.91-2.8-1.83-4.25-2.74l25.1-12.89C784.07,730.35,785.4,731.2,786.67,732Zm52.88,138.44,39.2-.06c0-2.21,0-4.41,0-6.62l-39.2-.2C839.6,865.87,839.61,868.17,839.55,870.46Zm37.3-4.77c0,.94,0,1.87,0,2.8l-35.36,0c0-1,0-2,0-3Zm-77.1-87,33.7-11.34c-1.86-1.93-3.88-3.81-5.86-5.72l-33.85,11.1C795.81,774.66,797.82,776.64,799.75,778.65Zm27.34-14.88.45.43,2.37,2.28-29.62,10c-.95-1-1.91-1.94-2.93-2.94Zm-45-1.36,31.39-13.3c-2.2-1.81-4.5-3.58-6.82-5.35l-31.63,13.08Q778.71,759.6,782.14,762.41Zm27.69-13.82-27.37,11.6c-1.14-.92-2.32-1.87-3.58-2.85L806.42,746C807.54,746.81,808.69,747.69,809.83,748.59Zm4.48,47.28L850,786.61c-1.51-2-3.24-4-4.87-6l-35.68,9C811.14,791.66,812.75,793.76,814.31,795.87Zm30.91-12.14,1.45,1.76-31.59,8.2c-.77-1-1.53-2-2.29-3l31.61-8Zm-6.89,67.64,39.07-2.44c-.34-2.2-.94-4.38-1.42-6.58l-38.91,2.16C837.57,846.79,838,849.08,838.33,851.37Zm36.14-7,.16.71c.18.71.34,1.41.48,2.09L840,849.34c-.18-1-.36-2.05-.55-3Zm-48.8-30.49,37.26-7.07c-1.13-2.1-2.57-4.17-3.82-6.26L822,807.31C823.27,809.48,824.5,811.67,825.67,813.86ZM859,804c.31.49.62,1,.91,1.46l-33.21,6.3c-.55-1-1.11-2-1.68-3l33.15-6.05C858.43,803.09,858.71,803.53,859,804Zm-25.28,28.47,38.47-4.79c-.73-2.17-1.89-4.29-2.75-6.45l-38.24,4.5C832.1,827.93,833,830.17,833.71,832.43Zm34.51-9.17c.21.48.43,1,.64,1.41s.42.92.62,1.37L835,830.33c-.36-1-.73-2-1.13-3ZM445,1066.21c3.73.5,7.41,1.17,11.16,1.6l8.3-22.22q-5.87-.66-11.68-1.45Zm16.8-19-6.9,18.5c-1.68-.22-3.36-.47-5-.72l-2.31-.36,6.48-18.39C456.83,1046.61,459.38,1046.93,461.84,1047.22Zm56.61,1.72.35,22.64c2.3,0,4.59,0,6.89,0h4.58l.1-22.64c-1.65,0-3.3,0-5,0Q521.93,1049,518.45,1048.94Zm9.92,20.75h-2.68l-5,0-.29-18.8,5,0h3Zm-46.68.31c3.8.27,7.58.62,11.39.82l4.22-22.56q-5.94-.3-11.87-.73ZM495,1050.06l-3.5,18.75c-2-.12-3.93-.28-5.85-.43l-1.73-.14,3.1-18.67C489.61,1049.75,492.25,1049.91,495,1050.06Zm-85.76,10.2c3.63.72,7.19,1.55,10.85,2.2L432.35,1041q-5.72-1-11.37-2.14Zm20.09-17.91-10.23,18c-1.79-.34-3.58-.72-5.33-1.09l-1.6-.34L422,1041C424.38,1041.44,426.84,1041.9,429.34,1042.35Zm-95.77-30.61L310.91,1030c3.07,1.34,6.14,2.67,9.27,3.94l23-18.12C340,1014.51,336.75,1013.14,333.57,1011.74Zm-13.7,20c-1.8-.74-3.59-1.5-5.29-2.23L333.87,1014c1.93.85,3.78,1.64,5.58,2.39Zm21.95,10.32c3.28,1.14,6.55,2.31,9.89,3.38L371.36,1026c-3.48-1.11-6.92-2.28-10.34-3.47Zm25.95-15.22-16.58,16.42c-2-.65-3.95-1.34-5.89-2l16.24-16.52C363.67,1025.47,365.74,1026.17,367.77,1026.84Zm7,25.34c3.48.93,6.9,1.94,10.42,2.8l16-20.59c-3.66-.9-7.31-1.83-10.92-2.81Zm23.13-16.64-13.46,17.28c-1.92-.49-3.84-1-5.71-1.54l-.73-.21,13.06-17.3C393.21,1034.36,395.48,1035,397.85,1035.54Zm249.64-.7,16.26,20.65c3.51-.86,6.93-1.84,10.4-2.77l-15.78-20.66Q653,1033.51,647.49,1034.84Zm22.84,16.93c-1.91.52-3.88,1.06-5.84,1.56L650.83,1036c2.37-.59,4.62-1.16,6.8-1.75l13.26,17.37Zm6.89-25.23,19.86,19.53c3.33-1.07,6.59-2.22,9.86-3.36l-19.42-19.6Q682.41,1024.88,677.22,1026.54Zm20.38,17.35-16.78-16.5c2-.66,4.06-1.34,6.19-2.08l16.43,16.59C701.52,1042.57,699.56,1043.24,697.6,1043.89Zm7.65-27.41,23.24,18.2c3.11-1.26,6.16-2.58,9.22-3.9l-22.85-18.35C711.69,1013.81,708.49,1015.17,705.25,1016.48Zm23.54,16L709,1017c1.78-.74,3.61-1.52,5.53-2.35L734,1030.28C732.25,1031.05,730.52,1031.78,728.79,1032.49Zm2.47-27.74,26.38,16.71q4.29-2.16,8.48-4.43l-26-16.87Q735.72,1002.52,731.26,1004.75Zm26.48,14.51-22.61-14.32q2.45-1.26,4.87-2.55l22.35,14.48C760.76,1017.71,759.23,1018.5,757.74,1019.26ZM308.2,999.38l-25.85,16.78q4.23,2.28,8.54,4.46L317.08,1004Q312.58,1001.75,308.2,999.38Zm-17.42,19c-1.5-.76-3-1.56-4.66-2.41l22.17-14.39q2.46,1.32,4.92,2.58Zm293.51,27.4,8.54,22.24c3.75-.41,7.42-1.06,11.14-1.55l-8-22.1Q590.13,1045.17,584.29,1045.81Zm14.81,19.45c-1.64.25-3.33.5-5,.71L587,1047.44c2.44-.28,5-.59,7.7-.94l6.69,18.43ZM291.83,741.35l-29.23-15q-3.92,2.42-7.67,4.89l28.93,15.23Q287.75,743.87,291.83,741.35Zm-33.12-10.3c1.26-.82,2.59-1.65,4-2.52l25.26,13c-1.43.9-2.83,1.81-4.2,2.71Zm292.81,317.31,4.46,22.57c3.81-.18,7.59-.52,11.38-.78l-4-22.48C559.43,1048,555.48,1048.17,551.52,1048.36Zm11.76,20.17c-1.89.14-3.82.28-5.75.4l-3.7-18.77c2.73-.13,5.4-.29,8-.46l3.3,18.69Zm53.12-27.25,12.48,21.56c3.64-.64,7.2-1.46,10.82-2.17l-12-21.49Q622.1,1040.29,616.4,1041.28Zm18.75,18.37c-1.73.36-3.51.73-5.29,1.06l-10.43-18c2.48-.44,4.93-.9,7.31-1.36l10,18ZM215.21,824.57,176.92,820c-.84,2.14-2,4.26-2.69,6.43l38.53,4.92C213.49,829.05,214.32,826.81,215.21,824.57Zm-3.77,4.63-34.53-4.41c.2-.46.4-.92.62-1.4l.6-1.37,34.4,4.16C212.14,827.22,211.78,828.23,211.44,829.2Zm12.8-23L187,799.32c-1.23,2.09-2.65,4.14-3.76,6.24l37.34,7.21C221.74,810.58,223,808.39,224.24,806.22Zm-38-2,.89-1.43c.28-.44.55-.88.82-1.32l33.25,6.17c-.56,1-1.11,2-1.65,3Zm23.27,39.19-38.93-2.3c-.45,2.19-1,4.37-1.36,6.57l39.1,2.58C208.67,847.94,209.06,845.66,209.53,843.38Zm-2.82,4.82-35.2-2.32c.15-.71.31-1.42.47-2.16l.15-.64,35.1,2.08C207,846.15,206.87,847.16,206.71,848.2Zm45.37-76.49-34-11.21c-2,1.89-4,3.76-5.81,5.69l33.82,11.46C248,775.65,250,773.67,252.08,771.71Zm-36.24-6.35c.73-.72,1.48-1.45,2.22-2.15l.56-.53,29.86,9.85c-1,1-2,2-2.88,2.92Zm54.73-9.44-31.78-13.19c-2.29,1.76-4.57,3.53-6.76,5.33l31.53,13.41Q267,758.67,270.57,755.92Zm-34.85-8.38,3.37-2.62,27.7,11.5q-1.86,1.47-3.54,2.83ZM207.3,862.43l-39.2.06c0,2.22,0,4.42,0,6.63l39.19.2C207.25,867,207.24,864.73,207.3,862.43ZM170,867.21c0-.94,0-1.87,0-2.8l35.36,0c0,1,0,2,0,3Zm66.57-78.68-35.78-9.1c-1.6,2-3.32,4-4.8,6l35.77,9.39C233.3,792.71,234.89,790.61,236.57,788.53Zm-37.29-4.22c.47-.59,1-1.17,1.43-1.75l.8-1,31.73,8.07c-.75,1-1.5,2-2.25,3Zm85.88,201.27L256.4,1000.7q3.77,2.49,7.72,4.93l29.06-14.92Q289.07,988.18,285.16,985.58Zm-25,15.3,24.87-13.08q2.07,1.37,4.25,2.75l-25.1,12.88C262.78,1002.54,261.44,1001.7,260.18,1000.88Zm-13.09-46.64-33.7,11.35c1.87,1.92,3.89,3.81,5.87,5.71l33.84-11.09C251,958.24,249,956.25,247.09,954.24Zm-27.33,14.88-.26-.24-2.56-2.46,29.61-10c.94,1,1.92,1.93,2.93,2.93ZM232.54,937l-35.67,9.27c1.5,2,3.24,4,4.86,6l35.68-9Q234.86,940.2,232.54,937Zm-31,12-1.36-1.64,31.59-8.2c.77,1,1.52,2,2.28,3l-31.61,8C202.15,949.78,201.84,949.42,201.54,949.05Zm63.16,21.44-31.39,13.3c2.2,1.8,4.51,3.58,6.83,5.35l31.63-13.08Q268.13,973.3,264.7,970.49ZM237,984.3l27.37-11.6c1.13.92,2.32,1.87,3.59,2.86l-27.54,11.38C239.3,986.08,238.15,985.2,237,984.3ZM221.17,919l-37.26,7.07c1.13,2.11,2.57,4.17,3.83,6.26l37.14-6.77Q222.93,922.33,221.17,919Zm-33.28,10-.95-1.51,33.21-6.3c.56,1,1.12,2,1.69,3l-33.16,6Zm25.24-28.52-38.47,4.79c.74,2.16,1.9,4.29,2.76,6.44l38.23-4.49C214.74,905,213.89,902.72,213.13,900.47Zm-34.51,9.16-.63-1.39c-.21-.47-.43-.93-.63-1.38l34.47-4.3c.35,1,.72,2,1.13,3Zm29.89-28.1L169.44,884c.35,2.2.95,4.38,1.43,6.58l38.91-2.16C209.27,886.1,208.86,883.82,208.51,881.53Zm-36.13,7c-.06-.24-.12-.48-.17-.72-.17-.71-.34-1.39-.48-2.08l35.16-2.19c.18,1,.36,2.05.56,3Z" transform="translate(10.52 92.4)"/><path class="cls-12" d="M565.16,662.9c-3.81-.28-7.59-.62-11.4-.82l-4.21,22.55q5.94.3,11.87.73Zm-13.33,19.93,3.51-18.74c1.92.12,3.86.27,5.74.42l1.84.14-3.1,18.68C557.24,683.15,554.6,683,551.83,682.83Zm153.2,8c-3.28-1.14-6.55-2.31-9.9-3.39l-19.64,19.46q5.21,1.67,10.34,3.47Zm-26,15.22,16.58-16.42c2,.65,4,1.34,5.9,2l-16.24,16.52C683.17,707.43,681.1,706.73,679.07,706.06Zm-6.94-25.34c-3.48-.93-6.91-1.94-10.42-2.81l-16,20.59q5.49,1.35,10.91,2.82ZM649,697.36l13.46-17.28c1.91.48,3.82,1,5.67,1.53l.78.21-13.07,17.31C653.62,698.54,651.36,698,649,697.36Zm-279.36,9-19.86-19.52c-3.33,1.06-6.58,2.22-9.86,3.35l19.42,19.61Q364.43,708,369.63,706.35ZM349.25,689,366,705.5c-2,.66-4.06,1.35-6.19,2.08L343.41,691C345.33,690.33,347.29,689.65,349.25,689Zm113.3-1.93L454,664.84c-3.74.42-7.41,1.07-11.13,1.55l8,22.11Q456.71,687.74,462.55,687.08Zm-14.8-19.45c1.64-.24,3.32-.49,5-.71l7.11,18.54c-2.44.28-5,.59-7.69.94L445.49,668ZM315.58,728.14l-26.37-16.71q-4.29,2.18-8.49,4.43l26,16.87C309.66,731.17,312.6,729.63,315.58,728.14Zm-26.47-14.51L311.71,728c-1.62.84-3.25,1.69-4.86,2.56L284.49,716C286.09,715.18,287.62,714.39,289.11,713.63Zm533.5,213,37.22,6.91c1.23-2.09,2.65-4.14,3.76-6.25l-37.35-7.2Q824.53,923.42,822.61,926.67Zm38,2-.91,1.46-.81,1.29-33.24-6.17c.55-1,1.11-2,1.65-3Zm-23.28-39.18,38.94,2.3c.45-2.2,1-4.38,1.35-6.57l-39.1-2.58C838.17,885,837.79,887.24,837.31,889.52Zm2.83-4.82,35.2,2.32c-.15.71-.32,1.44-.48,2.18-.05.2-.09.4-.14.61l-35.1-2.08C839.8,886.74,840,885.73,840.14,884.7ZM755,991.54l29.23,15q3.91-2.43,7.67-4.9L763,986.44Q759.11,989,755,991.54Zm33.12,10.31c-1.27.81-2.59,1.65-4,2.52l-25.25-13c1.42-.91,2.83-1.81,4.19-2.71ZM776.27,977l31.78,13.2c2.29-1.77,4.58-3.53,6.76-5.33l-31.53-13.42C781,973.29,778.67,975.14,776.27,977Zm34.85,8.38c-1.08.86-2.19,1.72-3.36,2.62l-27.7-11.5c1.24-1,2.41-1.91,3.54-2.83Zm-11.37-206.7,33.7-11.34c-1.86-1.93-3.88-3.81-5.86-5.72l-33.85,11.1C795.81,774.66,797.82,776.64,799.75,778.65Zm27.34-14.88.45.43,2.37,2.28-29.62,10c-.95-1-1.91-1.94-2.93-2.94Zm6.62,68.66,38.47-4.79c-.73-2.17-1.89-4.29-2.75-6.45l-38.24,4.5C832.1,827.93,833,830.17,833.71,832.43Zm34.51-9.17c.21.48.43,1,.64,1.41s.42.92.62,1.37L835,830.33c-.36-1-.73-2-1.13-3ZM445,1066.21c3.73.5,7.41,1.17,11.16,1.6l8.3-22.22q-5.87-.66-11.68-1.45Zm16.8-19-6.9,18.5c-1.68-.22-3.36-.47-5-.72l-2.31-.36,6.48-18.39C456.83,1046.61,459.38,1046.93,461.84,1047.22Zm-87.12,5c3.48.93,6.9,1.94,10.42,2.8l16-20.59c-3.66-.9-7.31-1.83-10.92-2.81Zm23.13-16.64-13.46,17.28c-1.92-.49-3.84-1-5.71-1.54l-.73-.21,13.06-17.3C393.21,1034.36,395.48,1035,397.85,1035.54Zm279.37-9,19.86,19.53c3.33-1.07,6.59-2.22,9.86-3.36l-19.42-19.6Q682.41,1024.88,677.22,1026.54Zm20.38,17.35-16.78-16.5c2-.66,4.06-1.34,6.19-2.08l16.43,16.59C701.52,1042.57,699.56,1043.24,697.6,1043.89ZM308.2,999.38l-25.85,16.78q4.23,2.28,8.54,4.46L317.08,1004Q312.58,1001.75,308.2,999.38Zm-17.42,19c-1.5-.76-3-1.56-4.66-2.41l22.17-14.39q2.46,1.32,4.92,2.58Zm293.51,27.4,8.54,22.24c3.75-.41,7.42-1.06,11.14-1.55l-8-22.1Q590.13,1045.17,584.29,1045.81Zm14.81,19.45c-1.64.25-3.33.5-5,.71L587,1047.44c2.44-.28,5-.59,7.7-.94l6.69,18.43Zm-47.58-16.9,4.46,22.57c3.81-.18,7.59-.52,11.38-.78l-4-22.48C559.43,1048,555.48,1048.17,551.52,1048.36Zm11.76,20.17c-1.89.14-3.82.28-5.75.4l-3.7-18.77c2.73-.13,5.4-.29,8-.46l3.3,18.69ZM209.53,843.38l-38.93-2.3c-.45,2.19-1,4.37-1.36,6.57l39.1,2.58C208.67,847.94,209.06,845.66,209.53,843.38Zm-2.82,4.82-35.2-2.32c.15-.71.31-1.42.47-2.16l.15-.64,35.1,2.08C207,846.15,206.87,847.16,206.71,848.2Zm45.37-76.49-34-11.21c-2,1.89-4,3.76-5.81,5.69l33.82,11.46C248,775.65,250,773.67,252.08,771.71Zm-36.24-6.35c.73-.72,1.48-1.45,2.22-2.15l.56-.53,29.86,9.85c-1,1-2,2-2.88,2.92Zm20.73,23.17-35.78-9.1c-1.6,2-3.32,4-4.8,6l35.77,9.39C233.3,792.71,234.89,790.61,236.57,788.53Zm-37.29-4.22c.47-.59,1-1.17,1.43-1.75l.8-1,31.73,8.07c-.75,1-1.5,2-2.25,3Zm47.81,169.93-33.7,11.35c1.87,1.92,3.89,3.81,5.87,5.71l33.84-11.09C251,958.24,249,956.25,247.09,954.24Zm-27.33,14.88-.26-.24-2.56-2.46,29.61-10c.94,1,1.92,1.93,2.93,2.93ZM221.17,919l-37.26,7.07c1.13,2.11,2.57,4.17,3.83,6.26l37.14-6.77Q222.93,922.33,221.17,919Zm-33.28,10-.95-1.51,33.21-6.3c.56,1,1.12,2,1.69,3l-33.16,6Zm25.24-28.52-38.47,4.79c.74,2.16,1.9,4.29,2.76,6.44l38.23-4.49C214.74,905,213.89,902.72,213.13,900.47Zm-34.51,9.16-.63-1.39c-.21-.47-.43-.93-.63-1.38l34.47-4.3c.35,1,.72,2,1.13,3Z" transform="translate(10.52 92.4)"/><g class="cls-14"><path class="cls-15" d="M723.08,868.05c-.33,27.25-17.13,52.24-44.94,71.81l11.5,5.58c32.28-22.63,48.12-48,48.4-77.37Z" transform="translate(10.52 92.4)"/></g><path class="cls-3" d="M561.4,988.87c48.49-4.85,93-19.58,125.45-41.52l-11.5-5.58c-36.53,24.61-90.81,40.16-151.39,40.06-35.59-.07-69.05-5.54-98.07-15.05l-7.39,7.42C462.25,988.51,512.91,993.72,561.4,988.87Z" transform="translate(10.52 92.4)"/><path class="cls-4" d="M323.57,866.13c-.34-63.6,89-115.17,199.14-115q16.63,0,32.57,1.6l2.56-8.53c-37.83-3.72-72.37-1.93-108.53,5.61-84.42,17.6-141,64.31-140.68,116.22.07,14,4.28,27.89,12.5,41.23l13.94-2.91C327.7,892.39,323.64,879.52,323.57,866.13Z" transform="translate(10.52 92.4)"/><path class="cls-12" d="M336.56,906.73l-13.94,2.91c18,27.57,48.14,48.3,92.11,63.3l7.4-7.42C383.27,952.14,352.81,931.42,336.56,906.73Z" transform="translate(10.52 92.4)"/><path class="cls-13" d="M723.06,865.54l15,0c-.65-28.95-18.45-56.86-50.23-78.7s-76.35-36.8-125.68-42.2l-2.56,8.53C651.5,763.29,721.68,809.79,723.06,865.54Z" transform="translate(10.52 92.4)"/><path class="cls-16" d="M488.16,875.65c2.85,34-79.51,68.62-183.93,77.35S112.84,941.26,110,907.27s79.5-68.62,183.94-77.35S485.32,841.66,488.16,875.65Z" transform="translate(10.52 92.4)"/><path class="cls-17" d="M512,882.86c20.13,9.68,14.36,63.5-12.89,120.22s-65.67,94.87-85.8,85.2-14.37-63.5,12.89-120.23S491.87,873.19,512,882.86Z" transform="translate(10.52 92.4)"/><path class="cls-18" d="M626.28,866.08c-2.29-22.22,46.6-45.47,109.19-51.93S850.68,820.48,853,842.7s-46.6,45.47-109.2,51.92S628.57,888.3,626.28,866.08Z" transform="translate(10.52 92.4)"/><path class="cls-19" d="M543.89,849.25c-22.11-3.24-32.63-56.34-23.5-118.61s34.43-110.12,56.53-106.88,32.63,56.34,23.5,118.61S566,852.49,543.89,849.25Z" transform="translate(10.52 92.4)"/><path class="cls-20" d="M838,739.89c7.43,33.29-45.65,73.45-118.55,89.71S581.44,832,574,798.74s45.65-73.45,118.55-89.7S830.57,706.6,838,739.89Z" transform="translate(10.52 92.4)"/><path class="cls-21" d="M815,1029c-18,29-84,20.54-147.46-18.84s-100.32-94.8-82.33-123.78,84-20.55,147.46,18.84S833,1000,815,1029Z" transform="translate(10.52 92.4)"/><path class="cls-22" d="M491.06,844.51C470.8,872,405.67,858.24,345.59,813.88s-92.37-102.56-72.11-130S358.87,670.15,419,714.51,511.32,817.07,491.06,844.51Z" transform="translate(10.52 92.4)"/><path class="cls-23" d="M665.15,834.84C597.77,902.23,526.78,926.7,465.87,912c-1.83-.44-28.52-6.78-30.33-7.29C374.21,887.37,449.27,862.62,424,768.4c-50.81-189.63,19.82-455.19,157.78-593.13,68.21-68.22,5.7-131.83,67.11-116,1.71.44,37.16,13.16,38.86,13.66,60.47,18,110.17,75.51,135.15,168.75C873.74,431.34,803.1,696.89,665.15,834.84Z" transform="translate(10.52 92.4)"/><path class="cls-24" d="M801,235.9C776.68,145,728.81,88.16,670.4,68.69c46.45,26.15,83.91,78.77,104.53,155.72C825.74,414.05,755.1,679.6,617.15,817.55,545.33,889.37,469.45,912.34,406,891.2,474,929.48,561.3,911,643.26,829,781.21,691.09,851.85,425.54,801,235.9Z" transform="translate(10.52 92.4)"/><path class="cls-25" d="M633.08,824.75c-138.4,138.4-291.91,96.37-342.89-93.87s19.9-456.65,158.29-595,291.91-96.37,342.89,93.87S771.47,686.36,633.08,824.75Z" transform="translate(10.52 92.4)"/><path class="cls-26" d="M628.88,809.09c-132.1,132.11-278.64,92-327.3-89.6s19-435.89,151.1-568S731.32,59.51,780,241.1,761,677,628.88,809.09Z" transform="translate(10.52 92.4)"/><path class="cls-27" d="M616.29,762.12C503.07,875.35,377.46,841,335.76,685.32S352,311.7,465.26,198.47s238.83-78.85,280.54,76.8S729.53,648.89,616.29,762.12Z" transform="translate(10.52 92.4)"/><path class="cls-28" d="M603.71,715.15c-94.36,94.36-199,65.71-233.79-64S383.49,339.8,477.85,245.44s199-65.7,233.79,64S698.07,620.79,603.71,715.15Z" transform="translate(10.52 92.4)"/><path class="cls-29" d="M591.12,668.18c-75.48,75.49-159.22,52.56-187-51.2S415,367.9,490.44,292.41s159.22-52.56,187,51.2S666.61,592.69,591.12,668.18Z" transform="translate(10.52 92.4)"/><path class="cls-30" d="M578.54,621.21c-56.62,56.61-119.42,39.42-140.27-38.4S446.4,396,503,339.38,622.44,300,643.29,377.78,635.15,564.59,578.54,621.21Z" transform="translate(10.52 92.4)"/><path class="cls-31" d="M566,574.24c-37.74,37.74-79.61,26.28-93.51-25.6s5.42-124.54,43.17-162.29,79.61-26.28,93.52,25.61S603.7,536.49,566,574.24Z" transform="translate(10.52 92.4)"/><path class="cls-32" d="M340.8,682.52C299.09,526.87,357.08,308.9,470.31,195.66c18.47-18.47,37.27-33,56-43.72-20.39,10.95-40.91,26.39-61,46.53C352,311.7,294.05,529.67,335.76,685.32c34.9,130.25,128.55,175.57,224.55,120.53C466.1,856.46,375.09,810.49,340.8,682.52Z" transform="translate(10.52 92.4)"/><path class="cls-32" d="M409.14,614.18C381.34,510.41,420,365.1,495.48,289.61A181.22,181.22,0,0,1,531,261.52c-13.54,7.29-27.17,17.51-40.55,30.89C415,367.9,376.29,513.21,404.09,617c23.5,87.66,86.9,117.62,151.53,79.29C492.76,730.14,432,699.55,409.14,614.18Z" transform="translate(10.52 92.4)"/><path class="cls-32" d="M477.49,545.83c-13.91-51.88,5.42-124.54,43.16-162.28a91.51,91.51,0,0,1,17-13.59,85.85,85.85,0,0,0-22.07,16.39c-37.75,37.75-57.07,110.41-43.17,162.29,11.83,44.15,43.92,59,76.48,39.19C518.14,603.23,488.7,587.71,477.49,545.83Z" transform="translate(10.52 92.4)"/><path class="cls-33" d="M553.36,527.27c-18.87,18.87-39.8,13.14-46.75-12.8s2.71-62.27,21.59-81.15S568,420.18,575,446.13,572.24,508.4,553.36,527.27Z" transform="translate(10.52 92.4)"/><path class="cls-34" d="M780,241.1c-17.56-65.52-47.87-112.62-85.64-139.86,35.68,27.67,64.29,73.59,81.15,136.5,48.66,181.59-19,435.89-151.1,568C540,890.16,449.63,904.24,382.73,856c67.31,52.21,159.81,39.45,246.15-46.89C761,677,828.64,422.69,780,241.1Z" transform="translate(10.52 92.4)"/><path class="cls-35" d="M711.64,309.44c-12.51-46.68-34.11-80.2-61-99.68,24.8,19.88,44.69,52.25,56.5,96.32,34.75,129.71-13.57,311.35-107.92,405.71-60.4,60.39-125,70.31-172.8,35.68,48.19,38.62,115,30,177.28-32.32C698.07,620.79,746.39,439.15,711.64,309.44Z" transform="translate(10.52 92.4)"/><path class="cls-36" d="M643.29,377.78c-7.73-28.85-21.23-49.34-38-60.86,14.72,11.95,26.52,31.27,33.55,57.5,20.86,77.82-8.13,186.81-64.75,243.43-35.63,35.62-73.7,42-102.23,22.46,28.95,23.49,69.19,18.43,106.72-19.1C635.15,564.59,664.14,455.61,643.29,377.78Z" transform="translate(10.52 92.4)"/><path class="cls-37" d="M575,446.13c-2.79-10.43-7.87-17.54-14.14-21.14,4.19,4,7.57,10,9.66,17.77,6.95,25.94-2.72,62.27-21.59,81.14-11.29,11.29-23.28,13.71-32.61,8.34,9.72,9.35,23.91,8.22,37.09-5C572.24,508.4,581.9,472.07,575,446.13Z" transform="translate(10.52 92.4)"/><path class="cls-38" d="M823.91,410.14c-49.34,8.54-94.74-15.77-101.42-54.3s27.91-76.7,77.25-85.24,94.75,15.76,101.42,54.29S873.25,401.59,823.91,410.14Z" transform="translate(10.52 92.4)"/><path class="cls-39" d="M682.82,882.17c-13.23,31.68-50.21,46.39-82.61,32.87s-47.94-50.17-34.71-81.85,50.21-46.39,82.6-32.87S696.05,850.49,682.82,882.17Z" transform="translate(10.52 92.4)"/><g class="cls-5"><path class="cls-6" d="M632.08,801.78l7.21-4.16c-57.71-32.41-145.95-36.1-210.07-11l5.88,4.84C495.28,767.91,577.85,771.37,632.08,801.78Z" transform="translate(10.52 92.4)"/></g><path class="cls-3" d="M525,755.4l0,10.33c41,.36,78.65,8.9,108.29,22.91l11.46-7.89C612,765.22,570.32,755.77,525,755.4Zm108.16,31c-30.52-14.22-67.17-22-106.2-22.6l0-6.5c41.28.58,81.54,9,114,23.74Z" transform="translate(10.52 92.4)"/><path class="cls-12" d="M599.1,743.74l16.47-30.11c-4.13-.84-8.19-1.79-12.37-2.52l-17.09,30C590.49,741.9,594.79,742.84,599.1,743.74ZM621,749.05l21.82-28.93c-3.95-1.09-7.86-2.23-11.87-3.2L608.5,745.69C612.73,746.7,616.83,747.9,621,749.05Zm-161.59-8.12L442,710.82c-4.16.72-8.23,1.65-12.34,2.47l16.79,30.17C450.72,742.58,455,741.66,459.38,740.93ZM437,745.38l-22.72-28.85c-4,1-7.91,2.09-11.85,3.16l22.15,29C428.73,747.56,432.82,746.37,437,745.38Zm139.38-5.6,10.92-31c-4.25-.58-8.46-1.25-12.75-1.72L563,738C567.52,738.51,572,739.15,576.41,739.78Zm-23.25-2.58,5.24-31.49c-4.33-.32-8.65-.66-13-.88l-5.89,31.48C544.08,736.51,548.62,736.83,553.16,737.2Zm-47.25-1-6.21-31.5c-4.35.2-8.67.52-13,.83l5.59,31.5C496.82,736.74,501.36,736.43,505.91,736.25Zm-23.47,1.64-11.9-31c-4.28.46-8.49,1.11-12.73,1.68l11.24,31C473.5,739,477.94,738.35,482.44,737.89Zm200-4.53-32.31,25.41c3.76,1.48,7.44,3.08,11.07,4.71L693,737.85C689.54,736.31,686,734.79,682.47,733.36ZM529.58,736l-.5-31.67c-4.36-.06-8.71-.07-13.08,0L515.86,736C520.44,735.92,525,735.93,529.58,736Zm127.85-11.66L629.92,751.6c4,1.26,7.93,2.65,11.83,4l27-27.43C665,726.9,661.25,725.57,657.43,724.36Z" transform="translate(10.52 92.4)"/><path class="cls-13" d="M553.16,737.2l5.24-31.49c-4.33-.32-8.65-.66-13-.88l-5.89,31.48C544.08,736.51,548.62,736.83,553.16,737.2Zm-47.25-1-6.21-31.5c-4.35.2-8.67.52-13,.83l5.59,31.5C496.82,736.74,501.36,736.43,505.91,736.25Zm176.56-2.89-32.31,25.41c3.76,1.48,7.44,3.08,11.07,4.71L693,737.85C689.54,736.31,686,734.79,682.47,733.36Z" transform="translate(10.52 92.4)"/><path class="cls-4" d="M621,749.05l21.82-28.93c-3.95-1.09-7.86-2.23-11.87-3.2L608.5,745.69C612.73,746.7,616.83,747.9,621,749.05ZM437,745.38l-22.72-28.85c-4,1-7.91,2.09-11.85,3.16l22.15,29C428.73,747.56,432.82,746.37,437,745.38Zm139.38-5.6,10.92-31c-4.25-.58-8.46-1.25-12.75-1.72L563,738C567.52,738.51,572,739.15,576.41,739.78Z" transform="translate(10.52 92.4)"/><path class="cls-12" d="M601.8,666.68c-3.73-.5-7.41-1.16-11.15-1.59l-8.3,22.21c3.9.44,7.79.94,11.67,1.46Zm-16.8,19,6.91-18.5c1.69.21,3.37.47,5,.72l2.3.35-6.49,18.4C590,686.29,587.46,686,585,685.68Zm52.59-13c-3.62-.72-7.19-1.55-10.84-2.21L614.5,692q5.71,1,11.36,2.14Zm-20.08,17.9,10.23-18c1.78.34,3.56.72,5.29,1.09l1.64.35-9.81,17.93C622.46,691.46,620,691,617.51,690.54ZM565.16,662.9c-3.81-.28-7.59-.62-11.4-.82l-4.21,22.55q5.94.3,11.87.73Zm-13.33,19.93,3.51-18.74c1.92.12,3.86.27,5.74.42l1.84.14-3.1,18.68C557.24,683.15,554.6,683,551.83,682.83Zm153.2,8c-3.28-1.14-6.55-2.31-9.9-3.39l-19.64,19.46q5.21,1.67,10.34,3.47Zm-26,15.22,16.58-16.42c2,.65,4,1.34,5.9,2l-16.24,16.52C683.17,707.43,681.1,706.73,679.07,706.06Zm-6.94-25.34c-3.48-.93-6.91-1.94-10.42-2.81l-16,20.59q5.49,1.35,10.91,2.82ZM649,697.36l13.46-17.28c1.91.48,3.82,1,5.67,1.53l.78.21-13.07,17.31C653.62,698.54,651.36,698,649,697.36ZM495.33,684.54,490.87,662c-3.81.19-7.59.52-11.39.78l4,22.49Q489.38,684.81,495.33,684.54Zm-11.9-20.16c1.93-.15,3.9-.3,5.88-.41L493,682.73c-2.76.14-5.39.29-8,.46l-3.31-18.69Zm-53,27.23L418,670.05c-3.65.64-7.2,1.47-10.82,2.17l12,21.49C422.87,693,426.66,692.27,430.45,691.61Zm-18.64-18.38c1.7-.36,3.44-.72,5.18-1.05l10.43,18c-2.47.44-4.92.9-7.31,1.36l-10-18Zm50.74,13.85L454,664.84c-3.74.42-7.41,1.07-11.13,1.55l8,22.11Q456.71,687.74,462.55,687.08Zm-14.8-19.45c1.64-.24,3.32-.49,5-.71l7.11,18.54c-2.44.28-5,.59-7.69.94L445.49,668ZM528.4,684l-.35-22.64c-2.3,0-4.6,0-6.9,0l-4.57,0-.11,22.63,5,0C523.77,683.91,526.09,683.93,528.4,684Zm-9.92-20.76h2.67l5,0,.29,18.8c-1.66,0-3.32,0-5,0H518.4Z" transform="translate(10.52 92.4)"/><path class="cls-12" d="M565.16,662.9c-3.81-.28-7.59-.62-11.4-.82l-4.21,22.55q5.94.3,11.87.73Zm-13.33,19.93,3.51-18.74c1.92.12,3.86.27,5.74.42l1.84.14-3.1,18.68C557.24,683.15,554.6,683,551.83,682.83Zm153.2,8c-3.28-1.14-6.55-2.31-9.9-3.39l-19.64,19.46q5.21,1.67,10.34,3.47Zm-26,15.22,16.58-16.42c2,.65,4,1.34,5.9,2l-16.24,16.52C683.17,707.43,681.1,706.73,679.07,706.06Zm-6.94-25.34c-3.48-.93-6.91-1.94-10.42-2.81l-16,20.59q5.49,1.35,10.91,2.82ZM649,697.36l13.46-17.28c1.91.48,3.82,1,5.67,1.53l.78.21-13.07,17.31C653.62,698.54,651.36,698,649,697.36ZM462.55,687.08,454,664.84c-3.74.42-7.41,1.07-11.13,1.55l8,22.11Q456.71,687.74,462.55,687.08Zm-14.8-19.45c1.64-.24,3.32-.49,5-.71l7.11,18.54c-2.44.28-5,.59-7.69.94L445.49,668Z" transform="translate(10.52 92.4)"/><path class="cls-13" d="M674.09,778.33c-30.33-17.2-69.36-29-112-33.67l-2.56,8.53c42.51,4.67,80.34,17.13,108.9,34.68C670.37,784.72,672.26,781.55,674.09,778.33Z" transform="translate(10.52 92.4)"/><g class="cls-40"><path class="cls-15" d="M388.21,715.66c0,1.32.13,2.62.2,3.93,40.56-12.26,86-18.78,133.19-18.78,63.65,0,124.2,11.79,174.25,33.57.5-1.18,1-2.35,1.49-3.54C646.82,708.88,585.75,697,521.6,697,474.37,697,428.91,703.47,388.21,715.66Z" transform="translate(10.52 92.4)"/><path class="cls-15" d="M388.05,708.59l0,2c40.93-11.71,86.32-18,133.44-18,64.71,0,126.36,11.68,177.84,33.26l.72-1.77c-51.72-21.68-113.61-33.41-178.56-33.41C474.42,690.7,429,696.91,388.05,708.59Z" transform="translate(10.52 92.4)"/></g><path class="cls-13" d="M393.86,767.18c.64,3.39,1.31,6.76,2.06,10.09,34.44-16.39,78.62-26.2,126.79-26.12q16.63,0,32.57,1.6l2.56-8.53c-37.83-3.72-72.37-1.93-108.53,5.61A285,285,0,0,0,393.86,767.18Z" transform="translate(10.52 92.4)"/><path class="cls-13" d="M400.41,794.67C431.33,777,473.7,766,520.55,765.73l-.06-10.33c-47.17.24-90.22,10.35-123.34,26.91.16.64.31,1.28.47,1.91,32.69-16.4,75.1-26.39,121-26.89l0,6.5c-45.67.56-87.7,11.43-118.73,29C400.06,793.46,400.24,794.07,400.41,794.67Z" transform="translate(10.52 92.4)"/><polygon class="cls-41" points="229 528.12 0 488.44 66 658.25 379.85 584.11 229 528.12"/><polygon class="cls-42" points="447.83 568.02 16.24 552.57 35.79 528.86 10.52 489.31 447.83 568.02"/><polygon class="cls-43" points="447.83 568.02 93.79 620.03 112.78 694.74 163.22 722.17 447.83 568.02"/><polygon class="cls-44" points="447.83 568.02 202.18 558.82 189.73 628.92 447.83 568.02"/><polygon class="cls-45" points="447.83 568.02 202.18 558.82 189.73 628.92 447.83 568.02"/><polygon class="cls-46" points="447.83 568.02 202.18 558.82 168.1 544.09 157.93 515.98 447.83 568.02"/><polygon class="cls-47" points="447.83 568.02 228.43 600.03 189.73 628.92 447.83 568.02"/><polygon class="cls-48" points="447.83 568.02 228.43 600.03 189.73 628.92 447.83 568.02"/><polygon class="cls-49" points="447.83 568.02 228.43 600.03 239.19 640.43 264.07 667.44 447.83 568.02"/><polygon class="cls-50" points="264.07 667.44 239.19 640.43 228.43 600.03 189.73 628.92 202.18 558.82 168.1 544.09 157.93 515.98 169.09 543.91 202.85 558.88 191.22 626.5 228.43 600.03 239.89 639.3 264.07 667.44"/><path class="cls-51" d="M1018.41,661.62C936.26,826.34,685.77,868.15,458.93,755s-344.14-338.38-262-503.09S529.58,45.39,756.42,158.52,1100.55,496.91,1018.41,661.62Z" transform="translate(10.52 92.4)"/></g></g></svg>