<svg xmlns="http://www.w3.org/2000/svg" xmlns:xlink="http://www.w3.org/1999/xlink" viewBox="0 0 624 464.16"><defs><style>.cls-1{isolation:isolate;}.cls-2{fill:url(#Áåçûìÿííûé_ãðàäèåíò_9);}.cls-3,.cls-4{fill:#3b223a;}.cls-4{opacity:0.5;}.cls-23,.cls-4,.cls-49,.cls-50{mix-blend-mode:multiply;}.cls-5{fill:#181019;}.cls-6{fill:url(#Áåçûìÿííûé_ãðàäèåíò_10);}.cls-7{fill:url(#Áåçûìÿííûé_ãðàäèåíò_11);}.cls-8{fill:url(#Áåçûìÿííûé_ãðàäèåíò_10-2);}.cls-9{fill:url(#Áåçûìÿííûé_ãðàäèåíò_11-2);}.cls-10{fill:url(#Áåçûìÿííûé_ãðàäèåíò_10-3);}.cls-11{fill:url(#Áåçûìÿííûé_ãðàäèåíò_11-3);}.cls-12{fill:url(#Áåçûìÿííûé_ãðàäèåíò_10-4);}.cls-13{fill:url(#Áåçûìÿííûé_ãðàäèåíò_11-4);}.cls-14{fill:url(#Áåçûìÿííûé_ãðàäèåíò_10-5);}.cls-15{fill:url(#Áåçûìÿííûé_ãðàäèåíò_9-2);}.cls-16{fill:url(#Áåçûìÿííûé_ãðàäèåíò_9-3);}.cls-17{fill:url(#Áåçûìÿííûé_ãðàäèåíò_9-4);}.cls-18{fill:url(#Áåçûìÿííûé_ãðàäèåíò_9-5);}.cls-19{fill:url(#Áåçûìÿííûé_ãðàäèåíò_9-6);}.cls-20{fill:url(#Áåçûìÿííûé_ãðàäèåíò_135);}.cls-21{fill:url(#Áåçûìÿííûé_ãðàäèåíò_141);}.cls-22{fill:url(#Áåçûìÿííûé_ãðàäèåíò_146);}.cls-23{fill:#e8a000;}.cls-23,.cls-50{opacity:0.6;}.cls-24{fill:url(#Áåçûìÿííûé_ãðàäèåíò_38);}.cls-25,.cls-26,.cls-27,.cls-28,.cls-42,.cls-56,.cls-63,.cls-64,.cls-65{mix-blend-mode:screen;}.cls-25{fill:url(#Áåçûìÿííûé_ãðàäèåíò_3);}.cls-26{fill:url(#Gradiente_sem_nome_10);}.cls-27{fill:url(#Gradiente_sem_nome_12);}.cls-28{fill:url(#Gradiente_sem_nome_9);}.cls-29{fill:#472a47;}.cls-30{fill:#261626;}.cls-31{fill:#2e1a2d;}.cls-32{fill:url(#Áåçûìÿííûé_ãðàäèåíò_161);}.cls-33{fill:url(#Áåçûìÿííûé_ãðàäèåíò_161-2);}.cls-34{fill:url(#Áåçûìÿííûé_ãðàäèåíò_9-7);}.cls-35{fill:url(#Áåçûìÿííûé_ãðàäèåíò_9-8);}.cls-36{fill:#190f19;}.cls-37{fill:#302030;}.cls-38{fill:#2c0035;}.cls-39{fill:#3b0049;}.cls-40{fill:#490959;}.cls-41{fill:#efefef;}.cls-42{opacity:0.3;fill:url(#Áåçûìÿííûé_ãðàäèåíò_182);}.cls-43{fill:#f7b192;}.cls-44{fill:#fff;}.cls-45{fill:#ffc8b3;}.cls-46{fill:#5b3f2c;}.cls-47{fill:#b56ee4;}.cls-48{fill:#f6adff;}.cls-49{fill:#f3befb;opacity:0.2;}.cls-50{fill:#cb89f0;}.cls-51{fill:#b069e2;}.cls-52{fill:url(#Áåçûìÿííûé_ãðàäèåíò_4);}.cls-53{fill:#c185e8;}.cls-54{fill:#8e40cf;}.cls-55{fill:url(#Áåçûìÿííûé_ãðàäèåíò_222);}.cls-56{fill:url(#Áåçûìÿííûé_ãðàäèåíò_203);}.cls-57{fill:#1c1a18;}.cls-58{fill:url(#Áåçûìÿííûé_ãðàäèåíò_4-2);}.cls-59{fill:#cd64e6;}.cls-60{fill:#962dcc;}.cls-61{fill:#ff98ff;}.cls-62{fill:#fccaeb;}.cls-63{fill:url(#Gradiente_sem_nome_15);}.cls-64{fill:url(#Gradiente_sem_nome_15-2);}.cls-65{fill:#fdc5ff;}</style><linearGradient id="Áåçûìÿííûé_ãðàäèåíò_9" x1="293.22" y1="335.77" x2="312.05" y2="335.77" gradientUnits="userSpaceOnUse"><stop offset="0" stop-color="#a13dce"/><stop offset="1" stop-color="#da89f0"/></linearGradient><linearGradient id="Áåçûìÿííûé_ãðàäèåíò_10" x1="275.44" y1="278.94" x2="338.84" y2="278.94" gradientUnits="userSpaceOnUse"><stop offset="0" stop-color="#8d26bb"/><stop offset="1" stop-color="#be56da"/></linearGradient><linearGradient id="Áåçûìÿííûé_ãðàäèåíò_11" x1="271.25" y1="261.84" x2="343.01" y2="261.84" gradientTransform="translate(0.74 -0.87) rotate(0.16)" gradientUnits="userSpaceOnUse"><stop offset="0" stop-color="#d685ee"/><stop offset="0.49" stop-color="#ffabff"/><stop offset="1" stop-color="#ffc5f8"/></linearGradient><linearGradient id="Áåçûìÿííûé_ãðàäèåíò_10-2" x1="274.35" y1="268.62" x2="339.9" y2="268.62" xlink:href="#Áåçûìÿííûé_ãðàäèåíò_10"/><linearGradient id="Áåçûìÿííûé_ãðàäèåíò_11-2" x1="271.22" y1="253" x2="342.99" y2="253" gradientTransform="translate(0.72 -0.87) rotate(0.16)" xlink:href="#Áåçûìÿííûé_ãðàäèåíò_11"/><linearGradient id="Áåçûìÿííûé_ãðàäèåíò_10-3" x1="274.32" y1="259.78" x2="339.87" y2="259.78" xlink:href="#Áåçûìÿííûé_ãðàäèåíò_10"/><linearGradient id="Áåçûìÿííûé_ãðàäèåíò_11-3" x1="271.19" y1="244.14" x2="342.96" y2="244.14" gradientTransform="matrix(1, 0, 0, 1, 0, 0)" xlink:href="#Áåçûìÿííûé_ãðàäèåíò_11"/><linearGradient id="Áåçûìÿííûé_ãðàäèåíò_10-4" x1="274.3" y1="250.91" x2="339.85" y2="250.91" xlink:href="#Áåçûìÿííûé_ãðàäèåíò_10"/><linearGradient id="Áåçûìÿííûé_ãðàäèåíò_11-4" x1="271.17" y1="235.28" x2="342.94" y2="235.28" gradientTransform="matrix(1, 0, 0, 1, 0, 0)" xlink:href="#Áåçûìÿííûé_ãðàäèåíò_11"/><linearGradient id="Áåçûìÿííûé_ãðàäèåíò_10-5" x1="274.27" y1="242.05" x2="339.82" y2="242.05" xlink:href="#Áåçûìÿííûé_ãðàäèåíò_10"/><linearGradient id="Áåçûìÿííûé_ãðàäèåíò_9-2" x1="271.25" y1="273.95" x2="343.02" y2="273.95" xlink:href="#Áåçûìÿííûé_ãðàäèåíò_9"/><linearGradient id="Áåçûìÿííûé_ãðàäèåíò_9-3" x1="271.22" y1="265.1" x2="343" y2="265.1" xlink:href="#Áåçûìÿííûé_ãðàäèåíò_9"/><linearGradient id="Áåçûìÿííûé_ãðàäèåíò_9-4" x1="271.19" y1="256.24" x2="342.97" y2="256.24" xlink:href="#Áåçûìÿííûé_ãðàäèåíò_9"/><linearGradient id="Áåçûìÿííûé_ãðàäèåíò_9-5" x1="271.17" y1="247.38" x2="342.95" y2="247.38" xlink:href="#Áåçûìÿííûé_ãðàäèåíò_9"/><linearGradient id="Áåçûìÿííûé_ãðàäèåíò_9-6" x1="261.01" y1="226.23" x2="352.96" y2="226.23" xlink:href="#Áåçûìÿííûé_ãðàäèåíò_9"/><linearGradient id="Áåçûìÿííûé_ãðàäèåíò_135" x1="261.01" y1="203.24" x2="352.91" y2="203.24" gradientUnits="userSpaceOnUse"><stop offset="0" stop-color="#ffabff"/><stop offset="0.52" stop-color="#ffc5f8"/><stop offset="1" stop-color="#ffd1f9"/></linearGradient><radialGradient id="Áåçûìÿííûé_ãðàäèåíò_141" cx="326.72" cy="226.34" r="52.78" gradientUnits="userSpaceOnUse"><stop offset="0" stop-color="#fff"/><stop offset="1" stop-color="#ffc5f8"/></radialGradient><radialGradient id="Áåçûìÿííûé_ãðàäèåíò_146" cx="351.81" cy="56.98" r="204.12" gradientUnits="userSpaceOnUse"><stop offset="0" stop-color="#f7ff85"/><stop offset="1" stop-color="#fcd72c"/></radialGradient><linearGradient id="Áåçûìÿííûé_ãðàäèåíò_38" x1="308.61" y1="100" x2="296.82" y2="205.19" gradientUnits="userSpaceOnUse"><stop offset="0" stop-color="#f7ffb0"/><stop offset="0.5" stop-color="#f7ff85"/><stop offset="1" stop-color="#fbe142"/></linearGradient><linearGradient id="Áåçûìÿííûé_ãðàäèåíò_3" x1="346.13" y1="39.96" x2="302.05" y2="196.85" gradientUnits="userSpaceOnUse"><stop offset="0" stop-color="#ffcd3d"/><stop offset="0.03" stop-color="#f2c33a"/><stop offset="0.25" stop-color="#aa8929"/><stop offset="0.44" stop-color="#6d581a"/><stop offset="0.62" stop-color="#3e320f"/><stop offset="0.78" stop-color="#1c1707"/><stop offset="0.91" stop-color="#070602"/><stop offset="1"/></linearGradient><radialGradient id="Gradiente_sem_nome_10" cx="330.16" cy="251.03" r="70.31" gradientTransform="translate(274.21 -159.93) rotate(45)" gradientUnits="userSpaceOnUse"><stop offset="0" stop-color="#e53dff"/><stop offset="0.08" stop-color="#b731cc" stop-opacity="0.8"/><stop offset="0.17" stop-color="#8d259d" stop-opacity="0.61"/><stop offset="0.26" stop-color="#671b73" stop-opacity="0.45"/><stop offset="0.36" stop-color="#47134f" stop-opacity="0.31"/><stop offset="0.46" stop-color="#2d0c32" stop-opacity="0.2"/><stop offset="0.57" stop-color="#19071c" stop-opacity="0.11"/><stop offset="0.68" stop-color="#0b030c" stop-opacity="0.05"/><stop offset="0.82" stop-color="#030103" stop-opacity="0.01"/><stop offset="1" stop-opacity="0"/></radialGradient><radialGradient id="Gradiente_sem_nome_12" cx="328.02" cy="227.34" r="70.31" gradientTransform="translate(476.78 -143) rotate(77.16)" gradientUnits="userSpaceOnUse"><stop offset="0" stop-color="#e53dff"/><stop offset="0.04" stop-color="#bf33d5" stop-opacity="0.84"/><stop offset="0.1" stop-color="#9828a9" stop-opacity="0.66"/><stop offset="0.16" stop-color="#731f80" stop-opacity="0.5"/><stop offset="0.22" stop-color="#54165e" stop-opacity="0.37"/><stop offset="0.29" stop-color="#3a0f40" stop-opacity="0.25"/><stop offset="0.37" stop-color="#250a29" stop-opacity="0.16"/><stop offset="0.46" stop-color="#140516" stop-opacity="0.09"/><stop offset="0.57" stop-color="#09020a" stop-opacity="0.04"/><stop offset="0.7" stop-color="#020102" stop-opacity="0.01"/><stop offset="1" stop-opacity="0"/></radialGradient><radialGradient id="Gradiente_sem_nome_9" cx="300.74" cy="139.71" r="139.71" gradientUnits="userSpaceOnUse"><stop offset="0" stop-color="#fb0"/><stop offset="0.02" stop-color="#f7b500" stop-opacity="0.97"/><stop offset="0.13" stop-color="#be8b00" stop-opacity="0.74"/><stop offset="0.25" stop-color="#8b6600" stop-opacity="0.55"/><stop offset="0.37" stop-color="#604700" stop-opacity="0.38"/><stop offset="0.49" stop-color="#3e2d00" stop-opacity="0.24"/><stop offset="0.62" stop-color="#231900" stop-opacity="0.14"/><stop offset="0.74" stop-color="#0f0b00" stop-opacity="0.06"/><stop offset="0.87" stop-color="#040300" stop-opacity="0.01"/><stop offset="1" stop-opacity="0"/></radialGradient><linearGradient id="Áåçûìÿííûé_ãðàäèåíò_161" x1="400.75" y1="362.88" x2="396.82" y2="369.68" gradientUnits="userSpaceOnUse"><stop offset="0" stop-color="#3b223a"/><stop offset="1" stop-color="#2e1a2d"/></linearGradient><linearGradient id="Áåçûìÿííûé_ãðàäèåíò_161-2" x1="492.04" y1="362.54" x2="488.12" y2="369.33" gradientTransform="matrix(-1, 0, 0, 1, 704.7, 0)" xlink:href="#Áåçûìÿííûé_ãðàäèåíò_161"/><linearGradient id="Áåçûìÿííûé_ãðàäèåíò_9-7" x1="430.92" y1="407.2" x2="449.74" y2="407.2" xlink:href="#Áåçûìÿííûé_ãðàäèåíò_9"/><linearGradient id="Áåçûìÿííûé_ãðàäèåíò_9-8" x1="159.53" y1="412.89" x2="178.35" y2="412.89" xlink:href="#Áåçûìÿííûé_ãðàäèåíò_9"/><radialGradient id="Áåçûìÿííûé_ãðàäèåíò_182" cx="162.93" cy="348.62" r="32.93" gradientUnits="userSpaceOnUse"><stop offset="0" stop-color="#694169"/><stop offset="1"/></radialGradient><linearGradient id="Áåçûìÿííûé_ãðàäèåíò_4" x1="188.62" y1="385.53" x2="232.31" y2="385.53" gradientUnits="userSpaceOnUse"><stop offset="0" stop-color="#ffc5ff"/><stop offset="1" stop-color="#ffdeff"/></linearGradient><radialGradient id="Áåçûìÿííûé_ãðàäèåíò_222" cx="367.77" cy="306.57" r="24.89" gradientTransform="matrix(-1, 0, 0, 1, 805.18, 0)" gradientUnits="userSpaceOnUse"><stop offset="0" stop-color="#d9d9d9"/><stop offset="0.16" stop-color="#e0e0e0"/><stop offset="0.57" stop-color="#ebebeb"/><stop offset="1" stop-color="#efefef"/></radialGradient><radialGradient id="Áåçûìÿííûé_ãðàäèåíò_203" cx="344.63" cy="333.61" r="31.77" gradientTransform="matrix(-1, 0, 0, 1, 805.18, 0)" gradientUnits="userSpaceOnUse"><stop offset="0" stop-color="#fff"/><stop offset="1"/></radialGradient><linearGradient id="Áåçûìÿííûé_ãðàäèåíò_4-2" x1="366.16" y1="370.86" x2="408.68" y2="370.86" gradientTransform="matrix(-1, 0, 0, 1, 805.18, 0)" xlink:href="#Áåçûìÿííûé_ãðàäèåíò_4"/><radialGradient id="Gradiente_sem_nome_15" cx="510.5" cy="141.49" r="101.47" gradientTransform="translate(249.57 -319.54) rotate(45)" gradientUnits="userSpaceOnUse"><stop offset="0" stop-color="#ffec3d"/><stop offset="0.13" stop-color="#e53dff"/><stop offset="0.14" stop-color="#d739ef"/><stop offset="0.15" stop-color="#c835de"/><stop offset="0.2" stop-color="#a12bb3" stop-opacity="0.81"/><stop offset="0.26" stop-color="#7b2189" stop-opacity="0.62"/><stop offset="0.33" stop-color="#5a1864" stop-opacity="0.45"/><stop offset="0.4" stop-color="#3e1045" stop-opacity="0.31"/><stop offset="0.47" stop-color="#270a2c" stop-opacity="0.2"/><stop offset="0.56" stop-color="#160618" stop-opacity="0.11"/><stop offset="0.66" stop-color="#09020a" stop-opacity="0.05"/><stop offset="0.78" stop-color="#020102" stop-opacity="0.01"/><stop offset="1" stop-opacity="0"/></radialGradient><radialGradient id="Gradiente_sem_nome_15-2" cx="89.43" cy="254.61" r="101.47" gradientTransform="translate(206.23 11.34) rotate(45)" xlink:href="#Gradiente_sem_nome_15"/></defs><title>icon-sobre</title><g class="cls-1"><g id="_0" data-name="0"><g class="cls-1"><path class="cls-2" d="M241.39,294l0,45.72c0,1.61,1.06,3.22,3.18,4.44L299.68,376a16.73,16.73,0,0,0,15.2,0L370,343.87c2.07-1.21,3.11-2.79,3.12-4.37l0-45.72Z" transform="translate(12.03 -10.83)"/><path class="cls-3" d="M370,289.35l-55.15-31.84a16.75,16.75,0,0,0-15.21,0l-55.14,32.07c-4.19,2.44-4.17,6.38,0,8.82l55.14,31.84a16.75,16.75,0,0,0,15.21,0l55.15-32.07C374.24,295.72,374.22,291.77,370,289.35Z" transform="translate(12.03 -10.83)"/></g><ellipse class="cls-4" cx="319.56" cy="283.06" rx="41.68" ry="24.07"/><path class="cls-5" d="M295.81,286.69a9.4,9.4,0,0,0,4.75,7.86c6.76,4.21,17.74.63,17.91-7.93Z" transform="translate(12.03 -10.83)"/><path class="cls-6" d="M275.44,265.57c.08,4.16,1.53,14.63,13.31,22,18.91,11.79,49.6,1.78,50.09-22.16Z" transform="translate(12.03 -10.83)"/><ellipse class="cls-7" cx="307.13" cy="261.84" rx="35.88" ry="20.79" transform="translate(11.29 -9.96) rotate(-0.16)"/><path class="cls-8" d="M274.36,261.94v-5.32c0,4.71,3,9.43,9.12,13.09,12.53,7.54,33.27,7.75,46.33.46,6.72-3.74,10.1-8.74,10.08-13.74l0,5.32c0,5-3.36,10-10.08,13.75-13.06,7.28-33.81,7.07-46.34-.47-6.08-3.66-9.11-8.38-9.12-13.09Z" transform="translate(12.03 -10.83)"/><ellipse class="cls-9" cx="307.1" cy="253" rx="35.88" ry="20.79" transform="translate(11.32 -9.96) rotate(-0.16)"/><path class="cls-10" d="M274.34,253.1l0-5.34c0,4.72,3,9.43,9.12,13.09,12.53,7.54,33.28,7.75,46.34.47,6.72-3.75,10.09-8.75,10.08-13.75v5.33c0,5-3.36,10-10.08,13.75-13.06,7.29-33.8,7.08-46.33-.47-6.08-3.66-9.11-8.37-9.12-13.08Z" transform="translate(12.03 -10.83)"/><path class="cls-11" d="M333,229.7c-13.72-8.26-36.43-8.49-50.73-.52s-14.78,21.14-1.05,29.4,36.43,8.48,50.73.51S346.69,238,333,229.7Z" transform="translate(12.03 -10.83)"/><path class="cls-12" d="M274.31,244.23V238.9c0,4.72,3,9.43,9.12,13.09,12.53,7.54,33.27,7.75,46.33.47,6.72-3.75,10.1-8.75,10.08-13.75l0,5.33c0,5-3.36,10-10.08,13.75-13.06,7.28-33.81,7.07-46.34-.47-6.08-3.66-9.11-8.37-9.12-13.09Z" transform="translate(12.03 -10.83)"/><path class="cls-13" d="M333,220.84c13.72,8.26,13.25,21.42-1.05,29.39s-37,7.75-50.74-.51-13.25-21.41,1-29.39S319.23,212.59,333,220.84Z" transform="translate(12.03 -10.83)"/><path class="cls-14" d="M274.29,235.38l0-5.34c0,4.71,3,9.43,9.12,13.09,12.53,7.54,33.28,7.75,46.33.46,6.73-3.74,10.1-8.74,10.09-13.75v5.35c0,5-3.36,10-10.08,13.75-13.06,7.28-33.8,7.07-46.33-.47-6.08-3.66-9.11-8.38-9.12-13.09Z" transform="translate(12.03 -10.83)"/><path class="cls-15" d="M271.26,265.48V262c0,5.16,3.33,10.32,10,14.33,13.72,8.26,36.43,8.49,50.73.51,7.36-4.1,11.06-9.58,11-15.05v3.53c0,5.48-3.68,11-11,15.06-14.3,8-37,7.74-50.73-.52-6.66-4-10-9.17-10-14.33Z" transform="translate(12.03 -10.83)"/><path class="cls-16" d="M271.23,256.63V253.1c0,5.17,3.33,10.33,10,14.34,13.72,8.26,36.44,8.49,50.74.51,7.36-4.1,11.05-9.58,11-15v3.52c0,5.47-3.68,10.95-11,15.05-14.3,8-37,7.75-50.74-.51-6.66-4-10-9.17-10-14.33Z" transform="translate(12.03 -10.83)"/><path class="cls-17" d="M271.2,247.77v-3.53c0,5.16,3.34,10.33,10,14.33,13.72,8.26,36.43,8.49,50.73.52C339.28,255,343,249.51,343,244v3.53c0,5.48-3.68,11-11,15.06-14.3,8-37,7.74-50.73-.51-6.66-4-10-9.17-10-14.34Z" transform="translate(12.03 -10.83)"/><path class="cls-18" d="M271.18,238.91v-3.52c0,5.16,3.33,10.32,10,14.33,13.72,8.26,36.44,8.49,50.74.51,7.36-4.1,11.05-9.58,11-15v3.52c0,5.47-3.68,11-11,15.06-14.3,8-37,7.74-50.74-.52-6.66-4-10-9.17-10-14.33Z" transform="translate(12.03 -10.83)"/><path class="cls-19" d="M352.91,203.1l-91.9.27.05,15.88q0,.66.06,1.32c.57,8.29,5.44,15.32,14.49,20.92,12.88,8,33.43,10.16,50,5.34,9.37-2.72,24.78-9.51,27.09-24.89a15.55,15.55,0,0,0,.29-3Z" transform="translate(12.03 -10.83)"/><path class="cls-20" d="M340.12,184.75c10.21,6.14,14.28,14.41,12.31,22.25-1.42,5.66-6,11.11-13.65,15.38-18.32,10.22-47.41,9.92-65-.65s-17-27.43,1.34-37.64S322.55,174.18,340.12,184.75Z" transform="translate(12.03 -10.83)"/><path class="cls-21" d="M273.81,221.73c30.05,18.21,73.68,6.46,78.62-14.73C346,225.76,306.7,237.67,273.81,221.73Z" transform="translate(12.03 -10.83)"/><path class="cls-22" d="M387.61,94.11C384.7,69.46,371.72,49.51,349,34.82a80.72,80.72,0,0,0-33.87-11.26c-39.63-4-69.95,20.82-81.36,45.51-14.77,32-9.27,64,16.35,95.05,0,0,.38.48.4.5,7.87,9.95,12.45,22.57,13.58,37.55a17.22,17.22,0,0,0,4.28,10,30.42,30.42,0,0,0,7.72,6.41c16.53,9.95,43.88,10.22,61.1.62a31.54,31.54,0,0,0,9-7.24,17.23,17.23,0,0,0,4.23-10.18c1.08-15.06,5.63-27.74,13.52-37.71.06-.06.28-.34.32-.39C377.16,147.94,391.34,125.81,387.61,94.11Z" transform="translate(12.03 -10.83)"/><path class="cls-23" d="M332.82,183c14,8.41,13.49,21.81-1.07,29.93s-37.7,7.89-51.67-.52-13.5-21.81,1.07-29.93S318.84,174.62,332.82,183Z" transform="translate(12.03 -10.83)"/><path class="cls-24" d="M333.21,93.93a1.79,1.79,0,0,0-2.49.56l-.62,1a2,2,0,0,0-.64,0,2.42,2.42,0,0,0-1.61,1.11c-.37.47-.69.93-1,1.38a9,9,0,0,1-1.73,2.09,2.65,2.65,0,0,1-2.47.23,3.41,3.41,0,0,0-3.14.78,12.56,12.56,0,0,0-1.55,2,14.14,14.14,0,0,1-1.25,1.66,2.78,2.78,0,0,1-2.43.89l-.33-.09a3.08,3.08,0,0,0-2.75.2,8.32,8.32,0,0,0-2.1,2.4c-.25.36-.5.73-.78,1.09a5.7,5.7,0,0,1-1.3,1.35,1.88,1.88,0,0,1-1.17.29,3.9,3.9,0,0,1-.91-.22,2.92,2.92,0,0,0-2-.08c-1,.33-2,1.73-3,3.05a6.1,6.1,0,0,1-2.55,2.39,2.58,2.58,0,0,1-1.34-.17,4.06,4.06,0,0,0-1.41-.24c-.92,0-2.24,1.23-3.06,2.38l-.34.48a8.22,8.22,0,0,1-2.31,2.56,2.1,2.1,0,0,1-1.75,0,5.88,5.88,0,0,0-.83-.22,2.47,2.47,0,0,0-1.62.22,5.08,5.08,0,0,0-1.48,1.32,1.8,1.8,0,0,0-1.16,3.4l17.66,7.47v71.28a3.8,3.8,0,0,0,2.23,3.07,11.88,11.88,0,0,0,10.77,0,3.77,3.77,0,0,0,2.23-3.15v-76a2.87,2.87,0,0,0-.48-1.53l19.26-30.38A1.81,1.81,0,0,0,333.21,93.93Zm-21.62,30.73a12.1,12.1,0,0,0-9.6.55c-1.6.92-2.33,2.15-2.21,3.36a1.49,1.49,0,0,1,0-.21v.84L284,122.53a4,4,0,0,1,1.1-1,1.83,1.83,0,0,1,1.17-.15,5.74,5.74,0,0,1,.74.2,2.76,2.76,0,0,0,2.27,0,8.36,8.36,0,0,0,2.59-2.8l.34-.47a5,5,0,0,1,2.51-2.08,3.06,3.06,0,0,1,1.15.21,3.36,3.36,0,0,0,1.68.2c1-.16,2.23-1.55,3-2.69.47-.68,1.74-2.49,2.61-2.79a2.21,2.21,0,0,1,1.57.09,5,5,0,0,0,1.07.25,2.53,2.53,0,0,0,1.62-.41,6.06,6.06,0,0,0,1.49-1.51c.29-.38.54-.76.79-1.12a7.8,7.8,0,0,1,1.91-2.21,2.38,2.38,0,0,1,2.16-.1l.34.09a3.47,3.47,0,0,0,3.15-1.11,16.17,16.17,0,0,0,1.31-1.74,12.26,12.26,0,0,1,1.46-1.87,2.63,2.63,0,0,1,2.44-.59,3.34,3.34,0,0,0,3.12-.37,9.83,9.83,0,0,0,1.87-2.25c.3-.44.61-.89,1-1.35a1.78,1.78,0,0,1,1.13-.82h.11Z" transform="translate(12.03 -10.83)"/><ellipse class="cls-25" cx="336.26" cy="75.08" rx="43.99" ry="39.62"/><circle class="cls-26" cx="330.16" cy="251.03" r="70.31" transform="translate(-68.77 296.16) rotate(-45)"/><circle class="cls-27" cx="328.02" cy="227.34" r="70.31" transform="translate(45.51 485.8) rotate(-77.16)"/><circle class="cls-28" cx="300.74" cy="139.71" r="139.71"/><g class="cls-1"><g class="cls-1"><path class="cls-29" d="M362.82,333.13l-10.65-6.19a.8.8,0,0,1,.78-.08l10.64,6.19a.76.76,0,0,0-.77.08Z" transform="translate(12.03 -10.83)"/></g><path class="cls-30" d="M347.92,349.58l0-6.58-10.64-6.18v6.57a.78.78,0,0,0,.32.69l10.65,6.19A.74.74,0,0,1,347.92,349.58Z" transform="translate(12.03 -10.83)"/><polygon class="cls-3" points="361.03 330.27 350.39 324.09 364.21 316.11 374.86 322.3 361.03 330.27"/><g class="cls-1"><path class="cls-29" d="M347.9,343l-10.64-6.18a2.38,2.38,0,0,1,1.09-1.9L349,341.11a2.41,2.41,0,0,0-1.1,1.89Z" transform="translate(12.03 -10.83)"/></g><path class="cls-31" d="M362.82,333.13c.6-.35,1.09-.07,1.09.63l0,6.57a2.41,2.41,0,0,1-1.08,1.88l-13.83,8c-.6.35-1.1.07-1.1-.61l0-6.58a2.41,2.41,0,0,1,1.1-1.89Z" transform="translate(12.03 -10.83)"/></g><path class="cls-32" d="M441.39,386.35,358.16,338.3a1.91,1.91,0,0,0-2,.18,6.13,6.13,0,0,0-2.78,4.8,2,2,0,0,0,.8,1.79l87.19,50.34Z" transform="translate(12.03 -10.83)"/><path class="cls-29" d="M441.39,389.57v-1.82l-85.27-49.23a5.11,5.11,0,0,0-1.24,1.1Z" transform="translate(12.03 -10.83)"/><g class="cls-1"><path class="cls-31" d="M265.71,349.23l0-6.57,10.64-6.19,0,6.57a.78.78,0,0,1-.31.7l-10.65,6.19A.77.77,0,0,0,265.71,349.23Z" transform="translate(12.03 -10.83)"/><path class="cls-3" d="M261.46,326.59a.77.77,0,0,0-.78-.07L250,332.71a.76.76,0,0,1,.77.07l13.82,8,10.65-6.19Z" transform="translate(12.03 -10.83)"/><g class="cls-1"><path class="cls-29" d="M265.73,342.66l10.64-6.19a2.41,2.41,0,0,0-1.09-1.9l-10.65,6.19a2.42,2.42,0,0,1,1.1,1.9Z" transform="translate(12.03 -10.83)"/></g><path class="cls-30" d="M250.81,332.78c-.6-.34-1.09-.06-1.09.64l0,6.57a2.39,2.39,0,0,0,1.08,1.88l13.82,8c.61.35,1.11.07,1.11-.62l0-6.57a2.42,2.42,0,0,0-1.1-1.9Z" transform="translate(12.03 -10.83)"/></g><path class="cls-33" d="M172,386,255.25,338a2,2,0,0,1,2,.18,6.13,6.13,0,0,1,2.78,4.81,2,2,0,0,1-.8,1.78L172,395.07Z" transform="translate(12.03 -10.83)"/><path class="cls-29" d="M172,389.23v-1.82l85.27-49.23a5.12,5.12,0,0,1,1.25,1.1Z" transform="translate(12.03 -10.83)"/><g class="cls-1"><path class="cls-34" d="M379.08,365.37l0,45.72c0,1.61,1.06,3.22,3.18,4.44l55.15,31.84a16.78,16.78,0,0,0,15.21,0l55.14-32.08c2.08-1.2,3.12-2.78,3.12-4.37l0-45.72Z" transform="translate(12.03 -10.83)"/><path class="cls-3" d="M507.71,360.77l-55.15-31.84a16.81,16.81,0,0,0-15.21,0L382.21,361c-4.19,2.43-4.17,6.38.05,8.81l55.15,31.84a16.73,16.73,0,0,0,15.2,0l55.15-32.07C511.93,367.14,511.91,363.2,507.71,360.77Z" transform="translate(12.03 -10.83)"/></g><g class="cls-1"><path class="cls-35" d="M107.69,371.07l0,45.72c0,1.6,1,3.21,3.18,4.44L166,453.07a16.81,16.81,0,0,0,15.21,0L236.34,421c2.07-1.2,3.11-2.78,3.11-4.36l0-45.73Z" transform="translate(12.03 -10.83)"/><path class="cls-3" d="M236.32,366.46l-55.15-31.84a16.76,16.76,0,0,0-15.2,0l-55.15,32.07c-4.19,2.43-4.17,6.38.05,8.81L166,407.34a16.78,16.78,0,0,0,15.21,0l55.14-32.08C240.55,372.84,240.53,368.89,236.32,366.46Z" transform="translate(12.03 -10.83)"/></g><path class="cls-36" d="M219.72,465.27a63.18,63.18,0,0,0-8.47-8.87c-3.5-3.12-4.71-4.56-5.31-8.59l-12.6.39c-.1,2.14.2,8,.86,8.87a163.13,163.13,0,0,0,11,12.48c3,3,7.09,5.36,11.21,4.52a5.4,5.4,0,0,0,4.26-3.39A6.5,6.5,0,0,0,219.72,465.27Z" transform="translate(12.03 -10.83)"/><path class="cls-37" d="M220.79,468.1a5.69,5.69,0,0,1-.15.92,5.43,5.43,0,0,1-4.26,3.39c-4.12.83-8.26-1.54-11.21-4.53s-9.43-9.75-11.56-13.5a10.09,10.09,0,0,0,.59,3.44,163.13,163.13,0,0,0,11,12.48c3,3,7.09,5.36,11.21,4.52a5.42,5.42,0,0,0,4.26-3.39A9.76,9.76,0,0,0,220.79,468.1Z" transform="translate(12.03 -10.83)"/><path class="cls-36" d="M237.62,434.94a10.07,10.07,0,0,1,.26-3.28l-12.76-.57c0,3.41-2.41,5.49-2.41,8.47s3,4.2,18,9.7c7.66,2.83,10.61,2.86,13,1.53a3.9,3.9,0,0,0,2-4.81C254.4,441.3,238.83,437.11,237.62,434.94Z" transform="translate(12.03 -10.83)"/><path class="cls-37" d="M255.72,446.29a4.13,4.13,0,0,1-2.07,2.42c-2.35,1.33-5.3,1.3-13-1.53-13.3-4.9-17-6.11-17.85-8.8a14.3,14.3,0,0,0-.32,1.85c0,1.57.93,2.25,4.09,3.79,2.7,1.32,7.31,2.81,14.19,5.35,7.66,2.82,10.5,2.75,12.85,1.42A3.85,3.85,0,0,0,255.72,446.29Z" transform="translate(12.03 -10.83)"/><path class="cls-38" d="M199.86,358l-4.16-7-38.11,7.92c2,20.67,1.91,24.62,4.53,29.47,3.17,5.89,5.21,5.33,25,26.94,0,0,3.93,21.6,5.66,34.66,1.7,5.68,14.32,3.6,14.32-.33,0-13.68-1.61-41.63-2.09-43.88S194.11,384,194.11,384c9.5,7,29.87,16.66,29.87,16.66-1,15.71-.8,20.76.12,33.09,0,3.84,13.35,4.85,13.84.81.54-4.43,2.66-21.72,4.09-39.23a9.18,9.18,0,0,0-3.28-7.83C231.42,381.44,210,365.17,199.86,358Z" transform="translate(12.03 -10.83)"/><path class="cls-39" d="M149.72,304.53c-6.66,6.66,4.76,31.25,5.75,40.61,1.12,10.62,1.58,28.56,2.12,32,.83,5.33,20.77,7.34,29.52,2.34.88-.51-1.78-24.58-1.78-24.58A35.74,35.74,0,0,0,200.06,372c3.19-.52,8.26-6.16,7.49-9.53,0,0-6-5.86-8.56-9-5.17-6.46-4.09-26.22-2.26-43.64,1.61-9.83-1-26.32-7.75-25.55C184.69,284.72,159.11,295.14,149.72,304.53Z" transform="translate(12.03 -10.83)"/><path class="cls-40" d="M159.62,301.11A7.51,7.51,0,0,1,163,295.8c6.61-4.18,11.25-6.29,15-6.84a4.44,4.44,0,0,1,.63,0c1.85,0,3.74,1.18,5.45,3.42a16.93,16.93,0,0,1,3.33,8.92c1.18,14-1.74,24.71-4.29,43.08C175.24,334.18,157.41,313.81,159.62,301.11Z" transform="translate(12.03 -10.83)"/><path class="cls-41" d="M183.14,344.22s-.7-1.28-1.87-3.33c-5.78-10.12-22.44-40.41-15.94-44.46s9.5-5.27,13-5.77c3-.42,4.76,6.67,5.27,12.72C184.38,313.06,183.14,328.08,183.14,344.22Z" transform="translate(12.03 -10.83)"/><path class="cls-39" d="M147.8,308.35c-.9,3.41-.31,39,2.31,45.81,1.39,3.63,27.61,24.9,30.46,27.75,1.75,1.75,9.39-5.5,7.33-7.7l-25-25.88c-1.64-15.87.66-31.46-2.58-39.48-1-2.47-3.54-6.68-6.62-6.76S148.44,305.92,147.8,308.35Z" transform="translate(12.03 -10.83)"/><path class="cls-42" d="M162.92,348.31c-.66-6.58-.69-13.2-.69-19.81,0-3.3,0-6.61-.19-9.92-.1-1.65-.24-3.3-.5-4.93a24.7,24.7,0,0,0-1.22-4.81c.2.81.5,1.58.64,2.4a20,20,0,0,1,.44,2.43c.23,1.63.33,3.28.41,4.93.15,3.29.13,6.6.12,9.9a185.81,185.81,0,0,0,.58,19.87.37.37,0,0,0,.1.22l12.6,12.86,6.3,6.42,6.38,6.35S162.92,348.31,162.92,348.31Z" transform="translate(12.03 -10.83)"/><path class="cls-41" d="M181,381.65c.69.44,2.76-.87,3.37-1.41s5.22-4.91,2.72-5.81C185,373.69,178.79,380.25,181,381.65Z" transform="translate(12.03 -10.83)"/><path class="cls-39" d="M185.67,290c-.9,3.42-.3,39,2.33,45.82,1.39,3.62,18.61,23.15,20.47,26.72,1.15,2.2,10.61-2.42,9.31-5.14l-17-27.42c-1.65-15.87.64-31.46-2.61-39.48-1-2.47-3.53-6.68-6.61-6.76S186.31,287.55,185.67,290Z" transform="translate(12.03 -10.83)"/><path class="cls-41" d="M209.09,362.43c.51.64,2.89-.06,3.64-.4.91-.41,6.36-3.15,4.26-4.78C215.16,355.82,207.32,360.2,209.09,362.43Z" transform="translate(12.03 -10.83)"/><path class="cls-43" d="M169.16,303.94a9.16,9.16,0,0,0,6.05,3.26,6.45,6.45,0,0,0,6-2.9c1.25-2.12,2.68-11.35,2.41-16.56a8,8,0,0,0-.77-3.46,7.73,7.73,0,0,0-3.34-2.9,12.15,12.15,0,0,0-6.08-1.62,3.34,3.34,0,0,0-2.56,1,4.17,4.17,0,0,0-.67,1.89A80.31,80.31,0,0,1,166.8,295C165.61,298.33,166.83,301.28,169.16,303.94Z" transform="translate(12.03 -10.83)"/><polygon class="cls-38" points="195.36 322.08 191.79 297.5 189.68 298.43 189.89 324.12 195.19 333.51 195.36 322.08"/><path class="cls-38" d="M178.63,311.55c2.33-.67,3.26-5.44,2.37-6.31-.5-.49-2.79-.28-3.49.05-1.84.85-3.36,2-3.07,3C174.79,309.55,177.23,312,178.63,311.55Z" transform="translate(12.03 -10.83)"/><path class="cls-44" d="M178.39,304.93l-7.6,6.62s-10-11.77-4-16.59a9,9,0,0,0,5.58,8.72A15.73,15.73,0,0,0,178.39,304.93Z" transform="translate(12.03 -10.83)"/><path class="cls-44" d="M178.17,305l6.8,2.25s-.44-5.92-3.56-10.22C182.77,304.24,178.17,305,178.17,305Z" transform="translate(12.03 -10.83)"/><path class="cls-45" d="M165.5,276.33c-.07,12.33-1.41,7.54,6.82,19.33,3.39,4.85,9.44,8.4,11.88,8.8a4.15,4.15,0,0,0,3.85-1.21c1-1.27,2-6.94,2.63-10.36a72.82,72.82,0,0,0,1.07-11.7c.24-9.43-3.82-13.39-9.51-15.55C176.4,263.43,165.57,263.59,165.5,276.33Z" transform="translate(12.03 -10.83)"/><path class="cls-46" d="M172.75,288.66c.48,1.52,2.24,1.43,2.26.26,0-1.87.3-5,1.06-5.84,2.89-3.32,9.45-6,14.88-6.6a1.05,1.05,0,0,0,.79-.46c2.46-3.86.51-12.73-11.86-13.82-6.1-.54-11,1.1-13.93,5.14-3.39,4.72-2.73,11-1.54,17.17a10.63,10.63,0,0,0,2.84,5.59,6.87,6.87,0,0,0,3.38,2.13c-2-4.09-2.35-4.32-2.91-6.38s1.05-3.53,2.25-3C172.48,283.92,172.38,287.5,172.75,288.66Z" transform="translate(12.03 -10.83)"/><polygon class="cls-47" points="212.58 390.93 248.44 370.09 248.44 370.73 212.57 391.57 212.58 390.93"/><polygon class="cls-48" points="187.43 375.7 223.29 354.86 248.41 369.36 212.54 390.2 187.43 375.7"/><path class="cls-49" d="M209.52,378.21,198,384.86a1,1,0,0,1-.94,0l-7.63-4.4a.29.29,0,0,1,0-.55L201,373.27a1,1,0,0,1,.94,0l7.62,4.4C209.78,377.82,209.78,378.07,209.52,378.21Z" transform="translate(12.03 -10.83)"/><path class="cls-50" d="M189.45,380.05,201,373.41a1,1,0,0,1,.94,0l7.62,4.4a.45.45,0,0,1,.19.2c0-.12,0-.24-.19-.34l-7.62-4.4a1,1,0,0,0-.94,0l-11.51,6.64c-.16.1-.22.22-.18.34A.37.37,0,0,1,189.45,380.05Z" transform="translate(12.03 -10.83)"/><path class="cls-51" d="M198.83,394.12c0-.18,0-.24.1-.29l1.55-.9a.59.59,0,0,1,.55,0l1.3.75a.18.18,0,0,1,.11.19c0,.17,0,.24-.11.29l-1.55.89a.57.57,0,0,1-.54,0l-1.31-.75C198.84,394.25,198.81,394.18,198.83,394.12Zm-3-.66,1.31.75a.57.57,0,0,0,.54,0l1.55-.9a.17.17,0,0,0,.11-.18c0-.17,0-.24-.11-.29l-1.3-.75a.59.59,0,0,0-.55,0l-1.55.89a.16.16,0,0,0-.1.19C195.67,393.34,195.7,393.41,195.79,393.46Zm3.6-5.16c-.09.06-.12.12-.11.19s0,.24.11.29l1.3.75a.59.59,0,0,0,.55,0l1.55-.89a.16.16,0,0,0,.1-.19c0-.17,0-.24-.1-.29C200.87,387.05,201.52,387.07,199.39,388.3Zm21.43-4.82,1.55-.89a.16.16,0,0,0,.1-.19c0-.17,0-.24-.1-.29l-1.3-.75a.59.59,0,0,0-.55,0l-1.55.9a.17.17,0,0,0-.11.18c0,.17,0,.24.11.29l1.3.75A.59.59,0,0,0,220.82,383.48Zm-17.53,10.13,1.55-.9c.08,0,.12-.12.1-.18s0-.24-.1-.29l-1.31-.76a.64.64,0,0,0-.54,0l-1.55.9a.18.18,0,0,0-.11.18c0,.17,0,.24.11.29l1.3.76A.66.66,0,0,0,203.29,393.61Zm-4.85-4.75-1.56.89a.19.19,0,0,0-.1.19c0,.17,0,.23.1.29l1.31.75a.57.57,0,0,0,.54,0l1.56-.9a.18.18,0,0,0,.1-.18c0-.17,0-.24-.1-.29l-1.31-.75A.57.57,0,0,0,198.44,388.86Zm17.37-2.48,1.55-.9a.18.18,0,0,0,.11-.18c0-.18,0-.24-.11-.29l-1.3-.76a.66.66,0,0,0-.55,0l-1.55.9c-.09.05-.12.12-.1.18s0,.24.1.29l1.3.76A.66.66,0,0,0,215.81,386.38ZM203.45,386l-1.56.9a.18.18,0,0,0-.1.18c0,.17,0,.24.1.29l1.31.76a.64.64,0,0,0,.54,0l1.56-.9a.18.18,0,0,0,.1-.18c0-.18,0-.24-.1-.29L204,386A.64.64,0,0,0,203.45,386Zm9.86,1.86,1.55-.89a.19.19,0,0,0,.1-.19c0-.17,0-.24-.1-.29l-1.31-.75a.57.57,0,0,0-.54,0l-1.56.89a.19.19,0,0,0-.1.19c0,.17,0,.24.1.29l1.31.75A.59.59,0,0,0,213.31,387.82Zm-7.52,4.34,1.55-.9a.17.17,0,0,0,.11-.18c0-.17,0-.24-.11-.29L206,390a.59.59,0,0,0-.55,0l-1.55.89a.16.16,0,0,0-.1.19c0,.17,0,.24.1.29l1.31.75A.57.57,0,0,0,205.79,392.16Zm12.52-7.23,1.56-.9a.18.18,0,0,0,.1-.18c0-.17,0-.24-.1-.29l-1.31-.75a.57.57,0,0,0-.54,0l-1.56.89a.19.19,0,0,0-.1.19c0,.17,0,.24.1.29l1.31.75A.57.57,0,0,0,218.31,384.93Zm-10,5.78,1.55-.89a.19.19,0,0,0,.1-.19c0-.17,0-.24-.1-.29l-1.31-.75a.57.57,0,0,0-.54,0l-1.55.9a.18.18,0,0,0-.11.18c0,.17,0,.24.11.29l1.3.75A.59.59,0,0,0,208.3,390.71Zm2.5-1.44,1.55-.9a.18.18,0,0,0,.11-.18c0-.17,0-.24-.11-.29l-1.3-.76a.66.66,0,0,0-.55,0L209,388c-.09,0-.12.12-.1.18s0,.24.1.29l1.3.76A.66.66,0,0,0,210.8,389.27Zm-14.87,1-1.55.9c-.09.05-.12.12-.1.18s0,.24.1.29l1.3.75a.59.59,0,0,0,.55,0l1.55-.89a.18.18,0,0,0,.11-.19c0-.17,0-.23-.11-.29l-1.3-.75A.59.59,0,0,0,195.93,390.3Zm9.23-.43,1.55-.89a.19.19,0,0,0,.1-.19c0-.17,0-.24-.1-.29l-1.31-.75a.57.57,0,0,0-.54,0l-1.56.89a.2.2,0,0,0-.1.19c0,.17,0,.24.1.29l1.31.75A.59.59,0,0,0,205.16,389.87Zm7.51-4.34,1.55-.89a.18.18,0,0,0,.11-.19c0-.17,0-.24-.11-.29l-1.3-.75a.59.59,0,0,0-.55,0l-1.55.9a.17.17,0,0,0-.11.18c0,.17,0,.24.11.29l1.3.75A.59.59,0,0,0,212.67,385.53ZM210.16,387l1.56-.9a.18.18,0,0,0,.1-.18c0-.17,0-.24-.1-.29l-1.31-.75a.57.57,0,0,0-.54,0l-1.56.89a.19.19,0,0,0-.1.19c0,.17,0,.24.1.29l1.31.75A.57.57,0,0,0,210.16,387Zm-2.5,1.45,1.55-.9a.18.18,0,0,0,.11-.18c0-.18,0-.24-.11-.29l-1.3-.76a.66.66,0,0,0-.55,0l-1.55.9c-.09.05-.12.12-.1.18s0,.24.1.29l1.3.76A.66.66,0,0,0,207.66,388.43Zm18.74-10.32c0,.17,0,.24.1.29l1.31.76a.64.64,0,0,0,.54,0l1.55-.9a.18.18,0,0,0,.11-.18c0-.18,0-.24-.11-.29l-1.3-.76a.66.66,0,0,0-.55,0l-1.55.9C226.41,378,226.38,378.05,226.4,378.11Zm-23.75,13.21,1.55-.9a.18.18,0,0,0,.11-.18c0-.17,0-.24-.11-.29l-1.3-.75a.59.59,0,0,0-.55,0l-1.55.89a.16.16,0,0,0-.1.19c0,.17,0,.23.1.29l1.3.75A.59.59,0,0,0,202.65,391.32Zm-2.26-.68a.57.57,0,0,0-.54,0l-1.55.9a.18.18,0,0,0-.11.18c0,.17,0,.24.11.29l1.3.75a.59.59,0,0,0,.55,0l1.55-.89a.17.17,0,0,0,.1-.19c0-.17,0-.23-.1-.29Zm8.06-7.57-1.55.9a.18.18,0,0,0-.1.18c0,.17,0,.24.1.29l1.31.75a.57.57,0,0,0,.54,0l1.56-.89a.19.19,0,0,0,.1-.19c0-.17,0-.24-.1-.29l-1.31-.75A.59.59,0,0,0,208.45,383.07Zm2.51-1.45-1.55.9a.18.18,0,0,0-.11.18c0,.18,0,.24.11.29l1.3.76a.66.66,0,0,0,.55,0l1.55-.9c.09-.05.12-.12.1-.18s0-.24-.1-.29l-1.3-.76A.66.66,0,0,0,211,381.62Zm4.21,2.47,1.56-.9a.18.18,0,0,0,.1-.18c0-.17,0-.24-.1-.29l-1.31-.76a.64.64,0,0,0-.54,0l-1.56.9a.18.18,0,0,0-.1.18c0,.18,0,.24.1.29l1.31.76A.64.64,0,0,0,215.17,384.09Zm-1.71-3.91-1.55.89a.17.17,0,0,0-.1.19c0,.17,0,.24.1.29l1.31.75a.57.57,0,0,0,.54,0l1.55-.89a.18.18,0,0,0,.11-.19c0-.17,0-.24-.11-.29l-1.3-.75A.59.59,0,0,0,213.46,380.18ZM206,384.52l-1.55.89a.18.18,0,0,0-.11.19c0,.17,0,.24.11.29,1.28.74,1.5.95,1.85.75l1.55-.9c.09-.05.12-.11.1-.18s0-.24-.1-.29l-1.3-.75A.59.59,0,0,0,206,384.52Zm11.73-1.88,2.36-1.36c.09,0,.12-.12.1-.18s0-.24-.1-.29l-1.31-.76a.64.64,0,0,0-.54,0l-2.36,1.36a.18.18,0,0,0-.11.19c0,.17,0,.24.11.29l1.3.75A.59.59,0,0,0,217.68,382.64Zm.14-3.15-1.31-.76a.64.64,0,0,0-.54,0l-1.55.9a.18.18,0,0,0-.11.18c0,.17,0,.24.11.29l1.3.76a.66.66,0,0,0,.55,0l1.55-.9c.09,0,.12-.12.1-.18S217.91,379.54,217.82,379.49Zm-9,1.22,1.31.75a.57.57,0,0,0,.54,0l1.55-.9a.17.17,0,0,0,.11-.18c0-.17,0-.24-.11-.29l-1.3-.75a.59.59,0,0,0-.55,0l-1.55.89a.16.16,0,0,0-.1.19C208.65,380.59,208.68,380.66,208.77,380.71Zm-7.54,16.2-1.3-.75a.59.59,0,0,0-.55,0l-1.55.89a.18.18,0,0,0-.11.19c0,.17,0,.24.11.29l1.3.75a.59.59,0,0,0,.55,0l1.55-.9c.09-.05.12-.11.1-.18S201.32,397,201.23,396.91Zm2.5-1.45-1.3-.75a.59.59,0,0,0-.55,0l-1.55.9c-.08.05-.12.11-.1.18s0,.24.1.29l1.31.75a.57.57,0,0,0,.54,0l1.55-.89a.18.18,0,0,0,.11-.19C203.85,395.58,203.82,395.51,203.73,395.46Zm-3.8,0c0-.17,0-.24-.1-.29l-1.31-.75a.57.57,0,0,0-.54,0l-2.36,1.36a.18.18,0,0,0-.11.18c0,.17,0,.24.11.29l1.3.75a.59.59,0,0,0,.55,0l2.36-1.36C199.92,395.55,200,395.48,199.93,395.42Zm6.31-1.4-1.31-.76a.64.64,0,0,0-.54,0l-1.55.9a.18.18,0,0,0-.11.18c0,.18,0,.24.11.29l1.3.76a.66.66,0,0,0,.55,0l1.55-.9c.09-.05.12-.12.1-.18S206.33,394.07,206.24,394Zm-14-2.07c0-.17,0-.24-.1-.29l-1.31-.75a.57.57,0,0,0-.54,0l-1.56.89a.19.19,0,0,0-.1.19c0,.17,0,.24.1.29L190,393a.57.57,0,0,0,.54,0l1.56-.9A.18.18,0,0,0,192.24,392Zm4.55,2.63c0-.17,0-.24-.1-.29l-1.31-.76a.64.64,0,0,0-.54,0l-1.55.9a.18.18,0,0,0-.11.18c0,.18,0,.24.11.29l1.3.76a.66.66,0,0,0,.55,0l1.55-.9C196.77,394.71,196.81,394.64,196.79,394.58Zm-1.41-1.79c0-.17,0-.24-.1-.29l-1.31-.75a.57.57,0,0,0-.54,0l-2.36,1.36a.18.18,0,0,0-.11.18c0,.18,0,.24.11.29l1.3.76a.66.66,0,0,0,.55,0l2.36-1.36A.2.2,0,0,0,195.38,392.79Zm36.81-13.68-1.3-.76a.66.66,0,0,0-.55,0l-1.55.9c-.09.05-.12.12-.1.18s0,.24.1.29l1.31.76a.64.64,0,0,0,.54,0l1.55-.9a.18.18,0,0,0,.11-.18C232.31,379.23,232.28,379.16,232.19,379.11Zm-5,2.89-1.3-.75a.59.59,0,0,0-.55,0l-1.55.89a.17.17,0,0,0-.1.19c0,.17,0,.24.1.29l1.31.75a.57.57,0,0,0,.54,0l1.55-.9a.17.17,0,0,0,.11-.18C227.3,382.12,227.27,382.05,227.18,382Zm2.51-1.45-1.31-.75a.57.57,0,0,0-.54,0l-1.55.9a.17.17,0,0,0-.11.18c0,.17,0,.24.11.29l1.3.75a.59.59,0,0,0,.55,0l1.55-.89a.16.16,0,0,0,.1-.19C229.81,380.67,229.78,380.6,229.69,380.55Zm-20.95,12-1.3-.75a.59.59,0,0,0-.55,0l-1.55.89a.17.17,0,0,0-.1.19c0,.17,0,.24.1.29l1.31.75a.57.57,0,0,0,.54,0l1.55-.89c.09-.06.12-.12.11-.19S208.83,392.62,208.74,392.57Zm-17.5-1.74,1.3.75a.59.59,0,0,0,.55,0l1.55-.89a.18.18,0,0,0,.11-.19c0-.17,0-.24-.11-.29l-1.3-.75a.59.59,0,0,0-.55,0l-1.55.9a.17.17,0,0,0-.11.18C191.12,390.71,191.15,390.78,191.24,390.83Zm30.07-5.49-1.31-.75a.57.57,0,0,0-.54,0l-11.6,6.7a.18.18,0,0,0-.11.18c0,.17,0,.24.11.29l1.3.75a.59.59,0,0,0,.55,0l11.6-6.69a.16.16,0,0,0,.1-.19C221.43,385.46,221.4,385.39,221.31,385.34Zm3.26-1.9-1.31-.76a.66.66,0,0,0-.55,0l-2.35,1.37a.17.17,0,0,0-.11.18c0,.17,0,.24.11.29l1.3.75a.59.59,0,0,0,.55,0l2.36-1.36a.18.18,0,0,0,.1-.18C224.68,383.56,224.65,383.49,224.57,383.44Zm-1.23-1.39,1.55-.9A.18.18,0,0,0,225,381c0-.17,0-.24-.11-.29l-1.3-.76a.66.66,0,0,0-.55,0l-1.55.9c-.08.05-.12.12-.1.18s0,.24.1.29l1.31.76A.64.64,0,0,0,223.34,382.05Zm-3.69-7.61,1.3.76a.66.66,0,0,0,.55,0l1.55-.9c.08-.05.12-.12.1-.18s0-.24-.1-.29l-1.31-.76a.64.64,0,0,0-.54,0l-1.55.9a.18.18,0,0,0-.11.18C219.53,374.33,219.56,374.39,219.65,374.44Zm-2.51,1.45,1.31.75a.57.57,0,0,0,.54,0l1.55-.89a.18.18,0,0,0,.11-.19c0-.17,0-.24-.11-.29l-1.3-.75a.59.59,0,0,0-.55,0l-1.55.9c-.09.05-.12.11-.1.18S217.05,375.84,217.14,375.89Zm-5.86,3.37,1.3.75a.59.59,0,0,0,.55,0l2.36-1.36a.18.18,0,0,0,.1-.18c0-.17,0-.24-.1-.29l-1.31-.76a.64.64,0,0,0-.54,0l-2.36,1.37a.17.17,0,0,0-.11.18C211.16,379.14,211.19,379.21,211.28,379.26Zm3.36-1.92,1.3.75a.59.59,0,0,0,.55,0l1.55-.9c.09-.05.12-.11.1-.18s0-.24-.1-.29l-1.31-.75a.57.57,0,0,0-.54,0l-1.55.89a.18.18,0,0,0-.11.19C214.52,377.22,214.55,377.29,214.64,377.34Zm7.19-1.87c0,.17,0,.24.1.29l1.3.76a.66.66,0,0,0,.55,0l1.55-.9a.18.18,0,0,0,.11-.18c0-.18,0-.24-.11-.29l-1.3-.76a.66.66,0,0,0-.55,0l-1.55.9C221.84,375.34,221.81,375.41,221.83,375.47Zm4,5.13,1.55-.89a.16.16,0,0,0,.1-.19c0-.17,0-.24-.1-.29l-1.31-.75a.57.57,0,0,0-.54,0l-1.55.89a.18.18,0,0,0-.11.19c0,.17,0,.24.11.29l1.3.75A.59.59,0,0,0,225.85,380.6Zm-29.6,7.34,1.3.75a.59.59,0,0,0,.55,0l1.55-.9c.09-.05.12-.11.1-.18s0-.24-.1-.29l-1.3-.75a.59.59,0,0,0-.55,0l-1.55.89a.18.18,0,0,0-.11.19C196.13,387.82,196.16,387.89,196.25,387.94Zm2.5-1.45c1.88,1.09,1.23,1.11,3.41-.14a.19.19,0,0,0,.1-.19c0-.17,0-.23-.1-.29l-1.31-.75a.59.59,0,0,0-.55,0l-1.55.9a.18.18,0,0,0-.1.18C198.64,386.37,198.67,386.44,198.75,386.49Zm-5,2.89,1.31.76a.64.64,0,0,0,.54,0l1.56-.9a.18.18,0,0,0,.1-.18c0-.17,0-.24-.1-.29l-1.31-.76a.64.64,0,0,0-.54,0l-1.56.9a.18.18,0,0,0-.1.18C193.63,389.27,193.66,389.33,193.74,389.38Zm7.52-4.33,1.3.75a.59.59,0,0,0,.55,0l1.55-.9c.09,0,.12-.12.1-.18s0-.24-.1-.29l-1.3-.75a.59.59,0,0,0-.55,0l-1.55.89a.18.18,0,0,0-.11.19C201.14,384.93,201.17,385,201.26,385.05Zm5-2.9,1.3.76a.66.66,0,0,0,.55,0l1.55-.9c.09-.05.12-.12.1-.18s0-.24-.1-.29l-1.31-.76a.64.64,0,0,0-.54,0l-1.55.9a.18.18,0,0,0-.11.18C206.15,382,206.18,382.1,206.27,382.15Zm-2.51,1.45,1.31.75a.57.57,0,0,0,.54,0l1.55-.89a.18.18,0,0,0,.11-.19c0-.17,0-.24-.11-.29l-1.3-.75a.59.59,0,0,0-.55,0l-1.55.89c-.08.06-.12.12-.1.19S203.68,383.55,203.76,383.6Zm19.49-6.73-1.72-1a.72.72,0,0,0-.67,0l-3.93,2.27a.22.22,0,0,0-.14.22c0,.19,0,.27.14.33l3.42,2a.74.74,0,0,0,.68,0l6.52-3.77c.11-.06.15-.14.13-.22s0-.27-.13-.33l-1.27-.73a.5.5,0,0,0-.46,0l-2.19,1.24A.42.42,0,0,1,223.25,376.87Z" transform="translate(12.03 -10.83)"/><path class="cls-52" d="M192.14,391.91l-1.56.89a.57.57,0,0,1-.54,0l-1.31-.75a.17.17,0,0,1,0-.32l1.56-.89a.57.57,0,0,1,.54,0l1.31.75A.17.17,0,0,1,192.14,391.91Zm2.5-1.77-1.3-.75a.59.59,0,0,0-.55,0l-1.55.9c-.15.08-.15.22,0,.31l1.3.75a.59.59,0,0,0,.55,0l1.55-.89A.17.17,0,0,0,194.64,390.14Zm2.51-1.44-1.31-.76a.64.64,0,0,0-.54,0l-1.56.9a.17.17,0,0,0,0,.32l1.31.75a.57.57,0,0,0,.54,0l1.56-.9A.16.16,0,0,0,197.15,388.7Zm2.5-1.45-1.3-.75a.59.59,0,0,0-.55,0l-1.55.89a.17.17,0,0,0,0,.32l1.3.75a.59.59,0,0,0,.55,0l1.55-.89A.17.17,0,0,0,199.65,387.25Zm2.51-1.44-1.31-.76a.66.66,0,0,0-.55,0l-1.55.9c-.15.09-.15.23,0,.31l1.31.76a.64.64,0,0,0,.54,0l1.56-.9C202.31,386,202.31,385.89,202.16,385.81Zm2.5-1.45-1.3-.75a.59.59,0,0,0-.55,0l-1.55.89a.17.17,0,0,0,0,.32l1.3.75a.59.59,0,0,0,.55,0l1.55-.9C204.81,384.59,204.81,384.45,204.66,384.36Zm2.5-1.45-1.3-.75a.59.59,0,0,0-.55,0l-1.55.9c-.15.08-.15.22,0,.31l1.31.75a.57.57,0,0,0,.54,0l1.55-.89C207.32,383.14,207.32,383,207.16,382.91Zm2.51-1.44-1.31-.76a.64.64,0,0,0-.54,0l-1.55.9c-.15.09-.15.23,0,.31l1.3.76a.59.59,0,0,0,.55,0l1.55-.9A.16.16,0,0,0,209.67,381.47Zm2.5-1.45-1.3-.75a.59.59,0,0,0-.55,0l-1.55.89a.17.17,0,0,0,0,.32l1.31.75a.57.57,0,0,0,.54,0l1.55-.89A.17.17,0,0,0,212.17,380Zm3.32-1.91-1.31-.75a.57.57,0,0,0-.54,0l-2.36,1.36a.16.16,0,0,0,0,.31l1.3.76a.66.66,0,0,0,.55,0l2.36-1.37C215.64,378.34,215.64,378.2,215.49,378.11Zm9.4,2.5-1.3-.75a.59.59,0,0,0-.55,0l-1.55.89a.17.17,0,0,0,0,.32l1.31.75a.57.57,0,0,0,.54,0l1.55-.9C225.05,380.84,225.05,380.7,224.89,380.61Zm2.51-1.45-1.31-.75a.57.57,0,0,0-.54,0l-1.55.9c-.15.08-.15.22,0,.31l1.3.75a.59.59,0,0,0,.55,0l1.55-.89A.17.17,0,0,0,227.4,379.16Zm2.5-1.44-1.3-.76a.66.66,0,0,0-.55,0l-1.55.9c-.15.09-.15.23,0,.31l1.31.76a.64.64,0,0,0,.54,0l1.55-.9A.16.16,0,0,0,229.9,377.72Zm-2.72,4.21-1.3-.75a.59.59,0,0,0-.55,0l-1.55.89a.17.17,0,0,0,0,.32l1.31.75a.57.57,0,0,0,.54,0l1.55-.89A.17.17,0,0,0,227.18,381.93Zm2.51-1.44-1.31-.76a.57.57,0,0,0-.54,0l-1.55.9a.16.16,0,0,0,0,.31l1.3.76a.66.66,0,0,0,.55,0l1.55-.9C229.84,380.71,229.84,380.57,229.69,380.49Zm2.5-1.45-1.3-.75a.59.59,0,0,0-.55,0l-1.55.89a.17.17,0,0,0,0,.32l1.31.75a.57.57,0,0,0,.54,0l1.55-.9C232.34,379.27,232.34,379.13,232.19,379Zm-36.91,13.39-1.31-.75a.57.57,0,0,0-.54,0L191.07,393a.17.17,0,0,0,0,.32l1.3.75a.59.59,0,0,0,.55,0l2.36-1.36A.17.17,0,0,0,195.28,392.43Zm2.5-1.44-1.3-.76a.66.66,0,0,0-.55,0l-1.55.9c-.15.09-.15.23,0,.31l1.3.76a.66.66,0,0,0,.55,0l1.55-.9C197.93,391.21,197.93,391.07,197.78,391Zm2.51-1.45-1.31-.75a.57.57,0,0,0-.54,0l-1.56.89a.17.17,0,0,0,0,.32l1.31.75a.57.57,0,0,0,.54,0l1.56-.9C200.44,389.77,200.44,389.63,200.29,389.54Zm2.5-1.45-1.3-.75a.59.59,0,0,0-.55,0l-1.55.9c-.15.08-.15.22,0,.31l1.3.75a.59.59,0,0,0,.55,0l1.55-.89A.17.17,0,0,0,202.79,388.09Zm2.51-1.44-1.31-.76a.64.64,0,0,0-.54,0l-1.56.9a.17.17,0,0,0,0,.32l1.31.75a.57.57,0,0,0,.54,0l1.56-.9A.16.16,0,0,0,205.3,386.65Zm2.5-1.45-1.3-.75a.59.59,0,0,0-.55,0l-1.55.89a.17.17,0,0,0,0,.32l1.3.75a.59.59,0,0,0,.55,0l1.55-.89A.17.17,0,0,0,207.8,385.2Zm2.51-1.44L209,383a.59.59,0,0,0-.55,0l-1.55.9a.16.16,0,0,0,0,.31l1.31.76a.64.64,0,0,0,.54,0l1.56-.9C210.46,384,210.46,383.84,210.31,383.76Zm2.5-1.45-1.3-.75a.59.59,0,0,0-.55,0l-1.55.89a.17.17,0,0,0,0,.32l1.3.75a.59.59,0,0,0,.55,0l1.55-.9C213,382.54,213,382.4,212.81,382.31Zm2.5-1.45-1.3-.75a.59.59,0,0,0-.55,0l-1.55.9c-.15.08-.15.22,0,.31l1.31.75a.57.57,0,0,0,.54,0l1.55-.89C215.47,381.09,215.47,381,215.31,380.86Zm2.51-1.44-1.31-.76a.64.64,0,0,0-.54,0l-1.55.9c-.15.09-.15.23,0,.31l1.3.76a.66.66,0,0,0,.55,0l1.55-.9C218,379.64,218,379.5,217.82,379.42Zm-21.13,14.8-1.31-.76a.64.64,0,0,0-.54,0l-1.55.9a.17.17,0,0,0,0,.32l1.3.75a.59.59,0,0,0,.55,0l1.55-.9C196.84,394.45,196.84,394.31,196.69,394.22Zm2.5-1.45-1.3-.75a.59.59,0,0,0-.55,0l-1.55.89a.17.17,0,0,0,0,.32l1.31.75a.57.57,0,0,0,.54,0l1.55-.89A.17.17,0,0,0,199.19,392.77Zm2.51-1.44-1.31-.76a.64.64,0,0,0-.54,0l-1.55.9c-.16.09-.16.23,0,.31l1.3.76a.66.66,0,0,0,.55,0l1.55-.9C201.85,391.55,201.85,391.41,201.7,391.33Zm2.5-1.45-1.3-.75a.59.59,0,0,0-.55,0l-1.55.89a.17.17,0,0,0,0,.32l1.3.75a.59.59,0,0,0,.55,0l1.55-.9C204.35,390.11,204.35,390,204.2,389.88Zm-3,7-1.3-.75a.59.59,0,0,0-.55,0l-1.55.89a.17.17,0,0,0,0,.32l1.3.75a.59.59,0,0,0,.55,0l1.55-.89A.17.17,0,0,0,201.23,396.84Zm2.5-1.45-1.3-.75a.59.59,0,0,0-.55,0l-1.55.9c-.15.08-.15.22,0,.31l1.31.76a.64.64,0,0,0,.54,0l1.55-.9C203.89,395.62,203.89,395.48,203.73,395.39Zm2.51-1.44-1.31-.75a.57.57,0,0,0-.54,0l-1.55.89a.17.17,0,0,0,0,.32l1.3.75a.59.59,0,0,0,.55,0l1.55-.9C206.39,394.18,206.39,394,206.24,394Zm2.5-1.45-1.3-.75a.59.59,0,0,0-.55,0l-1.55.89a.17.17,0,0,0,0,.32l1.31.75a.57.57,0,0,0,.54,0l1.55-.89A.17.17,0,0,0,208.74,392.5Zm15.83-9.13-1.31-.76a.66.66,0,0,0-.55,0L220.36,384c-.15.08-.15.22,0,.31l1.3.75a.59.59,0,0,0,.55,0l2.36-1.36A.16.16,0,0,0,224.57,383.37Zm-17.86,5.06-1.31-.75a.57.57,0,0,0-.54,0l-1.56.9c-.15.08-.15.22,0,.31l1.31.75a.59.59,0,0,0,.55,0l1.55-.89A.17.17,0,0,0,206.71,388.43Zm2.5-1.44-1.3-.76a.66.66,0,0,0-.55,0l-1.55.9a.17.17,0,0,0,0,.32l1.3.75a.59.59,0,0,0,.55,0l1.55-.9A.16.16,0,0,0,209.21,387Zm2.51-1.45-1.31-.75a.57.57,0,0,0-.54,0l-1.56.89a.17.17,0,0,0,0,.32l1.31.75a.57.57,0,0,0,.54,0l1.56-.89A.17.17,0,0,0,211.72,385.54Zm2.5-1.44-1.3-.76a.59.59,0,0,0-.55,0l-1.55.9a.16.16,0,0,0,0,.31l1.3.76a.66.66,0,0,0,.55,0l1.55-.9C214.37,384.32,214.37,384.18,214.22,384.1Zm2.51-1.45-1.31-.75a.57.57,0,0,0-.54,0l-1.56.89a.17.17,0,0,0,0,.32l1.31.75a.57.57,0,0,0,.54,0l1.56-.9C216.88,382.88,216.88,382.74,216.73,382.65Zm3.31-1.91-1.31-.76a.64.64,0,0,0-.54,0l-2.36,1.37c-.15.08-.15.22,0,.31l1.3.75a.59.59,0,0,0,.55,0l2.36-1.36C220.19,381,220.19,380.82,220,380.74Zm-20.21,14.32-1.31-.75a.57.57,0,0,0-.54,0l-2.36,1.36c-.15.09-.15.23,0,.31l1.3.76a.66.66,0,0,0,.55,0l2.36-1.37C200,395.29,200,395.15,199.83,395.06Zm2.5-1.45-1.3-.75a.59.59,0,0,0-.55,0l-1.55.9c-.15.08-.15.22,0,.31l1.31.75a.57.57,0,0,0,.54,0l1.55-.89A.17.17,0,0,0,202.33,393.61Zm2.51-1.44-1.31-.76a.64.64,0,0,0-.54,0l-1.55.9c-.16.09-.16.23,0,.32l1.3.75a.59.59,0,0,0,.55,0l1.55-.9A.16.16,0,0,0,204.84,392.17Zm2.5-1.45L206,390a.59.59,0,0,0-.55,0l-1.55.89a.17.17,0,0,0,0,.32l1.31.75a.57.57,0,0,0,.54,0l1.55-.89A.17.17,0,0,0,207.34,390.72Zm2.51-1.44-1.31-.76a.57.57,0,0,0-.54,0l-1.55.9c-.16.08-.16.23,0,.31l1.3.76a.66.66,0,0,0,.55,0l1.55-.9C210,389.5,210,389.36,209.85,389.28Zm11.46-4-1.31-.75a.57.57,0,0,0-.54,0l-11.6,6.7a.16.16,0,0,0,0,.31l1.3.76a.66.66,0,0,0,.55,0l11.6-6.7A.17.17,0,0,0,221.31,385.27Zm-9,2.56-1.3-.75a.59.59,0,0,0-.55,0L209,388a.17.17,0,0,0,0,.32l1.3.75a.59.59,0,0,0,.55,0l1.55-.9C212.5,388.06,212.5,387.92,212.35,387.83Zm2.51-1.45-1.31-.75a.57.57,0,0,0-.54,0l-1.56.9c-.15.08-.15.22,0,.31l1.31.75a.59.59,0,0,0,.55,0l1.55-.89A.17.17,0,0,0,214.86,386.38Zm2.5-1.44-1.3-.76a.66.66,0,0,0-.55,0l-1.55.9c-.15.09-.15.23,0,.31l1.3.76a.66.66,0,0,0,.55,0l1.55-.9A.16.16,0,0,0,217.36,384.94Zm2.51-1.45-1.31-.75a.57.57,0,0,0-.54,0l-1.56.89a.17.17,0,0,0,0,.32l1.31.75a.57.57,0,0,0,.54,0l1.56-.89A.17.17,0,0,0,219.87,383.49Zm2.5-1.45-1.3-.75a.59.59,0,0,0-.55,0l-1.55.9a.16.16,0,0,0,0,.31l1.3.76a.66.66,0,0,0,.55,0l1.55-.9A.17.17,0,0,0,222.37,382ZM218,376.65l-1.31-.75a.57.57,0,0,0-.54,0l-1.55.89a.17.17,0,0,0,0,.32l1.3.75a.59.59,0,0,0,.55,0L218,377A.17.17,0,0,0,218,376.65Zm2.5-1.45-1.3-.75a.59.59,0,0,0-.55,0l-1.55.9a.16.16,0,0,0,0,.31l1.31.76a.64.64,0,0,0,.54,0l1.55-.9A.17.17,0,0,0,220.54,375.2Zm2.51-1.44-1.31-.75a.57.57,0,0,0-.54,0l-1.55.89c-.16.09-.16.23,0,.32l1.3.75a.59.59,0,0,0,.55,0l1.55-.9C223.2,374,223.2,373.85,223.05,373.76Zm2.28,1.32-1.3-.76a.66.66,0,0,0-.55,0l-1.55.9c-.15.09-.15.23,0,.31l1.3.76a.59.59,0,0,0,.55,0l1.55-.9A.16.16,0,0,0,225.33,375.08Zm2.22,1.21-1.27-.73a.53.53,0,0,0-.46,0l-2.19,1.24a.42.42,0,0,1-.38,0l-1.72-1a.72.72,0,0,0-.67,0l-3.93,2.27c-.19.11-.19.28,0,.39l3.42,2a.74.74,0,0,0,.68,0l6.52-3.76A.21.21,0,0,0,227.55,376.29Z" transform="translate(12.03 -10.83)"/><polygon class="cls-53" points="223.71 371.19 259.57 350.35 248.75 370.27 212.88 391.11 223.71 371.19"/><polygon class="cls-48" points="223.2 370.61 259.06 349.77 259.57 350.35 223.71 371.19 223.2 370.61"/><polygon class="cls-54" points="223.2 370.61 223.71 371.19 212.88 391.11 212.58 390.93 212.57 391.57 187.42 377.05 187.43 375.7 212.54 390.2 223.2 370.61"/><path class="cls-45" d="M193.13,377.36c3,2.87,3.86,3.77,4.13,7.9a5.14,5.14,0,0,1-.26,2.5c-.6,1.27-2.07,1.81-3.28,2.52s-2,1.26-3.51.89a2,2,0,0,1-1-.5,2.54,2.54,0,0,1-.48-.85c-2.09-5-1.74-2.1-6.79-8.54a1.09,1.09,0,0,1-.25-.44,1,1,0,0,1,.11-.6,9.51,9.51,0,0,1,3.83-4.39,2.69,2.69,0,0,1,1.41-.4A17.54,17.54,0,0,1,193.13,377.36Z" transform="translate(12.03 -10.83)"/><path class="cls-45" d="M213,373.68c.7,1.75,3.61,1.53,4.19,1.42,1.27-.24,3.85-1.26,4-2.3a17.91,17.91,0,0,0-1.36-9.86,16.2,16.2,0,0,0-3.2-4.45c-1.66-1.46-7,2-6.74,3.38.07.4,1.06,2.94,1.56,5.11C211.93,369.44,212,371.34,213,373.68Z" transform="translate(12.03 -10.83)"/><path class="cls-36" d="M409.39,448.27c-.51,1.6-11.22,12-12.11,12.67-6.63,5.22-14.43.35-10.09-5.44,1.22-1.63,12.11-14,12.78-14.7a7.36,7.36,0,0,1,2.13-1.64c1.95-.84,3.78,0,5.6.79C411,441.42,409.76,447.13,409.39,448.27Z" transform="translate(12.03 -10.83)"/><path class="cls-37" d="M386,458.1c1.16,3.15,6.41,4.51,11.09.82.9-.71,11.61-11.07,12.12-12.67a14,14,0,0,0,.52-3.42,12.36,12.36,0,0,1-.36,5.44c-.51,1.6-11.22,12-12.11,12.67C391.69,465.34,385.29,462.56,386,458.1Z" transform="translate(12.03 -10.83)"/><path class="cls-45" d="M400.71,448c-2.21.54-3.6-.14-3.25-2.08.19-1.09,1.69-2.92,2.44-4.3l.63-3.29c.72-.45,7.09-1,7.89-.77,0,0,.17,2.17.17,4.38C408.59,443.3,406.35,446.62,400.71,448Z" transform="translate(12.03 -10.83)"/><path class="cls-36" d="M423.09,458.25c-.69,1.53-12.48,10.65-13.44,11.25-7.17,4.46-14.38-1.24-9.43-6.52,1.39-1.48,13.58-12.61,14.32-13.19a7.48,7.48,0,0,1,2.3-1.4c2-.62,3.76.39,5.48,1.4C425.42,451.62,423.57,457.15,423.09,458.25Z" transform="translate(12.03 -10.83)"/><path class="cls-37" d="M398.77,465.44c.81,3.26,5.87,5.19,10.94,2,1-.61,12.75-9.72,13.43-11.26a13.3,13.3,0,0,0,.9-3.34,12.7,12.7,0,0,1-1,5.37c-.69,1.53-12.48,10.65-13.44,11.25C403.6,473.26,397.55,469.79,398.77,465.44Z" transform="translate(12.03 -10.83)"/><path class="cls-45" d="M411.91,456.27a1.51,1.51,0,0,1-.85-2.2c1-1.62,3.47-3.53,4-4.83a8.85,8.85,0,0,0,.42-2.19c.44-2.82,3.22-2.45,5.19-1.38a4.34,4.34,0,0,1,2.32,3.45,5.15,5.15,0,0,1-1.43,4.4C418.66,455.9,414.65,457.11,411.91,456.27Z" transform="translate(12.03 -10.83)"/><path class="cls-55" d="M445.16,286.11a25.48,25.48,0,0,1-.33,4.17c-1.38,9.74-7,31.43-7,31.43L423.8,352c-1.27,2.16-7.27-.23-6.31-3.34,2.06-6.74,9.56-33.81,9.56-33.81s3.27-29.5,3.9-31.45c.94-2.92,3.46-8.37,8.25-7.7S445,282.24,445.16,286.11Z" transform="translate(12.03 -10.83)"/><path class="cls-41" d="M429.74,306.1c3.16-7.63,12.73-13,9.12-29.83,5.59-1.5,34.71,15.07,37.21,21,0,0-8.94,19.82-11,32.32-1,6.26.88,12.56,2.6,18.66.43,10.24-31.71-1.41-31.94-6.85s-.18-13.93-.35-17.68c-.09-2.24-2.83-6.22-4-8C429,312,428.51,309.09,429.74,306.1Z" transform="translate(12.03 -10.83)"/><path class="cls-38" d="M472.55,368.25c-1.27,8.4-4.72,11-11.16,16.57-27,23.24-29.42,21.26-28.79,24.42A36.39,36.39,0,0,1,431,430.13c-3.07,7.59-5.71,10.51-6.88,18.2-.9,3.38-10.69,1.83-9.93-1,3.11-13.34,3-21.12,3-35.36,0-4.36-.1-9.34,1.6-13.36,2.35-5.57,16.28-16.95,19.68-22.05,0,0-20.19,10.71-30.58,21.5,5.43,14.77-.76,24.12,1.3,41.39.48,4.21-9.71,4.68-9.59,1.13.18-5.42-5.68-30.43-8-41.55a16.46,16.46,0,0,1,2.83-13.14c1.05-1.42,2.22-2.78,3.39-4.07,7.81-8.69,28.69-28.76,33-32.73a50.64,50.64,0,0,0,4.88-10.27c.36,5.23,13.63,12.8,31.3,6.75C471.44,353.42,473.53,361.77,472.55,368.25Z" transform="translate(12.03 -10.83)"/><path class="cls-41" d="M478.32,305.25a25.31,25.31,0,0,1-.33,4.17c-1.38,9.74-7,31.43-7,31.43l-29.1,21.67c-2.16,1.25-6.35-3.33-4.94-5,6.5-5.93,23.3-23.54,23.3-23.54s3.27-29.49,3.9-31.45c.93-2.92,3.46-8.36,8.25-7.7S478.2,301.38,478.32,305.25Z" transform="translate(12.03 -10.83)"/><path class="cls-56" d="M436.9,357.51c4-3.76,7.9-7.71,11.77-11.65L460.18,334,462,318.23l1-7.86.51-3.93c.19-1.31.34-2.62.63-3.92-.23,1.3-.35,2.62-.52,3.93l-.43,3.94-.9,7.87L460.54,334a.34.34,0,0,1-.09.19c-3.83,4-7.7,7.91-11.59,11.84s-7.8,7.82-11.94,11.49C436.89,357.53,436.89,357.52,436.9,357.51Z" transform="translate(12.03 -10.83)"/><path class="cls-57" d="M458.62,246.1c5.44-.54,11.54,4.24,12.13,10,.4,4-2.06,6.55-4.43,7.9-3.53,2-4.13,0-6.83-.85-2.17-.67-10.37-8.37-9.72-9.83A10.07,10.07,0,0,1,458.62,246.1Z" transform="translate(12.03 -10.83)"/><path class="cls-43" d="M461.29,289.05c-.67,5.59-14.46,11.23-14.89,3a37.78,37.78,0,0,0-.93-7.58c-1.25-4.69-.57-9.32,6.11-10.51,8.27-1.47,6.09,3.46,6.46,6.71C458.66,286.14,461.47,287.55,461.29,289.05Z" transform="translate(12.03 -10.83)"/><path class="cls-45" d="M465.18,258.71a8.22,8.22,0,0,1,1.12,5.54c-.7,8.77-12,22.39-20.19,25.88-6.81,2.89-7.32-7-7.84-15.78-.12-1.91,0-4.67.06-7a16,16,0,0,1,7.31-13c3.43-2.11,7.62-3,11.61-1.11C458.57,253.86,464.14,257.28,465.18,258.71Z" transform="translate(12.03 -10.83)"/><path class="cls-57" d="M467,262.32c1.78,8.87-7.61,16.5-7.61,16.5-3.64,1.55-1.44-8.8-6-8.57-11.86.59-13.44-4.41-14-5.4-.33-.61-.82.25-.82.25C439.23,249.18,463.59,245.34,467,262.32Z" transform="translate(12.03 -10.83)"/><path class="cls-45" d="M462.81,276.22c-.75,1.86-5.25,5.48-6.28,5.3-1.27-.22-.14-3.85.2-5C457.93,272.18,464.28,272.53,462.81,276.22Z" transform="translate(12.03 -10.83)"/><polygon class="cls-54" points="439.45 375.83 404.55 355.54 404.55 356.16 439.45 376.45 439.45 375.83"/><polygon class="cls-48" points="463.94 361.01 429.03 340.72 404.58 354.84 439.49 375.12 463.94 361.01"/><path class="cls-49" d="M418.67,363.74l11.21,6.47a1,1,0,0,0,.91,0l7.42-4.29c.26-.14.26-.38,0-.53L427,358.93a1,1,0,0,0-.91,0l-7.43,4.28A.28.28,0,0,0,418.67,363.74Z" transform="translate(12.03 -10.83)"/><path class="cls-50" d="M438.21,365.53,427,359.06a1,1,0,0,0-.91,0l-7.43,4.29a.34.34,0,0,0-.17.19c0-.11,0-.24.17-.33l7.43-4.28a1,1,0,0,1,.91,0l11.2,6.46c.16.09.22.22.18.33A.33.33,0,0,0,438.21,365.53Z" transform="translate(12.03 -10.83)"/><path class="cls-51" d="M429,379.4l-1.27.73a.64.64,0,0,1-.54,0l-1.51-.87a.18.18,0,0,1-.1-.18c0-.17,0-.24.1-.28l1.27-.74a.64.64,0,0,1,.54,0l1.51.87a.18.18,0,0,1,.1.18C429.1,379.28,429.07,379.35,429,379.4Zm3.15-1c0-.17,0-.24-.1-.28l-1.51-.88a.62.62,0,0,0-.53,0l-1.27.74a.18.18,0,0,0-.1.18c0,.16,0,.23.1.28l1.51.87a.62.62,0,0,0,.53,0l1.27-.73C432.13,378.53,432.16,378.46,432.14,378.4Zm-6.91-5c-.09.05-.12.12-.1.18s0,.24.1.28l1.51.88a.62.62,0,0,0,.53,0l1.27-.74c.09,0,.12-.11.1-.18s0-.23-.1-.28C426.47,372.36,427.1,372.34,425.23,373.42Zm-17-4.55,1.27-.74c.09,0,.12-.11.1-.17s0-.24-.1-.29L408,366.8a.62.62,0,0,0-.53,0l-1.27.73a.18.18,0,0,0-.1.18c0,.17,0,.24.1.29l1.51.87A.62.62,0,0,0,408.21,368.87Zm17.07,9.85,1.27-.73a.18.18,0,0,0,.1-.18c0-.17,0-.23-.1-.28l-1.51-.88a.62.62,0,0,0-.53,0l-1.27.74c-.09.05-.12.11-.1.18s0,.23.1.28l1.51.87A.55.55,0,0,0,425.28,378.72Zm3.66-4.62-1.27.73c-.09.05-.12.12-.1.18s0,.23.1.28l1.51.87a.55.55,0,0,0,.53,0l1.27-.73a.18.18,0,0,0,.1-.18c0-.17,0-.23-.1-.28l-1.51-.87A.55.55,0,0,0,428.94,374.1Zm-15.85-2.42,1.27-.73a.18.18,0,0,0,.1-.18c0-.17,0-.23-.1-.28l-1.51-.87a.55.55,0,0,0-.53,0l-1.27.73a.18.18,0,0,0-.11.18c0,.17,0,.23.11.28l1.51.87A.55.55,0,0,0,413.09,371.68Zm11-.4-1.27.73a.18.18,0,0,0-.1.18c0,.17,0,.24.1.29l1.51.87a.62.62,0,0,0,.53,0l1.27-.73c.09-.05.12-.12.1-.18s0-.24-.1-.29l-1.51-.87A.62.62,0,0,0,424.06,371.28Zm-8.53,1.81,1.27-.73a.18.18,0,0,0,.1-.18c0-.17,0-.23-.1-.28l-1.51-.88a.64.64,0,0,0-.54,0l-1.27.74a.18.18,0,0,0-.1.18c0,.16,0,.23.1.28l1.51.87A.57.57,0,0,0,415.53,373.09Zm7.31,4.22,1.27-.73a.16.16,0,0,0,.1-.18c0-.17,0-.23-.1-.28l-1.51-.87a.55.55,0,0,0-.53,0l-1.27.73c-.09,0-.12.12-.1.18s0,.23.1.28l1.51.87A.55.55,0,0,0,422.84,377.31Zm-12.19-7,1.27-.74a.18.18,0,0,0,.1-.18c0-.16,0-.23-.1-.28l-1.51-.87a.55.55,0,0,0-.53,0l-1.27.73c-.09.05-.12.12-.1.18s0,.23.1.28l1.51.88A.62.62,0,0,0,410.65,370.28Zm9.75,5.63,1.27-.74c.09-.05.12-.11.1-.18s0-.23-.1-.28l-1.51-.87a.55.55,0,0,0-.53,0l-1.27.73a.18.18,0,0,0-.1.18c0,.17,0,.24.1.28l1.51.88A.62.62,0,0,0,420.4,375.91ZM418,374.5l1.27-.73a.18.18,0,0,0,.11-.18c0-.17,0-.24-.11-.29l-1.51-.87a.62.62,0,0,0-.53,0l-1.27.74a.16.16,0,0,0-.1.17c0,.17,0,.24.1.29l1.51.87A.62.62,0,0,0,418,374.5Zm13.42,1-1.27.74a.17.17,0,0,0-.11.18c0,.16,0,.23.11.28l1.51.87a.55.55,0,0,0,.53,0l1.27-.73a.18.18,0,0,0,.1-.18c0-.17,0-.23-.1-.28l-1.51-.88A.62.62,0,0,0,431.38,375.5Zm-7.92-.41,1.27-.74a.18.18,0,0,0,.1-.18c0-.16,0-.23-.1-.28l-1.51-.87a.62.62,0,0,0-.53,0l-1.27.73c-.09.05-.12.12-.1.18s0,.24.1.28l1.51.88A.62.62,0,0,0,423.46,375.09Zm-7.32-4.23,1.27-.73a.17.17,0,0,0,.11-.18c0-.17,0-.23-.11-.28l-1.51-.87a.55.55,0,0,0-.53,0l-1.27.73a.18.18,0,0,0-.1.18c0,.17,0,.23.1.28l1.51.87A.55.55,0,0,0,416.14,370.86Zm2.44,1.41,1.27-.73c.09-.05.12-.12.1-.18s0-.23-.1-.28l-1.51-.88a.62.62,0,0,0-.53,0l-1.27.74a.18.18,0,0,0-.1.18c0,.16,0,.23.1.28l1.51.87A.55.55,0,0,0,418.58,372.27Zm2.44,1.41,1.27-.73c.09-.05.12-.12.1-.18s0-.24-.1-.29l-1.51-.87a.62.62,0,0,0-.53,0l-1.27.74c-.09,0-.12.11-.1.17s0,.24.1.29l1.51.87A.62.62,0,0,0,421,373.68Zm-18.87-10.22-1.51-.87a.55.55,0,0,0-.53,0l-1.27.73c-.09.05-.12.12-.1.18s0,.23.1.28l1.51.88a.62.62,0,0,0,.53,0l1.27-.74a.18.18,0,0,0,.1-.18C402.26,363.58,402.23,363.51,402.15,363.46Zm23.75,13,1.27-.73a.18.18,0,0,0,.1-.18c0-.17,0-.23-.1-.28l-1.51-.87a.55.55,0,0,0-.53,0l-1.27.73a.18.18,0,0,0-.11.18c0,.17,0,.23.11.28l1.51.87A.55.55,0,0,0,425.9,376.49Zm.39.08a.18.18,0,0,0-.1.18c0,.17,0,.23.1.28l1.51.87a.55.55,0,0,0,.53,0l1.27-.73a.18.18,0,0,0,.11-.18c0-.17,0-.23-.11-.28l-1.51-.87a.55.55,0,0,0-.53,0Zm-7.11-8.1-1.27.73a.18.18,0,0,0-.1.18c0,.17,0,.23.1.28l1.51.87a.57.57,0,0,0,.54,0l1.27-.73a.18.18,0,0,0,.1-.18c0-.17,0-.23-.1-.28l-1.51-.87A.57.57,0,0,0,419.18,368.47Zm-2.43-1.41-1.27.73c-.09,0-.12.12-.1.18s0,.23.1.28l1.51.88a.62.62,0,0,0,.53,0l1.27-.74a.18.18,0,0,0,.1-.18c0-.16,0-.23-.1-.28l-1.51-.87A.55.55,0,0,0,416.75,367.06Zm-3,2.4,1.27-.74a.18.18,0,0,0,.1-.18c0-.16,0-.23-.1-.28l-1.51-.87a.57.57,0,0,0-.54,0l-1.27.73a.18.18,0,0,0-.1.18c0,.17,0,.24.1.28l1.51.88A.64.64,0,0,0,413.71,369.46Zm.6-3.81-1.27.73c-.09.05-.12.12-.1.18s0,.24.1.29l1.51.87a.62.62,0,0,0,.53,0l1.27-.74a.16.16,0,0,0,.1-.17c0-.17,0-.24-.1-.29l-1.51-.87A.62.62,0,0,0,414.31,365.65Zm7.31,4.22-1.27.74a.18.18,0,0,0-.1.18c0,.16,0,.23.1.28l1.51.87c.34.2.56,0,1.8-.73a.18.18,0,0,0,.11-.18c0-.17,0-.24-.11-.28l-1.51-.88A.62.62,0,0,0,421.62,369.87Zm-10.35-1.82,1.27-.73a.18.18,0,0,0,.1-.18c0-.17,0-.24-.1-.29l-2.3-1.32a.55.55,0,0,0-.53,0l-1.27.73a.18.18,0,0,0-.1.18c0,.17,0,.23.1.28l2.3,1.33A.62.62,0,0,0,411.27,368.05Zm-.77-2.89c0,.16,0,.23.1.28l1.51.87a.62.62,0,0,0,.53,0l1.27-.73c.09-.05.12-.12.1-.18s0-.24-.1-.28l-1.51-.88a.62.62,0,0,0-.53,0l-1.27.74A.18.18,0,0,0,410.5,365.16Zm9,.83c0-.17,0-.24-.1-.29l-1.51-.87a.62.62,0,0,0-.53,0l-1.27.73a.18.18,0,0,0-.11.18c0,.17,0,.24.11.29l1.51.87a.62.62,0,0,0,.53,0l1.27-.73A.18.18,0,0,0,419.51,366Zm7.14,16.13c0,.16,0,.23.1.28l1.51.87a.62.62,0,0,0,.53,0l1.27-.73a.18.18,0,0,0,.1-.18c0-.17,0-.24-.1-.28l-1.51-.88a.62.62,0,0,0-.53,0l-1.27.74C426.66,382,426.63,382.05,426.65,382.12Zm-2.44-1.41c0,.17,0,.23.1.28l1.51.87a.55.55,0,0,0,.53,0l1.27-.73c.09-.05.12-.12.1-.18s0-.23-.1-.28l-1.51-.87a.55.55,0,0,0-.53,0l-1.27.73A.18.18,0,0,0,424.21,380.71Zm3.9,0,2.3,1.33a.55.55,0,0,0,.53,0l1.27-.73c.09-.05.12-.12.1-.18s0-.23-.1-.28l-2.3-1.33a.62.62,0,0,0-.53,0l-1.27.73a.18.18,0,0,0-.1.18C428,380.55,428,380.62,428.11,380.66Zm-6.34-1.36c0,.17,0,.23.1.28l1.51.87a.55.55,0,0,0,.53,0l1.27-.73c.09-.05.12-.11.1-.18s0-.23-.1-.28l-1.51-.87a.55.55,0,0,0-.53,0l-1.27.73A.18.18,0,0,0,421.77,379.3Zm13.83-2,1.51.87a.62.62,0,0,0,.53,0l1.27-.73c.09-.05.12-.12.1-.18s0-.24-.1-.29l-1.51-.87a.62.62,0,0,0-.53,0l-1.27.74a.18.18,0,0,0-.1.18C435.49,377.17,435.52,377.24,435.6,377.29Zm-4.43,2.56,1.51.87a.62.62,0,0,0,.53,0l1.27-.74c.09,0,.12-.11.1-.17s0-.24-.1-.29l-1.51-.87a.62.62,0,0,0-.53,0l-1.27.73c-.09.05-.12.12-.1.18S431.08,379.8,431.17,379.85Zm1.37-1.74,2.3,1.32a.55.55,0,0,0,.53,0l1.27-.73c.09-.05.12-.12.1-.18s0-.23-.1-.28l-2.3-1.33a.62.62,0,0,0-.53,0l-1.27.74a.16.16,0,0,0-.1.17C432.43,378,432.46,378.06,432.54,378.11Zm-36-13.32c0,.17,0,.23.1.28l1.51.87a.55.55,0,0,0,.53,0l1.27-.73a.18.18,0,0,0,.1-.18c0-.17,0-.23-.1-.28l-1.51-.87a.55.55,0,0,0-.53,0l-1.27.73C396.52,364.66,396.49,364.72,396.51,364.79Zm4.87,2.81c0,.17,0,.24.1.29l1.51.87a.64.64,0,0,0,.54,0l1.27-.74a.16.16,0,0,0,.1-.17c0-.17,0-.24-.1-.29l-1.51-.87a.64.64,0,0,0-.54,0l-1.27.73A.18.18,0,0,0,401.38,367.6ZM399,366.2c0,.16,0,.23.1.28l1.51.87a.62.62,0,0,0,.53,0l1.27-.73a.18.18,0,0,0,.1-.18c0-.17,0-.24-.1-.28l-1.51-.88a.62.62,0,0,0-.53,0l-1.27.74C399,366.07,398.93,366.13,399,366.2Zm20.38,11.69c0,.17,0,.24.1.29l1.51.87a.64.64,0,0,0,.54,0l1.27-.74a.18.18,0,0,0,.1-.18c0-.16,0-.23-.1-.28l-1.51-.87a.64.64,0,0,0-.54,0l-1.27.73A.18.18,0,0,0,419.33,377.89Zm17.24-2.05c0-.17,0-.23-.1-.28l-1.51-.87a.55.55,0,0,0-.53,0l-1.27.73a.18.18,0,0,0-.1.18c0,.16,0,.23.1.28l1.51.87a.55.55,0,0,0,.53,0l1.27-.73C436.56,376,436.59,375.9,436.57,375.84Zm-29.47-5c0,.16,0,.23.1.28l11.3,6.52a.62.62,0,0,0,.53,0l1.27-.73a.18.18,0,0,0,.1-.18c0-.17,0-.24-.1-.29L409,369.94a.62.62,0,0,0-.53,0l-1.27.74A.18.18,0,0,0,407.1,370.86ZM403.93,369c0,.17,0,.23.1.28l2.3,1.33a.62.62,0,0,0,.53,0l1.27-.73c.09-.05.12-.12.1-.18s0-.24-.1-.29l-2.29-1.32a.57.57,0,0,0-.54,0l-1.27.73A.18.18,0,0,0,403.93,369Zm1.82-1.53,1.28-.73a.18.18,0,0,0,.1-.18c0-.17,0-.23-.1-.28l-1.52-.88a.62.62,0,0,0-.53,0l-1.27.74a.18.18,0,0,0-.1.18c0,.16,0,.23.1.28l1.51.87A.55.55,0,0,0,405.75,367.47Zm3.17-7.58c0-.17,0-.23-.1-.28l-1.51-.87a.55.55,0,0,0-.53,0l-1.27.73a.18.18,0,0,0-.1.18c0,.16,0,.23.1.28l1.51.87a.55.55,0,0,0,.53,0l1.27-.73C408.91,360,408.94,360,408.92,359.89Zm2.44,1.41c0-.17,0-.24-.1-.28l-1.51-.88a.62.62,0,0,0-.53,0l-1.27.74c-.09.05-.12.11-.1.18s0,.23.1.28l1.51.87a.62.62,0,0,0,.53,0l1.27-.73C411.35,361.43,411.38,361.36,411.36,361.3Zm5.71,3.28c0-.17,0-.24-.1-.28l-2.3-1.33a.62.62,0,0,0-.53,0l-1.27.73a.18.18,0,0,0-.1.18c0,.17,0,.24.1.28l2.3,1.33a.55.55,0,0,0,.53,0l1.27-.73A.18.18,0,0,0,417.07,364.58Zm-3.27-1.87c0-.17,0-.24-.1-.29l-1.51-.87a.62.62,0,0,0-.53,0l-1.27.73c-.09.05-.12.12-.1.18s0,.24.1.29l1.51.87a.62.62,0,0,0,.53,0l1.27-.74A.16.16,0,0,0,413.8,362.71Zm-7.2-1.82-1.51-.87a.55.55,0,0,0-.53,0l-1.27.73c-.09.05-.12.12-.1.18s0,.23.1.28l1.51.88a.62.62,0,0,0,.53,0l1.27-.74a.18.18,0,0,0,.1-.18C406.71,361,406.68,360.94,406.6,360.89Zm-3.28,5.17,1.27-.73a.18.18,0,0,0,.1-.18c0-.17,0-.23-.1-.28l-1.51-.87a.55.55,0,0,0-.53,0l-1.27.73a.17.17,0,0,0-.11.18c0,.17,0,.23.11.28l1.51.87A.55.55,0,0,0,403.32,366.06Zm28.38,7c0-.16,0-.23-.1-.28l-1.51-.87a.62.62,0,0,0-.53,0l-1.27.73a.18.18,0,0,0-.11.18c0,.17,0,.24.11.28l1.51.88a.62.62,0,0,0,.53,0l1.27-.74A.18.18,0,0,0,431.7,373Zm-2.44-1.4c0-.17,0-.24-.1-.29l-1.51-.87a.62.62,0,0,0-.53,0l-1.27.74c-.09,0-.12.11-.1.17s0,.24.1.29c2.11,1.22,1.48,1.19,3.31.14A.18.18,0,0,0,429.26,371.62Zm4.88,2.81c0-.17,0-.23-.1-.28l-1.51-.87a.57.57,0,0,0-.54,0l-1.27.73a.18.18,0,0,0-.1.18c0,.17,0,.23.1.28l1.51.87a.57.57,0,0,0,.54,0l1.27-.73A.18.18,0,0,0,434.14,374.43Zm-7.32-4.22c0-.17,0-.23-.1-.28l-1.51-.88a.62.62,0,0,0-.53,0l-1.27.74c-.09,0-.12.11-.1.18s0,.23.1.28l1.51.87a.55.55,0,0,0,.53,0l1.27-.73C426.81,370.34,426.84,370.27,426.82,370.21ZM422,367.39c0-.16,0-.23-.11-.28l-1.51-.87a.55.55,0,0,0-.53,0l-1.27.73a.18.18,0,0,0-.1.18c0,.17,0,.23.1.28l1.51.88a.62.62,0,0,0,.53,0l1.27-.74A.17.17,0,0,0,422,367.39Zm2.43,1.41c0-.17,0-.23-.1-.28l-1.51-.87a.55.55,0,0,0-.53,0l-1.27.73a.18.18,0,0,0-.1.18c0,.17,0,.23.1.28l1.51.87a.55.55,0,0,0,.53,0l1.27-.73C424.37,368.93,424.4,368.87,424.38,368.8Zm-19.44-6.37-2.13-1.21a.49.49,0,0,0-.44,0l-1.24.72a.22.22,0,0,0-.13.21c0,.18,0,.26.13.32l6.35,3.67a.76.76,0,0,0,.66,0l3.33-1.93a.22.22,0,0,0,.13-.21c0-.18,0-.26-.13-.32l-3.83-2.21a.7.7,0,0,0-.66,0l-1.67,1A.4.4,0,0,1,404.94,362.43Z" transform="translate(12.03 -10.83)"/><path class="cls-58" d="M435.6,376.76l1.27-.73a.55.55,0,0,1,.53,0l1.51.87c.15.08.15.22,0,.3l-1.27.74a.62.62,0,0,1-.53,0l-1.51-.87C435.45,377,435.45,376.84,435.6,376.76Zm-2.44-1.1,1.51.87a.62.62,0,0,0,.53,0l1.27-.73c.15-.09.15-.23,0-.31l-1.51-.87a.55.55,0,0,0-.53,0l-1.27.73A.17.17,0,0,0,433.16,375.66Zm-2.44-1.41,1.51.87a.57.57,0,0,0,.54,0l1.27-.73a.17.17,0,0,0,0-.31l-1.51-.87a.64.64,0,0,0-.54,0l-1.27.73A.17.17,0,0,0,430.72,374.25Zm-2.43-1.41,1.51.87a.55.55,0,0,0,.53,0l1.27-.73a.17.17,0,0,0,0-.31l-1.51-.87a.62.62,0,0,0-.53,0l-1.27.74C428.14,372.62,428.14,372.76,428.29,372.84Zm-2.44-1.4,1.51.87a.62.62,0,0,0,.53,0l1.27-.74c.15-.08.15-.22,0-.3l-1.51-.87a.55.55,0,0,0-.53,0l-1.27.73C425.7,371.21,425.7,371.35,425.85,371.44ZM423.41,370l1.51.87a.62.62,0,0,0,.53,0l1.27-.73c.15-.09.15-.23,0-.31l-1.51-.87a.55.55,0,0,0-.53,0l-1.27.73C423.26,369.81,423.26,369.94,423.41,370ZM421,368.62l1.51.87a.55.55,0,0,0,.53,0l1.27-.73c.15-.09.15-.22,0-.31l-1.51-.87a.62.62,0,0,0-.53,0l-1.27.73C420.82,368.4,420.82,368.54,421,368.62Zm-2.44-1.41,1.51.87a.55.55,0,0,0,.53,0l1.27-.73c.15-.08.15-.22,0-.31l-1.51-.87a.62.62,0,0,0-.53,0l-1.27.74A.16.16,0,0,0,418.53,367.21Zm-2.43-1.41,1.51.88a.62.62,0,0,0,.53,0l1.27-.74a.16.16,0,0,0,0-.3l-1.51-.88a.62.62,0,0,0-.53,0l-1.27.74C416,365.58,416,365.72,416.1,365.8Zm-3.23-1.86,2.3,1.33a.62.62,0,0,0,.53,0l1.27-.73c.15-.09.15-.23,0-.31l-2.3-1.33a.62.62,0,0,0-.53,0l-1.27.74C412.72,363.72,412.72,363.86,412.87,363.94Zm-9.16,2.44,1.51.87a.62.62,0,0,0,.53,0l1.28-.73a.17.17,0,0,0,0-.31l-1.52-.87a.55.55,0,0,0-.53,0l-1.27.73A.17.17,0,0,0,403.71,366.38ZM401.28,365l1.51.87a.55.55,0,0,0,.53,0l1.27-.73a.17.17,0,0,0,0-.31l-1.51-.87a.55.55,0,0,0-.53,0l-1.27.73C401.13,364.75,401.13,364.88,401.28,365Zm-2.44-1.41,1.51.87a.55.55,0,0,0,.53,0l1.27-.73c.15-.08.15-.22,0-.31l-1.51-.87a.62.62,0,0,0-.53,0l-1.27.73C398.69,363.34,398.69,363.48,398.84,363.56Zm2.64,4.1,1.51.88a.64.64,0,0,0,.54,0l1.27-.74a.16.16,0,0,0,0-.3l-1.51-.88a.64.64,0,0,0-.54,0l-1.27.74A.16.16,0,0,0,401.48,367.66Zm-2.43-1.4,1.51.87a.62.62,0,0,0,.53,0l1.27-.74a.16.16,0,0,0,0-.3l-1.51-.87a.55.55,0,0,0-.53,0l-1.27.73C398.9,366,398.9,366.17,399.05,366.26Zm-2.44-1.41,1.51.87a.55.55,0,0,0,.53,0l1.27-.73c.15-.09.15-.22,0-.31l-1.51-.87a.55.55,0,0,0-.53,0l-1.27.73C396.46,364.63,396.46,364.76,396.61,364.85Zm35.93,13,2.3,1.32a.55.55,0,0,0,.53,0l1.27-.73c.15-.09.15-.22,0-.31l-2.3-1.32a.55.55,0,0,0-.53,0l-1.27.73A.17.17,0,0,0,432.54,377.89Zm-2.43-1.41,1.51.87a.62.62,0,0,0,.53,0l1.27-.73a.17.17,0,0,0,0-.31l-1.51-.87a.55.55,0,0,0-.53,0l-1.27.73C430,376.26,430,376.39,430.11,376.48Zm-2.44-1.41,1.51.87a.55.55,0,0,0,.53,0l1.27-.73c.15-.09.15-.22,0-.31l-1.51-.87a.62.62,0,0,0-.53,0l-1.27.73C427.52,374.85,427.52,375,427.67,375.07Zm-2.44-1.41,1.51.87a.55.55,0,0,0,.53,0l1.27-.73c.15-.08.15-.22,0-.31l-1.51-.87a.62.62,0,0,0-.53,0l-1.27.74C425.08,373.44,425.08,373.58,425.23,373.66Zm-2.44-1.41,1.51.88a.62.62,0,0,0,.53,0l1.27-.74c.15-.08.15-.22,0-.3l-1.51-.88a.62.62,0,0,0-.53,0l-1.27.74C422.64,372,422.64,372.17,422.79,372.25Zm-2.44-1.4,1.51.87a.62.62,0,0,0,.53,0l1.27-.73c.15-.09.15-.23,0-.31l-1.51-.87a.55.55,0,0,0-.53,0l-1.27.73A.17.17,0,0,0,420.35,370.85Zm-2.44-1.41,1.51.87a.57.57,0,0,0,.54,0l1.27-.73a.17.17,0,0,0,0-.31l-1.51-.87a.57.57,0,0,0-.54,0l-1.27.73A.17.17,0,0,0,417.91,369.44ZM415.48,368l1.51.87a.55.55,0,0,0,.53,0l1.27-.73a.17.17,0,0,0,0-.31l-1.51-.87a.62.62,0,0,0-.53,0l-1.27.73C415.33,367.81,415.33,368,415.48,368ZM413,366.62l1.51.88a.62.62,0,0,0,.53,0l1.27-.74c.15-.08.15-.22,0-.3l-1.51-.88a.62.62,0,0,0-.53,0l-1.27.74C412.89,366.4,412.89,366.54,413,366.62Zm-2.44-1.4,1.51.87a.62.62,0,0,0,.53,0l1.27-.73c.15-.09.15-.23,0-.31l-1.51-.87a.55.55,0,0,0-.53,0l-1.27.73C410.45,365,410.45,365.13,410.6,365.22Zm20.57,14.4,1.51.88a.62.62,0,0,0,.53,0l1.27-.74c.15-.08.15-.22,0-.3l-1.51-.88a.62.62,0,0,0-.53,0l-1.27.74C431,379.4,431,379.54,431.17,379.62Zm-2.44-1.4,1.51.87a.62.62,0,0,0,.53,0l1.27-.74c.15-.08.15-.22,0-.3l-1.51-.87a.55.55,0,0,0-.53,0l-1.27.73C428.58,378,428.58,378.13,428.73,378.22Zm-2.44-1.41,1.51.87a.55.55,0,0,0,.53,0l1.27-.73c.15-.09.15-.22,0-.31l-1.51-.87a.55.55,0,0,0-.53,0l-1.27.73A.17.17,0,0,0,426.29,376.81Zm-2.43-1.41,1.51.87a.55.55,0,0,0,.53,0l1.27-.73a.17.17,0,0,0,0-.31l-1.51-.87a.62.62,0,0,0-.53,0l-1.27.73C423.71,375.18,423.71,375.32,423.86,375.4Zm2.89,6.78,1.51.87a.62.62,0,0,0,.53,0l1.27-.73c.15-.09.15-.23,0-.31l-1.51-.87a.55.55,0,0,0-.53,0l-1.27.73C426.6,382,426.6,382.09,426.75,382.18Zm-2.44-1.41,1.51.87a.55.55,0,0,0,.53,0l1.27-.73c.15-.09.15-.22,0-.31l-1.51-.87a.55.55,0,0,0-.53,0l-1.27.73C424.16,380.55,424.16,380.68,424.31,380.77Zm-2.44-1.41,1.51.87a.55.55,0,0,0,.53,0l1.27-.73c.15-.08.15-.22,0-.31l-1.51-.87a.62.62,0,0,0-.53,0l-1.27.73A.17.17,0,0,0,421.87,379.36ZM419.43,378l1.51.88a.64.64,0,0,0,.54,0l1.27-.74a.16.16,0,0,0,0-.3l-1.51-.88a.64.64,0,0,0-.54,0l-1.27.74A.16.16,0,0,0,419.43,378ZM404,369.06l2.3,1.33a.62.62,0,0,0,.53,0l1.27-.74c.15-.08.15-.22,0-.3L405.84,368a.64.64,0,0,0-.54,0l-1.27.74A.16.16,0,0,0,404,369.06ZM421.42,374l1.51.88a.62.62,0,0,0,.53,0l1.27-.74c.15-.08.15-.22,0-.3l-1.51-.88a.62.62,0,0,0-.53,0l-1.27.74C421.27,373.77,421.27,373.91,421.42,374Zm-2.44-1.4,1.51.87a.62.62,0,0,0,.53,0l1.27-.74c.15-.08.15-.22,0-.3l-1.51-.87a.55.55,0,0,0-.53,0l-1.27.73C418.83,372.36,418.83,372.5,419,372.59Zm-2.44-1.41,1.51.87a.62.62,0,0,0,.53,0l1.27-.73c.15-.09.15-.23,0-.31l-1.51-.87a.55.55,0,0,0-.53,0l-1.27.73C416.39,371,416.39,371.09,416.54,371.18Zm-2.44-1.41,1.51.87a.55.55,0,0,0,.53,0l1.27-.73c.15-.09.15-.22,0-.31l-1.51-.87a.62.62,0,0,0-.53,0l-1.27.73A.17.17,0,0,0,414.1,369.77Zm-2.44-1.41,1.51.87a.57.57,0,0,0,.54,0l1.27-.73a.17.17,0,0,0,0-.31l-1.51-.87a.64.64,0,0,0-.54,0l-1.27.74A.16.16,0,0,0,411.66,368.36Zm-3.22-1.86,2.3,1.33a.62.62,0,0,0,.53,0l1.27-.74a.16.16,0,0,0,0-.3l-2.3-1.33a.62.62,0,0,0-.53,0l-1.27.73C408.29,366.28,408.29,366.42,408.44,366.5Zm19.67,13.94,2.3,1.33a.62.62,0,0,0,.53,0l1.27-.73c.15-.09.15-.23,0-.31l-2.3-1.33a.62.62,0,0,0-.53,0l-1.27.74A.16.16,0,0,0,428.11,380.44Zm-2.44-1.4,1.51.87a.64.64,0,0,0,.54,0l1.27-.74a.16.16,0,0,0,0-.3l-1.51-.87a.57.57,0,0,0-.54,0l-1.27.73A.17.17,0,0,0,425.67,379Zm-2.43-1.41,1.51.87a.62.62,0,0,0,.53,0l1.27-.73a.17.17,0,0,0,0-.31l-1.51-.87a.55.55,0,0,0-.53,0l-1.27.73C423.09,377.41,423.09,377.54,423.24,377.63Zm-2.44-1.41,1.51.87a.55.55,0,0,0,.53,0l1.27-.73c.15-.09.15-.22,0-.31l-1.51-.87a.62.62,0,0,0-.53,0l-1.27.73C420.65,376,420.65,376.14,420.8,376.22Zm-2.44-1.41,1.51.87a.55.55,0,0,0,.53,0l1.27-.73c.15-.08.15-.22,0-.31l-1.51-.87a.62.62,0,0,0-.53,0l-1.27.74C418.21,374.59,418.21,374.73,418.36,374.81Zm-11.16-3.89,11.3,6.52a.62.62,0,0,0,.53,0l1.27-.74a.16.16,0,0,0,0-.3L409,369.88a.55.55,0,0,0-.53,0l-1.27.73A.17.17,0,0,0,407.2,370.92Zm8.72,2.48,1.51.88a.62.62,0,0,0,.53,0l1.27-.74c.15-.08.15-.22,0-.3l-1.51-.88a.62.62,0,0,0-.53,0l-1.27.74A.16.16,0,0,0,415.92,373.4Zm-2.44-1.4,1.51.87a.64.64,0,0,0,.54,0l1.27-.73a.17.17,0,0,0,0-.31l-1.51-.87a.57.57,0,0,0-.54,0l-1.27.73A.17.17,0,0,0,413.48,372Zm-2.43-1.41,1.51.87a.55.55,0,0,0,.53,0l1.27-.73a.17.17,0,0,0,0-.31l-1.51-.87a.55.55,0,0,0-.53,0l-1.27.73C410.9,370.37,410.9,370.5,411.05,370.59Zm-2.44-1.41,1.51.87a.55.55,0,0,0,.53,0l1.27-.73c.15-.08.15-.22,0-.31l-1.51-.87a.62.62,0,0,0-.53,0l-1.27.74C408.46,369,408.46,369.1,408.61,369.18Zm-2.44-1.41,1.51.88a.62.62,0,0,0,.53,0l1.27-.74c.15-.08.15-.22,0-.3l-1.51-.88a.62.62,0,0,0-.53,0l-1.27.74C406,367.55,406,367.69,406.17,367.77Zm4.22-5.25,1.51.88a.62.62,0,0,0,.53,0l1.27-.74c.15-.08.15-.22,0-.3l-1.51-.88a.62.62,0,0,0-.53,0l-1.27.74C410.24,362.3,410.24,362.44,410.39,362.52Zm-2.44-1.4,1.51.87a.62.62,0,0,0,.53,0l1.27-.74c.15-.08.15-.22,0-.3l-1.51-.87a.55.55,0,0,0-.53,0l-1.27.73C407.8,360.89,407.8,361,408,361.12Zm-2.44-1.41,1.51.87a.55.55,0,0,0,.53,0l1.27-.73c.15-.09.15-.22,0-.31l-1.51-.87a.55.55,0,0,0-.53,0l-1.27.73C405.36,359.49,405.36,359.62,405.51,359.71ZM403.29,361l1.51.87a.55.55,0,0,0,.53,0l1.27-.73c.15-.08.15-.22,0-.31l-1.51-.87a.62.62,0,0,0-.53,0l-1.27.74C403.14,360.77,403.14,360.91,403.29,361Zm-2.16,1.26,6.35,3.67a.76.76,0,0,0,.66,0l3.33-1.93a.2.2,0,0,0,0-.38l-3.83-2.21a.7.7,0,0,0-.66,0l-1.67,1a.48.48,0,0,1-.37,0l-2.13-1.22a.49.49,0,0,0-.44,0l-1.24.72C401,362,401,362.15,401.13,362.25Z" transform="translate(12.03 -10.83)"/><polygon class="cls-54" points="428.61 356.61 393.71 336.32 404.25 355.72 439.15 376 428.61 356.61"/><polygon class="cls-48" points="429.11 356.05 394.21 335.76 393.71 336.32 428.61 356.61 429.11 356.05"/><polygon class="cls-53" points="429.11 356.05 428.61 356.61 439.15 376 439.45 375.83 439.45 376.45 463.94 362.31 463.94 361.01 439.49 375.12 429.11 356.05"/><path class="cls-45" d="M431.28,361.52c-1,1.05-4.27,7.84-3.27,9.63.53,1,4.08,2,5.28,1.75a1.51,1.51,0,0,0,.73-.38,2.07,2.07,0,0,0,.38-.66,24.41,24.41,0,0,1,2.49-4.17s2.4-2.59,4.45-5.2a1,1,0,0,0,.19-.34.86.86,0,0,0-.09-.47,7.41,7.41,0,0,0-3-3.41,2.15,2.15,0,0,0-1.1-.31C435.76,358.08,432.57,360.23,431.28,361.52Z" transform="translate(12.03 -10.83)"/><path class="cls-45" d="M420.75,363.11c-.59,1.71-3.29,1.76-3.78,1.65-1.06-.23-2.77-1-2.78-2,0-4.24-.09-6.6.89-9.34a14.84,14.84,0,0,1,2.72-3.92c1.39-1.42,5.79.77,5.58,2.15-.06.39-.89,2.86-1.3,5A45.1,45.1,0,0,1,420.75,363.11Z" transform="translate(12.03 -10.83)"/><path class="cls-59" d="M508.28,131.62c-1.84-1.06-4.38-.91-7.19.71l5.23,3c2.8-1.62,5.35-1.78,7.19-.71Z" transform="translate(12.03 -10.83)"/><polygon class="cls-60" points="449.24 226.02 444.01 222.98 444.06 242.37 449.29 245.41 449.24 226.02"/><path class="cls-60" d="M426.28,231.53l-.11-38.26-5.23-3,.11,38.26c0,3.18,1.13,5.42,2.95,6.48l5.23,3C427.41,237,426.29,234.71,426.28,231.53Z" transform="translate(12.03 -10.83)"/><polygon class="cls-61" points="513.13 121.5 443.05 161.96 448.27 165 518.35 124.54 513.13 121.5"/><path class="cls-59" d="M431,172.79c-5.57,3.22-10.09,11-10.07,17.44l5.23,3c0-6.42,4.5-14.23,10.07-17.44Z" transform="translate(12.03 -10.83)"/><path class="cls-62" d="M506.32,135.37c5.57-3.22,10.12-.65,10.13,5.77l.11,38.26c0,6.41-4.49,14.23-10.07,17.45L448,230.64l-10.69,25.6-.06-19.39-.79.46c-5.57,3.21-10.12.62-10.13-5.78l-.11-38.26c0-6.42,4.5-14.23,10.07-17.44Z" transform="translate(12.03 -10.83)"/><circle class="cls-63" cx="510.5" cy="141.49" r="101.47" transform="translate(61.51 391.59) rotate(-45)"/><polygon class="cls-60" points="158.88 259.3 153.65 256.26 164.46 269.47 169.68 272.5 158.88 259.3"/><path class="cls-59" d="M160.15,198.25c-1.83-1.06-4.37-.91-7.17.7l5.23,3c2.8-1.62,5.34-1.76,7.17-.7Z" transform="translate(12.03 -10.83)"/><path class="cls-60" d="M78.17,298.17l-.11-38.28-5.23-3,.11,38.27c0,3.18,1.13,5.42,2.94,6.47l5.23,3C79.3,303.59,78.18,301.35,78.17,298.17Z" transform="translate(12.03 -10.83)"/><polygon class="cls-61" points="165.01 188.12 94.94 228.58 100.16 231.62 170.24 191.16 165.01 188.12"/><path class="cls-59" d="M82.9,239.41c-5.59,3.23-10.09,11-10.07,17.45l5.23,3c0-6.4,4.48-14.21,10.07-17.44Z" transform="translate(12.03 -10.83)"/><path class="cls-62" d="M158.21,202c5.57-3.22,10.1-.62,10.12,5.79l.11,38.27c0,6.41-4.48,14.2-10.06,17.42l-.79.46.06,19.41-10.81-13.21L88.3,303.93c-5.58,3.23-10.11.64-10.13-5.76l-.11-38.28c0-6.4,4.48-14.21,10.07-17.44Z" transform="translate(12.03 -10.83)"/><circle class="cls-64" cx="89.43" cy="254.61" r="101.47" transform="translate(-141.81 126.98) rotate(-45)"/><path class="cls-65" d="M494.82,307.12,484.3,313.2v1.47l10.52-6.08Zm15.67-9L496.8,306v1.47l13.69-7.9ZM490.33,313.7l-6,3.49v1.46l6-3.48ZM502,307l-9.7,5.61V314l9.7-5.6Zm2,.33,6.52-3.76v-1.47L504,305.82Zm-9.16,7.81-10.52,6.07v1.47l10.52-6.08Zm15.67-9.05L496.8,314v1.46l13.69-7.9Zm-20.16,15.63-6,3.48v1.47l6-3.49Zm2,.33,9.7-5.61v-1.46l-9.7,5.6ZM504,315.26l6.52-3.76V310L504,313.8Zm-9.16,7.81-10.52,6.07v1.47l10.52-6.07ZM510.49,314l-13.69,7.91v1.47l13.69-7.91ZM484.3,334.6l6-3.48v-1.47l-6,3.48Zm8-4.62,9.7-5.6v-1.47l-9.7,5.6ZM504,323.24l6.52-3.77V318L504,321.77Z" transform="translate(12.03 -10.83)"/><path class="cls-65" d="M494.82,276.76l-10.52,6.08v1.46l10.52-6.07Zm15.67-9-13.69,7.9v1.47l13.69-7.91Zm-20.16,15.62-6,3.48v1.47l6-3.48ZM502,276.6l-9.7,5.6v1.47l9.7-5.6Zm2,.33,6.52-3.77V271.7L504,275.46Zm-9.16,7.8-10.52,6.08v1.47l10.52-6.08Zm15.67-9-13.69,7.9v1.47l13.69-7.9Zm-20.16,15.62-6,3.48v1.47l6-3.48Zm2,.33L502,286v-1.47l-9.7,5.6ZM504,284.9l6.52-3.76v-1.47L504,283.43Zm-9.16,7.8-10.52,6.08v1.47l10.52-6.08Zm15.67-9-13.69,7.91V293l13.69-7.9ZM484.3,304.24l6-3.49v-1.46l-6,3.48Zm8-4.63L502,294v-1.46l-9.7,5.6ZM504,292.87l6.52-3.76v-1.47L504,291.41Z" transform="translate(12.03 -10.83)"/><path class="cls-65" d="M517.88,221l-6,3.48V226l6-3.48Zm2,.33,9.71-5.6v-1.47l-9.71,5.6Zm11.68-6.74,6.52-3.77v-1.47l-6.52,3.77Zm8.5-4.91,13.84-8v-1.47l-13.84,8Zm-17.65,12.71-10.53,6.07v1.47l10.53-6.07Zm12.49-7.22-10.52,6.08v1.47l10.52-6.08Zm2,.33,4.38-2.53V211.5L536.85,214Zm6.35-3.67,10.67-6.15v-1.47l-10.67,6.15Zm-31.35,22.09,6-3.48V229l-6,3.48Zm8-4.62,9.71-5.6v-1.47l-9.71,5.6Zm11.68-6.74,6.52-3.77v-1.47l-6.52,3.77Zm8.5-4.91,13.84-8v-1.47l-13.84,8Z" transform="translate(12.03 -10.83)"/><path class="cls-65" d="M61.61,234.65l-6,3.48v1.47l6-3.48Zm2,.33,9.7-5.6v-1.47l-9.7,5.6Zm11.67-6.74,6.53-3.77V223l-6.53,3.77Zm8.5-4.91,13.84-8v-1.47l-13.84,8ZM66.1,236l-10.52,6.08v1.47l10.52-6.08Zm12.5-7.21L68.07,234.9v1.47l10.53-6.08Zm2,.32L85,226.62v-1.47l-4.39,2.54Zm6.36-3.67,10.66-6.15v-1.47L86.93,224ZM55.58,247.57l6-3.48v-1.47l-6,3.48Zm8-4.62,9.7-5.6v-1.47l-9.7,5.6Zm11.67-6.74,6.53-3.77V231l-6.53,3.76Zm8.5-4.9,13.84-8v-1.46l-13.84,8Z" transform="translate(12.03 -10.83)"/><path class="cls-65" d="M535.85,192.32l-3.68,2.12v1.47l3.68-2.13Zm2,.33,6.39-3.7v-1.47l-6.39,3.7Zm8.36-4.84,7.53-4.34V182l-7.53,4.35Zm-5.84,5.9-8.18,4.72v1.47l8.18-4.72Zm9.19-5.31-7.22,4.17V194l7.22-4.17Zm2,.33,2.28-1.31V186l-2.28,1.31Zm-19.34,15.16,3.68-2.13v-1.47l-3.68,2.13Zm5.66-3.27,6.39-3.69v-1.47l-6.39,3.69Zm8.36-4.83,7.69-4.44v-1.47l-7.69,4.44Z" transform="translate(12.03 -10.83)"/><path class="cls-65" d="M66.34,357l-3.69,2.13v1.47l3.69-2.13Zm2,.33,6.4-3.69v-1.47l-6.4,3.69Zm8.37-4.83,7.53-4.35v-1.47L76.68,351Zm-5.85,5.89-8.18,4.73v1.46l8.18-4.72Zm9.19-5.3-7.21,4.16v1.47L80,354.53Zm2,.33,2.27-1.32v-1.47L82,351.93ZM62.65,368.55l3.69-2.13V365l-3.69,2.13Zm5.66-3.27,6.4-3.69v-1.47l-6.4,3.69Zm8.37-4.83L84.36,356v-1.47L76.68,359Z" transform="translate(12.03 -10.83)"/><path class="cls-65" d="M216.36,240.28l-10.82,6.25V248l10.82-6.25Zm16.11-9.3-14.08,8.13v1.51l14.08-8.13Zm-20.73,16.07-6.2,3.57v1.51l6.2-3.58Zm12-6.94-10,5.76v1.51l10-5.76Zm2,.34,6.71-3.87v-1.51l-6.71,3.87Zm-9.41,8-10.82,6.24v1.51L216.36,250Zm16.11-9.3-14.08,8.12v1.51l14.08-8.12Zm-20.73,16.06-6.2,3.58v1.51l6.2-3.58Zm2,.34,10-5.76v-1.51l-10,5.76Zm12-6.93,6.71-3.87v-1.51l-6.71,3.87Zm-9.41,8-10.82,6.25v1.51l10.82-6.25Zm16.11-9.3-14.08,8.13V257l14.08-8.13Zm-26.93,21.16,6.2-3.58v-1.51l-6.2,3.58Zm8.23-4.75,10-5.76v-1.51l-10,5.76Zm12-6.93,6.71-3.88v-1.51l-6.71,3.88Z" transform="translate(12.03 -10.83)"/><path class="cls-65" d="M211.57,274.76l-6.2,3.58v1.51l6.2-3.58Zm2,.34,10-5.76v-1.51l-10,5.76Zm12-6.93,6.71-3.88v-1.5l-6.71,3.87Zm8.73-5.05,11.7-6.75v-1.51l-11.7,6.75Zm-18.14,13.07-10.82,6.25v1.5l10.82-6.24ZM229,268.77,218.22,275v1.51L229,270.28Zm2,.34,4.5-2.6V265l-4.5,2.6Zm6.53-3.78,8.43-4.86V259l-8.43,4.86ZM205.37,288l6.2-3.58V283l-6.2,3.58Zm8.23-4.75,10-5.76V276l-10,5.76Zm12-6.93,6.71-3.87V271l-6.71,3.87Zm8.73-5,11.7-6.75v-1.51l-11.7,6.75Z" transform="translate(12.03 -10.83)"/><path class="cls-65" d="M346.42,390.58l6.57-3.8v-1.51l-6.57,3.8Zm8.6-5L359.6,383v-1.51L355,384.1Zm6.61-3.81,7.72-4.46v-1.51l-7.72,4.46Zm-3.17,4.42-12,6.93v1.51l12-6.93Zm2,.33,2.38-1.37v-1.51l-2.38,1.38ZM364.9,384l4.45-2.57v-1.51l-4.45,2.57Zm-18.38,14.71,15.21-8.78v-1.51l-15.21,8.78Zm17.24-10,5.59-3.23V384l-5.59,3.23Z" transform="translate(12.03 -10.83)"/><path class="cls-65" d="M105.31,321.78,94.49,328v1.51l10.82-6.24Zm12.85-7.42-10.82,6.25v1.51l10.82-6.25Zm6.53-3.77-4.5,2.6v1.51l4.5-2.61Zm2-1.18v1.51l11-6.32v-1.51Zm-26,19.13-6.2,3.58v1.51l6.2-3.58Zm12-6.93-10,5.76v1.51l10-5.76Zm2,.34,6.71-3.87v-1.51l-6.71,3.87Zm8.73-5,14.23-8.22v-1.51l-14.23,8.22ZM105.31,330l-10.82,6.25v1.51l10.82-6.25Zm12.85-7.41-10.82,6.24v1.51l10.82-6.24Zm6.53-3.78-4.5,2.6v1.51l4.5-2.6Zm2,.34,11-6.33v-1.51l-11,6.33Zm-26,17.62-6.2,3.58v1.51l6.2-3.58Zm2,.34,10-5.76v-1.51l-10,5.76Zm12-6.93,6.71-3.87v-1.51l-6.71,3.87Zm8.73-5,14.23-8.22v-1.51l-14.23,8.22Zm-18.14,13.06-10.82,6.25v1.51l10.82-6.25Zm12.85-7.42L107.34,337v1.51l10.82-6.25Zm2,.34,4.5-2.6V327l-4.5,2.6Zm6.53-3.77,11-6.33v-1.51l-11,6.33ZM94.49,350l6.2-3.57v-1.51l-6.2,3.58Zm8.23-4.75,10-5.75V338l-10,5.76Zm12-6.93,6.71-3.87V333l-6.71,3.88Zm8.73-5,14.23-8.21v-1.51l-14.23,8.21Z" transform="translate(12.03 -10.83)"/></g></g></svg>