<svg xmlns="http://www.w3.org/2000/svg" xmlns:xlink="http://www.w3.org/1999/xlink" viewBox="0 0 731.26 853.74"><defs><style>.cls-1,.cls-143,.cls-16,.cls-3,.cls-9,.cls-94{fill:none;stroke:#fff;}.cls-1,.cls-143,.cls-3,.cls-9{stroke-miterlimit:10;}.cls-1{stroke-width:0.25px;}.cls-2{fill:#ce7a63;}.cls-3{stroke-width:0.2px;}.cls-4{isolation:isolate;}.cls-5,.cls-79,.cls-80,.cls-81,.cls-89,.cls-90,.cls-91{opacity:0.5;}.cls-6{fill:url(#linear-gradient);}.cls-7{fill:url(#linear-gradient-2);}.cls-8{fill:url(#linear-gradient-3);}.cls-9{stroke-width:0.23px;}.cls-10{fill:url(#radial-gradient);}.cls-11{clip-path:url(#clip-path);}.cls-12,.cls-57,.cls-77{opacity:0.2;}.cls-13,.cls-57,.cls-58{fill:#fff;}.cls-14{opacity:0.3;}.cls-14,.cls-15{mix-blend-mode:overlay;}.cls-16,.cls-94{stroke-linecap:round;stroke-linejoin:round;}.cls-16{stroke-width:0.15px;}.cls-17{fill:url(#radial-gradient-2);}.cls-18{fill:url(#radial-gradient-3);}.cls-19{fill:url(#radial-gradient-4);}.cls-20{fill:url(#radial-gradient-5);}.cls-21{fill:url(#radial-gradient-6);}.cls-22{fill:url(#radial-gradient-7);}.cls-23{fill:url(#radial-gradient-8);}.cls-24{fill:url(#radial-gradient-9);}.cls-25{fill:url(#radial-gradient-10);}.cls-26{fill:url(#radial-gradient-11);}.cls-27{fill:url(#radial-gradient-12);}.cls-28{fill:url(#radial-gradient-13);}.cls-29{fill:url(#radial-gradient-14);}.cls-30{fill:url(#radial-gradient-15);}.cls-31{fill:url(#radial-gradient-16);}.cls-32{fill:url(#radial-gradient-17);}.cls-33{fill:url(#radial-gradient-18);}.cls-34{fill:url(#radial-gradient-19);}.cls-35{fill:url(#radial-gradient-20);}.cls-36{fill:url(#radial-gradient-21);}.cls-37{fill:url(#radial-gradient-22);}.cls-38{fill:url(#radial-gradient-23);}.cls-39{fill:url(#radial-gradient-24);}.cls-40{fill:url(#radial-gradient-25);}.cls-41{fill:url(#radial-gradient-26);}.cls-42{fill:url(#radial-gradient-27);}.cls-43{fill:url(#radial-gradient-28);}.cls-44{fill:url(#radial-gradient-29);}.cls-45{fill:url(#radial-gradient-30);}.cls-46{fill:url(#radial-gradient-31);}.cls-47{fill:url(#radial-gradient-32);}.cls-48{fill:url(#radial-gradient-33);}.cls-49{fill:url(#radial-gradient-34);}.cls-50{fill:url(#radial-gradient-35);}.cls-51{fill:url(#radial-gradient-36);}.cls-52{fill:url(#radial-gradient-37);}.cls-53{fill:url(#radial-gradient-38);}.cls-54{fill:url(#radial-gradient-39);}.cls-55{fill:url(#radial-gradient-40);}.cls-56{fill:url(#radial-gradient-41);}.cls-58{opacity:0.1;}.cls-59{fill:url(#linear-gradient-4);}.cls-60{fill:#1d2423;}.cls-61{fill:#161412;}.cls-62{fill:#ffe3bb;}.cls-63{fill:#87654d;opacity:0.4;}.cls-63,.cls-77{mix-blend-mode:multiply;}.cls-64{fill:url(#Gradiente_sem_nome_838);}.cls-65{fill:#6f2013;}.cls-66{fill:#020203;}.cls-67{fill:#392517;}.cls-68{fill:#29180e;}.cls-69{fill:#c8c8c8;}.cls-70{fill:url(#linear-gradient-5);}.cls-71{fill:url(#Gradiente_sem_nome_841);}.cls-72{fill:#ddc09e;}.cls-73{fill:#99856b;}.cls-74{clip-path:url(#clip-path-2);}.cls-75{fill:#683c29;}.cls-76{fill:#aa977e;}.cls-77{fill:#3a9964;}.cls-78{fill:url(#radial-gradient-42);}.cls-79{fill:url(#radial-gradient-43);}.cls-80{fill:url(#linear-gradient-6);}.cls-81{fill:url(#linear-gradient-7);}.cls-82{fill:url(#radial-gradient-44);}.cls-83{fill:url(#radial-gradient-45);}.cls-84{fill:url(#linear-gradient-8);}.cls-85{fill:url(#linear-gradient-9);}.cls-86{fill:url(#linear-gradient-10);}.cls-87{fill:url(#linear-gradient-11);}.cls-88{fill:url(#radial-gradient-46);}.cls-89{fill:url(#radial-gradient-47);}.cls-90{fill:url(#linear-gradient-12);}.cls-91{fill:url(#linear-gradient-13);}.cls-92{fill:url(#radial-gradient-48);}.cls-93{fill:url(#radial-gradient-49);}.cls-94{stroke-width:0.27px;}.cls-95{fill:url(#radial-gradient-50);}.cls-96{fill:url(#radial-gradient-51);}.cls-97{fill:url(#radial-gradient-52);}.cls-98{fill:url(#radial-gradient-53);}.cls-99{fill:url(#radial-gradient-54);}.cls-100{fill:url(#radial-gradient-55);}.cls-101{fill:url(#radial-gradient-56);}.cls-102{fill:url(#radial-gradient-57);}.cls-103{fill:url(#radial-gradient-58);}.cls-104{fill:url(#radial-gradient-59);}.cls-105{fill:url(#radial-gradient-60);}.cls-106{fill:url(#radial-gradient-61);}.cls-107{fill:url(#radial-gradient-62);}.cls-108{fill:url(#radial-gradient-63);}.cls-109{fill:url(#radial-gradient-64);}.cls-110{fill:url(#radial-gradient-65);}.cls-111{fill:url(#radial-gradient-66);}.cls-112{fill:url(#radial-gradient-67);}.cls-113{fill:url(#radial-gradient-68);}.cls-114{fill:url(#radial-gradient-69);}.cls-115{fill:url(#radial-gradient-70);}.cls-116{fill:url(#radial-gradient-71);}.cls-117{fill:url(#radial-gradient-72);}.cls-118{fill:url(#radial-gradient-73);}.cls-119{fill:url(#radial-gradient-74);}.cls-120{fill:url(#radial-gradient-75);}.cls-121{fill:url(#radial-gradient-76);}.cls-122{fill:url(#radial-gradient-77);}.cls-123{fill:url(#radial-gradient-78);}.cls-124{fill:url(#radial-gradient-79);}.cls-125{fill:url(#radial-gradient-80);}.cls-126{fill:url(#radial-gradient-81);}.cls-127{fill:url(#radial-gradient-82);}.cls-128{fill:url(#radial-gradient-83);}.cls-129{fill:url(#radial-gradient-84);}.cls-130{fill:url(#radial-gradient-85);}.cls-131{fill:url(#radial-gradient-86);}.cls-132{fill:url(#radial-gradient-87);}.cls-133{fill:url(#radial-gradient-88);}.cls-134{fill:url(#radial-gradient-89);}.cls-135{fill:url(#radial-gradient-90);}.cls-136{clip-path:url(#clip-path-3);}.cls-137{fill:url(#linear-gradient-14);}.cls-138{fill:url(#linear-gradient-15);}.cls-139{fill:url(#linear-gradient-16);}.cls-140{fill:url(#linear-gradient-17);}.cls-141{fill:url(#linear-gradient-18);}.cls-142{fill:url(#linear-gradient-19);}.cls-143{stroke-width:0.17px;}</style><linearGradient id="linear-gradient" x1="562.98" y1="105.77" x2="620.74" y2="39.56" gradientTransform="matrix(-1, 0, 0, 1, 846.91, -18.61)" gradientUnits="userSpaceOnUse"><stop offset="0" stop-color="#6f2013"/><stop offset="1" stop-color="#ae094d"/></linearGradient><linearGradient id="linear-gradient-2" x1="472.47" y1="92.35" x2="552.23" y2="92.35" gradientTransform="matrix(-1, 0, 0, 1, 846.91, -18.61)" gradientUnits="userSpaceOnUse"><stop offset="0" stop-color="#6f2013"/><stop offset="0.43" stop-color="#731912"/><stop offset="1" stop-color="#7c070e"/></linearGradient><linearGradient id="linear-gradient-3" x1="489.82" y1="140.84" x2="654.45" y2="140.84" gradientTransform="matrix(-1, 0, 0, 1, 846.91, -18.61)" gradientUnits="userSpaceOnUse"><stop offset="0" stop-color="#392517"/><stop offset="0.35" stop-color="#3c2115"/><stop offset="0.69" stop-color="#451511"/><stop offset="1" stop-color="#52040a"/></linearGradient><radialGradient id="radial-gradient" cx="357.96" cy="133.57" r="96.08" gradientTransform="matrix(-0.89, -0.46, -0.46, 0.89, 987.69, 138.94)" gradientUnits="userSpaceOnUse"><stop offset="0" stop-color="#ae094d"/><stop offset="0.23" stop-color="#a70b47"/><stop offset="0.55" stop-color="#941235"/><stop offset="0.93" stop-color="#751e19"/><stop offset="1" stop-color="#6f2013"/></radialGradient><clipPath id="clip-path" transform="translate(-24.06 -18.61)"><circle class="cls-1" cx="625.26" cy="123.5" r="56.06" transform="translate(-9.23 183.74) rotate(-16.6)"/></clipPath><radialGradient id="radial-gradient-2" cx="-226.5" cy="331.11" r="9.89" gradientTransform="matrix(-0.27, 0.96, 0.96, 0.27, 72.12, 290.22)" gradientUnits="userSpaceOnUse"><stop offset="0" stop-color="#fff"/><stop offset="0.07" stop-color="#fff" stop-opacity="0.88"/><stop offset="0.21" stop-color="#fff" stop-opacity="0.65"/><stop offset="0.36" stop-color="#fff" stop-opacity="0.45"/><stop offset="0.5" stop-color="#fff" stop-opacity="0.29"/><stop offset="0.64" stop-color="#fff" stop-opacity="0.16"/><stop offset="0.77" stop-color="#fff" stop-opacity="0.07"/><stop offset="0.89" stop-color="#fff" stop-opacity="0.02"/><stop offset="1" stop-color="#fff" stop-opacity="0"/></radialGradient><radialGradient id="radial-gradient-3" cx="-226.5" cy="331.11" r="3.02" gradientTransform="matrix(-0.27, 0.96, 0.96, 0.27, 72.12, 290.22)" gradientUnits="userSpaceOnUse"><stop offset="0" stop-color="#fff"/><stop offset="0.29" stop-color="#fff" stop-opacity="0.99"/><stop offset="0.43" stop-color="#fff" stop-opacity="0.96"/><stop offset="0.53" stop-color="#fff" stop-opacity="0.91"/><stop offset="0.62" stop-color="#fff" stop-opacity="0.84"/><stop offset="0.7" stop-color="#fff" stop-opacity="0.75"/><stop offset="0.77" stop-color="#fff" stop-opacity="0.63"/><stop offset="0.84" stop-color="#fff" stop-opacity="0.49"/><stop offset="0.9" stop-color="#fff" stop-opacity="0.33"/><stop offset="0.96" stop-color="#fff" stop-opacity="0.16"/><stop offset="1" stop-color="#fff" stop-opacity="0"/></radialGradient><radialGradient id="radial-gradient-4" cx="-100.64" cy="496.22" r="9.89" xlink:href="#radial-gradient-2"/><radialGradient id="radial-gradient-5" cx="-100.64" cy="496.22" r="3.02" xlink:href="#radial-gradient-3"/><radialGradient id="radial-gradient-6" cx="-75.43" cy="449.06" r="6.65" xlink:href="#radial-gradient-2"/><radialGradient id="radial-gradient-7" cx="-75.43" cy="449.06" r="2.03" xlink:href="#radial-gradient-3"/><radialGradient id="radial-gradient-8" cx="14.81" cy="466.89" r="6.65" xlink:href="#radial-gradient-2"/><radialGradient id="radial-gradient-9" cx="14.81" cy="466.89" r="2.03" xlink:href="#radial-gradient-3"/><radialGradient id="radial-gradient-10" cx="23.86" cy="503.38" r="6.65" xlink:href="#radial-gradient-2"/><radialGradient id="radial-gradient-11" cx="23.86" cy="503.38" r="2.03" xlink:href="#radial-gradient-3"/><radialGradient id="radial-gradient-12" cx="53.77" cy="556.72" r="6.65" xlink:href="#radial-gradient-2"/><radialGradient id="radial-gradient-13" cx="53.77" cy="556.72" r="2.03" xlink:href="#radial-gradient-3"/><radialGradient id="radial-gradient-14" cx="-50.22" cy="490.17" r="9.89" xlink:href="#radial-gradient-2"/><radialGradient id="radial-gradient-15" cx="-50.22" cy="490.17" r="3.02" xlink:href="#radial-gradient-3"/><radialGradient id="radial-gradient-16" cx="-128.05" cy="316.5" r="4.87" xlink:href="#radial-gradient-2"/><radialGradient id="radial-gradient-17" cx="-128.05" cy="316.5" r="1.49" xlink:href="#radial-gradient-3"/><radialGradient id="radial-gradient-18" cx="-96.22" cy="357.93" r="4.87" xlink:href="#radial-gradient-2"/><radialGradient id="radial-gradient-19" cx="-96.22" cy="357.93" r="1.49" xlink:href="#radial-gradient-3"/><radialGradient id="radial-gradient-20" cx="2.62" cy="392.57" r="4.87" xlink:href="#radial-gradient-2"/><radialGradient id="radial-gradient-21" cx="2.62" cy="392.57" r="1.49" xlink:href="#radial-gradient-3"/><radialGradient id="radial-gradient-22" cx="-18.85" cy="326.24" r="4.87" xlink:href="#radial-gradient-2"/><radialGradient id="radial-gradient-23" cx="-18.85" cy="326.24" r="1.49" xlink:href="#radial-gradient-3"/><radialGradient id="radial-gradient-24" cx="83.44" cy="367.68" r="4.87" xlink:href="#radial-gradient-2"/><radialGradient id="radial-gradient-25" cx="83.44" cy="367.68" r="1.49" xlink:href="#radial-gradient-3"/><radialGradient id="radial-gradient-26" cx="-102.88" cy="437.54" r="4.87" xlink:href="#radial-gradient-2"/><radialGradient id="radial-gradient-27" cx="-102.88" cy="437.54" r="1.49" xlink:href="#radial-gradient-3"/><radialGradient id="radial-gradient-28" cx="-167.98" cy="448.41" r="4.87" xlink:href="#radial-gradient-2"/><radialGradient id="radial-gradient-29" cx="-167.98" cy="448.41" r="1.49" xlink:href="#radial-gradient-3"/><radialGradient id="radial-gradient-30" cx="-283.22" cy="485.54" r="4.87" xlink:href="#radial-gradient-2"/><radialGradient id="radial-gradient-31" cx="-283.22" cy="485.54" r="1.49" xlink:href="#radial-gradient-3"/><radialGradient id="radial-gradient-32" cx="-188.95" cy="517.26" r="4.87" xlink:href="#radial-gradient-2"/><radialGradient id="radial-gradient-33" cx="-188.95" cy="517.26" r="1.49" xlink:href="#radial-gradient-3"/><radialGradient id="radial-gradient-34" cx="-184.08" cy="568.31" r="4.87" xlink:href="#radial-gradient-2"/><radialGradient id="radial-gradient-35" cx="-184.08" cy="568.31" r="1.49" xlink:href="#radial-gradient-3"/><radialGradient id="radial-gradient-36" cx="-105.18" cy="651.25" r="4.87" xlink:href="#radial-gradient-2"/><radialGradient id="radial-gradient-37" cx="-105.18" cy="651.25" r="1.49" xlink:href="#radial-gradient-3"/><radialGradient id="radial-gradient-38" cx="-100.3" cy="551.84" r="4.87" xlink:href="#radial-gradient-2"/><radialGradient id="radial-gradient-39" cx="-100.3" cy="551.84" r="1.49" xlink:href="#radial-gradient-3"/><radialGradient id="radial-gradient-40" cx="-60.12" cy="569.83" r="4.87" xlink:href="#radial-gradient-2"/><radialGradient id="radial-gradient-41" cx="-60.12" cy="569.83" r="1.49" xlink:href="#radial-gradient-3"/><linearGradient id="linear-gradient-4" x1="499.49" y1="450.48" x2="568.36" y2="450.48" gradientTransform="matrix(-1, 0, 0, 1, 870.97, 0)" gradientUnits="userSpaceOnUse"><stop offset="0" stop-color="#392517"/><stop offset="0.23" stop-color="#3c2418"/><stop offset="0.41" stop-color="#46221d"/><stop offset="0.57" stop-color="#571e25"/><stop offset="0.72" stop-color="#6f1830"/><stop offset="0.87" stop-color="#8d113e"/><stop offset="1" stop-color="#ae094d"/><stop offset="1" stop-color="#fff"/></linearGradient><linearGradient id="Gradiente_sem_nome_838" x1="434.98" y1="248.75" x2="488.92" y2="448.59" gradientTransform="matrix(-1, 0, 0, 1, 870.97, 0)" gradientUnits="userSpaceOnUse"><stop offset="0" stop-color="#ffe3bb"/><stop offset="0.16" stop-color="#fee0b9"/><stop offset="0.29" stop-color="#fad5b4"/><stop offset="0.42" stop-color="#f3c3ab"/><stop offset="0.55" stop-color="#eaa99e"/><stop offset="0.67" stop-color="#dd888d"/><stop offset="0.8" stop-color="#ce6079"/><stop offset="0.91" stop-color="#bd3161"/><stop offset="1" stop-color="#ae094d"/></linearGradient><linearGradient id="linear-gradient-5" x1="487.99" y1="227.34" x2="523.78" y2="147.89" gradientTransform="matrix(-1, 0, 0, 1, 870.97, 0)" gradientUnits="userSpaceOnUse"><stop offset="0" stop-color="#6f2013"/><stop offset="0.23" stop-color="#751e19"/><stop offset="0.54" stop-color="#871729"/><stop offset="0.89" stop-color="#a40d44"/><stop offset="1" stop-color="#ae094d"/></linearGradient><linearGradient id="Gradiente_sem_nome_841" x1="328.72" y1="280.21" x2="357.59" y2="440.73" xlink:href="#Gradiente_sem_nome_838"/><clipPath id="clip-path-2" transform="translate(-24.06 -18.61)"><path class="cls-2" d="M440.9,319.27c.16-5.41-88.57-3.76-92.21,3s-1,27.68,14.55,33.46S440.24,341.51,440.9,319.27Z"/></clipPath><radialGradient id="radial-gradient-42" cx="234.88" cy="153.14" r="20.53" gradientTransform="matrix(-2.22, 0, 0, 1, 954.37, -18.61)" xlink:href="#radial-gradient-2"/><radialGradient id="radial-gradient-43" cx="268.46" cy="153.14" r="6.27" gradientTransform="matrix(-1.71, 0, 0, 1, 914.68, 0)" xlink:href="#radial-gradient-3"/><linearGradient id="linear-gradient-6" x1="154.21" y1="-2240.54" x2="169.15" y2="-2240.54" gradientTransform="matrix(-26.13, 0, 0, 0.21, 4636.87, 625.22)" gradientUnits="userSpaceOnUse"><stop offset="0" stop-color="#fff" stop-opacity="0"/><stop offset="0.04" stop-color="#fff" stop-opacity="0.04"/><stop offset="0.12" stop-color="#fff" stop-opacity="0.15"/><stop offset="0.22" stop-color="#fff" stop-opacity="0.33"/><stop offset="0.34" stop-color="#fff" stop-opacity="0.58"/><stop offset="0.48" stop-color="#fff" stop-opacity="0.89"/><stop offset="0.52" stop-color="#fff"/><stop offset="0.56" stop-color="#fff" stop-opacity="0.89"/><stop offset="0.68" stop-color="#fff" stop-opacity="0.58"/><stop offset="0.8" stop-color="#fff" stop-opacity="0.33"/><stop offset="0.89" stop-color="#fff" stop-opacity="0.15"/><stop offset="0.96" stop-color="#fff" stop-opacity="0.04"/><stop offset="1" stop-color="#fff" stop-opacity="0"/></linearGradient><linearGradient id="linear-gradient-7" x1="154.21" y1="-2240.54" x2="175.51" y2="-2240.54" xlink:href="#linear-gradient-6"/><radialGradient id="radial-gradient-44" cx="414.1" cy="153.14" r="18.38" gradientTransform="matrix(-1, 0, 0, 1, 846.91, -18.61)" gradientUnits="userSpaceOnUse"><stop offset="0" stop-color="#fff"/><stop offset="0.03" stop-color="#fff" stop-opacity="0.89"/><stop offset="0.1" stop-color="#fff" stop-opacity="0.7"/><stop offset="0.17" stop-color="#fff" stop-opacity="0.53"/><stop offset="0.24" stop-color="#fff" stop-opacity="0.39"/><stop offset="0.32" stop-color="#fff" stop-opacity="0.27"/><stop offset="0.41" stop-color="#fff" stop-opacity="0.17"/><stop offset="0.5" stop-color="#fff" stop-opacity="0.09"/><stop offset="0.61" stop-color="#fff" stop-opacity="0.04"/><stop offset="0.75" stop-color="#fff" stop-opacity="0.01"/><stop offset="1" stop-color="#fff" stop-opacity="0"/></radialGradient><radialGradient id="radial-gradient-45" cx="807.31" cy="482.18" r="18.38" gradientTransform="matrix(-0.71, -0.71, -0.71, 0.71, 1344.6, 364.43)" xlink:href="#radial-gradient-44"/><linearGradient id="linear-gradient-8" x1="329.83" y1="741.23" x2="627.63" y2="457.09" xlink:href="#linear-gradient-4"/><linearGradient id="linear-gradient-9" x1="311.71" y1="491.79" x2="568.36" y2="491.79" xlink:href="#linear-gradient-4"/><linearGradient id="linear-gradient-10" x1="164.09" y1="610.52" x2="294.45" y2="610.52" gradientTransform="matrix(-1, 0, 0, 1, 870.97, 0)" xlink:href="#linear-gradient-3"/><linearGradient id="linear-gradient-11" x1="622.35" y1="661.32" x2="752.95" y2="661.32" gradientTransform="matrix(-1, 0, 0, 1, 870.97, 0)" gradientUnits="userSpaceOnUse"><stop offset="0" stop-color="#470604"/><stop offset="0.18" stop-color="#53060d"/><stop offset="0.51" stop-color="#730723"/><stop offset="0.94" stop-color="#a70948"/><stop offset="1" stop-color="#ae094d"/><stop offset="1" stop-color="#fff"/></linearGradient><radialGradient id="radial-gradient-46" cx="366.68" cy="294.84" r="55.29" gradientTransform="matrix(-2.22, 0, 0, 1, 954.37, -18.61)" xlink:href="#radial-gradient-2"/><radialGradient id="radial-gradient-47" cx="440.05" cy="294.84" r="16.89" gradientTransform="matrix(-1.71, 0, 0, 1, 914.68, 0)" xlink:href="#radial-gradient-3"/><linearGradient id="linear-gradient-12" x1="162.13" y1="-1559.57" x2="173.37" y2="-1559.57" xlink:href="#linear-gradient-6"/><linearGradient id="linear-gradient-13" x1="162.13" y1="-1568.01" x2="173.8" y2="-1568.01" xlink:href="#linear-gradient-6"/><radialGradient id="radial-gradient-48" cx="706.19" cy="294.84" r="49.48" xlink:href="#radial-gradient-44"/><radialGradient id="radial-gradient-49" cx="913.65" cy="788.92" r="49.48" gradientTransform="matrix(-0.71, -0.71, -0.71, 0.71, 1344.6, 364.43)" xlink:href="#radial-gradient-44"/><radialGradient id="radial-gradient-50" cx="-24.65" cy="85.57" r="17.06" xlink:href="#radial-gradient-2"/><radialGradient id="radial-gradient-51" cx="-24.65" cy="85.57" r="5.21" xlink:href="#radial-gradient-3"/><radialGradient id="radial-gradient-52" cx="192.39" cy="370.28" r="17.06" gradientTransform="matrix(-0.99, 0.12, 0.12, 0.99, 523.29, 185.91)" xlink:href="#radial-gradient-2"/><radialGradient id="radial-gradient-53" cx="192.39" cy="370.28" r="5.21" xlink:href="#radial-gradient-3"/><radialGradient id="radial-gradient-54" cx="235.86" cy="288.96" r="11.46" xlink:href="#radial-gradient-2"/><radialGradient id="radial-gradient-55" cx="235.86" cy="288.96" r="3.5" xlink:href="#radial-gradient-3"/><radialGradient id="radial-gradient-56" cx="391.46" cy="319.69" r="11.46" xlink:href="#radial-gradient-2"/><radialGradient id="radial-gradient-57" cx="391.46" cy="319.69" r="3.5" xlink:href="#radial-gradient-3"/><radialGradient id="radial-gradient-58" cx="407.06" cy="382.62" r="11.46" xlink:href="#radial-gradient-2"/><radialGradient id="radial-gradient-59" cx="407.06" cy="382.62" r="3.5" xlink:href="#radial-gradient-3"/><radialGradient id="radial-gradient-60" cx="458.64" cy="474.59" r="11.46" xlink:href="#radial-gradient-2"/><radialGradient id="radial-gradient-61" cx="458.64" cy="474.59" r="3.5" xlink:href="#radial-gradient-3"/><radialGradient id="radial-gradient-62" cx="279.32" cy="359.85" r="17.06" xlink:href="#radial-gradient-2"/><radialGradient id="radial-gradient-63" cx="279.32" cy="359.85" r="5.21" xlink:href="#radial-gradient-3"/><radialGradient id="radial-gradient-64" cx="145.12" cy="60.36" r="8.4" xlink:href="#radial-gradient-2"/><radialGradient id="radial-gradient-65" cx="145.12" cy="60.36" r="2.57" xlink:href="#radial-gradient-3"/><radialGradient id="radial-gradient-66" cx="200" cy="131.81" r="8.4" xlink:href="#radial-gradient-2"/><radialGradient id="radial-gradient-67" cx="200" cy="131.81" r="2.57" xlink:href="#radial-gradient-3"/><radialGradient id="radial-gradient-68" cx="370.44" cy="191.54" r="8.4" xlink:href="#radial-gradient-2"/><radialGradient id="radial-gradient-69" cx="370.44" cy="191.54" r="2.57" xlink:href="#radial-gradient-3"/><radialGradient id="radial-gradient-70" cx="333.41" cy="77.17" r="8.4" xlink:href="#radial-gradient-2"/><radialGradient id="radial-gradient-71" cx="333.41" cy="77.17" r="2.57" xlink:href="#radial-gradient-3"/><radialGradient id="radial-gradient-72" cx="509.8" cy="148.62" r="8.4" xlink:href="#radial-gradient-2"/><radialGradient id="radial-gradient-73" cx="509.8" cy="148.62" r="2.57" xlink:href="#radial-gradient-3"/><radialGradient id="radial-gradient-74" cx="188.51" cy="269.09" r="8.4" xlink:href="#radial-gradient-2"/><radialGradient id="radial-gradient-75" cx="188.51" cy="269.09" r="2.57" xlink:href="#radial-gradient-3"/><radialGradient id="radial-gradient-76" cx="76.25" cy="287.84" r="8.4" xlink:href="#radial-gradient-2"/><radialGradient id="radial-gradient-77" cx="76.25" cy="287.84" r="2.57" xlink:href="#radial-gradient-3"/><radialGradient id="radial-gradient-78" cx="-122.45" cy="351.87" r="8.4" xlink:href="#radial-gradient-2"/><radialGradient id="radial-gradient-79" cx="-122.45" cy="351.87" r="2.57" xlink:href="#radial-gradient-3"/><radialGradient id="radial-gradient-80" cx="40.1" cy="406.56" r="8.4" xlink:href="#radial-gradient-2"/><radialGradient id="radial-gradient-81" cx="40.1" cy="406.56" r="2.57" xlink:href="#radial-gradient-3"/><radialGradient id="radial-gradient-82" cx="48.5" cy="494.59" r="8.4" xlink:href="#radial-gradient-2"/><radialGradient id="radial-gradient-83" cx="48.5" cy="494.59" r="2.57" xlink:href="#radial-gradient-3"/><radialGradient id="radial-gradient-84" cx="184.55" cy="637.6" r="8.4" xlink:href="#radial-gradient-2"/><radialGradient id="radial-gradient-85" cx="184.55" cy="637.6" r="2.57" xlink:href="#radial-gradient-3"/><radialGradient id="radial-gradient-86" cx="192.96" cy="466.18" r="8.4" xlink:href="#radial-gradient-2"/><radialGradient id="radial-gradient-87" cx="192.96" cy="466.18" r="2.57" xlink:href="#radial-gradient-3"/><radialGradient id="radial-gradient-88" cx="262.25" cy="497.21" r="8.4" xlink:href="#radial-gradient-2"/><radialGradient id="radial-gradient-89" cx="262.25" cy="497.21" r="2.57" xlink:href="#radial-gradient-3"/><radialGradient id="radial-gradient-90" cx="677.04" cy="528.59" r="78.16" gradientTransform="matrix(-0.96, 0.29, 0.29, 0.96, 602.71, -49.9)" xlink:href="#radial-gradient"/><clipPath id="clip-path-3" transform="translate(-24.06 -18.61)"><path class="cls-3" d="M93.93,675.63a45.6,45.6,0,1,0,30.27-56.94A45.59,45.59,0,0,0,93.93,675.63Z"/></clipPath><linearGradient id="linear-gradient-14" x1="206.27" y1="447.16" x2="264.03" y2="380.95" xlink:href="#linear-gradient"/><linearGradient id="linear-gradient-15" x1="115.77" y1="433.74" x2="195.52" y2="433.74" xlink:href="#linear-gradient-2"/><linearGradient id="linear-gradient-16" x1="133.11" y1="482.23" x2="297.74" y2="482.23" xlink:href="#linear-gradient-3"/><linearGradient id="linear-gradient-17" x1="734.62" y1="420.63" x2="778.4" y2="370.45" xlink:href="#linear-gradient"/><linearGradient id="linear-gradient-18" x1="666.03" y1="410.45" x2="726.47" y2="410.45" xlink:href="#linear-gradient-2"/><linearGradient id="linear-gradient-19" x1="679.17" y1="447.21" x2="803.94" y2="447.21" xlink:href="#linear-gradient-3"/></defs><title>icon-gamification</title><g class="cls-4"><g id="brainstorm"><g class="cls-5"><polygon class="cls-6" points="192.46 102.41 294.67 90.5 312.87 0.23 216.12 14.39 192.46 102.41"/><polygon class="cls-7" points="357.09 147.24 294.67 90.5 312.87 0.23 374.43 60.98 357.09 147.24"/><polygon class="cls-8" points="192.46 102.41 267.74 153.96 357.09 147.24 294.67 90.5 192.46 102.41"/><polygon class="cls-9" points="192.46 102.41 294.67 90.5 312.87 0.23 216.12 14.39 192.46 102.41"/><polygon class="cls-9" points="357.09 147.24 294.67 90.5 312.87 0.23 374.43 60.98 357.09 147.24"/><polygon class="cls-9" points="192.46 102.41 267.74 153.96 357.09 147.24 294.67 90.5 192.46 102.41"/></g><circle class="cls-10" cx="625.26" cy="123.5" r="56.06" transform="translate(-33.29 165.13) rotate(-16.6)"/><g class="cls-11"><g class="cls-12"><path class="cls-13" d="M605.77,62.07A3.57,3.57,0,0,0,606,65a9.56,9.56,0,0,0,1.56,2.26,24.23,24.23,0,0,0,3.94,3.52A57,57,0,0,0,620.45,76a133.34,133.34,0,0,0,19.17,7.17,148.73,148.73,0,0,0,19.85,4.71,80.26,80.26,0,0,0,10.15,1,27.48,27.48,0,0,0,5.12-.27,10.62,10.62,0,0,0,2.51-.68,3.35,3.35,0,0,0,1.92-1.83l-.42-.14c-.61,1.47-2.52,1.88-4.09,2.13a28,28,0,0,1-5,.16,66.52,66.52,0,0,1-10-1.29,146.53,146.53,0,0,1-19.48-5.43,168.7,168.7,0,0,1-18.52-8c-3-1.49-5.91-3.11-8.71-4.84a34,34,0,0,1-4-2.84c-1.15-1-2.42-2.26-2.28-3.59Z" transform="translate(-24.06 -18.61)"/><path class="cls-13" d="M635.67,101.26C623,96.19,611.56,89.68,603.46,82.93c-9-7.49-12.72-14.26-11.07-20.12h0c1.65-5.87,8.05-8.59,19-8.09,9.87.45,22.29,3.49,35,8.56s24.11,11.59,32.22,18.33c9,7.49,12.71,14.27,11.06,20.13-2.49,8.85-15.7,9.42-30,6.66A136.44,136.44,0,0,1,635.67,101.26ZM610.73,59.94c-10.85-.49-14.6,2.52-15.07,4.17h0c-.47,1.66,1,6.76,9.91,14.17,7.89,6.58,19.09,12.94,31.53,17.92,27.68,11.09,47.67,9.91,49.27,4.23.47-1.66-1-6.75-9.9-14.17-7.9-6.57-19.1-12.94-31.53-17.91a130,130,0,0,0-23.32-7A77,77,0,0,0,610.73,59.94Z" transform="translate(-24.06 -18.61)"/><path class="cls-13" d="M632.83,178.84a62.68,62.68,0,0,0,11.89,1.24c11.68,0,18.68-4.17,20.82-12.38l-3.42-1.61c-.6,2.32-4.79,6.72-16.36,6.72-10.25,0-23-3.36-36-9.46-28.88-13.58-44.3-33.8-42.24-41.75l-3.41-1.6c-5.06,19.51,23.42,40.85,43.81,50.44A107,107,0,0,0,632.83,178.84Z" transform="translate(-24.06 -18.61)"/><path class="cls-13" d="M553,54.27A28.86,28.86,0,0,0,552.64,67a49.25,49.25,0,0,0,2.88,9.54,81.46,81.46,0,0,0,8.11,14.63,149.73,149.73,0,0,0,19.12,22.38A209.71,209.71,0,0,0,603.63,131a236.73,236.73,0,0,0,22,13.88c7.49,4.08,15,8.24,22.7,11.67a73.56,73.56,0,0,0,24.13,6.19,69.06,69.06,0,0,0,25.87-2.7,47,47,0,0,0,13.61-6.57,35.55,35.55,0,0,0,6.91-6.45,29.69,29.69,0,0,0,3.23-5.07,24.59,24.59,0,0,0,2.18-6.68l-1.16-.55A11.7,11.7,0,0,1,718,140.5a17.24,17.24,0,0,1-5.87,1.87,44.42,44.42,0,0,1-11.8.1,170,170,0,0,1-23.23-4.66c-7.69-2-15.41-4-23.22-5.7a148.77,148.77,0,0,1-23.18-6.76A208.43,208.43,0,0,1,608.3,115a177,177,0,0,1-21.62-13.15A117.79,117.79,0,0,1,566.5,84.42a62.36,62.36,0,0,1-8.67-12,35.58,35.58,0,0,1-3.26-7.73,21.24,21.24,0,0,1-.44-9.89Z" transform="translate(-24.06 -18.61)"/></g></g><circle class="cls-1" cx="625.26" cy="123.5" r="56.06" transform="translate(-33.29 165.13) rotate(-16.6)"/><g class="cls-14"><path class="cls-13" d="M509.28,62.35c26.75,1.86,81,17.38,81,17.38a54,54,0,0,0-5.4,4.92S512.32,65.41,508.57,74c-1.38,3.15,15.2,14.26,19.82,17.32a326.43,326.43,0,0,0,29.1,16.78,665.31,665.31,0,0,0,61.69,28c31.15,12.62,63.36,24.28,96.39,30.72A127.84,127.84,0,0,0,731.75,169c1.61.09,8.91.4,10.36-1.57,6.35-8.66-60.78-43-60.78-43s0-3.23-.18-5.42c25,11.38,53.77,24.87,69.39,42.24,5.93,6.59,2.51,15.53-5.82,18.06-9.81,3-22.71.55-32.62-1-33.49-5.07-66.7-16.42-98-29.24-30.62-12.55-60.79-26.58-88.58-44.77A159.49,159.49,0,0,1,507,90.09C491.05,76,493.74,61.27,509.28,62.35Z" transform="translate(-24.06 -18.61)"/></g><g class="cls-14"><path class="cls-1" d="M509.28,62.35c26.75,1.86,81,17.38,81,17.38a54,54,0,0,0-5.4,4.92S512.32,65.41,508.57,74c-1.38,3.15,15.2,14.26,19.82,17.32a326.43,326.43,0,0,0,29.1,16.78,665.31,665.31,0,0,0,61.69,28c31.15,12.62,63.36,24.28,96.39,30.72A127.84,127.84,0,0,0,731.75,169c1.61.09,8.91.4,10.36-1.57,6.35-8.66-60.78-43-60.78-43s0-3.23-.18-5.42c25,11.38,53.77,24.87,69.39,42.24,5.93,6.59,2.51,15.53-5.82,18.06-9.81,3-22.71.55-32.62-1-33.49-5.07-66.7-16.42-98-29.24-30.62-12.55-60.79-26.58-88.58-44.77A159.49,159.49,0,0,1,507,90.09C491.05,76,493.74,61.27,509.28,62.35Z" transform="translate(-24.06 -18.61)"/></g><g class="cls-15"><polygon class="cls-16" points="387.47 234.72 419.13 276.77 497.07 291.94 387.47 234.72"/><polygon class="cls-16" points="419.13 276.77 367.08 342.43 497.07 291.94 419.13 276.77"/><polygon class="cls-16" points="500.67 321.49 425.03 381.17 497.07 291.94 500.67 321.49"/><polygon class="cls-16" points="467.9 229.9 387.47 234.72 497.07 291.94 467.9 229.9"/><polygon class="cls-16" points="425.03 381.17 367.08 342.43 497.07 291.94 425.03 381.17"/><polygon class="cls-16" points="645.03 249.48 552.91 310.1 606.33 325.59 645.03 249.48"/><polygon class="cls-16" points="612.66 369.22 606.33 325.59 552.91 310.1 612.66 369.22"/><polygon class="cls-16" points="533.35 356.95 552.91 310.1 612.66 369.22 533.35 356.95"/><polygon class="cls-16" points="597.24 230.87 552.91 310.1 645.03 249.48 597.24 230.87"/><polygon class="cls-16" points="592.25 132.16 597.24 230.87 565.04 299.65 552.91 310.1 592.25 132.16"/><polygon class="cls-16" points="606.33 325.59 703.3 348 645.03 249.48 606.33 325.59"/><polygon class="cls-16" points="612.66 369.22 703.3 348 606.33 325.59 612.66 369.22"/><polygon class="cls-16" points="592.25 132.16 525.28 232.27 552.91 310.1 592.25 132.16"/><polygon class="cls-16" points="497.07 291.94 428.38 143.98 552.91 310.1 497.07 291.94"/><polygon class="cls-16" points="533.35 356.95 500.67 321.49 552.91 310.1 533.35 356.95"/><polygon class="cls-16" points="497.07 291.94 500.67 321.49 552.91 310.1 497.07 291.94"/><polygon class="cls-16" points="533.35 356.95 569.01 475.15 612.66 369.22 533.35 356.95"/><polygon class="cls-16" points="493.16 413.35 525.85 431.82 533.35 356.95 493.16 413.35"/><polygon class="cls-16" points="569.01 475.15 525.85 431.82 533.35 356.95 569.01 475.15"/><polygon class="cls-16" points="428.38 143.98 525.28 232.27 552.91 310.1 428.38 143.98"/><polygon class="cls-16" points="467.9 229.9 428.38 143.98 497.07 291.94 467.9 229.9"/><polygon class="cls-16" points="533.35 356.95 379.04 452.14 493.16 413.35 533.35 356.95"/><polygon class="cls-16" points="500.67 321.49 379.04 452.14 425.03 381.17 500.67 321.49"/><path class="cls-17" d="M449.75,172.11a9.9,9.9,0,1,0-6.82-12.22A9.89,9.89,0,0,0,449.75,172.11Z" transform="translate(-24.06 -18.61)"/><path class="cls-18" d="M451.62,165.5a3,3,0,1,0-2.08-3.73A3,3,0,0,0,451.62,165.5Z" transform="translate(-24.06 -18.61)"/><path class="cls-19" d="M574.28,338.23A9.9,9.9,0,1,0,567.46,326,9.89,9.89,0,0,0,574.28,338.23Z" transform="translate(-24.06 -18.61)"/><path class="cls-20" d="M576.15,331.62a3,3,0,1,0-2.08-3.73A3,3,0,0,0,576.15,331.62Z" transform="translate(-24.06 -18.61)"/><path class="cls-21" d="M522.92,346.5a6.65,6.65,0,1,0-4.58-8.21A6.64,6.64,0,0,0,522.92,346.5Z" transform="translate(-24.06 -18.61)"/><path class="cls-22" d="M524.18,342.06a2,2,0,1,0-1.4-2.51A2,2,0,0,0,524.18,342.06Z" transform="translate(-24.06 -18.61)"/><path class="cls-23" d="M515.46,438.18a6.65,6.65,0,1,0-4.58-8.21A6.64,6.64,0,0,0,515.46,438.18Z" transform="translate(-24.06 -18.61)"/><path class="cls-24" d="M516.72,433.74a2,2,0,1,0-1.4-2.51A2,2,0,0,0,516.72,433.74Z" transform="translate(-24.06 -18.61)"/><path class="cls-25" d="M548.1,456.83a6.65,6.65,0,1,0-4.58-8.2A6.64,6.64,0,0,0,548.1,456.83Z" transform="translate(-24.06 -18.61)"/><path class="cls-26" d="M549.36,452.39a2,2,0,1,0-1.4-2.51A2,2,0,0,0,549.36,452.39Z" transform="translate(-24.06 -18.61)"/><path class="cls-27" d="M591.26,500.16a6.65,6.65,0,1,0-4.58-8.21A6.66,6.66,0,0,0,591.26,500.16Z" transform="translate(-24.06 -18.61)"/><path class="cls-28" d="M592.52,495.71a2,2,0,1,0-1.4-2.5A2,2,0,0,0,592.52,495.71Z" transform="translate(-24.06 -18.61)"/><path class="cls-29" d="M554.71,385.09a9.9,9.9,0,1,0-6.82-12.22A9.9,9.9,0,0,0,554.71,385.09Z" transform="translate(-24.06 -18.61)"/><path class="cls-30" d="M556.59,378.47a3,3,0,1,0-2.09-3.73A3,3,0,0,0,556.59,378.47Z" transform="translate(-24.06 -18.61)"/><path class="cls-31" d="M410.21,258a4.87,4.87,0,1,0-3.36-6A4.88,4.88,0,0,0,410.21,258Z" transform="translate(-24.06 -18.61)"/><path class="cls-32" d="M411.13,254.76a1.49,1.49,0,1,0,.81-2.86,1.49,1.49,0,0,0-.81,2.86Z" transform="translate(-24.06 -18.61)"/><path class="cls-33" d="M441.39,299.94a4.87,4.87,0,1,0-3.36-6A4.89,4.89,0,0,0,441.39,299.94Z" transform="translate(-24.06 -18.61)"/><path class="cls-34" d="M442.31,296.68a1.5,1.5,0,0,0,1.84-1,1.49,1.49,0,0,0-2.86-.81A1.49,1.49,0,0,0,442.31,296.68Z" transform="translate(-24.06 -18.61)"/><path class="cls-35" d="M447.77,404.48a4.87,4.87,0,1,0-3.36-6A4.87,4.87,0,0,0,447.77,404.48Z" transform="translate(-24.06 -18.61)"/><path class="cls-36" d="M448.69,401.22a1.5,1.5,0,0,0,1.84-1,1.49,1.49,0,1,0-1.84,1Z" transform="translate(-24.06 -18.61)"/><path class="cls-37" d="M389.81,365.73a4.87,4.87,0,1,0-3.36-6A4.87,4.87,0,0,0,389.81,365.73Z" transform="translate(-24.06 -18.61)"/><path class="cls-38" d="M390.73,362.48a1.49,1.49,0,1,0-1-1.84A1.5,1.5,0,0,0,390.73,362.48Z" transform="translate(-24.06 -18.61)"/><path class="cls-39" d="M401.78,475.44a4.87,4.87,0,1,0-3.36-6A4.88,4.88,0,0,0,401.78,475.44Z" transform="translate(-24.06 -18.61)"/><path class="cls-40" d="M402.7,472.19a1.49,1.49,0,1,0,.81-2.87,1.49,1.49,0,0,0-.81,2.87Z" transform="translate(-24.06 -18.61)"/><path class="cls-41" d="M519.81,315.24a4.87,4.87,0,1,0-3.36-6A4.87,4.87,0,0,0,519.81,315.24Z" transform="translate(-24.06 -18.61)"/><path class="cls-42" d="M520.73,312a1.49,1.49,0,1,0-1-1.84A1.49,1.49,0,0,0,520.73,312Z" transform="translate(-24.06 -18.61)"/><path class="cls-43" d="M548,255.57a4.87,4.87,0,1,0-3.36-6A4.87,4.87,0,0,0,548,255.57Z" transform="translate(-24.06 -18.61)"/><path class="cls-44" d="M548.94,252.31a1.49,1.49,0,1,0-1-1.84A1.48,1.48,0,0,0,548.94,252.31Z" transform="translate(-24.06 -18.61)"/><path class="cls-45" d="M615.17,154.83a4.87,4.87,0,1,0-3.36-6A4.87,4.87,0,0,0,615.17,154.83Z" transform="translate(-24.06 -18.61)"/><path class="cls-46" d="M616.09,151.57a1.49,1.49,0,1,0-1-1.84A1.49,1.49,0,0,0,616.09,151.57Z" transform="translate(-24.06 -18.61)"/><path class="cls-47" d="M620,254.17a4.87,4.87,0,1,0-3.36-6A4.87,4.87,0,0,0,620,254.17Z" transform="translate(-24.06 -18.61)"/><path class="cls-48" d="M620.9,250.92a1.49,1.49,0,1,0-1-1.84A1.5,1.5,0,0,0,620.9,250.92Z" transform="translate(-24.06 -18.61)"/><path class="cls-49" d="M667.76,272.78a4.87,4.87,0,1,0-3.36-6A4.87,4.87,0,0,0,667.76,272.78Z" transform="translate(-24.06 -18.61)"/><path class="cls-50" d="M668.68,269.53a1.49,1.49,0,1,0-1-1.84A1.49,1.49,0,0,0,668.68,269.53Z" transform="translate(-24.06 -18.61)"/><path class="cls-51" d="M726,371.31a4.87,4.87,0,1,0-3.36-6A4.87,4.87,0,0,0,726,371.31Z" transform="translate(-24.06 -18.61)"/><path class="cls-52" d="M727,368.05a1.49,1.49,0,1,0,.81-2.86,1.49,1.49,0,0,0-.81,2.86Z" transform="translate(-24.06 -18.61)"/><path class="cls-53" d="M629.07,348.89a4.87,4.87,0,1,0-3.36-6A4.87,4.87,0,0,0,629.07,348.89Z" transform="translate(-24.06 -18.61)"/><path class="cls-54" d="M630,345.63a1.49,1.49,0,1,0-1-1.84A1.49,1.49,0,0,0,630,345.63Z" transform="translate(-24.06 -18.61)"/><path class="cls-55" d="M635.42,392.46a4.87,4.87,0,1,0-3.36-6A4.87,4.87,0,0,0,635.42,392.46Z" transform="translate(-24.06 -18.61)"/><path class="cls-56" d="M636.34,389.2a1.5,1.5,0,0,0,1.84-1,1.49,1.49,0,1,0-1.84,1Z" transform="translate(-24.06 -18.61)"/><polygon class="cls-57" points="419.13 276.77 367.08 342.43 497.07 291.94 419.13 276.77"/><polygon class="cls-57" points="597.24 230.87 552.91 310.1 645.03 249.48 597.24 230.87"/><polygon class="cls-57" points="612.66 369.22 703.3 348 606.33 325.59 612.66 369.22"/><polygon class="cls-57" points="467.9 229.9 428.38 143.98 497.07 291.94 467.9 229.9"/><polygon class="cls-57" points="533.35 356.95 379.04 452.14 493.16 413.35 533.35 356.95"/><polygon class="cls-58" points="467.9 229.9 387.47 234.72 497.07 291.94 467.9 229.9"/><polygon class="cls-58" points="606.33 325.59 703.3 348 645.03 249.48 606.33 325.59"/><polygon class="cls-58" points="592.25 132.16 525.28 232.27 552.91 310.1 592.25 132.16"/><polygon class="cls-58" points="533.35 356.95 500.67 321.49 552.91 310.1 533.35 356.95"/><polygon class="cls-58" points="569.01 475.15 525.85 431.82 533.35 356.95 569.01 475.15"/></g><path class="cls-59" d="M371.48,400.62s-58.52-10.79-68.87-.52l26.8,87.43,36.35,17.76Z" transform="translate(-24.06 -18.61)"/><path class="cls-60" d="M520.37,350.66s47.46-11.66,60.72-43.4,15.95-77.41,11-80-13.08,8.13-13.08,8.13a134.71,134.71,0,0,0-1.86-49.33c-6.09-26.23-31.3-49.45-36.06-49.21S540,153.71,540,153.71s-24-33.87-25.45-52.61-10.24,10-10,23c0,0-18.87-39.16-49.63-46.94s-83.93-6.94-104.72,15.92,18.82.73,38.94-1.83c0,0-52.29,13.86-78.3,72.47s18.1,138.57,18.1,138.57Z" transform="translate(-24.06 -18.61)"/><path class="cls-61" d="M521.78,344.17s52.39-69,44.64-134.89S551.5,192.8,551.5,192.8s-27.92-43.19-29.72-52.41-7.26-.18-7.26,7.59S483.9,98.9,432.35,95.11C362.87,90,326.61,145,311.71,178.68S521.78,344.17,521.78,344.17Z" transform="translate(-24.06 -18.61)"/><path class="cls-62" d="M347.25,461.6c-6.64,20-11.7,87.74,39.49,98.85s95.84-59.65,106-82.84c15-34.35,35.64-145.61,35.64-145.61l-.28-.05-134-24.59S359.35,425.11,347.25,461.6Z" transform="translate(-24.06 -18.61)"/><path class="cls-63" d="M343.15,476.25a133.37,133.37,0,0,0,26.61,4.5c126,9.83,146.78-140.34,149.13-157L387.65,303.59Z" transform="translate(-24.06 -18.61)"/><path class="cls-64" d="M441.33,152c2.77.2,96.91,11.67,92.94,97.92C530.71,327,506.26,437.64,376.54,424c-107.2-11.31-27.53-128.59-37.3-163.68S335.44,144.35,441.33,152Z" transform="translate(-24.06 -18.61)"/><path class="cls-61" d="M359.35,152.66s22.19,16.21,54.58,17.93,56.15-15.5,84.41,6.89-.69,93.94,12.05,126.11,43.41-48.25,35.14-90.28-24.46-63.74-54.09-74.42S389.53,133.35,359.35,152.66Z" transform="translate(-24.06 -18.61)"/><path class="cls-65" d="M500,274.43s-5.89,7.75-13.23,9.22-24.48-3.54-33.13-5.88-35.16-6.6-38-8.66-7.21-10.41-7.21-10.41Z" transform="translate(-24.06 -18.61)"/><path class="cls-66" d="M371.48,248.62l-9.81,14.3s-2.36,5.32-5.43,5-2.41-10.26,1.05-13.69S371.48,248.62,371.48,248.62Z" transform="translate(-24.06 -18.61)"/><path class="cls-67" d="M499.65,218.73s6.81,3.2,7.09,9.07-2.09,42.29-6.78,46.63-14.66,7-30.52,2.85-48.57-9.34-51.87-10.81-9.14-7.77-9.14-7.77Z" transform="translate(-24.06 -18.61)"/><path class="cls-65" d="M373.73,242.17s-9.55,17.69-9.74,24.19-3.56,7.88-6.13,8.81-11.14,4.7-15.36,9.31-7.92,6.85-11.58,1.28,33.31-45,33.31-45Z" transform="translate(-24.06 -18.61)"/><path class="cls-67" d="M373.73,242.17s-10.64,19-12.85,23.92-11.46,5.59-15.21,8.22-13,12.26-14.75,11.45,1.72-11.69,1.72-11.69l-3.23-7.2S349.81,237.29,373.73,242.17Z" transform="translate(-24.06 -18.61)"/><path class="cls-62" d="M359.35,263.72s7-17.47,13.12-19.59,32.82-3.18,27.32,41.68C399.79,285.81,371.39,287.64,359.35,263.72Z" transform="translate(-24.06 -18.61)"/><path class="cls-67" d="M496.74,244.07c17.9,17.06,56.17,54.3,56.17,54.3s.24-.67.62-1.78c1.75-5.2,6.63-20.34,5.59-24.45-1.75-7-58.43-60.67-58.43-60.67l-3.29,27.11Z" transform="translate(-24.06 -18.61)"/><path class="cls-68" d="M496.74,244.07c17.9,17.06,56.17,54.3,56.17,54.3s.24-.67.62-1.78c-4-8.12-46.29-48.64-56.13-58Z" transform="translate(-24.06 -18.61)"/><path class="cls-13" d="M284.93,216.25l.38,5.58,2.32,33.45s19.74,20.23,27,24.91,9.86,5.91,17.17-.74c5.65-5.14,18.74-9.7,24.42-11.51a2.72,2.72,0,0,0,1.78-3.33c-1.11-4-1.46-11.49,10.81-13.24,14-2,30.36,6.36,35.63,9.32a7.84,7.84,0,0,0,3.82,1c28,0,52.74,7.62,72.17,5.75h.12a16.43,16.43,0,0,0,3.65-.78c16.72-5.68,19.69-37.74,19.91-48.14.24-11.12-9.64-19.3-13.55-30.22s-11.37-14-11.37-14l-26-11.87-118.3,37.86L290,214.64Z" transform="translate(-24.06 -18.61)"/><path class="cls-69" d="M285.31,221.83l2.32,33.45s19.74,20.23,27,24.91,9.86,5.91,17.17-.74c5.65-5.14,18.74-9.7,24.42-11.51a2.72,2.72,0,0,0,1.78-3.33c-1.11-4-1.46-11.49,10.81-13.24,14-2,30.36,6.36,35.63,9.32a7.84,7.84,0,0,0,3.82,1c28,0,52.74,7.62,72.17,5.75h.12a9.47,9.47,0,0,0,3.65-.78c2-1,3-3.1,3.92-7.29,1.33-6.14-41.12-47.56-41.12-47.56l-10.39-5.45-101.73-6.06-34.32-2.05L290,214.64Z" transform="translate(-24.06 -18.61)"/><path class="cls-67" d="M455.16,152.93s17.55,11.26,22.41,18.68,5.19,11.85,4.24,24.11-5.59,32.6-16.37,38.16-14.95,8.32-43.06,7.25-71.48,1.77-88.24,7.75-33.41,10.64-40.38,9.66-7.24-6.06-7.24-6.06-2.66,3.1-6.43-8-2.61-28.17-2.61-28.17Z" transform="translate(-24.06 -18.61)"/><path class="cls-70" d="M460.22,180c-1.53,8.22-3.09,24.65-8.75,32.36s-14.05,16.54-43.4,17.36-77.85,7.22-89.47,9.41-32,6.35-38.31-.08-2.42-25.74-1.31-31.6,5.2-27.56,22.51-35,73.11-14.19,73.11-14.19,70.19-10.67,80.56-5.25S461.47,173.24,460.22,180Z" transform="translate(-24.06 -18.61)"/><g class="cls-12"><path class="cls-13" d="M286.25,252.46a.28.28,0,0,0,.25.29c9.14.7,24.93-4.07,38.85-8.27,8.67-2.62,16.17-4.88,20.46-5.32l3.56,3.24a.24.24,0,0,0,.21.07l18.56-1.87a.22.22,0,0,0,.17-.09l3.58-4.09c1.68-.09,5-.17,9.15-.27,16.94-.42,52.19-1.3,64.84-5,8.21-2.38,13.3-6.29,16.58-10.66a80,80,0,0,0,8.34,8.9.29.29,0,0,0,.16.07.31.31,0,0,0,.22-.09.27.27,0,0,0,0-.38,78.79,78.79,0,0,1-8.37-9,33.47,33.47,0,0,0,5.08-11.59c1.85-7.34,6.26-32.74,4.35-39.11a46.5,46.5,0,0,1,5.22,2.47.27.27,0,0,0,.37-.1.26.26,0,0,0-.1-.36A43.27,43.27,0,0,0,472,168.7c-2.47-5.13-16.06-15.54-16.64-16a.26.26,0,0,0-.32.42c.13.11,13.19,10.12,16.21,15.3a8.48,8.48,0,0,0-4.55-.56,1.89,1.89,0,0,0-1.2,1c-1.08,2.1-1.87,8.45-2.57,14.1-1.47-.67-2.81-1.19-2.92-1.23a.25.25,0,0,0-.34.15.26.26,0,0,0,.15.35s1.49.57,3,1.29c-.35,2.77-.65,5.16-.94,6.58-.34,1.68-1.23,4.86-2.16,8.22-.15.53-.3,1.06-.44,1.59-.77-.38-1.56-.81-2.32-1.25a.28.28,0,0,0-.37.1.26.26,0,0,0,.1.36c.5.3,1.42.82,2.44,1.33-1.3,4.7-2.47,9.13-2.43,10.48.05,1.51,2.2,5.11,5.41,9.18-3.22,4.34-8.24,8.23-16.38,10.58-12.59,3.65-47.79,4.53-64.71,5-4.26.11-7.62.19-9.27.28a.34.34,0,0,0-.19.09l-3.58,4.1-18.34,1.85-3.55-3.25a.28.28,0,0,0-.21-.07c-4.33.42-11.91,2.71-20.69,5.36-13.87,4.19-29.6,8.94-38.65,8.24A.27.27,0,0,0,286.25,252.46Zm177.08-68.73a13.14,13.14,0,0,1,2.7,1.59c.05.05.24.29.27,1.28.12,3.94-2.21,13.93-2.86,14.6-.32.32-1.86-.22-3.67-1.08.16-.57.31-1.13.47-1.69.93-3.37,1.82-6.55,2.16-8.26C462.69,188.77,463,186.44,463.33,183.73Zm-.89,35.89c-3.17-4-5.16-7.46-5.2-8.74s1.14-5.73,2.38-10.23a11.19,11.19,0,0,0,3.32,1.14,1.07,1.07,0,0,0,.88-.22c.91-.94,3.13-11.24,3-15a2.33,2.33,0,0,0-.44-1.66,14.27,14.27,0,0,0-3-1.76v0c.67-5.35,1.5-12,2.53-14.05a1.38,1.38,0,0,1,.88-.68c1.13-.34,2.95.09,4.76.74,2.15,5.14-2.21,31.23-4.22,39.21A33,33,0,0,1,462.44,219.62Z" transform="translate(-24.06 -18.61)"/><path class="cls-13" d="M474.68,211.55a2.69,2.69,0,0,0,.52.11,1.12,1.12,0,0,0,1.26-.76,77.91,77.91,0,0,0,3.17-21.62c-.05-1.24-2.17-2.36-3.41-2.38-.66,0-1.08.3-1.12.82a113.09,113.09,0,0,1-3.4,20.14C471.29,209.32,473.23,211.11,474.68,211.55ZM472.22,208a114.32,114.32,0,0,0,3.42-20.25c0-.09,0-.33.57-.32,1.08,0,2.85,1,2.88,1.86A76.85,76.85,0,0,1,476,210.73c-.13.39-.5.5-1.11.31C473.5,210.63,471.93,209,472.22,208Z" transform="translate(-24.06 -18.61)"/></g><path class="cls-71" d="M514.74,274.37c6.21-10.68,27.37-36.5,49.54-22.16s12.38,59.62-8.48,77.87S474.61,343.29,514.74,274.37Z" transform="translate(-24.06 -18.61)"/><path class="cls-72" d="M540.52,306c-3.74-5.18-12.06,6.19-17.26-6.33-1.83-4.4,3.11-14.22,6.79-19.77,4.34-6.56,19-25.18,31.84-15s5.83,42.48-8.36,53.14c-8.3,6.22-16.33,5.65-14.83,2.4C541.2,315,543.06,308.51,540.52,306Z" transform="translate(-24.06 -18.61)"/><path class="cls-73" d="M548.38,286.57c4.3,11.48.06,22.18-8.1,30,1.54-4.35,2.2-8.66.24-10.62-3.74-5.17-12.06,6.2-17.26-6.32-1.83-4.4,3.11-14.22,6.79-19.77l.29-.44C537.78,276.71,546.31,282.43,548.38,286.57Z" transform="translate(-24.06 -18.61)"/><path class="cls-2" d="M440.9,319.27c.16-5.41-88.57-3.76-92.21,3s-1,27.68,14.55,33.46S440.24,341.51,440.9,319.27Z" transform="translate(-24.06 -18.61)"/><g class="cls-74"><ellipse class="cls-75" cx="389.17" cy="325.07" rx="34.93" ry="22.33"/><path class="cls-13" d="M353.3,313s-2.71,14.65,0,18.21,39-1.53,87.6,1.64c0,0,8.94-11.32,8.94-17.25S353.3,313,353.3,313Z" transform="translate(-24.06 -18.61)"/><path class="cls-13" d="M458.71,349.71s2.7,14.65,0,18.21-39-1.53-87.6,1.63c0,0-8.94-11.31-8.94-17.24S458.71,349.71,458.71,349.71Z" transform="translate(-24.06 -18.61)"/></g><path class="cls-76" d="M399.79,285.81c-1.14,2.87-18.29,10-22.81,10-22.71.09-21.53-29.73-17.63-32.09S399.79,285.81,399.79,285.81Z" transform="translate(-24.06 -18.61)"/><path class="cls-77" d="M397,365.83s-18,5.28-42.71,0c0,0,2.86,11.52,15.64,11.44C387.55,377.16,397,365.83,397,365.83Z" transform="translate(-24.06 -18.61)"/><ellipse class="cls-78" cx="432.28" cy="134.53" rx="45.64" ry="20.53"/><path class="cls-79" d="M445.64,153.14c0,3.46,4.79,6.27,10.7,6.27s10.71-2.81,10.71-6.27-4.79-6.27-10.71-6.27S445.64,149.68,445.64,153.14Z" transform="translate(-24.06 -18.61)"/><path class="cls-80" d="M216.5,153.14c0,.73,149.87,1.32,240.37,1.32s150-.59,150-1.32-59.46-1.32-150-1.32S216.5,152.41,216.5,153.14Z" transform="translate(-24.06 -18.61)"/><path class="cls-81" d="M50.43,153.14c0,.73,315.94,1.32,406.44,1.32s150-.59,150-1.32-59.46-1.32-150-1.32S50.43,152.41,50.43,153.14Z" transform="translate(-24.06 -18.61)"/><polygon class="cls-82" points="432.8 116.15 431.48 133.21 414.43 134.53 431.48 135.85 432.8 152.9 434.13 135.85 451.18 134.53 434.13 133.21 432.8 116.15"/><polygon class="cls-83" points="445.8 121.53 432.8 132.66 419.81 121.53 430.93 134.53 419.81 147.52 432.8 136.4 445.8 147.52 434.68 134.53 445.8 121.53"/><path class="cls-84" d="M559.26,484.46S673,501.87,686.5,545.78C691.89,563.33,525,662,539.07,675.72s65.65-14.65,65.11,9.4c-.77,34.12-362,121.68-378.34,95.69-23.5-37.31,53.64-120.17,43.3-131.95S174.52,664.57,162.69,653C132.52,623.57,307,476.25,307,476.25l66.78,92.26,119-90.9Z" transform="translate(-24.06 -18.61)"/><path class="cls-85" d="M553.53,414s-63-16.47-73.88-6.12-26.51,94.64-26.51,94.64L378.46,558l-35.31-81.73s-15.35-61.84-23.27-72.9-17.27-3.25-17.27-3.25L307,476.25l64.53,109.9,100.7-71.41,87.08-30.28Z" transform="translate(-24.06 -18.61)"/><path class="cls-86" d="M642.58,606.83c-34.58,24.83-70,45.84-65.7,51.86s46.76-5.25,81.34-30.08,52.34-61,48-67S677.16,582,642.58,606.83Z" transform="translate(-24.06 -18.61)"/><path class="cls-87" d="M248.61,665.71S233,695,196.83,709.83s-81.29,16.25-78.71-35.48,32.53-72.73,36.13-70.32c9.68,6.49-13.62,43.15-4.52,60C162.64,687.9,240.87,652.28,248.61,665.71Z" transform="translate(-24.06 -18.61)"/><g class="cls-15"><ellipse class="cls-88" cx="139.31" cy="276.23" rx="122.9" ry="55.29"/><path class="cls-89" d="M134.55,294.84c0,9.33,12.9,16.89,28.83,16.89s28.82-7.56,28.82-16.89S179.3,278,163.38,278,134.55,285.52,134.55,294.84Z" transform="translate(-24.06 -18.61)"/><path class="cls-90" d="M106.24,296.62c0,1,134.36,1.78,215.5,1.78s78.32-.8,78.32-1.78,2.81-1.78-78.32-1.78S106.24,295.64,106.24,296.62Z" transform="translate(-24.06 -18.61)"/><path class="cls-91" d="M95,294.84c0,2,139.52,3.56,223.78,3.56s81.33-1.59,81.33-3.56,2.92-3.55-81.33-3.55S95,292.88,95,294.84Z" transform="translate(-24.06 -18.61)"/><polygon class="cls-92" points="140.72 226.75 137.16 272.67 91.24 276.23 137.16 279.79 140.72 325.71 144.28 279.79 190.2 276.23 144.28 272.67 140.72 226.75"/><polygon class="cls-93" points="175.71 241.24 140.72 271.19 105.73 241.24 135.68 276.23 105.73 311.22 140.72 281.27 175.71 311.22 145.76 276.23 175.71 241.24"/><polygon class="cls-94" points="66.56 427.68 121.15 500.2 255.54 526.35 66.56 427.68"/><polygon class="cls-94" points="121.15 500.2 31.38 613.42 255.54 526.35 121.15 500.2"/><polygon class="cls-94" points="261.74 577.32 131.32 680.23 255.54 526.35 261.74 577.32"/><polygon class="cls-94" points="205.25 419.37 66.56 427.68 255.54 526.35 205.25 419.37"/><polygon class="cls-94" points="131.32 680.23 31.38 613.42 255.54 526.35 131.32 680.23"/><polygon class="cls-94" points="510.68 453.14 351.84 557.67 443.95 584.38 510.68 453.14"/><polygon class="cls-94" points="454.87 659.61 443.95 584.38 351.84 557.67 454.87 659.61"/><polygon class="cls-94" points="318.1 638.47 351.84 557.67 454.87 659.61 318.1 638.47"/><polygon class="cls-94" points="428.27 421.06 351.84 557.67 510.68 453.14 428.27 421.06"/><polygon class="cls-94" points="419.67 250.84 428.27 421.06 372.76 539.65 351.84 557.67 419.67 250.84"/><polygon class="cls-94" points="443.95 584.38 611.17 623.04 510.68 453.14 443.95 584.38"/><polygon class="cls-94" points="454.87 659.61 611.17 623.04 443.95 584.38 454.87 659.61"/><polygon class="cls-94" points="419.67 250.84 304.19 423.46 351.84 557.67 419.67 250.84"/><polygon class="cls-94" points="255.54 526.35 137.1 271.22 351.84 557.67 255.54 526.35"/><polygon class="cls-94" points="318.1 638.47 261.74 577.32 351.84 557.67 318.1 638.47"/><polygon class="cls-94" points="255.54 526.35 261.74 577.32 351.84 557.67 255.54 526.35"/><polygon class="cls-94" points="318.1 638.47 379.59 842.28 454.87 659.61 318.1 638.47"/><polygon class="cls-94" points="248.79 735.71 305.16 767.57 318.1 638.47 248.79 735.71"/><polygon class="cls-94" points="379.59 842.28 305.16 767.57 318.1 638.47 379.59 842.28"/><polygon class="cls-94" points="137.1 271.22 304.19 423.46 351.84 557.67 137.1 271.22"/><polygon class="cls-94" points="205.25 419.37 137.1 271.22 255.54 526.35 205.25 419.37"/><polygon class="cls-94" points="318.1 638.47 52.02 802.61 248.79 735.71 318.1 638.47"/><polygon class="cls-94" points="261.74 577.32 52.02 802.61 131.32 680.23 261.74 577.32"/><path class="cls-95" d="M156.51,306.25a17.07,17.07,0,1,0-11.76-21.07A17.06,17.06,0,0,0,156.51,306.25Z" transform="translate(-24.06 -18.61)"/><path class="cls-96" d="M159.74,294.84a5.21,5.21,0,1,0-3.59-6.43A5.21,5.21,0,0,0,159.74,294.84Z" transform="translate(-24.06 -18.61)"/><circle class="cls-97" cx="375.9" cy="576.28" r="17.06" transform="translate(-324.64 683.3) rotate(-67.4)"/><path class="cls-98" d="M374.48,581.3a5.21,5.21,0,1,0-3.59-6.44A5.21,5.21,0,0,0,374.48,581.3Z" transform="translate(-24.06 -18.61)"/><path class="cls-99" d="M282.68,607a11.46,11.46,0,1,0-7.9-14.14A11.46,11.46,0,0,0,282.68,607Z" transform="translate(-24.06 -18.61)"/><path class="cls-100" d="M284.85,599.3a3.5,3.5,0,1,0-2.41-4.32A3.5,3.5,0,0,0,284.85,599.3Z" transform="translate(-24.06 -18.61)"/><path class="cls-101" d="M269.82,765.05a11.46,11.46,0,1,0-7.9-14.15A11.47,11.47,0,0,0,269.82,765.05Z" transform="translate(-24.06 -18.61)"/><path class="cls-102" d="M272,757.39a3.5,3.5,0,1,0-2.41-4.32A3.51,3.51,0,0,0,272,757.39Z" transform="translate(-24.06 -18.61)"/><path class="cls-103" d="M326.1,797.21a11.46,11.46,0,1,0-7.9-14.15A11.45,11.45,0,0,0,326.1,797.21Z" transform="translate(-24.06 -18.61)"/><path class="cls-104" d="M328.27,789.55a3.5,3.5,0,1,0-2.41-4.32A3.51,3.51,0,0,0,328.27,789.55Z" transform="translate(-24.06 -18.61)"/><path class="cls-105" d="M400.53,871.92a11.46,11.46,0,1,0-7.9-14.15A11.46,11.46,0,0,0,400.53,871.92Z" transform="translate(-24.06 -18.61)"/><path class="cls-106" d="M402.7,864.26a3.5,3.5,0,1,0-2.41-4.32A3.5,3.5,0,0,0,402.7,864.26Z" transform="translate(-24.06 -18.61)"/><path class="cls-107" d="M337.51,673.5a17.07,17.07,0,1,0-11.77-21.07A17.07,17.07,0,0,0,337.51,673.5Z" transform="translate(-24.06 -18.61)"/><path class="cls-108" d="M340.74,662.09a5.21,5.21,0,1,0-3.59-6.43A5.2,5.2,0,0,0,340.74,662.09Z" transform="translate(-24.06 -18.61)"/><path class="cls-109" d="M88.33,454.38A8.4,8.4,0,1,0,82.53,444,8.4,8.4,0,0,0,88.33,454.38Z" transform="translate(-24.06 -18.61)"/><path class="cls-110" d="M89.92,448.77a2.57,2.57,0,1,0-1.77-3.17A2.58,2.58,0,0,0,89.92,448.77Z" transform="translate(-24.06 -18.61)"/><path class="cls-111" d="M142.1,526.66a8.4,8.4,0,1,0-5.79-10.37A8.4,8.4,0,0,0,142.1,526.66Z" transform="translate(-24.06 -18.61)"/><path class="cls-112" d="M143.69,521.05a2.57,2.57,0,1,0-1.77-3.17A2.58,2.58,0,0,0,143.69,521.05Z" transform="translate(-24.06 -18.61)"/><path class="cls-113" d="M153.09,706.93a8.4,8.4,0,1,0-5.79-10.38A8.42,8.42,0,0,0,153.09,706.93Z" transform="translate(-24.06 -18.61)"/><path class="cls-114" d="M154.68,701.31a2.56,2.56,0,1,0-1.77-3.16A2.57,2.57,0,0,0,154.68,701.31Z" transform="translate(-24.06 -18.61)"/><path class="cls-115" d="M53.15,640.12a8.4,8.4,0,1,0-5.79-10.37A8.41,8.41,0,0,0,53.15,640.12Z" transform="translate(-24.06 -18.61)"/><path class="cls-116" d="M54.75,634.51A2.57,2.57,0,1,0,53,631.34,2.56,2.56,0,0,0,54.75,634.51Z" transform="translate(-24.06 -18.61)"/><path class="cls-117" d="M73.79,829.31A8.4,8.4,0,1,0,68,818.93,8.41,8.41,0,0,0,73.79,829.31Z" transform="translate(-24.06 -18.61)"/><path class="cls-118" d="M75.38,823.69a2.57,2.57,0,1,0-1.77-3.17A2.56,2.56,0,0,0,75.38,823.69Z" transform="translate(-24.06 -18.61)"/><path class="cls-119" d="M277.31,553.05a8.4,8.4,0,1,0-5.79-10.38A8.41,8.41,0,0,0,277.31,553.05Z" transform="translate(-24.06 -18.61)"/><path class="cls-120" d="M278.91,547.43a2.57,2.57,0,1,0-1.77-3.17A2.55,2.55,0,0,0,278.91,547.43Z" transform="translate(-24.06 -18.61)"/><path class="cls-121" d="M326,450.15a8.4,8.4,0,1,0-5.79-10.37A8.4,8.4,0,0,0,326,450.15Z" transform="translate(-24.06 -18.61)"/><path class="cls-122" d="M327.55,444.54a2.57,2.57,0,1,0-1.76-3.17A2.56,2.56,0,0,0,327.55,444.54Z" transform="translate(-24.06 -18.61)"/><path class="cls-123" d="M441.75,276.44A8.4,8.4,0,1,0,436,266.06,8.41,8.41,0,0,0,441.75,276.44Z" transform="translate(-24.06 -18.61)"/><path class="cls-124" d="M443.34,270.82a2.56,2.56,0,1,0-1.77-3.16A2.56,2.56,0,0,0,443.34,270.82Z" transform="translate(-24.06 -18.61)"/><path class="cls-125" d="M450,447.75a8.4,8.4,0,1,0-5.79-10.37A8.41,8.41,0,0,0,450,447.75Z" transform="translate(-24.06 -18.61)"/><path class="cls-126" d="M451.63,442.14a2.57,2.57,0,1,0-1.77-3.17A2.57,2.57,0,0,0,451.63,442.14Z" transform="translate(-24.06 -18.61)"/><path class="cls-127" d="M532.45,479.84a8.4,8.4,0,1,0-5.8-10.37A8.4,8.4,0,0,0,532.45,479.84Z" transform="translate(-24.06 -18.61)"/><path class="cls-128" d="M534,474.23a2.57,2.57,0,1,0-1.77-3.17A2.58,2.58,0,0,0,534,474.23Z" transform="translate(-24.06 -18.61)"/><path class="cls-129" d="M632.94,649.73a8.4,8.4,0,1,0-5.79-10.37A8.39,8.39,0,0,0,632.94,649.73Z" transform="translate(-24.06 -18.61)"/><path class="cls-130" d="M634.53,644.12a2.57,2.57,0,1,0-1.77-3.17A2.58,2.58,0,0,0,634.53,644.12Z" transform="translate(-24.06 -18.61)"/><path class="cls-131" d="M465.72,611.08a8.4,8.4,0,1,0-5.79-10.38A8.41,8.41,0,0,0,465.72,611.08Z" transform="translate(-24.06 -18.61)"/><path class="cls-132" d="M467.31,605.46a2.57,2.57,0,1,0-1.76-3.17A2.56,2.56,0,0,0,467.31,605.46Z" transform="translate(-24.06 -18.61)"/><path class="cls-133" d="M476.67,686.2a8.4,8.4,0,1,0-5.79-10.37A8.41,8.41,0,0,0,476.67,686.2Z" transform="translate(-24.06 -18.61)"/><path class="cls-134" d="M478.26,680.59a2.57,2.57,0,1,0-1.76-3.17A2.57,2.57,0,0,0,478.26,680.59Z" transform="translate(-24.06 -18.61)"/><polygon class="cls-57" points="121.15 500.2 31.38 613.42 255.54 526.35 121.15 500.2"/><polygon class="cls-57" points="428.27 421.06 351.84 557.67 510.68 453.14 428.27 421.06"/><polygon class="cls-57" points="454.87 659.61 611.17 623.04 443.95 584.38 454.87 659.61"/><polygon class="cls-57" points="205.25 419.37 137.1 271.22 255.54 526.35 205.25 419.37"/><polygon class="cls-57" points="318.1 638.47 52.02 802.61 248.79 735.71 318.1 638.47"/><polygon class="cls-58" points="205.25 419.37 66.56 427.68 255.54 526.35 205.25 419.37"/><polygon class="cls-58" points="443.95 584.38 611.17 623.04 510.68 453.14 443.95 584.38"/><polygon class="cls-58" points="419.67 250.84 304.19 423.46 351.84 557.67 419.67 250.84"/><polygon class="cls-58" points="318.1 638.47 261.74 577.32 351.84 557.67 318.1 638.47"/><polygon class="cls-58" points="379.59 842.28 305.16 767.57 318.1 638.47 379.59 842.28"/></g><path class="cls-135" d="M93.93,675.63a45.6,45.6,0,1,0,30.27-56.94A45.59,45.59,0,0,0,93.93,675.63Z" transform="translate(-24.06 -18.61)"/><g class="cls-136"><g class="cls-12"><path class="cls-13" d="M100.11,625.57a2.94,2.94,0,0,0,1.32,2,7.49,7.49,0,0,0,2,1,20,20,0,0,0,4.17,1,45.48,45.48,0,0,0,8.4.35,108.59,108.59,0,0,0,16.5-2.14,121.43,121.43,0,0,0,16.06-4.18,65.63,65.63,0,0,0,7.7-3.12,21.91,21.91,0,0,0,3.57-2.14,7.82,7.82,0,0,0,1.54-1.45,2.72,2.72,0,0,0,.69-2l-.35.06c.12,1.28-1.1,2.31-2.14,3.08a22.09,22.09,0,0,1-3.54,2,55.15,55.15,0,0,1-7.69,2.89,119.3,119.3,0,0,1-16.07,3.52,136.16,136.16,0,0,1-16.34,1.34c-2.72.07-5.43,0-8.11-.16a26.87,26.87,0,0,1-3.94-.53c-1.22-.31-2.6-.7-3-1.7Z" transform="translate(-24.06 -18.61)"/><path class="cls-13" d="M136.53,642.34c-11,1.19-21.74.87-30.13-.89-9.32-2-14.57-5.41-15.62-10.25h0c-1-4.85,2.51-9.24,10.58-13.06,7.27-3.44,17.35-6,28.39-7.16s21.74-.87,30.13.9c9.32,2,14.57,5.4,15.62,10.24,1.58,7.31-7.69,12.76-19,16.22A109.79,109.79,0,0,1,136.53,642.34Zm-33.66-20.19c-8,3.78-9.54,7.37-9.24,8.74h0c.29,1.37,3.29,4.48,12.52,6.41,8.18,1.72,18.65,2,29.48.86,24.12-2.58,38-11,37-15.73-.29-1.37-3.29-4.47-12.52-6.41-8.18-1.72-18.65-2-29.48-.86A105.92,105.92,0,0,0,111.21,619,63.33,63.33,0,0,0,102.87,622.15Z" transform="translate(-24.06 -18.61)"/><path class="cls-13" d="M164.05,699.18a50.92,50.92,0,0,0,9-3.65c8.39-4.45,11.83-10.11,10.24-16.82l-3.06.14c.45,1.9-.89,6.66-9.2,11.06-7.37,3.91-17.84,6.37-29.48,6.93-25.93,1.24-44.71-7.41-46.26-13.91l-3.06.14C96,699,124.64,703.51,143,702.63A87.46,87.46,0,0,0,164.05,699.18Z" transform="translate(-24.06 -18.61)"/><path class="cls-13" d="M59.2,640.09a23.46,23.46,0,0,0,4.6,9.26,40.35,40.35,0,0,0,5.71,5.75,66.19,66.19,0,0,0,11.4,7.43,121.73,121.73,0,0,0,22.26,8.79,169.58,169.58,0,0,0,21.65,4.56,190,190,0,0,0,21.09,1.6c6.94.08,13.91.22,20.77-.26a59.73,59.73,0,0,0,19.69-4.75,56.06,56.06,0,0,0,17.56-11.79,38.22,38.22,0,0,0,7.28-9.91,29,29,0,0,0,2.51-7.27,23.86,23.86,0,0,0,.39-4.87,20,20,0,0,0-1-5.63l-1,0a9.39,9.39,0,0,1-1.46,6.13,13.88,13.88,0,0,1-3.5,3.58,36,36,0,0,1-8.44,4.57,137.87,137.87,0,0,1-18.47,5.51c-6.29,1.48-12.58,3-18.86,4.75a121.26,121.26,0,0,1-19.23,4,172.1,172.1,0,0,1-20,1.1,144.71,144.71,0,0,1-20.54-1.22,96.67,96.67,0,0,1-21.15-4.84,50.88,50.88,0,0,1-10.8-5.31A28.63,28.63,0,0,1,64.33,647,17.15,17.15,0,0,1,60.24,640Z" transform="translate(-24.06 -18.61)"/></g></g><path class="cls-3" d="M93.93,675.63a45.6,45.6,0,1,0,30.27-56.94A45.59,45.59,0,0,0,93.93,675.63Z" transform="translate(-24.06 -18.61)"/><g class="cls-14"><path class="cls-13" d="M30.88,662.54c19.93-8.85,64.81-18.36,64.81-18.36a43.92,43.92,0,0,0-2,5.59s-59.45,13.81-58.87,21.41c.21,2.79,16.35,4.46,20.83,4.89a266.37,266.37,0,0,0,27.31,1,544.64,544.64,0,0,0,55-3.37c27.2-2.8,54.79-6.7,81-14.65a102,102,0,0,0,12.44-4.63c1.2-.54,6.57-3.1,6.85-5.07,1.27-8.64-60.07-7.76-60.07-7.76s-1.22-2.34-2.19-3.83c22.3-1.35,48.11-2.61,66,3.92,6.77,2.47,7.72,10.2,2.69,15.2-5.91,5.87-16.11,9-23.8,11.73-26,9.11-54.19,13.62-81.58,16.33-26.79,2.65-53.81,4.06-80.72,1.58a129.62,129.62,0,0,1-18.71-3.16C23,679.26,19.3,667.68,30.88,662.54Z" transform="translate(-24.06 -18.61)"/></g><g class="cls-14"><path class="cls-3" d="M30.88,662.54c19.93-8.85,64.81-18.36,64.81-18.36a43.92,43.92,0,0,0-2,5.59s-59.45,13.81-58.87,21.41c.21,2.79,16.35,4.46,20.83,4.89a266.37,266.37,0,0,0,27.31,1,544.64,544.64,0,0,0,55-3.37c27.2-2.8,54.79-6.7,81-14.65a102,102,0,0,0,12.44-4.63c1.2-.54,6.57-3.1,6.85-5.07,1.27-8.64-60.07-7.76-60.07-7.76s-1.22-2.34-2.19-3.83c22.3-1.35,48.11-2.61,66,3.92,6.77,2.47,7.72,10.2,2.69,15.2-5.91,5.87-16.11,9-23.8,11.73-26,9.11-54.19,13.62-81.58,16.33-26.79,2.65-53.81,4.06-80.72,1.58a129.62,129.62,0,0,1-18.71-3.16C23,679.26,19.3,667.68,30.88,662.54Z" transform="translate(-24.06 -18.61)"/></g><polygon class="cls-137" points="549.16 443.8 651.38 431.89 669.58 341.62 572.83 355.78 549.16 443.8"/><polygon class="cls-138" points="713.8 488.63 651.38 431.89 669.58 341.62 731.14 402.37 713.8 488.63"/><polygon class="cls-139" points="549.16 443.8 624.44 495.36 713.8 488.63 651.38 431.89 549.16 443.8"/><polygon class="cls-9" points="549.16 443.8 651.38 431.89 669.58 341.62 572.83 355.78 549.16 443.8"/><polygon class="cls-9" points="713.8 488.63 651.38 431.89 669.58 341.62 731.14 402.37 713.8 488.63"/><polygon class="cls-9" points="549.16 443.8 624.44 495.36 713.8 488.63 651.38 431.89 549.16 443.8"/><g class="cls-5"><polygon class="cls-140" points="42.96 413.57 120.43 404.54 134.22 336.13 60.9 346.86 42.96 413.57"/><polygon class="cls-141" points="167.73 447.55 120.43 404.54 134.22 336.13 180.88 382.17 167.73 447.55"/><polygon class="cls-142" points="42.96 413.57 100.02 452.64 167.73 447.55 120.43 404.54 42.96 413.57"/><polygon class="cls-143" points="42.96 413.57 120.43 404.54 134.22 336.13 60.9 346.86 42.96 413.57"/><polygon class="cls-143" points="167.73 447.55 120.43 404.54 134.22 336.13 180.88 382.17 167.73 447.55"/><polygon class="cls-143" points="42.96 413.57 100.02 452.64 167.73 447.55 120.43 404.54 42.96 413.57"/></g></g></g></svg>