<svg id="Camada_1" data-name="Camada 1" xmlns="http://www.w3.org/2000/svg" viewBox="0 0 585.68 508.9"><defs><style>.cls-1{fill:#ff7b2f;}.cls-2{fill:#4c3dba;}.cls-3{fill:#5444ce;}.cls-4{fill:#060b61;}.cls-5{fill:#4a22b3;}.cls-6{fill:#6535c7;}.cls-7{fill:#6fb2ed;}.cls-8{fill:#ffa92f;}.cls-9{fill:#ffbf31;}.cls-10{fill:#f7beb7;}.cls-11{fill:#c93624;}.cls-12{fill:#000400;}.cls-13{fill:#ff5540;}.cls-14{fill:#f09a90;}.cls-15{fill:#db3d3d;}.cls-16{fill:#1f1f1f;}.cls-17{fill:#200c89;}</style></defs><title>icon-story</title><path class="cls-1" d="M581.59,185.88c-6.85-23.58-17.54-46.41-34-64.62S508.49,89.76,484,87.53L469.7,174.86S579.2,194.22,539,319.94a236.51,236.51,0,0,1-92.77,123.79c-83.47,56.38-191.84,66.2-269.52,38.83v6.18A217,217,0,0,0,215,500.45c37,7.71,75.27,6.7,112.81,2.5,52.71-5.89,105.78-18.43,150.72-46.6A240.21,240.21,0,0,0,581.59,185.88Z" transform="translate(-5.32 -9.33)"/><path class="cls-2" d="M209.46,144.15,211,189.7c-15.06,1.18-50.21-27.71-80-53.25a12.87,12.87,0,0,1-2-17.44,12.62,12.62,0,0,1,2-2.11c29.76-25.54,64.91-54.41,80-53.25l-2.11,63Z" transform="translate(-5.32 -9.33)"/><path class="cls-3" d="M208.88,126.68l.58,17.47h-.53c-31.43,0-59.81-9.64-79.88-25.14a12.62,12.62,0,0,1,2-2.11c29.76-25.54,64.91-54.41,80-53.25Z" transform="translate(-5.32 -9.33)"/><path class="cls-4" d="M369,191.91s21.35,11.81,22.18,36.08l82.94,5.12-58.93-41.2Z" transform="translate(-5.32 -9.33)"/><path class="cls-4" d="M369,61.44s21.35-11.8,22.18-36.07l82.94-5.12L415.15,61.44Z" transform="translate(-5.32 -9.33)"/><path class="cls-5" d="M428.38,154.36,430,200.62l-69-3.43-1.82-.1-108.77-5.42-1.79-.08L211,189.7c-7.41,0-11.82-20.68-13.23-45.27-2.06-36.15,2.35-80.78,13.23-80.78l38.06-1.9L263.76,61l68.46-3.4,14.69-.74L430,52.75l-2.64,73.93Z" transform="translate(-5.32 -9.33)"/><path class="cls-6" d="M427.39,126.68l1,27.68-64.2-2.76-2.09-.1-126-5.42L234,146l-36.24-1.57c-2.06-36.15,2.35-80.78,13.23-80.78l38.06-1.9L263.76,61l68.46-3.4,14.69-.74L430,52.75Z" transform="translate(-5.32 -9.33)"/><path class="cls-4" d="M418.14,169H349.86a.71.71,0,0,1-.26-.06q5.7,14.11,11.41,28.23l-1.82-.1q-10.69-26.49-21.42-53a.29.29,0,0,1-.1,0H272.43q-11,23.76-22,47.52l-1.79-.08,22.42-48.36a.77.77,0,0,1,.79-.73h65.39a.87.87,0,0,1,1.63-.05q5.16,12.69,10.28,25.39a.73.73,0,0,1,.72-.47h68.28A.83.83,0,0,1,418.14,169Z" transform="translate(-5.32 -9.33)"/><path class="cls-4" d="M346.9,56.88a49.08,49.08,0,0,1-97.85,4.87L263.76,61l68.46-3.4Z" transform="translate(-5.32 -9.33)"/><path class="cls-7" d="M332.22,57.62A34.41,34.41,0,0,1,263.76,61Z" transform="translate(-5.32 -9.33)"/><path class="cls-3" d="M457.07,126.67c0,20.34-3,38.75-7.86,52.12v21.82H430c-4.87,0-9.42-3.5-13.35-9.64-.58-.88-1.13-1.83-1.66-2.81a70.54,70.54,0,0,1-4.8-11.16c-.3-.91-.61-1.84-.89-2.81-1.07-3.46-2-7.21-2.84-11.17-.2-.93-.38-1.86-.57-2.81-.66-3.56-1.22-7.3-1.67-11.16-.1-.93-.2-1.87-.29-2.81-.37-3.62-.64-7.34-.79-11.16,0-.93-.07-1.87-.09-2.82,0-1.84-.08-3.71-.08-5.59s0-3.74.08-5.58c0-.94.05-1.88.09-2.81.15-3.82.42-7.55.79-11.16.09-.94.19-1.88.29-2.81.45-3.87,1-7.6,1.67-11.16.19-1,.37-1.88.57-2.81.81-4,1.77-7.72,2.84-11.17.28-1,.59-1.9.89-2.81A70.54,70.54,0,0,1,415,65.2c.53-1,1.08-1.93,1.66-2.82,3.93-6.14,8.48-9.64,13.35-9.64h19.17V74.57C454.06,87.94,457.07,106.35,457.07,126.67Z" transform="translate(-5.32 -9.33)"/><path class="cls-4" d="M447,62.38V65.2H415c.53-1,1.08-1.93,1.66-2.82Z" transform="translate(-5.32 -9.33)"/><path class="cls-4" d="M447,76.36v2.81H409.34c.28-1,.59-1.9.89-2.81Z" transform="translate(-5.32 -9.33)"/><path class="cls-4" d="M447,90.34v2.81h-41c.19-1,.37-1.88.57-2.81Z" transform="translate(-5.32 -9.33)"/><path class="cls-4" d="M447,104.31v2.81H404c.09-.94.19-1.88.29-2.81Z" transform="translate(-5.32 -9.33)"/><path class="cls-4" d="M447,118.28v2.81H403.09c0-.94.05-1.88.09-2.81Z" transform="translate(-5.32 -9.33)"/><path class="cls-4" d="M447,132.26v2.82H403.18c0-.93-.07-1.87-.09-2.82Z" transform="translate(-5.32 -9.33)"/><path class="cls-4" d="M447,146.24v2.81H404.26c-.1-.93-.2-1.87-.29-2.81Z" transform="translate(-5.32 -9.33)"/><path class="cls-4" d="M447,160.21V163H406.5c-.2-.93-.38-1.86-.57-2.81Z" transform="translate(-5.32 -9.33)"/><path class="cls-4" d="M447,174.19V177H410.23c-.3-.91-.61-1.84-.89-2.81Z" transform="translate(-5.32 -9.33)"/><path class="cls-4" d="M447,188.16V191H416.69c-.58-.88-1.13-1.83-1.66-2.81Z" transform="translate(-5.32 -9.33)"/><ellipse class="cls-4" cx="443.88" cy="117.35" rx="27.03" ry="73.93"/><path class="cls-3" d="M449.2,196.39c-10.76,0-22.81-29.81-22.81-69.71S438.44,57,449.2,57,472,86.78,472,126.68,460,196.39,449.2,196.39Z" transform="translate(-5.32 -9.33)"/><ellipse class="cls-4" cx="443.88" cy="117.35" rx="12.78" ry="34.95"/><path class="cls-8" d="M488.6,119.05s30.42,10,23.57,13.21S484,138.6,484,138.6s29.67,9.17,24.64,14.17S478.39,164,478.39,164s30.16,7.68,28.79,11.33-30.95,5.93-30.95,5.93,32,12,27,15.09-54,0-54,0c-5.4-6.65-9.55-15.42-12.54-25.35-8.34-27.7-7.63-64.46.07-90,3.09-10.22,7.28-18.66,12.47-24,0,0,54.45-.08,49.9,6.66s-16.9,14.13-16.9,14.13,33.78,2.37,31,7.47-25.55,11.46-25.55,11.46,26.92,7.57,26.92,12.13S488.6,119.05,488.6,119.05Z" transform="translate(-5.32 -9.33)"/><path class="cls-9" d="M467.69,121s22.4,6.8,17.36,9-20.73,4.31-20.73,4.31,21.85,6.22,18.17,9.61-22.33,7.65-22.33,7.65,22.21,5.2,21.21,7.68-22.8,4-22.8,4,23.57,8.14,19.87,10.24-39.78,0-39.78,0c-.7-.78-1.36-1.62-2-2.48-8.34-27.7-7.63-64.46.07-90a20.21,20.21,0,0,1,1.92-2.08s40.11-.07,36.76,4.51S463,93,463,93s24.88,1.6,22.86,5.07S467,105.85,467,105.85s19.84,5.14,19.84,8.24S467.69,121,467.69,121Z" transform="translate(-5.32 -9.33)"/><path class="cls-6" d="M230.75,269.1q-3.06-.56-6.13-1c-60.6-9.38-124.52,5-175.54,38.92-5.93,3.94-11.67,8.16-17.22,12.61,6.07-10.27,14.65-19.55,25.4-24.79-7.15-4.08-11.27-13.56-10-21.68s8.41-15.05,16.6-15.81a18,18,0,0,1,14.28,5.52c-4.8-11-5.23-24.46.22-34.9a40.8,40.8,0,0,1,35.74-21.47,35.85,35.85,0,0,1,24,9.21c6.41,6,10.18,14.92,9.33,23.66,4.22-4.65,12.39-4.81,18.39-2.94A16.9,16.9,0,0,1,177.41,250c3.42-5.06,9.75-8.06,15.46-6a14.19,14.19,0,0,1,9,14.4C211.9,260.41,222.16,263.48,230.75,269.1Z" transform="translate(-5.32 -9.33)"/><path class="cls-3" d="M224.62,268.07c-60.6-9.38-124.52,5-175.54,38.92A64.82,64.82,0,0,1,72,290.07c-7.86-1.93-11.38-13.29-6-19.32,3.92-4.36,11.14-4.38,15.84-1.14a1.7,1.7,0,0,1,.38.26,10.19,10.19,0,0,1,3.64,4.74c-1.62-11.34.82-23.55,8.07-32.45s19.56-13.86,30.66-11,19.75,14.33,18.12,25.68c5.65-5.07,11.86-10.41,19.42-11.07s16,6.15,13.94,13.45a11.23,11.23,0,0,1,20,1A55.35,55.35,0,0,1,224.62,268.07Z" transform="translate(-5.32 -9.33)"/><path class="cls-10" d="M230.26,197.47l.27-2s5-7.92,3.67-9.53c-1.12-1.39-5.14,3.28-5.14,3.28s-.33-9.54-2.35-9.72-1.31,8.82-1.31,8.82-2.6-8.17-4.54-7.47,1.42,8.43,1.42,8.43-3.66-6.09-5.52-5.34,3,8.6,3,8.6-6.35-2.9-6.73-1.62,5.65,5.19,5.65,5.19,2.58,5.17,6.57,4.46l4.3-.53Z" transform="translate(-5.32 -9.33)"/><path class="cls-10" d="M263.21,300.93l-26-25.87a14.38,14.38,0,0,1-3.85-7.37l-11.9-67.77,8.81-.86s4.44,12.51,6.52,17.05,18.67,32,15.51,46.51l15.53,7.46,1.35,10.7Z" transform="translate(-5.32 -9.33)"/><path class="cls-11" d="M313.72,284.59l-21.67,33.67-30.22-16.08c-2.87-15.68,6-32.1,6-32.1Z" transform="translate(-5.32 -9.33)"/><polygon class="cls-12" points="297.9 252.52 303.35 249.99 303.99 255.54 299.45 255.54 297.9 252.52"/><path class="cls-10" d="M482.8,280.12l1.14-1.63s1.7-9.2,3.74-9.5c1.77-.27,1.57,5.9,1.57,5.9s6.7-6.81,8.3-5.57-5,7.38-5,7.38,7.45-4.26,8.4-2.43-6.75,5.24-6.75,5.24,6.82-2,7.68-.19-8.05,4.29-8.05,4.29,6.64,2.16,6.05,3.36-7.67,0-7.67,0-5.4,2.07-7.86-1.16l-2.81-3.3Z" transform="translate(-5.32 -9.33)"/><path class="cls-10" d="M391.73,334.27l33.46-1.71a14.3,14.3,0,0,0,7.82-2.83l54.63-41.84-5.9-6.59s-11.74,6.2-16.34,8.14S430,300.35,422.5,313.19l-16.47-5-8.24,7Z" transform="translate(-5.32 -9.33)"/><path class="cls-13" d="M406,308.16s-1.45,18.6-12.36,30.24l-34.89-2.91s-16.27,48.94-49.45,82.64l-13.78-21.34-26-40.22S280,340.81,281,329.66s-1.68-18.16,6.31-23,20-17.44,22.38-23.34L340,290.17Z" transform="translate(-5.32 -9.33)"/><path class="cls-11" d="M406,308.16s-1.45,18.6-12.36,30.24l-34.89-2.91s-16.27,48.94-49.45,82.64l-13.78-21.34,4.67-8.86c42.44-2.72,54.34-67.66,54.34-67.66h0A18.91,18.91,0,0,0,370,330.87l18.5,1.5C397.46,329.89,406,308.16,406,308.16Z" transform="translate(-5.32 -9.33)"/><path class="cls-14" d="M113.52,298.79s-11.27-4.86-18.48-9a27.24,27.24,0,0,1-5.26-3.58c-3.87-4,13.32-28,15.92-28.26,2.07-.23,2.45,13.93,2.52,19.55,0,1.4,0,2.27,0,2.27l9,5.22Z" transform="translate(-5.32 -9.33)"/><path class="cls-15" d="M95,289.84a27.24,27.24,0,0,1-5.26-3.58c-3.87-4,13.32-28,15.92-28.26,2.07-.23,2.45,13.93,2.52,19.55-2.21.44-4.52.52-6.58,1.44a11.48,11.48,0,0,0-5.77,7.08A21.34,21.34,0,0,0,95,289.84Z" transform="translate(-5.32 -9.33)"/><path class="cls-4" d="M216.39,348.89c-10.88,2.81-52.06-17.23-64.15-27S111,300.38,111,300.38c-5.29-12.58,5-21.66,5-21.66s121.8,47,133.12,61.68-7.78,40.87-7.78,40.87l-8.89-26.13Z" transform="translate(-5.32 -9.33)"/><path class="cls-10" d="M344.73,304.44c-4,3.65-9.93,4.36-15,3.24-3.44-.78-6.89-2.49-8-6.09a7.54,7.54,0,0,1,7.51-9.67V277.44c3.34-3.59,6.23-7.35,9.57-10.94a9.24,9.24,0,0,1,2-1.81,2.75,2.75,0,0,1,2.43-.3l-.89,20-.35,7.74c.25.43,1.24.5,1.66.7a5.07,5.07,0,0,1,1.86,1.68A7.81,7.81,0,0,1,344.73,304.44Z" transform="translate(-5.32 -9.33)"/><path class="cls-14" d="M343.32,264.39l-.89,20a14.1,14.1,0,0,1-13.15,6V277.44c3.34-3.59,6.23-7.35,9.57-10.94a9.24,9.24,0,0,1,2-1.81A2.75,2.75,0,0,1,343.32,264.39Z" transform="translate(-5.32 -9.33)"/><path class="cls-10" d="M307.34,247.23s-2,23.81,6.13,34.92a15.08,15.08,0,0,0,19.8,4.19c13.14-8,10.39-39.11,10.39-39.11Z" transform="translate(-5.32 -9.33)"/><path class="cls-12" d="M331.66,263.21l7.5-3.31.75,6.07a5.77,5.77,0,0,1-.81,3.74c-1.4,2.29-4.25,6.07-8.62,7.9Z" transform="translate(-5.32 -9.33)"/><path class="cls-1" d="M347.31,271c-6.83-2.64-10.61-11.17-10.18-18.11a7.65,7.65,0,0,0-1.7,4.82h-6.52a6.58,6.58,0,0,1-1.23-4.46,5.92,5.92,0,0,0-1.26,4.48h-9s-1.87-1.48-1.84-5.31c0,0-1.88,2.85-1.16,5.49a22.13,22.13,0,0,1-10.95-2c-3.18-10,.1-21.89,8.43-28.21,6.55-5,15.11-6.52,22-11,5.34-3.48,9.41-8.56,13.65-13.33,7.15-8,17.13-15.84,28.58-11.9,5.48,1.89,9.33,6.65,12.49,11.27,5,7.33,9.24,18.56,4,26.87-2.48,3.95-6.73,5.11-10.28,7.7a17.55,17.55,0,0,0-5.38,6.49c-1.33,2.8-1.57,5.93-2.65,8.83-3.64,9.77-15.11,22.72-26.83,18.47Z" transform="translate(-5.32 -9.33)"/><path class="cls-16" d="M303.22,261.85s15.68-1.66,28.44,1.36c0,0,6.14,14.22-3.8,15.1-5.94-.19-6.33-5.75-10.52-6.43s-4.55,6.92-10.21,5.36S303.22,261.85,303.22,261.85Z" transform="translate(-5.32 -9.33)"/><path class="cls-10" d="M151,441.67s-8.5,8.85-14.85,14.17a26.3,26.3,0,0,1-5.19,3.67c-5.07,2.24-21.53-22.27-20.89-24.81.5-2,13.9,2.59,19.19,4.5l2.12.77,8-6.54Z" transform="translate(-5.32 -9.33)"/><path class="cls-13" d="M136.11,455.84a26.3,26.3,0,0,1-5.19,3.67c-5.07,2.24-21.53-22.27-20.89-24.81.5-2,13.9,2.59,19.19,4.5-.37,2.22-1.1,4.41-1,6.67a11.48,11.48,0,0,0,4.61,7.88A20.56,20.56,0,0,0,136.11,455.84Z" transform="translate(-5.32 -9.33)"/><path class="cls-17" d="M318.25,408.24,273,350.87s-17.83-27.06-35.55-21.6S133,432.33,133,432.33s4.91,12.81,18.54,12.27c0,0,21.27-23.18,34.63-31.09s38.26-29.71,39.44-40.89c0,0,10.45,65.16,61.71,56.16C309.32,423.87,318.25,408.24,318.25,408.24Z" transform="translate(-5.32 -9.33)"/><path class="cls-11" d="M324,336.13a36.77,36.77,0,0,1-10-2.78c-4.62-2.13-6.49-5.69-8.24-10.21a.87.87,0,0,0-1.6-.05l-.09,0c-5.5,3.51-14.26,1.58-19.63-1.19-.95-.49-1.78.94-.84,1.43a28.86,28.86,0,0,0,10.86,3.23c3.15.17,7.36-.26,10.15-1.88,1.25,3.18,2.65,6.31,5.59,8.35,3.95,2.73,8.65,3.95,13.34,4.66C324.57,337.88,325,336.29,324,336.13Z" transform="translate(-5.32 -9.33)"/><polygon class="cls-8" points="516.68 242.15 519.81 248.48 527.15 249.55 522.62 257.13 525.19 265.29 515.26 262.48 506.61 264.64 507.9 257.13 503.61 249.52 510.71 248.48 516.68 242.15"/><polygon class="cls-8" points="64.48 335.42 71.22 349.09 87.05 351.39 77.29 367.75 82.83 385.33 61.41 379.28 42.77 383.94 45.54 367.75 36.29 351.31 51.61 349.09 64.48 335.42"/><polygon class="cls-8" points="109.93 126.74 113.06 133.08 120.4 134.15 115.87 141.73 118.44 149.88 108.51 147.08 99.87 149.24 101.15 141.73 96.86 134.11 103.97 133.08 109.93 126.74"/><path class="cls-3" d="M256.3,29a18.12,18.12,0,1,1,36.15-2.64c2.75-3.84,6.34-8.46,10.68-10.31s9.75-1.72,13.43,1.23,4.88,7.67,6,12.14a15.61,15.61,0,0,1,12.7-.21,16.09,16.09,0,0,1,8.67,9.53H204a22.85,22.85,0,0,1,25.9-5.4c1.86-5.31,6.65-10.41,12.22-11.2S253,24.38,256.3,29Z" transform="translate(-5.32 -9.33)"/><path class="cls-6" d="M537.54,335.36A128,128,0,0,1,530,377.12c-23.6,66.28-97.7,116.25-158.82,132.79-98.81,26.72-229.93-14.22-279.4-75.6l.15.12c27.7,24.66,45.32,30.17,68.53,34.88-6.84-10.9-3.5-23.34,5.43-30.26s22-8.42,33.09-6.51c23,4,39.82,22.7,44.09,45.33-3.08-24.07,6.3-47.94,20.53-67.57,13.42-18.5,32.08-36,53.91-43.59,18.45-6.46,37.94,1,47.16,17.94,6,11,7.78,24.92,6.42,39.49a88.23,88.23,0,0,1,13.84-21.57c13.66-15.21,30.31-21.42,44.3-15.18,9.73,4.34,17.74,14.55,21.31,27.13a94.44,94.44,0,0,1,3.7-31.1c5-16.26,13.89-28.67,25.52-28.45s25.86,14.28,27.94,31.54A103.06,103.06,0,0,0,537.54,335.36Z" transform="translate(-5.32 -9.33)"/><path class="cls-3" d="M530,377.12c-23.6,66.28-97.7,116.25-158.82,132.79-98.81,26.72-229.93-14.22-279.4-75.6l.15.12a170.18,170.18,0,0,0,88.81,53.46c.15-10.16,9.42-18.66,19.46-20.13s20.25,2.87,28,9.41,13.52,15.1,19.17,23.54a166.21,166.21,0,0,1,48.51-61.3c11.25-8.77,25.62-16.4,39.28-12.25,9.48,2.86,16.63,11.07,20.63,20.13s5.28,19.08,6.55,28.91c5.9-11.91,11.91-24,20.75-33.93s21-17.65,34.27-18.25,27.32,7.37,31,20.14L467,410c4.63-8.49,10-17.66,19.13-20.84S507.86,393.78,505,403A100.46,100.46,0,0,0,530,377.12Z" transform="translate(-5.32 -9.33)"/><path class="cls-5" d="M104.89,90.34A37.87,37.87,0,1,1,84.94,57,37.9,37.9,0,0,1,104.89,90.34Z" transform="translate(-5.32 -9.33)"/><path class="cls-6" d="M87,69.23A37.89,37.89,0,0,1,31.13,102.6,37.91,37.91,0,0,1,84.94,57,37.77,37.77,0,0,1,87,69.23Z" transform="translate(-5.32 -9.33)"/><path class="cls-4" d="M100.71,73.05a37.06,37.06,0,0,1,2.83,7.3c11.86,2.87,18.6,6.82,18.6,10s-6.74,7.13-18.58,10A158.43,158.43,0,0,1,67,104.17a158.2,158.2,0,0,1-36.56-3.85c-11.84-2.86-18.58-6.83-18.58-10s6.74-7.11,18.59-10a37.09,37.09,0,0,1,2.84-7.3c-16.19,3.25-28,9.06-28,17.28s11.77,14,28,17.3A175.1,175.1,0,0,0,67,110.7a175.36,175.36,0,0,0,33.72-3.07c16.19-3.25,28-9.06,28-17.3S116.9,76.3,100.71,73.05Z" transform="translate(-5.32 -9.33)"/><circle class="cls-4" cx="78.34" cy="69.28" r="5.56"/><path class="cls-4" d="M43,77.9a4.86,4.86,0,1,1-4.86-4.85A4.86,4.86,0,0,1,43,77.9Z" transform="translate(-5.32 -9.33)"/><path class="cls-4" d="M63.14,96.59A2.56,2.56,0,1,1,60.59,94,2.55,2.55,0,0,1,63.14,96.59Z" transform="translate(-5.32 -9.33)"/><circle class="cls-4" cx="61.6" cy="52.08" r="3.79"/><path class="cls-4" d="M91.49,63.67a2.26,2.26,0,1,1-2.26-2.26A2.26,2.26,0,0,1,91.49,63.67Z" transform="translate(-5.32 -9.33)"/><path class="cls-4" d="M66.93,84.26a3.17,3.17,0,1,1-3.17-3.17A3.17,3.17,0,0,1,66.93,84.26Z" transform="translate(-5.32 -9.33)"/><path class="cls-4" d="M43,96.46A2.43,2.43,0,1,1,40.56,94,2.43,2.43,0,0,1,43,96.46Z" transform="translate(-5.32 -9.33)"/><path class="cls-4" d="M54.69,65.19a2.81,2.81,0,1,1-2.8-2.81A2.8,2.8,0,0,1,54.69,65.19Z" transform="translate(-5.32 -9.33)"/><circle class="cls-4" cx="75.56" cy="111.73" r="2.78"/><circle class="cls-4" cx="53.59" cy="113.18" r="4.22"/><path class="cls-4" d="M91.49,95.41a2.26,2.26,0,1,1-2.26-2.26A2.26,2.26,0,0,1,91.49,95.41Z" transform="translate(-5.32 -9.33)"/></svg>