<svg id="_0" data-name="0" xmlns="http://www.w3.org/2000/svg" xmlns:xlink="http://www.w3.org/1999/xlink" viewBox="0 0 442.34 389.9"><defs><style>.cls-1,.cls-13,.cls-14,.cls-15{fill:none;}.cls-2{fill:#e8f1fc;}.cls-3{fill:#924fd0;}.cls-4{fill:#cfb2e7;}.cls-5{fill:#833dc3;}.cls-6{fill:#be99da;}.cls-7{fill:#e5d5f3;}.cls-8{fill:#741fc3;}.cls-9{fill:#a95fc2;}.cls-10{fill:#feac15;}.cls-11{fill:#fff;}.cls-12{clip-path:url(#clip-path);}.cls-13{stroke:#a95fc2;}.cls-13,.cls-14,.cls-15{stroke-miterlimit:10;stroke-width:0.73px;}.cls-14{stroke:#be99da;}.cls-15{stroke:#741fc3;}.cls-16{fill:#622b92;}.cls-17{fill:#804592;}.cls-18{fill:#36035a;}.cls-19{fill:#561492;}.cls-20{fill:#b78cdc;}.cls-21{fill:#fe7e14;}.cls-22{fill:#ffdc9b;}.cls-23{fill:#fda601;}.cls-24{fill:#e6eff6;}.cls-25{fill:#f5bf96;}.cls-26{fill:#e0a37d;}.cls-27{fill:#3885ca;}.cls-28{fill:#542892;}.cls-29{fill:#ff9f00;}.cls-30{fill:#ff5b00;}.cls-31{fill:#ff8700;}</style><clipPath id="clip-path" transform="translate(-3.83 -9.05)"><polygon class="cls-1" points="282.51 130.72 216.26 92.47 216.26 38.28 282.51 76.53 282.51 130.72"/></clipPath></defs><title>icon-more</title><polygon class="cls-2" points="107.7 246.61 121.19 247.29 182.05 213.64 162.82 201.87 107.7 246.61"/><polygon class="cls-2" points="83.05 232.04 96.54 232.72 157.4 199.08 138.18 187.31 83.05 232.04"/><polygon class="cls-2" points="56.63 216.36 70.13 217.04 130.98 183.4 111.76 171.63 56.63 216.36"/><polygon class="cls-2" points="39.74 207.2 53.23 207.88 114.09 174.24 94.86 162.47 39.74 207.2"/><polygon class="cls-2" points="15.08 193.65 28.58 194.33 89.43 160.69 70.21 148.92 15.08 193.65"/><path class="cls-2" d="M303.35,261.88,356,259.17l19-11.64,9.92,5.61a8.84,8.84,0,0,0,8.83-.06L422,236.52a5,5,0,0,0,0-8.71L298.15,156.67Z" transform="translate(-3.83 -9.05)"/><polygon class="cls-2" points="365.55 334.92 376.66 334.92 442.34 297.29 392.81 268.33 384.3 264.49 365.55 334.92"/><ellipse class="cls-2" cx="212.43" cy="327.05" rx="108.87" ry="62.86"/><path class="cls-2" d="M91.92,293.33c-6.72,3.88-17.61,3.88-24.33,0s-6.72-10.17,0-14.05,17.61-3.88,24.33,0S98.64,289.45,91.92,293.33Z" transform="translate(-3.83 -9.05)"/><path class="cls-2" d="M344.71,353.64c-6.72,3.88-17.62,3.88-24.34,0s-6.72-10.17,0-14.05,17.62-3.88,24.34,0S351.43,349.76,344.71,353.64Z" transform="translate(-3.83 -9.05)"/><path class="cls-2" d="M81.37,334l-3.29-1.91a13,13,0,0,0,2.84-4h4.66c3.4,0,6.15-1.59,6.15-3.55V324c0-2-2.75-3.56-6.15-3.56H80.92a13.09,13.09,0,0,0-2.84-4l3.29-1.9c2.41-1.39,2.41-3.64,0-5l-.7-.41a9.6,9.6,0,0,0-8.7,0l-3.29,1.9a40,40,0,0,0-6.87-1.64h0v-2.69c0-2-2.75-3.55-6.15-3.55h-1c-3.39,0-6.14,1.59-6.14,3.55v2.69a39.82,39.82,0,0,0-6.87,1.64l-3.29-1.9a9.6,9.6,0,0,0-8.7,0l-.71.41c-2.4,1.38-2.4,3.63,0,5l3.3,1.9a13.09,13.09,0,0,0-2.84,4H24.75c-3.4,0-6.15,1.6-6.15,3.56v.57c0,2,2.75,3.55,6.15,3.55h4.66a13,13,0,0,0,2.84,4L29,334c-2.4,1.38-2.4,3.63,0,5l.71.41a9.66,9.66,0,0,0,8.7,0l3.29-1.91a38.92,38.92,0,0,0,6.87,1.64h0v2.69c0,2,2.75,3.56,6.14,3.56h1c3.4,0,6.15-1.6,6.15-3.56v-2.69a39.13,39.13,0,0,0,6.87-1.64L72,339.42a9.66,9.66,0,0,0,8.7,0l.7-.41C83.78,337.62,83.78,335.37,81.37,334Zm-26.31-4.34a13.38,13.38,0,0,1-6.41-1.53l-.13-.08c-1.75-1-2.63-2.36-2.66-3.7v-.11c0-1.34.91-2.68,2.66-3.71l.13-.08a13.61,13.61,0,0,1,6.41-1.53h.2a13.65,13.65,0,0,1,6.42,1.53l.13.08c1.75,1,2.63,2.37,2.66,3.71v.11c0,1.34-.91,2.68-2.66,3.7l-.13.08a13.42,13.42,0,0,1-6.42,1.53Z" transform="translate(-3.83 -9.05)"/><path class="cls-3" d="M82.92,316.68v2H78.2a13,13,0,0,0-2.84-4l3.3-1.91c1.36-.78,2-1.84,1.77-2.87v-5.5h-6v1.94a9.3,9.3,0,0,0-5.2,1l-3.3,1.9a38.81,38.81,0,0,0-6.86-1.64V305c0-2-2.76-3.55-6.15-3.55H52c-3.39,0-6.15,1.59-6.15,3.55v2.69a38.81,38.81,0,0,0-6.86,1.64l-3.3-1.9a9.62,9.62,0,0,0-8.41-.15v-2.85H24.47V310h0c-.18,1,.41,2.07,1.77,2.85l3.29,1.91a13.32,13.32,0,0,0-2.84,4H22a10,10,0,0,0-2.45.3v-2.42h-3.7v6.06h0v.19c0,2,2.76,3.55,6.15,3.55h4.66a13.32,13.32,0,0,0,2.84,4l-1.4.81v-2.26H24.42v6.28h.06a3.3,3.3,0,0,0,1.76,2.09l.7.41a9.6,9.6,0,0,0,8.7,0l3.3-1.9a39.71,39.71,0,0,0,6.86,1.64v2.69c0,2,2.76,3.55,6.15,3.55h1c3.39,0,6.15-1.59,6.15-3.55v-2.69A39.71,39.71,0,0,0,66,335.75l3.3,1.9a9.58,9.58,0,0,0,8.69,0l.71-.41c1.36-.78,2-1.84,1.77-2.87v-5.05H76.3a12.24,12.24,0,0,0,1.9-3h4.67c3.29,0,6-1.5,6.13-3.38h0v-6.3Zm-21.17,5.9c0,1.34-.91,2.67-2.65,3.7l-.13.08a13.68,13.68,0,0,1-6.42,1.53h-.2a13.65,13.65,0,0,1-6.42-1.53l-.13-.08c-1.74-1-2.63-2.36-2.66-3.7v-.12c0-1.34.92-2.67,2.66-3.7l.13-.08a13.42,13.42,0,0,1,6.42-1.53h.2A13.38,13.38,0,0,1,59,318.68l.14.08c1.74,1,2.62,2.36,2.65,3.7Z" transform="translate(-3.83 -9.05)"/><path class="cls-4" d="M78.66,326.39l-3.3-1.91a13,13,0,0,0,2.84-4h4.67c3.39,0,6.15-1.59,6.15-3.55v-.57c0-2-2.76-3.56-6.15-3.56H78.2a13.09,13.09,0,0,0-2.84-4l3.3-1.9c2.4-1.39,2.4-3.64,0-5l-.71-.41a9.58,9.58,0,0,0-8.69,0l-3.3,1.9a39.71,39.71,0,0,0-6.86-1.64h0v-2.69c0-2-2.76-3.55-6.15-3.55H52c-3.39,0-6.15,1.59-6.15,3.55v2.69a39.71,39.71,0,0,0-6.86,1.64l-3.3-1.9a9.6,9.6,0,0,0-8.7,0l-.7.41c-2.4,1.38-2.4,3.63,0,5l3.29,1.9a13.45,13.45,0,0,0-2.84,4H22c-3.39,0-6.15,1.6-6.15,3.55V317c0,2,2.76,3.55,6.15,3.55h4.66a13.32,13.32,0,0,0,2.84,4l-3.29,1.91c-2.4,1.38-2.4,3.63,0,5l.7.41a9.66,9.66,0,0,0,8.7,0l3.3-1.91a38.81,38.81,0,0,0,6.86,1.64h0v2.69c0,2,2.76,3.55,6.15,3.55h1c3.39,0,6.15-1.59,6.15-3.55v-2.69A38.81,38.81,0,0,0,66,329.91l3.3,1.91a9.64,9.64,0,0,0,8.69,0l.71-.41C81.06,330,81.06,327.77,78.66,326.39Zm-26.31-4.34a13.42,13.42,0,0,1-6.42-1.53l-.13-.08c-1.74-1-2.63-2.36-2.66-3.7v-.11c0-1.35.92-2.68,2.66-3.71l.13-.08a13.65,13.65,0,0,1,6.42-1.53h.2A13.61,13.61,0,0,1,59,312.84l.14.08c1.74,1,2.62,2.36,2.65,3.71v.11c0,1.34-.91,2.68-2.65,3.7l-.13.08a13.44,13.44,0,0,1-6.42,1.53Z" transform="translate(-3.83 -9.05)"/><path class="cls-5" d="M361.15,227.9a1.36,1.36,0,0,1-.69,1.2L304,261.7a1.22,1.22,0,0,1-.65.18V193.72l57.11,33A1.37,1.37,0,0,1,361.15,227.9Z" transform="translate(-3.83 -9.05)"/><path class="cls-5" d="M303.35,261.88a1.22,1.22,0,0,0,.65-.18l56.46-32.6a1.39,1.39,0,0,0,0-2.4l-57.11-33Z" transform="translate(-3.83 -9.05)"/><path class="cls-6" d="M303.35,193.72v68.16a1.38,1.38,0,0,1-.74-.18L206.19,206a1.39,1.39,0,0,1,0-2.41L262.64,171a1.38,1.38,0,0,1,1.39,0Z" transform="translate(-3.83 -9.05)"/><rect class="cls-6" x="201.67" y="186.98" width="10.57" height="8.7"/><path class="cls-7" d="M360.46,220.32,304,252.91a1.38,1.38,0,0,1-1.39,0l-96.42-55.67a1.39,1.39,0,0,1,0-2.41l56.45-32.59a1.38,1.38,0,0,1,1.39,0l96.43,55.67A1.4,1.4,0,0,1,360.46,220.32Z" transform="translate(-3.83 -9.05)"/><polygon class="cls-8" points="310.44 218.52 248.54 182.78 248.54 149.17 310.44 184.91 310.44 218.52"/><path class="cls-7" d="M373.84,113a12.27,12.27,0,0,1,1.17,5V248.22c0,2.06-.69,3.5-1.78,4.11l-.05,0-.05,0h0l-.69-4.55L345.06,232,208.9,153.4c-2.8-1.62-5.07-6-5.07-9.69V13.49a8.74,8.74,0,0,1,.06-1.05c.39-3,2.49-4.24,5-2.78l166,95.82a10.39,10.39,0,0,1,3.89,4.67Z" transform="translate(-3.83 -9.05)"/><polygon class="cls-7" points="196.92 3.12 201.8 0.31 203.4 3.26 198.49 5.72 196.92 3.12"/><polygon class="cls-9" points="319.46 213.25 310.44 218.46 310.44 184.85 319.46 179.65 319.46 213.25"/><path class="cls-6" d="M375,118V248.22c0,2.06-.69,3.5-1.78,4.11l-.05,0-.05,0h0a2.52,2.52,0,0,1-1.17.27,4,4,0,0,1-2-.61l-24.88-14.36L204,156.23c-2.8-1.62-5.07-6-5.07-9.7V16.32c0-3.7,2.23-5.42,5-3.88l.09,0,166,95.83a10.38,10.38,0,0,1,3.9,4.68A12.27,12.27,0,0,1,375,118Z" transform="translate(-3.83 -9.05)"/><path class="cls-7" d="M206.73,142V29.87c0-3.74,2.27-5.45,5.07-3.84l150.32,86.79c2.8,1.62,5.07,6,5.07,9.69V234.66c0,3.73-2.27,5.45-5.07,3.83L211.8,151.71C209,150.09,206.73,145.75,206.73,142Z" transform="translate(-3.83 -9.05)"/><path class="cls-5" d="M379.93,115.17V245.39c0,2-.63,3.37-1.64,4h0l-.17.1,0,0-4.85,2.79c1.09-.61,1.78-2.05,1.78-4.11V118a12.27,12.27,0,0,0-1.17-5l4.91-2.84A12.25,12.25,0,0,1,379.93,115.17Z" transform="translate(-3.83 -9.05)"/><path class="cls-7" d="M206.73,142V29.87c0-3.74,2.27-5.45,5.07-3.83l150.32,86.78c2.8,1.62,5.07,6,5.07,9.69V234.66c0,3.74-2.27,5.45-5.07,3.83L211.8,151.71C209,150.09,206.73,145.75,206.73,142Z" transform="translate(-3.83 -9.05)"/><polygon class="cls-10" points="354.78 217.13 212.43 134.95 212.43 29.23 354.78 111.42 354.78 217.13"/><polygon class="cls-11" points="278.68 173.2 212.43 134.95 212.43 89.86 278.68 128.11 278.68 173.2"/><polygon class="cls-11" points="278.68 121.67 212.43 83.42 212.43 29.23 278.68 67.48 278.68 121.67"/><g class="cls-12"><path class="cls-13" d="M219,87.37a13.52,13.52,0,0,1,2.58-4.46,1.84,1.84,0,0,1,1.57-.8c1.43.17,3,2.41,3.79,4.38s1.4,4.08,2.68,5.8a4,4,0,0,0,1.18,1.13,1.57,1.57,0,0,0,1.58,0c2.41-1.25,3.47-4.49,4.32-7.71.3-1.13.61-2.32,1.42-2.8s2.32.06,3.11,1.5a7.73,7.73,0,0,1,.7,3,4.62,4.62,0,0,0,1.29,2.92c.95.78,1.7,0,2.09-.78.91-2,1.36-4.38,2.37-6.24s2.76-3.11,5.07-2.18a1.36,1.36,0,0,1,.57.39,2.1,2.1,0,0,1,.39,1c1.09,6,1.28,12.06,4.15,18.16a4.17,4.17,0,0,0,1.36,1.85c.8.45,1.24-.33,1.46-1.09,1.7-5.84.91-13.74,2.92-19.29.28-.78.75-1.57,1.61-1.25,1.35.5,2.1,2.93,2.41,4.65a89,89,0,0,0,2.2,9.44,4.88,4.88,0,0,0,.76,1.71c1,1.28,2.1.49,2.61-.44,2.84-5.18,5-11.31,9.35-14.46" transform="translate(-3.83 -9.05)"/><path class="cls-14" d="M216.26,69.87a16.89,16.89,0,0,1,4.36,6.67C222.88,82.1,223.74,88,227,93.15c.86-.76,1.16-2.22,1.62-3.46s1.25-2.34,2.57-2.08c2.06.4,4.06,3.76,5.1,6.56a7.14,7.14,0,0,0,1.69,3c1.34,1.11,2.2-.34,2.46-1.75,1-5.52.49-12.25,2.42-16.92.09-.23.22-.48.46-.46.47,0,.92.89,1.17,1.55q3.25,8.58,5.81,17.16c.89,3,1.72,6,2.77,9a3.42,3.42,0,0,0,.54,1.1.89.89,0,0,0,1.5-.08c1.47-1.94,1.47-5.41,2.27-8.08.13-.42.29-.83.65-.92.56-.13,1.37.61,1.85,1.45a11.78,11.78,0,0,1,1,2.61,40.53,40.53,0,0,0,2.75,7c.76,1.53,2.11,3.38,3.07,3.07.35-.11.53-.51.68-.9,2.25-5.83,1.76-14.17,4.41-19.57.19-.37.4-.74.77-.81.79-.13,1.84,1.06,2.55,2.17a43.35,43.35,0,0,1,4.11,9.86q2.64,8.1,5.76,16.19c.72,1.87,1.91,4.22,3.3,4.55" transform="translate(-3.83 -9.05)"/><path class="cls-15" d="M216.45,79.27c1.12-1.86,2.33-3.78,4.39-4.11s5.22,1.6,6.53,4.74c.55,1.33.89,3,1.91,3.75a1.47,1.47,0,0,0,2-.15,26.19,26.19,0,0,0,4.88-4.77c.37-.47.77-1,1.39-1,1.28,0,2.83,1.94,3.79,3.74s1.77,3.85,3.14,5.18,3.14,1.58,4.21.88a7.65,7.65,0,0,0,2.24-3.4c.66-1.49,1.73-3,3.48-2a10.76,10.76,0,0,1,2.19,2,30.42,30.42,0,0,0,9.11,6.2c2.44,1.2,4.93,2.35,7.15,2.45,2.69.12,4.75-1.32,6.64-2.87a119,119,0,0,0,9-8.41" transform="translate(-3.83 -9.05)"/></g><polygon class="cls-6" points="272.36 135.13 217.55 103.48 217.55 99.48 272.36 131.13 272.36 135.13"/><polygon class="cls-6" points="272.36 144.45 217.55 112.81 217.55 108.81 272.36 140.46 272.36 144.45"/><polygon class="cls-6" points="272.36 153.78 217.55 122.13 217.55 118.14 272.36 149.78 272.36 153.78"/><polygon class="cls-6" points="272.36 163.11 217.55 131.46 217.55 127.46 272.36 159.11 272.36 163.11"/><polygon class="cls-11" points="354.78 217.13 283.6 176.04 283.6 70.32 354.78 111.42 354.78 217.13"/><polygon class="cls-6" points="347.99 118.05 289.1 84.05 289.1 79.83 347.99 113.83 347.99 118.05"/><polygon class="cls-6" points="347.99 127.91 289.1 93.91 289.1 89.69 347.99 123.69 347.99 127.91"/><polygon class="cls-6" points="347.99 137.77 289.1 103.77 289.1 99.54 347.99 133.54 347.99 137.77"/><polygon class="cls-6" points="347.99 147.63 289.1 113.63 289.1 109.4 347.99 143.4 347.99 147.63"/><polygon class="cls-6" points="347.99 157.48 289.1 123.48 289.1 119.26 347.99 153.26 347.99 157.48"/><polygon class="cls-6" points="347.99 167.34 289.1 133.34 289.1 129.12 347.99 163.12 347.99 167.34"/><polygon class="cls-6" points="347.99 177.2 289.1 143.2 289.1 138.97 347.99 172.97 347.99 177.2"/><polygon class="cls-6" points="347.99 187.06 289.1 153.06 289.1 148.83 347.99 182.83 347.99 187.06"/><polygon class="cls-6" points="347.99 196.91 289.1 162.91 289.1 158.69 347.99 192.69 347.99 196.91"/><polygon class="cls-6" points="347.99 206.77 289.1 172.77 289.1 168.55 347.99 202.55 347.99 206.77"/><path class="cls-16" d="M275.06,377.22l-71.23-41.13,51.71-49.92a111.55,111.55,0,0,1,19.53,8.8C314.4,317.67,314.4,354.5,275.06,377.22Z" transform="translate(-3.83 -9.05)"/><path class="cls-17" d="M182.69,393c-18.36-2.26-35.84-7.5-50.1-15.74-15-8.65-24.27-19.36-27.83-30.56l99.07-10.57Z" transform="translate(-3.83 -9.05)"/><path class="cls-18" d="M203.83,336.09l-96.48-16.78C112,310.4,120.4,302,132.59,295a125.19,125.19,0,0,1,36.85-13.56Z" transform="translate(-3.83 -9.05)"/><path class="cls-19" d="M275.06,377.22C250,391.7,215,396.94,182.69,393l21.14-56.87Z" transform="translate(-3.83 -9.05)"/><path class="cls-3" d="M203.83,336.09l-99.07,10.57a35,35,0,0,1,2.59-27.35Z" transform="translate(-3.83 -9.05)"/><path class="cls-18" d="M203.83,336.09l-34.39-54.68c28.13-5.89,59.91-4.3,86.09,4.75h0Z" transform="translate(-3.83 -9.05)"/><polygon class="cls-3" points="99.26 297.96 99.26 327.69 107.49 327.69 105.86 298.61 99.26 297.96"/><polygon class="cls-17" points="100.93 309.18 100.93 337.62 178.86 383.91 178.86 355.47 100.93 309.18"/><polygon class="cls-19" points="271.23 339.73 271.23 368.17 178.86 383.91 178.86 355.47 271.23 339.73"/><polygon class="cls-16" points="300.73 298.61 300.73 327.04 271.23 368.17 271.23 339.73 300.73 298.61"/><path class="cls-5" d="M275.06,348.78l-71.23-41.12,51.71-49.93a112.29,112.29,0,0,1,19.53,8.8C314.4,289.24,314.4,326.07,275.06,348.78Z" transform="translate(-3.83 -9.05)"/><path class="cls-9" d="M182.69,364.52c-18.36-2.26-35.84-7.5-50.1-15.73-15-8.66-24.27-19.37-27.83-30.56l99.07-10.57Z" transform="translate(-3.83 -9.05)"/><path class="cls-6" d="M203.83,307.66l-96.48-16.79c4.63-8.91,13.05-17.3,25.24-24.34A125.19,125.19,0,0,1,169.44,253Z" transform="translate(-3.83 -9.05)"/><path class="cls-8" d="M275.06,348.78C250,363.26,215,368.51,182.69,364.52l21.14-56.86Z" transform="translate(-3.83 -9.05)"/><path class="cls-20" d="M203.83,307.66l-99.07,10.57a35,35,0,0,1,2.59-27.36Z" transform="translate(-3.83 -9.05)"/><path class="cls-10" d="M203.83,307.66,169.44,253c28.13-5.89,59.91-4.3,86.09,4.76h0Z" transform="translate(-3.83 -9.05)"/><path class="cls-21" d="M60.07,161.29,4.21,193.54V100.13L60.07,67.87c2-1.15,3.63.08,3.63,2.75v83.73C63.7,157,62.08,160.13,60.07,161.29Z" transform="translate(-3.83 -9.05)"/><polygon class="cls-22" points="18.32 104.31 3.08 95.61 56.04 65.03 71.28 73.74 18.32 104.31"/><polygon class="cls-10" points="0 91.55 15.08 100.17 15.08 193.58 0 184.97 0 91.55"/><path class="cls-21" d="M74.78,170.38,18.91,202.63V109.22L74.78,77c2-1.15,3.63.07,3.63,2.75v83.73C78.41,166.12,76.78,169.22,74.78,170.38Z" transform="translate(-3.83 -9.05)"/><path class="cls-8" d="M89.79,169.62,27.05,205.85V100.94L89.79,64.71c2.26-1.3,4.08.08,4.08,3.08v94.05C93.87,164.84,92.05,168.32,89.79,169.62Z" transform="translate(-3.83 -9.05)"/><polygon class="cls-7" points="43.37 106.75 26.26 96.97 85.74 62.63 102.85 72.41 43.37 106.75"/><polygon class="cls-6" points="22.8 92.42 39.74 102.1 39.74 207.01 22.8 197.33 22.8 92.42"/><path class="cls-8" d="M106.31,179.83,43.57,216.06V111.14l62.74-36.22c2.25-1.3,4.08.08,4.08,3.08v94C110.39,175.05,108.56,178.53,106.31,179.83Z" transform="translate(-3.83 -9.05)"/><path class="cls-10" d="M97.7,188.12,47.35,217.19V133L97.7,103.94c1.8-1,3.27.06,3.27,2.47v75.47A7.84,7.84,0,0,1,97.7,188.12Z" transform="translate(-3.83 -9.05)"/><polygon class="cls-21" points="59.69 135.88 45.95 128.04 93.69 100.48 107.42 108.33 59.69 135.88"/><polygon class="cls-22" points="43.18 124.38 56.77 132.15 56.77 216.34 43.18 208.57 43.18 124.38"/><path class="cls-10" d="M111,196.32,60.6,225.38V141.2L111,112.13c1.81-1,3.27.06,3.27,2.47v75.47A7.85,7.85,0,0,1,111,196.32Z" transform="translate(-3.83 -9.05)"/><path class="cls-16" d="M133.1,194.63,70.36,230.86V126L133.1,89.72c2.25-1.3,4.08.08,4.08,3.08v94.05C137.18,189.85,135.35,193.34,133.1,194.63Z" transform="translate(-3.83 -9.05)"/><polygon class="cls-6" points="86.68 131.76 69.57 121.98 129.05 87.64 146.16 97.42 86.68 131.76"/><polygon class="cls-5" points="66.11 117.43 83.05 127.11 83.05 232.02 66.11 222.34 66.11 117.43"/><path class="cls-16" d="M149.62,204.84,86.88,241.07V136.16l62.74-36.23c2.25-1.3,4.08.08,4.08,3.08v94C153.7,200.06,151.87,203.54,149.62,204.84Z" transform="translate(-3.83 -9.05)"/><path class="cls-21" d="M152.69,214.31,96.82,246.57V153.15l55.87-32.25c2-1.16,3.63.07,3.63,2.74v83.74C156.32,210.05,154.69,213.15,152.69,214.31Z" transform="translate(-3.83 -9.05)"/><polygon class="cls-22" points="110.93 157.34 95.69 148.63 148.66 118.05 163.9 126.76 110.93 157.34"/><polygon class="cls-10" points="92.61 144.58 107.7 153.19 107.7 246.61 92.61 237.99 92.61 144.58"/><path class="cls-21" d="M167.39,223.4l-55.86,32.26V162.24L167.39,130c2-1.16,3.63.07,3.63,2.74v83.74C171,219.14,169.4,222.24,167.39,223.4Z" transform="translate(-3.83 -9.05)"/><polygon class="cls-19" points="432.27 292.16 424.93 292.16 384.3 268.71 323.72 303.68 323.72 303.01 317.58 303.01 317.58 307.23 365.55 334.92 432.27 296.4 432.25 296.39 432.27 296.39 432.27 292.16"/><polygon class="cls-5" points="365.55 330.7 317.58 303.01 384.3 264.49 432.27 292.18 365.55 330.7"/><polygon class="cls-8" points="425.58 293.18 425.58 292.48 424.36 292.48 383.79 269.05 374.7 274.3 373.5 274.3 373.5 275.02 373.54 275.02 415.32 299.14 425.61 293.2 425.58 293.18"/><polygon class="cls-8" points="365.63 289.69 374.49 284.58 374.52 284.58 374.52 283.86 373.25 283.86 365.63 279.46 358.02 283.86 356.8 283.86 356.8 284.56 356.77 284.58 365.63 289.69"/><polygon class="cls-8" points="376.64 285.82 369.03 290.21 367.81 290.21 367.81 290.91 367.78 290.93 376.64 296.05 385.5 290.93 385.53 290.93 385.53 290.21 384.25 290.21 376.64 285.82"/><polygon class="cls-8" points="396.51 297.29 396.51 296.57 395.26 296.57 387.65 292.17 380.03 296.57 378.79 296.57 378.79 297.29 378.79 297.29 387.65 302.4 396.51 297.29"/><polygon class="cls-8" points="398.65 298.53 391.04 302.92 389.8 302.92 389.8 303.64 389.8 303.64 398.65 308.76 407.51 303.64 407.51 303.64 407.51 303.64 407.51 302.92 406.27 302.92 398.65 298.53"/><polygon class="cls-8" points="354.51 296.11 363.37 291 363.42 291 363.42 290.28 362.13 290.28 354.51 285.88 346.9 290.28 345.7 290.28 345.7 290.97 345.65 291 354.51 296.11"/><polygon class="cls-8" points="374.38 297.35 374.43 297.35 374.43 296.63 373.13 296.63 365.52 292.24 357.91 296.63 356.71 296.63 356.71 297.32 356.66 297.35 365.52 302.47 374.38 297.35"/><polygon class="cls-8" points="385.33 303.74 385.39 303.74 385.39 303.02 384.2 303.02 376.53 298.59 368.85 303.02 367.67 303.02 367.67 303.74 367.73 303.74 376.53 308.82 385.33 303.74"/><polygon class="cls-8" points="387.54 304.95 379.92 309.34 378.67 309.34 378.67 310.06 378.68 310.06 387.54 315.18 396.39 310.06 396.39 310.06 396.39 309.34 395.15 309.34 387.54 304.95"/><polygon class="cls-8" points="343.39 302.53 352.25 297.42 352.29 297.42 352.29 296.7 351 296.7 343.39 292.3 335.78 296.7 334.57 296.7 334.57 297.4 334.53 297.42 343.39 302.53"/><polygon class="cls-8" points="354.4 308.89 363.26 303.77 363.21 303.74 363.3 303.74 363.3 303.02 361.96 303.02 354.4 298.66 346.84 303.02 345.58 303.02 345.58 303.74 345.59 303.74 345.54 303.77 354.4 308.89"/><polygon class="cls-8" points="365.41 315.25 374.27 310.13 374.32 310.13 374.32 309.41 373.02 309.41 365.41 305.01 357.79 309.41 356.6 309.41 356.6 310.1 356.55 310.13 365.41 315.25"/><polygon class="cls-8" points="376.41 311.37 357.62 322.22 356.43 322.22 356.43 322.94 356.5 322.94 365.29 328.02 385.27 316.49 385.27 316.49 385.27 315.77 384.04 315.77 376.41 311.37"/><polygon class="cls-8" points="341.13 303.84 341.13 303.12 339.88 303.12 332.27 298.72 324.66 303.12 323.41 303.12 323.41 303.84 323.41 303.84 332.27 308.95 341.13 303.84"/><polygon class="cls-8" points="352.14 310.19 352.14 310.19 352.14 309.48 350.89 309.48 343.28 305.08 335.67 309.48 334.42 309.48 334.42 310.19 334.42 310.19 343.28 315.31 352.14 310.19"/><polygon class="cls-8" points="363.1 316.58 363.19 316.58 363.19 315.86 361.95 315.86 354.29 311.43 346.62 315.86 345.47 315.86 345.47 316.53 345.43 316.55 345.47 316.57 345.47 316.58 345.48 316.58 354.29 321.67 363.1 316.58"/><polygon class="cls-23" points="425.61 292.48 383.79 268.33 373.5 274.27 415.32 298.42 425.61 292.48"/><polygon class="cls-6" points="365.63 288.97 356.77 283.86 365.63 278.74 374.49 283.86 365.63 288.97"/><polygon class="cls-6" points="376.64 295.33 367.78 290.21 376.64 285.1 385.5 290.21 376.64 295.33"/><polygon class="cls-6" points="387.65 301.68 378.79 296.57 387.65 291.45 396.51 296.57 387.65 301.68"/><polygon class="cls-6" points="398.65 308.04 389.8 302.92 398.65 297.81 407.51 302.92 398.65 308.04"/><polygon class="cls-6" points="354.51 295.39 345.65 290.28 354.51 285.16 363.37 290.28 354.51 295.39"/><polygon class="cls-6" points="365.52 301.75 356.66 296.63 365.52 291.52 374.38 296.63 365.52 301.75"/><polygon class="cls-6" points="376.53 308.11 367.67 302.99 376.53 297.87 385.39 302.99 376.53 308.11"/><polygon class="cls-6" points="387.54 314.46 378.67 309.34 387.54 304.23 396.39 309.34 387.54 314.46"/><polygon class="cls-6" points="343.39 301.81 334.53 296.7 343.39 291.58 352.25 296.7 343.39 301.81"/><polygon class="cls-6" points="354.4 308.17 345.54 303.05 354.4 297.94 363.26 303.05 354.4 308.17"/><polygon class="cls-6" points="365.41 314.52 356.55 309.41 365.41 304.29 374.27 309.41 365.41 314.52"/><polygon class="cls-23" points="365.29 327.3 356.43 322.19 376.41 310.65 385.27 315.76 365.29 327.3"/><polygon class="cls-6" points="332.27 308.24 323.41 303.12 332.27 298 341.13 303.12 332.27 308.24"/><polygon class="cls-6" points="343.28 314.59 334.42 309.47 343.28 304.36 352.14 309.48 343.28 314.59"/><polygon class="cls-6" points="354.29 320.94 345.43 315.83 354.29 310.71 363.15 315.83 354.29 320.94"/><polygon class="cls-8" points="317.58 307.23 317.58 303.01 365.55 330.7 365.55 334.92 317.58 307.23"/><ellipse class="cls-8" cx="159.84" cy="244.43" rx="17.4" ry="30.13" transform="translate(-104.63 103.62) rotate(-30)"/><path class="cls-16" d="M206.26,303.79,174,267.36l4.31-4.3,36.43,32.29a6,6,0,0,1,0,8.44h0A6,6,0,0,1,206.26,303.79Z" transform="translate(-3.83 -9.05)"/><path class="cls-8" d="M203.82,305.74l-32.29-36.43,4.3-4.3,36.43,32.29a6,6,0,0,1,0,8.44h0A6,6,0,0,1,203.82,305.74Z" transform="translate(-3.83 -9.05)"/><ellipse class="cls-9" cx="155.58" cy="246.99" rx="17.4" ry="30.13" transform="translate(-106.48 101.83) rotate(-30)"/><path class="cls-24" d="M155.58,265.74c-9-5.17-16.24-17.79-16.24-28.13s7.28-14.55,16.24-9.38,16.24,17.79,16.24,28.14S164.54,270.92,155.58,265.74Z" transform="translate(-3.83 -9.05)"/><path class="cls-25" d="M142,251.38c-.09-.14-.18-.27-.26-.41a18.31,18.31,0,0,1-1.79-3.39c-.19-.55-.31-1.12-.55-1.65a2.47,2.47,0,0,0-1.11-1.29,3.77,3.77,0,0,0,.59,1.77,30,30,0,0,1-2.45-3.27c-.12,0-.2.14-.25.25a4.9,4.9,0,0,0-.4,1.76,2.32,2.32,0,0,0,.11.87,2.36,2.36,0,0,0,.53.77c.6.64,1.54,1.15,1.85,2a6,6,0,0,1,.49,1.29c.25,1.09.52,2.18.78,3.27s1,4.12,2.31,4.75a1.41,1.41,0,0,0,1.87-.29,2.32,2.32,0,0,0,.2-2.21A17.43,17.43,0,0,0,142,251.38Z" transform="translate(-3.83 -9.05)"/><path class="cls-25" d="M151.42,268.13A4.61,4.61,0,0,0,151,267a40.74,40.74,0,0,0-6.71-10.23,3.28,3.28,0,0,0-1.05-.83,1.5,1.5,0,0,0-1.38,0,1.37,1.37,0,0,0-.62,1.17,3.16,3.16,0,0,0,.31,1.27,35.93,35.93,0,0,0,5.64,9.71,4.36,4.36,0,0,0,2.12,1.62,2.23,2.23,0,0,0,1.73-.19A1.4,1.4,0,0,0,151.42,268.13Z" transform="translate(-3.83 -9.05)"/><path class="cls-25" d="M172.58,253.84l.35-.31a18.4,18.4,0,0,0,2.66-2.78c.33-.48.6-1,1-1.44a2.48,2.48,0,0,1,1.42-.94,3.8,3.8,0,0,1-1,1.55,30,30,0,0,0,3.25-2.48.36.36,0,0,1,.16.31,4.8,4.8,0,0,1-.09,1.81,2.36,2.36,0,0,1-.34.8,2.62,2.62,0,0,1-.72.6c-.75.44-1.8.68-2.32,1.38a5.92,5.92,0,0,0-.82,1.1c-.55,1-1.1,2-1.64,2.94s-2.09,3.68-3.53,3.93a1.4,1.4,0,0,1-1.71-.79,2.31,2.31,0,0,1,.4-2.18A17.68,17.68,0,0,1,172.58,253.84Z" transform="translate(-3.83 -9.05)"/><path class="cls-25" d="M171.55,259.84a1.42,1.42,0,0,1-.08.18,3.34,3.34,0,0,1-.86,1,38.26,38.26,0,0,1-6.32,4.45,33.35,33.35,0,0,1-3.18,1.55,4.36,4.36,0,0,1-2.63.45,2.26,2.26,0,0,1-1.44-1,1.39,1.39,0,0,1,.28-1.42,4.66,4.66,0,0,1,.94-.83,40.56,40.56,0,0,1,10.68-6,3.3,3.3,0,0,1,1.32-.25,1.5,1.5,0,0,1,1.2.67A1.34,1.34,0,0,1,171.55,259.84Z" transform="translate(-3.83 -9.05)"/><path class="cls-5" d="M151.67,267.21a8,8,0,0,0-.53-1.49l-.49-1.14c-.15-.34-.3-.69-.48-1a9.93,9.93,0,0,0-.59-.94l-1-1.59a10.41,10.41,0,0,0-5.28,4.19,19.32,19.32,0,0,0,2,2.28,8.36,8.36,0,0,0,2.33,1.77,5.2,5.2,0,0,0,3,.39C151.6,269.45,151.85,268.09,151.67,267.21Z" transform="translate(-3.83 -9.05)"/><path class="cls-26" d="M156.17,263.44a4.79,4.79,0,0,1-4.52,1.37,7.43,7.43,0,0,0-1.38-.31,2.94,2.94,0,0,0,1.13-2,5.58,5.58,0,0,0-.08-2.57c0-.17-.43-.89-.25-1s1,.25,1.23.25a2.18,2.18,0,0,0,.76-.19l.13-.06h0a8.67,8.67,0,0,1,.83-.36.31.31,0,0,1,.19,0,.28.28,0,0,1,.13.09l1.11,1a7.06,7.06,0,0,0-.28,1.12.28.28,0,0,0,0,.09,6.58,6.58,0,0,0-.08,1.09c0,.1,0,.21,0,.31a1.69,1.69,0,0,0,.08.39A1.24,1.24,0,0,0,156.17,263.44Z" transform="translate(-3.83 -9.05)"/><path class="cls-25" d="M157.54,259.94a1.61,1.61,0,0,1-1,1,4.17,4.17,0,0,1-1-.06l-.33-.05a3.44,3.44,0,0,1-1-.28,4.57,4.57,0,0,1-.88-1.22l0-.1a2.43,2.43,0,0,0-.15-.26,2.52,2.52,0,0,1-.36-.85,3.59,3.59,0,0,1,1.23-2.71,5,5,0,0,1,2.31-1.61,2.67,2.67,0,0,1,1.58-.15c.45.13.39.46.42.87A11.46,11.46,0,0,1,157.54,259.94Z" transform="translate(-3.83 -9.05)"/><path class="cls-19" d="M154,260.42a5,5,0,0,0,.82-.83,24.58,24.58,0,0,0,1.17-2.55,3.85,3.85,0,0,1,1.24-1.3,9.44,9.44,0,0,0,1.28-.8,2.74,2.74,0,0,0,.83-2.06,5.67,5.67,0,0,0-.55-2.21,1.91,1.91,0,0,1-1.18.49c-1.19.16-2.39.05-3.59.16a4.72,4.72,0,0,0-3.21,1.4,5.56,5.56,0,0,0-1,3.6,8.23,8.23,0,0,0,.12,1.92,5.27,5.27,0,0,0,1.06,2.24C151.83,261.55,153,261.21,154,260.42Z" transform="translate(-3.83 -9.05)"/><path class="cls-25" d="M156.23,256.76a1,1,0,0,0-.38-.37.45.45,0,0,0-.51.06.46.46,0,0,0-.12.39,1.15,1.15,0,0,0,.12.4,4.8,4.8,0,0,0,.7,1.3c.05.07.13.14.21.11s.08-.06.11-.1.16-.32.19-.44a1.59,1.59,0,0,0,0-.53s0,0,0,0C156.41,257.41,156.39,257,156.23,256.76Z" transform="translate(-3.83 -9.05)"/><path class="cls-19" d="M149.29,318.16a2.34,2.34,0,0,0,0,1,1.57,1.57,0,0,0,1.66.93,4.44,4.44,0,0,0,1.88-.78,16.54,16.54,0,0,0,2.74-1.94,3.19,3.19,0,0,0,.77-1,1.4,1.4,0,0,0,0-1.23,1.55,1.55,0,0,0-1.74-.54,9.92,9.92,0,0,0-1.78.83c-.81.37-1.29.66-2.12,1A1.77,1.77,0,0,0,149.29,318.16Z" transform="translate(-3.83 -9.05)"/><path class="cls-10" d="M148.2,286.53a27.61,27.61,0,0,0,.51,6.34c.32,2.21.58,4.43.75,6.66a11.83,11.83,0,0,1,0,2.06,30.61,30.61,0,0,1-.76,3.25,18.71,18.71,0,0,0,0,5.64c.12,1.24.24,2.49.37,3.73a17.91,17.91,0,0,0,.59,3.5,1.74,1.74,0,0,0,2-.4,47.94,47.94,0,0,1,1.57-9.67c.27-1,.57-2,.74-3s.22-2.3.3-3.45c.29-4.41,1.27-8.81.88-13.21a41.32,41.32,0,0,0-.87-5.05.87.87,0,0,0-.17-.42.77.77,0,0,0-.48-.18l-2.72-.42c-.54-.08-1.27-.35-1.7.12a5,5,0,0,0-.66,2.06A15.4,15.4,0,0,0,148.2,286.53Z" transform="translate(-3.83 -9.05)"/><path class="cls-19" d="M158.28,320a2.42,2.42,0,0,0,0,1.07,1.7,1.7,0,0,0,1.75,1.08,4.9,4.9,0,0,0,2.07-.73c1-.54,2-1.08,3-1.71a3.65,3.65,0,0,0,1.42-1.39,1.42,1.42,0,0,0-.41-1.79c-.64-.36-1.41,0-2.09.27a12.89,12.89,0,0,1-2.28.57,10.68,10.68,0,0,0-2.81.53C158.33,318.2,158.39,319.31,158.28,320Z" transform="translate(-3.83 -9.05)"/><path class="cls-10" d="M153.47,290.46c.44.66,1,1.27,1.4,2a13.85,13.85,0,0,1,1.26,3,30.68,30.68,0,0,1,1.91,8.77c0,2.1-.37,4.19-.42,6.29a36.73,36.73,0,0,0,.2,4.19l.36,4.28a5.83,5.83,0,0,0,3.38-.7,47.55,47.55,0,0,1,.79-10.58c.3-1.68.65-3.36.8-5.06a44.11,44.11,0,0,0-.5-9.39,50.86,50.86,0,0,0-2.32-11.43c.1.25-6.49.89-7.05.94-2.1.21-1.53,2.74-1.22,4.26A9.75,9.75,0,0,0,153.47,290.46Z" transform="translate(-3.83 -9.05)"/><path class="cls-21" d="M152,299.38a14.74,14.74,0,0,1,.55,2.15,11.45,11.45,0,0,1,0,2.55c-.08,1-.17,1.92-.25,2.89-.22,2.49-.4,5-.8,7.45a10.63,10.63,0,0,0,.28,2.9,79.67,79.67,0,0,0,2-9.32A86.83,86.83,0,0,0,154.79,297c.05-1.07.11-2.13.17-3.2a3,3,0,0,0-.22-1.59,3.35,3.35,0,0,0-1.23-1,29.23,29.23,0,0,1-3-2.67c-.37.49,0,1.78,0,2.37.08,1,.17,1.92.29,2.88A36.22,36.22,0,0,0,152,299.38Z" transform="translate(-3.83 -9.05)"/><path class="cls-5" d="M160.7,275.33a16.53,16.53,0,0,0,.17-2,12.1,12.1,0,0,0-.7-3.5c-.47-1.54-.93-3.08-1.4-4.62a8.52,8.52,0,0,0-.62-1.64,5.08,5.08,0,0,1-2.26-.15l.11.08a5.4,5.4,0,0,1-3.66,1.23h0c-.14-.07-.38-.05-.56-.13a3.2,3.2,0,0,1-.48-.26c-.22-.14-.49-.45-.37-.74a2,2,0,0,1-1.24.44,1.79,1.79,0,0,0-1.11.3,2.86,2.86,0,0,0-.88,1.73l0,.09a4.62,4.62,0,0,0-.06,1.74,24.41,24.41,0,0,0,.56,3.61c.18.75.43,1.47.56,2.23.56,3-.69,6.18-.1,9.2a1.57,1.57,0,0,1,1,.49,5.93,5.93,0,0,0,3.53,1.09c1.26,0,2.5-.16,3.76-.19,1.43,0,3,.07,4.1-.86A35.32,35.32,0,0,1,160.7,275.33Z" transform="translate(-3.83 -9.05)"/><path class="cls-8" d="M158,264.63a.94.94,0,0,0-1.18.37,2.39,2.39,0,0,0-.31,1.32c-.06,2.74.76,5.42,1,8.15a5,5,0,0,1-.08,1.73c-.14.54-.42,1-.6,1.57a6.54,6.54,0,0,0-.08,3.26,28.19,28.19,0,0,1,.58,3.26,14.25,14.25,0,0,0,4-.82.37.37,0,0,0,.2-.14.33.33,0,0,0,0-.26,29.46,29.46,0,0,1-.31-7.85,14.81,14.81,0,0,0,0-2,12.45,12.45,0,0,0-.31-1.81,9.08,9.08,0,0,0-1.67-4.07,12.51,12.51,0,0,1-1.1-1.21,1.5,1.5,0,0,1-.19-1.53c.12.18.24.37.37.55" transform="translate(-3.83 -9.05)"/><path class="cls-5" d="M156.31,264.91a7.76,7.76,0,0,1,1.07-1.15l.92-.85c.27-.25.55-.51.85-.74s.6-.43.91-.63l1.6-1a10.45,10.45,0,0,1,3.15,6,20.45,20.45,0,0,1-2.71,1.3,8.51,8.51,0,0,1-2.84.69,5.15,5.15,0,0,1-2.9-.85C155.47,267,155.79,265.64,156.31,264.91Z" transform="translate(-3.83 -9.05)"/><path class="cls-27" d="M155.23,262.31c.07.06,0,0,0,0Z" transform="translate(-3.83 -9.05)"/><path class="cls-25" d="M337.62,299.14l-.49-.08a19.6,19.6,0,0,1-3.84-.95c-.55-.24-1.07-.53-1.64-.72a2.51,2.51,0,0,0-1.75,0,3.82,3.82,0,0,0,1.76.77,32.75,32.75,0,0,1-4.19-.36.36.36,0,0,0,0,.36,4.87,4.87,0,0,0,1.08,1.51,2.19,2.19,0,0,0,.73.51,2.62,2.62,0,0,0,1,.13c.9,0,1.93-.4,2.78-.08a6.41,6.41,0,0,1,1.32.5c1,.56,2,1.11,3.05,1.65s3.84,2.06,5.23,1.48a1.44,1.44,0,0,0,1.05-1.63c-.09-.84-.81-1.28-1.55-1.67A17.84,17.84,0,0,0,337.62,299.14Z" transform="translate(-3.83 -9.05)"/><path class="cls-25" d="M338.51,288.2a4.57,4.57,0,0,0-.06,1.28,41.8,41.8,0,0,0,2.14,12.42,3.41,3.41,0,0,0,.66,1.21,1.55,1.55,0,0,0,1.31.53,1.42,1.42,0,0,0,1.07-.85,3.53,3.53,0,0,0,.23-1.32,37.25,37.25,0,0,0-1.35-11.5,4.52,4.52,0,0,0-1.35-2.4,2.31,2.31,0,0,0-1.7-.52A1.42,1.42,0,0,0,338.51,288.2Z" transform="translate(-3.83 -9.05)"/><path class="cls-25" d="M324.63,296.37c-.05-.16-.1-.31-.14-.47a18.94,18.94,0,0,1-.88-3.86c0-.59,0-1.2-.09-1.79a2.6,2.6,0,0,0-.76-1.58,3.79,3.79,0,0,0,.11,1.92,30,30,0,0,1-1.56-3.91c-.13,0-.23.09-.31.19a5.1,5.1,0,0,0-.88,1.64,2,2,0,0,0,.2,1.8c.42.79,1.22,1.55,1.31,2.45a5.75,5.75,0,0,1,.14,1.41c0,1.15-.07,2.31-.11,3.46,0,1.3-.11,4.36,1,5.34a1.45,1.45,0,0,0,1.94.21,2.4,2.4,0,0,0,.79-2.14A18.42,18.42,0,0,0,324.63,296.37Z" transform="translate(-3.83 -9.05)"/><path class="cls-21" d="M337.89,289a7.88,7.88,0,0,0-.11,1.61v1.29a11.34,11.34,0,0,0,0,1.16c0,.38.1.75.16,1.13.12.64.23,1.28.34,1.93a10.8,10.8,0,0,0,6.71-1.8,21.59,21.59,0,0,0-.92-3,8.75,8.75,0,0,0-1.48-2.63,5.39,5.39,0,0,0-2.67-1.59C338.88,286.87,338.08,288.06,337.89,289Z" transform="translate(-3.83 -9.05)"/><path class="cls-26" d="M332.54,286.2a4.94,4.94,0,0,0,4.65,1.41,7.26,7.26,0,0,1,1.42-.32,3,3,0,0,1-1.16-2,5.79,5.79,0,0,1,.08-2.65c.05-.17.44-.91.26-1.05s-1,.26-1.27.26a2.25,2.25,0,0,1-.79-.2l-.12-.06h0c-.29-.12-.57-.27-.86-.37a.31.31,0,0,0-.19,0,.42.42,0,0,0-.14.09l-1.14,1a7.75,7.75,0,0,1,.29,1.15s0,.07,0,.1a7,7,0,0,1,.08,1.12c0,.11,0,.22,0,.32a1.43,1.43,0,0,1-.09.41A1.28,1.28,0,0,1,332.54,286.2Z" transform="translate(-3.83 -9.05)"/><path class="cls-25" d="M331.13,282.59a1.65,1.65,0,0,0,1,1.08,4.6,4.6,0,0,0,1.07-.07l.34-.05a3.54,3.54,0,0,0,1.05-.29,4.86,4.86,0,0,0,.91-1.25l0-.11.14-.27a2.42,2.42,0,0,0,.38-.87c0-1.6-.68-2-1.27-2.79a5,5,0,0,0-2.37-1.65,2.69,2.69,0,0,0-1.63-.16c-.47.13-.41.47-.43.89A11.6,11.6,0,0,0,331.13,282.59Z" transform="translate(-3.83 -9.05)"/><path class="cls-28" d="M339.62,342.55a2.43,2.43,0,0,1,0,1,1.64,1.64,0,0,1-1.72,1,4.77,4.77,0,0,1-1.94-.8,17.45,17.45,0,0,1-2.81-2,3.41,3.41,0,0,1-.8-1,1.4,1.4,0,0,1,0-1.26,1.61,1.61,0,0,1,1.8-.57,10.87,10.87,0,0,1,1.83.86c.83.38,1.32.68,2.18,1A1.83,1.83,0,0,1,339.62,342.55Z" transform="translate(-3.83 -9.05)"/><path class="cls-29" d="M340.75,310a28.71,28.71,0,0,1-.53,6.53c-.34,2.28-.59,4.57-.77,6.86a11.57,11.57,0,0,0,0,2.12c.12,1.14.55,2.22.78,3.34a18.86,18.86,0,0,1,0,5.81c-.13,1.28-.25,2.57-.38,3.85a17.5,17.5,0,0,1-.62,3.6,1.77,1.77,0,0,1-2.07-.42,49.31,49.31,0,0,0-1.62-10c-.27-1-.58-2-.76-3.08a35.12,35.12,0,0,1-.31-3.56c-.3-4.54-1.31-9.06-.9-13.6a41.69,41.69,0,0,1,.89-5.19.83.83,0,0,1,.18-.44.88.88,0,0,1,.49-.19l2.8-.42c.56-.09,1.31-.36,1.76.12a5.13,5.13,0,0,1,.67,2.12A17.63,17.63,0,0,1,340.75,310Z" transform="translate(-3.83 -9.05)"/><path class="cls-28" d="M330.36,344.4a2.72,2.72,0,0,1,0,1.1,1.77,1.77,0,0,1-1.8,1.11,5.09,5.09,0,0,1-2.14-.75c-1.05-.56-2.1-1.11-3.1-1.76a3.79,3.79,0,0,1-1.46-1.43,1.47,1.47,0,0,1,.43-1.85c.65-.37,1.45,0,2.15.28a13.25,13.25,0,0,0,2.35.59,10.88,10.88,0,0,1,2.88.54C330.31,342.59,330.25,343.72,330.36,344.4Z" transform="translate(-3.83 -9.05)"/><path class="cls-29" d="M335.32,314c-.46.69-1,1.32-1.45,2a14.45,14.45,0,0,0-1.29,3.12,31.34,31.34,0,0,0-2,9c0,2.16.38,4.31.44,6.47a38.75,38.75,0,0,1-.21,4.31c-.12,1.48-.25,3-.38,4.42a6.05,6.05,0,0,1-3.48-.73,47.88,47.88,0,0,0-.81-10.88c-.3-1.74-.66-3.47-.82-5.22a45.46,45.46,0,0,1,.51-9.67,52.78,52.78,0,0,1,2.39-11.77c-.09.26,6.68.91,7.27,1,2.16.22,1.57,2.83,1.24,4.39A9.8,9.8,0,0,1,335.32,314Z" transform="translate(-3.83 -9.05)"/><path class="cls-30" d="M340,296c.23-.18.79-.12,1.08-.18a1,1,0,0,0,.5-.2c.19-.18.09-.39.05-.66a15.22,15.22,0,0,1-.15-3.38c0-.38.08-.74.08-1.13a2.56,2.56,0,0,0-.13-.68c-.4.43-.3,1.45-.46,2s-.34,1.17-.46,1.77c-.08.43,0,.88-.12,1.32A3.39,3.39,0,0,1,340,296Z" transform="translate(-3.83 -9.05)"/><path class="cls-31" d="M336.87,323.21a15.46,15.46,0,0,0-.57,2.2,11.57,11.57,0,0,0,0,2.63c.08,1,.17,2,.25,3,.23,2.57.42,5.14.83,7.68a11.34,11.34,0,0,1-.29,3,82.41,82.41,0,0,1-2.07-9.6A88.38,88.38,0,0,1,334,320.7l-.17-3.29a3,3,0,0,1,.22-1.64,3.43,3.43,0,0,1,1.26-1.06,27.85,27.85,0,0,0,3.07-2.75c.38.51,0,1.83,0,2.44-.08,1-.17,2-.29,3A37.48,37.48,0,0,1,336.87,323.21Z" transform="translate(-3.83 -9.05)"/><path class="cls-3" d="M325.55,293l8-.92c.41-.05.51-.39.23-.78l-7.58-10.22a1.54,1.54,0,0,0-1.26-.61l-8,.92c-.41.05-.51.39-.23.78l7.58,10.22A1.54,1.54,0,0,0,325.55,293Z" transform="translate(-3.83 -9.05)"/><path class="cls-4" d="M332.78,291.06l-7.1-9.57a.85.85,0,0,0-.71-.34l-7.11.81c-.23,0-.29.23-.13.45l7.1,9.57a.85.85,0,0,0,.71.34l7.11-.81C332.88,291.48,332.94,291.28,332.78,291.06Z" transform="translate(-3.83 -9.05)"/><path class="cls-21" d="M327.87,298.44a17.54,17.54,0,0,1-.17-2,12.38,12.38,0,0,1,.72-3.6l1.44-4.76a8.4,8.4,0,0,1,.64-1.69,5.1,5.1,0,0,0,2.33-.15l-.11.08a5.47,5.47,0,0,0,3.76,1.26h0c.15-.07.4,0,.58-.13a4.59,4.59,0,0,0,.49-.26c.23-.15.5-.47.38-.76a2.07,2.07,0,0,0,1.28.44,1.89,1.89,0,0,1,1.14.31,3,3,0,0,1,.91,1.79l0,.09a4.68,4.68,0,0,1,.06,1.79,25.91,25.91,0,0,1-.57,3.72c-.19.77-.45,1.52-.59,2.29-.57,3.12.71,6.37.12,9.48-.38,0-.7.27-1,.5a6,6,0,0,1-3.63,1.12c-1.3,0-2.58-.16-3.87-.2-1.47,0-3.11.08-4.22-.88A36.84,36.84,0,0,0,327.87,298.44Z" transform="translate(-3.83 -9.05)"/><path class="cls-30" d="M330.69,287.43a1,1,0,0,1,1.22.38,2.41,2.41,0,0,1,.32,1.35c.06,2.82-.78,5.58-1,8.4a5.32,5.32,0,0,0,.08,1.78c.14.55.44,1.06.62,1.61a6.7,6.7,0,0,1,.08,3.36,29.79,29.79,0,0,0-.6,3.35,13.92,13.92,0,0,1-4.09-.84.36.36,0,0,1-.21-.15.33.33,0,0,1,0-.26,30.77,30.77,0,0,0,.32-8.08,14.17,14.17,0,0,1,0-2.06,11.67,11.67,0,0,1,.32-1.86,9.26,9.26,0,0,1,1.72-4.2,13.17,13.17,0,0,0,1.13-1.24,1.57,1.57,0,0,0,.2-1.58l-.38.57" transform="translate(-3.83 -9.05)"/><path class="cls-28" d="M334.91,283a4.26,4.26,0,0,1-.76-.77,22.18,22.18,0,0,1-1.1-2.37,3.63,3.63,0,0,0-1.15-1.22,9.1,9.1,0,0,1-1.19-.74,3,3,0,0,1-1.08-2,3.11,3.11,0,0,1,1.67-2.07c4.82-1.92,6.47.91,7.19,1.76a4.51,4.51,0,0,1,.88,3.09,8.39,8.39,0,0,1-.48,2.38,7.08,7.08,0,0,1-1.18,2C336.89,284.05,335.8,283.73,334.91,283Z" transform="translate(-3.83 -9.05)"/><path class="cls-25" d="M324.91,303.16a1,1,0,0,0,.17-.1,3.31,3.31,0,0,0,.91-1,39.11,39.11,0,0,0,3.87-7,31.7,31.7,0,0,0,1.24-3.42,4.44,4.44,0,0,0,.18-2.74,2.29,2.29,0,0,0-1.15-1.37,1.43,1.43,0,0,0-1.42.44,4.53,4.53,0,0,0-.74,1.05,41.75,41.75,0,0,0-5,11.59,3.51,3.51,0,0,0-.11,1.37,1.57,1.57,0,0,0,.82,1.16A1.41,1.41,0,0,0,324.91,303.16Z" transform="translate(-3.83 -9.05)"/><path class="cls-21" d="M328.45,287a7.32,7.32,0,0,0-1.06,1.23l-.77,1c-.24.31-.47.63-.67.95s-.38.67-.55,1c-.29.58-.59,1.16-.89,1.74a10.75,10.75,0,0,0,6.45,2.59,22.89,22.89,0,0,0,1-2.91,8.73,8.73,0,0,0,.39-3,5.29,5.29,0,0,0-1.18-2.88C330.49,285.92,329.14,286.39,328.45,287Z" transform="translate(-3.83 -9.05)"/><path class="cls-21" d="M333.5,285c-.06.07,0,0,0,0Z" transform="translate(-3.83 -9.05)"/><path class="cls-25" d="M332.48,279.32a.92.92,0,0,1,.39-.39.47.47,0,0,1,.53.07.51.51,0,0,1,.12.4,1.36,1.36,0,0,1-.13.42,4.9,4.9,0,0,1-.72,1.33.23.23,0,0,1-.22.12.29.29,0,0,1-.11-.11c0-.12-.16-.33-.2-.46a1.91,1.91,0,0,1-.05-.54s0,0,0,0C332.3,280,332.32,279.58,332.48,279.32Z" transform="translate(-3.83 -9.05)"/><path class="cls-26" d="M79.53,264.87a1.34,1.34,0,0,0,0,.69,1,1,0,0,0,.34.32,3.23,3.23,0,0,0,3.6-.07,1,1,0,0,0,.37-.43,1.18,1.18,0,0,0-.17-.77,19.77,19.77,0,0,1-1.44-5.44c0,.12-1.17.81-1.31.91l-1.36.95c-.3.21-.61.39-.59.79a8.63,8.63,0,0,0,.38,1.29A6.13,6.13,0,0,1,79.53,264.87Z" transform="translate(-3.83 -9.05)"/><path class="cls-25" d="M87.26,271c-.64,0-.84.47-.63.79-.32.4-.32.79-.52,5.46,0,1,0,2.13.07,2.88,0,.21,0,.84.23,1h0c.46.4,1.42.11,1.67.33a.46.46,0,0,0,.65,0c.33-.35.18-3.95.19-6.23,0-3.81.6-3.53-1.09-4.14a1.62,1.62,0,0,0-.57-.12" transform="translate(-3.83 -9.05)"/><path class="cls-8" d="M68.16,274.34a1.25,1.25,0,0,0-1.31,1,1.49,1.49,0,0,0,.43,1.38c3.49,4.22,5,4.37,7.17,5.69,3.15,1.93,2.72,1.19,4.81,1.79,2.71.8,3.09,1.09,5.63,1.19.75,0,5.31.3,6.33-.07.84-.31.61-1.16.24-1.65-.17-.22-.51-.56-.47-.52-.32-.32-.59-.68-.89-1a13.13,13.13,0,0,0-3.4-2.62,10.53,10.53,0,0,0-3.09-.81h.06a14.77,14.77,0,0,0-3.93,0A13.13,13.13,0,0,0,76,276.21a24.79,24.79,0,0,0-7.87-1.87" transform="translate(-3.83 -9.05)"/><path class="cls-5" d="M68,274.27c-1.66,0-3.54,2.45-.6,6.09,1.11,1.51,5.65,6.84,6,7.12.68.65.92.67,1.27,1.1a29.43,29.43,0,0,0,2.7,3.8c.13.13.62.45.77.56,2.1,1.69,3.29,0,2.68-1.65-.43-1.15-1-1.21-1.84-3.22h0c-1.06-2.48-1.72-2-2.69-4.19v0a21,21,0,0,0-3.48-6.27v0l-.34-.44,0,0c-.39-.5-1.64-1.82-1.91-2.07a2.7,2.7,0,0,0-2-.86,2.67,2.67,0,0,0-.51-.05" transform="translate(-3.83 -9.05)"/><path class="cls-9" d="M87.74,281.67h0a9.08,9.08,0,0,0-3.26,1.07h0l-1.43.65c-.32.13-.66.26-1,.41h0l-1.06.5-1.24.53h0l-.59.25h0l-.17.07h0a15.09,15.09,0,0,1-3.51.92,16.93,16.93,0,0,1-2.41.43,1.81,1.81,0,0,1-.64-.09l-.41-.15a2.08,2.08,0,0,0-1.4-.27,3,3,0,0,0-1.52.75,6.65,6.65,0,0,1-1.29.85,14.59,14.59,0,0,0-1.71,1.16c-.71.59-1.24.87-1.28,1.47a.69.69,0,0,0,.33.63,6.36,6.36,0,0,0,2.2.47,7.05,7.05,0,0,0,2.4-.45,15.9,15.9,0,0,1,2.81-.76c.91-.13,8.36-.44,9.26-.55a28.76,28.76,0,0,0,6.25-1.65,12.61,12.61,0,0,0,2.44-1.21,7.16,7.16,0,0,0,.76-.65c.53-.66.56-.87.52-1.36-.17-1.87-2.17-3-4.15-3m-8.65,3.43.08,0-.08,0m-13.35,5h0l.18.07-.18-.06" transform="translate(-3.83 -9.05)"/><path class="cls-10" d="M70.15,265.12,67,264.86a.28.28,0,0,0-.26.1h0l-.16.25.15.08a.14.14,0,0,0,0,.06l2.52,5.35a1,1,0,0,0,.75.56l3,.25h0l.24.13.16-.24h0a.41.41,0,0,0,0-.37l-2.52-5.34A1,1,0,0,0,70.15,265.12Z" transform="translate(-3.83 -9.05)"/><path class="cls-8" d="M73,271.73l-3.11-.26a1.06,1.06,0,0,1-.75-.57l-2.51-5.34c-.14-.29,0-.51.25-.48l3.11.26a1,1,0,0,1,.75.56l2.51,5.35C73.41,271.54,73.3,271.75,73,271.73Z" transform="translate(-3.83 -9.05)"/><path class="cls-25" d="M70.54,267a1.18,1.18,0,0,0-.47.15,1.29,1.29,0,0,0-.38.42l0,0a7.31,7.31,0,0,0-.88,1.53c-.43,1,.34,3.2.67,3.77h0c.64,1.71.08,1.45,2.28,3.41a6.46,6.46,0,0,0,1.49,1.24c.2.09.18.17.39.28,1.36.66,2.19-3.07,2.43-4.57s.61-1.83,0-2.87a9.54,9.54,0,0,1-.51-2.23c-.08-.62,0-1-.31-1-.5,0-.67,1.67-.7,2.16a12.39,12.39,0,0,1-.43,2.4,10.73,10.73,0,0,1-.75,2.8A17.68,17.68,0,0,1,71.47,272l-.07-.17,0-.62a17.75,17.75,0,0,0,0-2.13c0-.91.06-2.07-.86-2.07" transform="translate(-3.83 -9.05)"/><path class="cls-21" d="M77.47,262.23c-2.5,0-2.52,2.27-3,3.42l0,0a17,17,0,0,0-.54,1.91c-.13.44-.25,1,.1,1.27.58.49.9-.25,1.47,1.9a4.5,4.5,0,0,1,.18,2,17.27,17.27,0,0,1-.15,2.26h0c-.39,2.36-.64,1.5,1.72,3.12a3.47,3.47,0,0,1,.43.29,4.06,4.06,0,0,0,.66.48c1.44,1,1.16,1,2.57,1.12a33.84,33.84,0,0,0,5.17-.25c.76-.15.38-1.06.57-3,0,0,.06-1.47.06-1.82,2,.33,2.81.53,3.1,0a23.22,23.22,0,0,0,.32-4.11c0-.29-.24-1.61-.21-1.46a3.78,3.78,0,0,0-1.38-2.66c-.17-.09-.63-.25-.54-.22a5.75,5.75,0,0,0-.79-.4c-.89-.4-1.06-.28-1.69-.73a3.48,3.48,0,0,0-1.07-.67,1.8,1.8,0,0,0-.84-.32c-.89,0-.45,1.16-2.53,1A1.34,1.34,0,0,1,79.92,264c.37-.39.08-1-.49-1.18a.7.7,0,0,1-.17-.09,3.94,3.94,0,0,0-1.79-.49" transform="translate(-3.83 -9.05)"/><path class="cls-25" d="M78.72,255.12a2.26,2.26,0,0,0-1.42.55c-1.54.55-1.76,3.09-1.24,4.54.4,1.11,1.8,4.71,3,4.71.85,0,1.77-1.24,2.12-2.33.41-1.31,1.22-3.39.17-5.68a3.8,3.8,0,0,0-2-1.73,3.61,3.61,0,0,0-.63-.06" transform="translate(-3.83 -9.05)"/><path class="cls-19" d="M79.47,252.71a7.87,7.87,0,0,0-1,.19c-1.25,0-1.26.47-2.11,1.31s-1.33,2.61-.71,3.1,1,.17,2.36,0h0a3.09,3.09,0,0,1,.55-.06,2.37,2.37,0,0,1,2.28,2.26,14.24,14.24,0,0,1,.08,1.83c0,1.43.85,1.63,1.47.91.11-.12.29-.34.41-.5h0c1.26-1.71,1.83-5.44-.22-7.67-.92-1-.53-.67-2.06-1.21a3.16,3.16,0,0,0-.92-.14h0" transform="translate(-3.83 -9.05)"/><path class="cls-25" d="M81.17,258.94a.8.8,0,0,0-.49.32,1.6,1.6,0,0,0-.35.58,1.16,1.16,0,0,0-.06.62c.11.22.21,0,.13.27a.56.56,0,0,0,.74.81,2.51,2.51,0,0,0,.88-2,.75.75,0,0,0-.85-.56m.87.91h0" transform="translate(-3.83 -9.05)"/></svg>