<svg id="Camada_1" data-name="Camada 1" xmlns="http://www.w3.org/2000/svg" viewBox="0 0 583.09 413.87"><defs><style>.cls-1{fill:#ef7c14;}.cls-2{fill:#c98540;}.cls-17,.cls-21,.cls-3{fill:#391a66;}.cls-4{fill:#49267d;}.cls-5{fill:#f6e935;}.cls-6{fill:#060e40;}.cls-7{fill:#39043d;}.cls-17,.cls-7{opacity:0.15;}.cls-8{fill:#835bf8;}.cls-9{fill:#f1e2a4;}.cls-10{fill:#b7712c;}.cls-11{fill:#e5d395;}.cls-12{fill:#6a3cd9;}.cls-13{fill:#3f38f9;}.cls-14{fill:#291357;}.cls-15{fill:#240f50;}.cls-16{fill:#6f6fc9;}.cls-18{fill:#39061a;}.cls-19,.cls-20{fill:#240010;}.cls-19{opacity:0.51;}.cls-21{opacity:0.3;}.cls-22{fill:#b5b5fb;}.cls-23{fill:#b0b3f4;}.cls-24{fill:#bca3f8;}.cls-25{fill:#561fa9;}.cls-25,.cls-27{opacity:0.27;}.cls-26{fill:#ea9f78;}.cls-27{fill:#1c23c9;}.cls-28{fill:#172c9c;}.cls-29{fill:#d87557;}.cls-30{fill:#27892a;}.cls-31{fill:#5aab50;}.cls-32{fill:#09660e;}</style></defs><title>icon-services</title><rect class="cls-1" x="159.84" y="391.52" width="7.46" height="78.28" rx="1.37" transform="translate(151.81 -124.18) rotate(20.32)"/><rect class="cls-1" x="221.35" y="391.52" width="7.46" height="78.28" rx="1.37" transform="translate(577.76 662.21) rotate(159.68)"/><rect class="cls-1" x="144.14" y="279.63" width="84.53" height="22.37" rx="4.1"/><polygon class="cls-2" points="209.74 343.76 205.86 361.84 218.9 363.38 222.61 345.58 209.74 343.76"/><path class="cls-2" d="M211.54,193.51c-4.51.47-16.69,1.9-27,10.89-3.49,3-5.71,5.07-6.42,8.49-1.56,7.55,5.7,15.53,12.21,19.14a17.34,17.34,0,0,1-.12,3.6,14.43,14.43,0,0,1-.34,1.8c-.14.57-.26,1.17-.4,1.71a13.33,13.33,0,0,0,.61,3,11.51,11.51,0,0,0,4.91,6.55,11.74,11.74,0,0,0,13.77-1.14,12.28,12.28,0,0,0,3.81-9.08,4,4,0,0,1-2.14-1.08,3.2,3.2,0,0,1-.49-.61,3,3,0,0,1-.66-1.87,9.78,9.78,0,0,0,1.44-.6,10.12,10.12,0,0,0,1.49-1l9.07-7.85q.31-7.89,1.06-16.07c.06-.72.13-1.44.2-2.15q.41-6.9.8-13.79A57,57,0,0,0,211.54,193.51Z" transform="translate(-7.91 -94.18)"/><polygon class="cls-2" points="235.39 337.25 231.51 355.33 244.54 356.88 248.26 339.07 235.39 337.25"/><path class="cls-3" d="M243.54,344H273.8s18.43-1,19.53,14.1-27,58.4-31.44,81.5l-3.69-.3-21.62-1.78q9.12-31.44,18.23-62.86l-45.32.26a29.88,29.88,0,0,1-9.88-1.57c-8.82-3.06-22.29-7.45-15-31.75Z" transform="translate(-7.91 -94.18)"/><path class="cls-4" d="M236.18,442.36l-25.3-2.09,20.29-65.64-45.32.26a30,30,0,0,1-9.89-1.56c-.24-.09-.47-.18-.71-.25-8.62-3-20.82-7.64-14.67-30,.13-.5.29-1,.45-1.53l17,.7,41.82,1.7h30.27s18.41-1,19.53,14.1S240.59,419.26,236.18,442.36Z" transform="translate(-7.91 -94.18)"/><path class="cls-5" d="M227.53,300.33v.24L223.79,344l-46.07,0-17.14-.85-1-.05,10.53-27,.42-1.08,7.06-17.46,47.75,2.7Z" transform="translate(-7.91 -94.18)"/><path class="cls-2" d="M327.62,302.85c-.24-2.41-4.2-4.77-5.73-6.4a11.23,11.23,0,0,0-3.89-2.79,24.43,24.43,0,0,0-6.77-2.36c-3.2-.5-6.45.84-9.58,1.32s-6.72-.31-8.81,2.82c-1.54,2.32-1.15,6.69,1.87,7.42,1.05.25,2-.18,3.12.1,1.62.43,2.68,1.69,4.48,1.87,3.5.37,6.43-2.27,9.83-2.14a9.31,9.31,0,0,1,4.52,1.78,11.42,11.42,0,0,0,5.41,2c1.32.09,4.28.36,5.39-.44S328,303.85,327.62,302.85Z" transform="translate(-7.91 -94.18)"/><path class="cls-5" d="M219.06,302.44a17,17,0,0,1,4.87-.37c.75,0,1.59.26,2.2-.46-3.07-3.21-7.16-3.65-11.23-3.94-6.59-.46-13.25-.31-19.76-1.42-5.56-.94-11.18-2-15.73-5.88a20.56,20.56,0,0,1-6-9.4c-.13-.4-.07-.92-.63-.94-.09,0-.19.62-.28,1,0,2.91,1.06,5.63,1.49,8.47.14,1,0,6.86,2.32,7.66a35.75,35.75,0,0,0,5.11,1c4.9.93,9.9,1.31,14.74,2.6a5.92,5.92,0,0,1,2.7,1.33c3.14.31,6-1,9.07-1.44C211.93,300.06,215.66,300,219.06,302.44Z" transform="translate(-7.91 -94.18)"/><path class="cls-5" d="M189.12,239.15a9.71,9.71,0,0,0-1-.16,11.14,11.14,0,0,0-2-.07c.13.63.34,1.56.65,2.66.71,2.55,1.12,4.4,2.34,6,3.58,4.82,8.59,6.07,14.47,5.35a11.24,11.24,0,0,0,6.6-2.72,14.62,14.62,0,0,0,2.21-3.31c1.18-2,1.77-3.09,1.8-4.3a6,6,0,0,0-1.66-4.13,5.56,5.56,0,0,0-1.44,1.63,5.07,5.07,0,0,0-.55,1.29c-1.48,5.41-4,7.32-9.73,7.34-2.19,0-4.32,0-6.36-1.16a7.67,7.67,0,0,1-3.4-3.39c-.32-.74-.21-1-.45-2.91-.28-2.23-.84-5.41-1.16-5.39C189.34,235.93,189.19,236.49,189.12,239.15Z" transform="translate(-7.91 -94.18)"/><path class="cls-5" d="M233.05,286.28c-1,1.66-2,3.36-3,5.05l-.1.05a3.14,3.14,0,0,0-.82.65l0,0a3.61,3.61,0,0,0-.74,1.59,25.76,25.76,0,0,0-.79,6,5.78,5.78,0,0,1,0,.93h0c0,.16,0,.32-.07.46s0,0,0,0a1.31,1.31,0,0,1-1.25.9,4.43,4.43,0,0,1-2.08-1.16,11.18,11.18,0,0,0-2.9-1.52l-.12,0a13.62,13.62,0,0,0-2-.46H219a79.88,79.88,0,0,0-10.11-.87,90.65,90.65,0,0,1-19.72-2.28c-6.18-1.54-11.4-4.39-14.5-10.31-.43-.82-.68-1.74-1.1-2.57a4.75,4.75,0,0,0-1-1.43,2,2,0,0,0-.8.28,3.08,3.08,0,0,0-1.06,1.09c-2.08,3.26-4.37,6.36-6.58,9.52-1.08,1.59-.93,2.08,1,2.46,2.51.47,5.05.69,7.54,1.29,1.25.29,5.24,1,7.88,1.41.37.05.73.1,1.1.17,4.66.84,9.41,1.22,14,2.45,1.25.34,2.82.34,3.25,2.06-2.43-.21-4.61.24-5.53,2.8a5.66,5.66,0,0,0,1.13,6,3.59,3.59,0,0,1-2.82.91c-1.79-.18-3.62-.21-5.43-.47-3.69-.53-7.45-.06-11.12-.53-9.4-1.21-18.83-1.55-28.27-2.07-5.31-.28-9-5.32-7-10.27.42-1.06.8-2.12,1.18-3.2a30.83,30.83,0,0,1,3.9-8c1.6-3.08,3.22-6.14,4.82-9.23.34-.71.86-1.89,1.54-3.32a160.91,160.91,0,0,1,14.11-24.23c5.19-7.38,6.72-8.3,7.54-8.75,4.58-2.44,11.22-2.68,13.38-2.68h.7c.35,0,.64,0,.87,0a11.34,11.34,0,0,0-.18,4.16,10.69,10.69,0,0,0,.54,2,11.23,11.23,0,0,0,5,5.52c3.08,1.88,6.6,2.18,10.32,1.86a10.86,10.86,0,0,0,8-4.91,11.36,11.36,0,0,0,1.09-9.06l12.26,2.69a42.23,42.23,0,0,0,.57,7.33c1.78,10.53,5.54,12.67,8.46,22.73C235.31,276.28,236.1,281.43,233.05,286.28Z" transform="translate(-7.91 -94.18)"/><path class="cls-2" d="M228.05,310.52a1,1,0,0,0-.11-.35c-1.09-2.35-3.37-3.61-5-5.42-.65-.7-1.32-1.38-2-2.11,0,0-7.21-4.18-11.3-3.78-3.42.34-6.68,1.61-10.15,1.66-.85.06-1.71,0-2.56.13a5.65,5.65,0,0,0-4.45,4.28,5.22,5.22,0,0,0,2.15,5.62l1-.06.13.13a.88.88,0,0,0,1.12-.07,3.34,3.34,0,0,1,2.24.47c2.49,1.92,5.2,1.81,8,.81,1.17-.42,2.35-.8,3.52-1.2,2.89-1,5.21.71,7.31,2.05,3,1.91,6.1,1.54,9.16,1.24C229.06,313.73,228.49,311.89,228.05,310.52Z" transform="translate(-7.91 -94.18)"/><path class="cls-6" d="M230.42,365.09" transform="translate(-7.91 -94.18)"/><path class="cls-5" d="M298.56,292.57l-4.17,10.27c-26.86-.2-53.42-.06-54.12-.07a6.55,6.55,0,0,1-1,0c-3.27-2.56-8.2-8.48-10.15-10.83-.47-.59-.76-.94-.8-1a.64.64,0,0,1,0-.28,7,7,0,0,1,1.55-3.22,14.34,14.34,0,0,0,2.83-8.09c0-1.08-.05-2.11-.15-3.19a52.74,52.74,0,0,0-4.79-15.85c.09-1.88-2.21-6-2.21-6-1.46-2.65-1.46-5.31-1.46-7.91a20.22,20.22,0,0,1,.68-5.17,28.64,28.64,0,0,1,8.61,7.82c3.88,5.41,4.27,10.29,6.13,17a87.29,87.29,0,0,0,7.92,19.15Z" transform="translate(-7.91 -94.18)"/><path class="cls-7" d="M187.67,243.12c-3.65,1.64-9.06.66-13,1.81-14.26,4.14-9.91,36.81-30.81,49a24.38,24.38,0,0,1-2.57,1.33l-.27-.09a30.83,30.83,0,0,1,3.9-8c1.6-3.08,3.22-6.14,4.82-9.23.34-.71.86-1.89,1.54-3.32a160.91,160.91,0,0,1,14.11-24.23c5.19-7.38,6.72-8.3,7.54-8.75,4.58-2.44,11.22-2.68,13.38-2.68h.7c.35,0,.64,0,.87,0A11.34,11.34,0,0,0,187.67,243.12Z" transform="translate(-7.91 -94.18)"/><path class="cls-8" d="M160.23,211.74" transform="translate(-7.91 -94.18)"/><path class="cls-7" d="M229.13,291.92a.45.45,0,0,0,0,.11l0,0a3.61,3.61,0,0,0-.74,1.59,25.76,25.76,0,0,0-.79,6,5.78,5.78,0,0,1,0,.93h0c0,.16,0,.32-.07.46s0,0,0,0a.87.87,0,0,1-.77,0,19.63,19.63,0,0,0-5.46-1.78l-.12,0c-.72-.16-1.43-.3-2.13-.47l-1.11-.32a8.69,8.69,0,0,1-1.85-.8,1.4,1.4,0,0,1-.75-1.69,2.18,2.18,0,0,1,1.12-1.08c1.27-.34,2.59-.52,3.9-.83a42.12,42.12,0,0,0,8.11-3.36.64.64,0,0,0,0,.28S228.66,291.33,229.13,291.92Z" transform="translate(-7.91 -94.18)"/><path class="cls-7" d="M180.8,332.39a92,92,0,0,0-2.73,9.89c-.12.55-.25,1.11-.35,1.68-1.95,9.8-2.33,20.49,1,29-1.2.09-2.34.12-3.43.12-8.62-3-20.82-7.64-14.67-30l-1-.05,10.53-27C180.87,308,192.9,321.2,180.8,332.39Z" transform="translate(-7.91 -94.18)"/><path class="cls-9" d="M235.68,231.63c-1-2.1-1.93-4-1.93-4-1.8-3.37-2.95-4.63-4.29-8.36-2-5.52,2.06-9.49,3.35-14.46,1.18-4.65.26-11.46-3.4-14.68-3.9-3.43-8.91-2.26-12.41-6.8s-4.7-8.44-10.54-10.13c-11.2-3.21-24.27,2.43-31.37,11.42a21.26,21.26,0,0,0-4.8,10.35c-.93,6.08-.32,10.24-5.45,14.24-7.21,5.62-19.91,5.76-16.83,18.41,1.63,6.74.68,8.81-3.38,14.24-2.73,3.66-5.88,8.7-6,13.25a21.65,21.65,0,0,0,5.82,14.55,14.23,14.23,0,0,0,5.41,3.3,15.64,15.64,0,0,0,10.67-.57c10.6-4.68,5.74-24.61,15.65-28.91,4.84-2.11,8.89,1.32,11.94-2a9.81,9.81,0,0,0,2.1-5.87,52.58,52.58,0,0,0,.11-5.91,40.71,40.71,0,0,0-.45-5.16h0c0-.19-.06-.37-.09-.52-1.6-.7-2.93-1.14-3.8-1.5-3-1.29-3.7-1.76-4.24-2.32a8.28,8.28,0,0,1-1.78-3c-1.81-5.17,1.71-11.91,6.89-10.16,1.68.55,3.61,3.46,5.23,3.6s6.12-3,7.83-3.73c6.75-2.78,14.58-5.69,19.09-11.94-.15,2.2,2.73,7.92,3,11.54a1.76,1.76,0,0,0,0,.25c.08,1.7,1,18.62-7.64,24.22-1.05.67-2.2,1.17-3.14,1.71s-1.89,1.25-2,2.26a2.49,2.49,0,0,0,.42,1.59,6.93,6.93,0,0,0,.4.6,4.24,4.24,0,0,0,.38.42c2.72,2.62,8.09,3.52,8.09,3.52,7.81,1.31,8.82,17,17.74,18.41.46.08,4.12.63,6-1.43C246.28,253.91,240.28,241.29,235.68,231.63Z" transform="translate(-7.91 -94.18)"/><path class="cls-10" d="M209.22,235a2.49,2.49,0,0,0,.42,1.59c-1.76.29-3.39,1.23-5.24,1.25-4.16,0-8.28-.12-12.16-1.81a4.28,4.28,0,0,0-2-.37,52.58,52.58,0,0,0,.11-5.91,40.71,40.71,0,0,0-.45-5.16,4.3,4.3,0,0,1,2.33,1.24c4.17,5.45,10.13,6.63,16.52,6.75a13.85,13.85,0,0,1,2.24.09l.24.07C210.15,233.37,209.33,234,209.22,235Z" transform="translate(-7.91 -94.18)"/><path class="cls-11" d="M192,179.81c-1.41,1.69-3.5,2.24-5.15,3.59a17.94,17.94,0,0,0-4.41,5.43c-1.15,2.16-1.77,4.57-2.76,6.8s-2.24,4.67-3.44,7c-.53,1-3.07,5.09-4.5,4.2-1.17-.73.19-2,.64-2.65.64-1,1.14-2,1.74-3.07,2.64-4.44,4.2-9.33,6.37-14a13.49,13.49,0,0,1,4.88-5.82A8.21,8.21,0,0,1,192,179.81Z" transform="translate(-7.91 -94.18)"/><path class="cls-11" d="M153.24,224.8a17.27,17.27,0,0,1,4.25-5.52c2.15-1.68,4.59-1.84,7.12-2.58s5.41-1.64,7.46-3.43A22.31,22.31,0,0,0,175,210c.47-.61,1-1.86,1.92-1.29,1.77,1.1-2.6,5.31-3.42,6.07a20.06,20.06,0,0,1-7.29,3.92c-2.63.87-5.25,1.09-7.63,2.63C156.93,222.4,155.35,225.32,153.24,224.8Z" transform="translate(-7.91 -94.18)"/><path class="cls-11" d="M208.33,185.36c-1.13,4.32-2.11,9-5.67,12.08a19,19,0,0,1-3.28,2.13,17.25,17.25,0,0,1-3.76,1.9c-1,.25-2-.38-1.12-1.39.41-.48,1.43-.75,2-1.09s1.16-.78,1.73-1.2c4.11-3.08,8.53-7.29,7.51-13-.16-.95-3.21-6.11-.46-5.82C207.56,179.21,207.57,183.82,208.33,185.36Z" transform="translate(-7.91 -94.18)"/><path class="cls-7" d="M172.45,282.69c-.29-1.42.45-2.53,1.15-3.62,2.76-4.28,5.65-8.48,6.88-13.53.14-.56.55-1.16,1.21-1.11,1,.06.91.94.9,1.61a7,7,0,0,1-.23,2.47c-2.13,5.43-5,10.44-9.34,14.42A.39.39,0,0,1,172.45,282.69Z" transform="translate(-7.91 -94.18)"/><path class="cls-11" d="M234.39,231.89c-2.13-3.07-5.15-5.39-7.29-8.45-1.66-2.38-3.9-6.93-1.38-9.39a21.19,21.19,0,0,0,5.46,11.86,27.68,27.68,0,0,0,5.17,4.68,24.21,24.21,0,0,1,4.82,4.21c1.3,1.57,1.08,5.76.93,5.19C241.33,236.91,237.83,232,234.39,231.89Z" transform="translate(-7.91 -94.18)"/><path class="cls-3" d="M239.19,447.63c.36-.44.62-1.05,1.38-.86,3.38,2,6.87,3.33,10.91,2.53a2.2,2.2,0,0,1,2.37,1.12c1.34,4.56.78,9.47,2.63,13.95.36.9,8.58,8.29,11.95,11.55a23.92,23.92,0,0,1,1.86,1.59c1.42,1.72,3.3,3.9,2.1,5.87-1.11,1.8-3.45,0-5.15-.49-6-1.63-11.94-3.49-17.94-5.14a4.67,4.67,0,0,1-3.57-3.28c-1.42-3.88-2.21-8-4.44-12.14a44.92,44.92,0,0,0-4.4,8.84c-.41,1.25-.68,2.65-2.51,2.16-1.67-.45-1.73-1.83-1.43-3.12C234.67,462.59,235.23,454.63,239.19,447.63Z" transform="translate(-7.91 -94.18)"/><path class="cls-3" d="M214.16,450.4c.36-.44.63-1,1.38-.86,3.38,1.95,6.87,3.33,10.91,2.52a2.24,2.24,0,0,1,2.38,1.13c1.33,4.56.77,9.46,2.62,13.95.37.9,8.59,8.29,12,11.55a23.76,23.76,0,0,1,1.85,1.59c1.43,1.72,3.3,3.9,2.1,5.87-1.1,1.8-3.44,0-5.15-.49-6-1.63-11.94-3.49-17.93-5.15a4.64,4.64,0,0,1-3.58-3.27c-1.41-3.88-2.2-8-4.44-12.14a45.48,45.48,0,0,0-4.4,8.84c-.4,1.25-.68,2.65-2.51,2.16-1.67-.45-1.72-1.83-1.43-3.12C209.65,465.35,210.2,457.4,214.16,450.4Z" transform="translate(-7.91 -94.18)"/><polygon class="cls-1" points="137.85 405.71 131.96 405.71 168.96 220.15 174.85 220.15 137.85 405.71"/><polygon class="cls-1" points="439.3 405.71 445.19 405.71 408.19 220.15 402.3 220.15 439.3 405.71"/><rect class="cls-1" x="96.54" y="214.36" width="384.06" height="12.44" rx="2.28"/><path class="cls-1" d="M10.54,502.18h0c-2.09-.89-3.28-2.87-2.25-5.91,8.87-26.32,17.93-54.36,26.82-80.66,1-3,3-3.65,5.13-2.74h0c2.08.9,3.15,2.86,2.16,5.91-8.53,26.43-17.66,54.42-26.66,80.66C14.7,502.47,12.63,503.07,10.54,502.18Z" transform="translate(-7.91 -94.18)"/><path class="cls-1" d="M101.47,503.16h0c2.1-.84,3.39-2.82,2.44-5.88C95.73,470.85,87.37,442.8,80.34,416c-.81-3.11-2.72-3.71-4.78-2.85h0c-2,.85-3.24,2.77-2.5,5.89C79.5,446,88,474,96.32,500.3,97.28,503.35,99.37,504,101.47,503.16Z" transform="translate(-7.91 -94.18)"/><path class="cls-10" d="M78.84,238.71a200.44,200.44,0,0,1,20.48,40.62c1.28,3.41,2.48,7.26,3.52,10.81,19.56,2.43,39.07,4.06,58.79,5,3.52-1.5,8-3.08,11.76-2.58,10.32,1.38,17.16,6.63,22.46,15.26-8-1-16-2.06-24-3.07-25,2.18-50.15,4.34-75.18,4.74-3.82.06-4.49-.1-7.09-3.51-8.1-10.62-14.74-23.34-19.89-36,1.56-1.39,3.76-3.07,4.82-4.76C79.84,256.63,80.86,248.4,78.84,238.71Z" transform="translate(-7.91 -94.18)"/><path class="cls-12" d="M74,234c0-.63,0-1.24,0-1.88A5.84,5.84,0,0,1,79.45,234c5.59,5.83,9.41,12.42,12.62,19.79a41.32,41.32,0,0,1,2.05,5.53c.53,1.93.78,3.47-.71,5.18s-4,2.55-6.2,3.38c-1,.36-1.17-.32-1.77-.83a5.57,5.57,0,0,1-1.89-3C80.88,253.75,78.42,243.67,74,234Z" transform="translate(-7.91 -94.18)"/><path class="cls-13" d="M74,234c0-.63,0-1.24,0-1.88A5.84,5.84,0,0,1,79.45,234c5.59,5.83,9.41,12.42,12.62,19.79a41.32,41.32,0,0,1,2.05,5.53c.53,1.93.78,3.47-.71,5.18s-4,2.55-6.2,3.38c-1,.36-1.17-.32-1.77-.83a5.57,5.57,0,0,1-1.89-3C80.88,253.75,78.42,243.67,74,234Z" transform="translate(-7.91 -94.18)"/><path class="cls-2" d="M59.28,237.34c.48.55,1,1.09,1.41,1.66A6.22,6.22,0,0,1,59.28,237.34Z" transform="translate(-7.91 -94.18)"/><path class="cls-2" d="M89.13,453.23,77.5,466l9.75,7.23q5.66-6.29,11.32-12.57Z" transform="translate(-7.91 -94.18)"/><path class="cls-3" d="M78.85,463.48c.44-.3,1.06-.67,1.48-.07,2.08,3,4.26,5.43,7.79,6.75a1.81,1.81,0,0,1,1.39,1.94c-.93,4.26-3.3,8.15-3.94,12.52a3.83,3.83,0,0,0,.26,2.41c.59,4.41,2.9,8.1,4.41,12.2a17.31,17.31,0,0,1,.81,2.1c.41,1.87,1,4.55-.88,5.59s-2.82-1.42-4-2.53c-4.11-3.94-8.3-8-12.39-12a4.37,4.37,0,0,1-1.46-4.24c.54-3.82,1.61-7.83,1.69-11.79a46.06,46.06,0,0,0-7.5,5.31c-.94.87-1.85,1.66-3,.63s-.64-2.17.17-3.13C68.5,473.48,72.74,467.73,78.85,463.48Z" transform="translate(-7.91 -94.18)"/><path class="cls-2" d="M196.62,458q2.53,8.16,5.08,16.31l11.27-4.7q-2.55-8-5.09-16Z" transform="translate(-7.91 -94.18)"/><path class="cls-3" d="M200,470.18c.1-.52.31-1.2,1-1.06,3.58.73,6.89,1,10.37-.47a1.82,1.82,0,0,1,2.36.45c2.28,3.7,3.25,8.13,5.81,11.72a3.78,3.78,0,0,0,1.86,1.56c3.49,2.79,7.73,3.87,11.67,5.8a18.41,18.41,0,0,1,2,1c1.58,1.07,3.88,2.6,3.23,4.64s-3,.91-4.66.9c-5.71,0-11.57-.08-17.33-.2a4.4,4.4,0,0,1-4-2.05c-2.26-3.14-4.26-6.77-6.94-9.68a45.39,45.39,0,0,0-1.78,9c-.09,1.28-.21,2.47-1.73,2.49s-2-1.12-2-2.38C199.38,484.47,198.46,477.44,200,470.18Z" transform="translate(-7.91 -94.18)"/><path class="cls-3" d="M180.18,366.1a5.47,5.47,0,0,0-3.36-5.05c-3.49-1.75-7.21-3.32-10.86-4.75-3.15-1.24-6.52-2.25-9.68-3.34C142,348,127.3,344,113,339.55c-8-2.49-15.58-4.59-23.44-7.34-2.23-.78-4.39-1.44-6.77-.77-1.55.43-2.16,2.07-3,3.34-3.72,5.9-8.27,10.47-15,12.59-8,2.53-15.78,1.6-24,1.4a39.16,39.16,0,0,1-11.77-2.35c-1.35-.46-2.62-1.9-4.09-1.15-.93.49-1.18,1.81-1.34,2.85-2,13.36.54,23.8,10.32,33.38a23.23,23.23,0,0,0,8.63,5.22c4,1.48,6.52,2.93,11.64,3,24.06.31,49.79-.33,74.23-1.06A472.93,472.93,0,0,0,94.17,437c-3.42,5.45-5,7.83-7.33,13.55,2.51,2.42,6.7,20.55,15.82,11.08s45.05-50.16,55.73-61.76c3.25-3.52,4.12-4.5,4.84-3.32a5.41,5.41,0,0,0,.07-1.15C171,386.17,174.29,375.47,180.18,366.1Z" transform="translate(-7.91 -94.18)"/><path class="cls-14" d="M212.13,450.83c-8.71-19.89-18.5-47.74-25.89-68.37-2.82-7.88-3.28-9.16-6.05-15.78a5.56,5.56,0,0,0,0-.58c-5.89,9.37-9.19,20.07-16.88,29.31a5.41,5.41,0,0,1-.07,1.15c.76,1.26,1.34,5,4.47,10.89,6,11.33,23.81,40.19,29.65,56.45a2.57,2.57,0,0,0,3.05,1.9c4.25-.59,8.42-.48,12.29-2.66a32.79,32.79,0,0,1,4.78-1.06C215,456.54,215.15,457.71,212.13,450.83Z" transform="translate(-7.91 -94.18)"/><path class="cls-15" d="M91.86,346l81.7,28.65C150.2,359.45,118.44,353.75,91.86,346Z" transform="translate(-7.91 -94.18)"/><path class="cls-16" d="M90.82,268.59a3.69,3.69,0,0,1-1.18,1.48l-.09-.27s0-.07,0-.1c-.14-.37-.27-.76-.42-1.13l-6,1.54c-4,1-8,2.06-12,3.11-2,.53-4,1.06-6,1.61a5.93,5.93,0,0,0,.26.63,3,3,0,0,0,.29.6c.84,1.4,2.24,1.61,3.23,3.08,1.85,2.76.71,1.89,1.34,6.47s10.42,14.61,15.06,18.13c.55.42,2.94,3.05,3.74,3.68-.19,2.32-.58,4.45-.88,6.67a.1.1,0,0,0,0,.07,75.1,75.1,0,0,1-4.9,17.18l-.2.48c-1.56,1.34-1.79,3.49-2.88,5.1-6,8.77-12.91,13.69-23,16.89a121.26,121.26,0,0,1-23.05,4.66,11.45,11.45,0,0,1-3.93-.27,25.1,25.1,0,0,1-6.42-2.13l0,0-.24-.18a4,4,0,0,1-.39-.29,8.67,8.67,0,0,1-2-2.14l-.34-.55s0,0,0-.1-.15-.34-.2-.48l-.05-.1c-.06-.14-.27-.82-.35-1.13a.17.17,0,0,1,0-.1c0-.2,0,0,0-.16a1.39,1.39,0,0,1-.06-.35,4,4,0,0,1-.08-.76c0-.19,0-.39,0-.6v-.27A13,13,0,0,1,21,344.65a2.49,2.49,0,0,1,.11-.29v0s0,0,.1-.16a1.46,1.46,0,0,1,.15-.2c1.48-2.16,3.19-3.93,5-6.05a2.19,2.19,0,0,0,.2-.22l.17-.24a37.49,37.49,0,0,0,3.28-7c.19-.66.73-1.74.95-2.53.08-.28.16-.44.32-.94s.49-1.45.7-2.16c.46-1.64,1-3.47,1.32-5.19a25.31,25.31,0,0,0,.45-2.58c1.81-15.7.79-31.44,1.71-47.17.07-1.05.2-2.07.32-3.08a86.38,86.38,0,0,1,2.38-12.15c.35-1.29.71-2.22,1-3,0,0,3.81-11.05,8.15-14l.89-.58.43-.27.5-.28c.49-.27,1.28-.67,1.94-1s1.22-.55,2-.89,2-.79,2.83-1.1,1.66-.56,2.51-.82a.61.61,0,0,0,.13,0l.08,0,.1,0,.69-.13a12.72,12.72,0,0,1,2.39-.09c.42,0,.82,0,1.23.06a.32.32,0,0,0,.13,0h.27c.37,0,.48,0,.9.1,0,0,.23,0,1.18.1.57.05,3.86-.08,8.57-.49l.64-.06c.49,0,1-.08,1.5-.13A63.46,63.46,0,0,0,79.63,244,48.6,48.6,0,0,0,85,253.91s5.59,7.57,6.18,12.28A3.73,3.73,0,0,1,90.82,268.59Z" transform="translate(-7.91 -94.18)"/><path class="cls-17" d="M58.37,232.81c.3.58-5,3.69-10.63,9.32-4.05,4.05-5.65,16.3-6,18.84-.82,6.55,2.23,17.94,2.78,19.77,2.21,7.38,3.55,9.34,2.39,14.51-.83,3.58-3.2,3.54-4.81,5.92-6.24,9.26-1.71,23.94-4,34.33a45.56,45.56,0,0,1-4.79,12.16c-2.42,4.21-5.6,7.66-9.24,8.16a2.93,2.93,0,0,1-.57.05,2.6,2.6,0,0,1-.4,0c-1.34-.18-1.66-1.34-2-2.4a5.46,5.46,0,0,0-.48-1.2,4.68,4.68,0,0,1-.5-1.16.17.17,0,0,1,0-.1,6.19,6.19,0,0,1-.18-1.87V349A16.92,16.92,0,0,1,21,344.65c0-.1.07-.2.1-.29s0,0,0,0,0,0,.1-.16a1.46,1.46,0,0,1,.15-.2c.19-.24.48-.61.71-.85,1.48-1.68,2.82-3.47,4.25-5.2a2.19,2.19,0,0,0,.2-.22l.17-.24a37.49,37.49,0,0,0,3.28-7c.19-.66.73-1.74.95-2.53.08-.28.16-.44.32-.94s.49-1.45.7-2.16c.46-1.64,1-3.47,1.32-5.19a25.31,25.31,0,0,0,.45-2.58c1.81-15.7.79-31.44,1.71-47.17.07-1.05.2-2.07.32-3.08a86.38,86.38,0,0,1,2.38-12.15c.35-1.29.71-2.22,1-3,0,0,3.81-11.05,8.15-14l.89-.58.43-.27.5-.28c.49-.27,1.28-.67,1.94-1s1.22-.55,2-.89,2-.79,2.83-1.1,1.66-.56,2.51-.82C58.35,232.78,58.37,232.79,58.37,232.81Z" transform="translate(-7.91 -94.18)"/><path class="cls-15" d="M172.38,402c-.39-3-.74-5.53-3-7.73A24.26,24.26,0,0,0,172.38,402Z" transform="translate(-7.91 -94.18)"/><path class="cls-15" d="M37.18,374.13a8.67,8.67,0,0,1-4.24-6.44A24.79,24.79,0,0,1,37.18,374.13Z" transform="translate(-7.91 -94.18)"/><path class="cls-15" d="M98.56,440.46c-1.07,2.1-2.77,3.48-4.55,5C94.68,442.77,96.14,441.65,98.56,440.46Z" transform="translate(-7.91 -94.18)"/><path class="cls-15" d="M112.55,423.26c-1.78,1.9-3.21,4.05-5.25,5.7C107.62,425.94,109.94,424.4,112.55,423.26Z" transform="translate(-7.91 -94.18)"/><path class="cls-15" d="M125.12,405.32c-1,1.52-2,3-3.08,4.48-.34.49-.92,1.07-1.47.58s-.12-.94.2-1.39A9.32,9.32,0,0,1,125.12,405.32Z" transform="translate(-7.91 -94.18)"/><path class="cls-15" d="M104.84,433c-1,1.23-2,2.49-3,3.68a.76.76,0,0,1-1.13.07c-.37-.33-.21-.76.09-1.1C102,434.22,103,433.24,104.84,433Z" transform="translate(-7.91 -94.18)"/><path class="cls-15" d="M77.94,384.53a5.2,5.2,0,0,1-4.47-.22.61.61,0,0,1-.28-.78.67.67,0,0,1,.71-.47c1.39.24,2.72.53,4.12.81C77.88,384,78.15,384.45,77.94,384.53Z" transform="translate(-7.91 -94.18)"/><path class="cls-15" d="M132,395.45a17.5,17.5,0,0,1-3.72,4.95C128.19,397.71,129.78,396.74,132,395.45Z" transform="translate(-7.91 -94.18)"/><path class="cls-15" d="M90.89,385.92a6.3,6.3,0,0,1-4.26.05c-.41-.14-.72-.39-.68-.85a.69.69,0,0,1,.88-.6A11.53,11.53,0,0,1,90.89,385.92Z" transform="translate(-7.91 -94.18)"/><path class="cls-15" d="M46,381A5.32,5.32,0,0,1,41.71,378,8.36,8.36,0,0,1,46,381Z" transform="translate(-7.91 -94.18)"/><path class="cls-15" d="M52.15,384.12c1.83-.85,3.14-.38,4.67.81A7.27,7.27,0,0,1,52.15,384.12Z" transform="translate(-7.91 -94.18)"/><path class="cls-15" d="M63,385.68a8,8,0,0,1,5.49.88C66.36,386.76,64.72,387.1,63,385.68Z" transform="translate(-7.91 -94.18)"/><path class="cls-15" d="M175,408c1.54,1.68,1.77,3.42,2.1,5.6A8,8,0,0,1,175,408Z" transform="translate(-7.91 -94.18)"/><path class="cls-15" d="M136.59,388.42a12.47,12.47,0,0,1-3.12,4.05C133.51,390.15,134.69,389.61,136.59,388.42Z" transform="translate(-7.91 -94.18)"/><path class="cls-15" d="M118.47,414.44a4.34,4.34,0,0,1-.1.87c-.62,1.26-.85,2.32-2.18,2.89-.1,0-.41-.25-.38-.35A6.22,6.22,0,0,1,118.47,414.44Z" transform="translate(-7.91 -94.18)"/><path class="cls-15" d="M111.56,384.87c-1.36-.17-2.55-.1-3.67-1C109.71,383.29,110.23,383.5,111.56,384.87Z" transform="translate(-7.91 -94.18)"/><path class="cls-15" d="M97.15,384.46a4.84,4.84,0,0,1,4.68.43A6.53,6.53,0,0,1,97.15,384.46Z" transform="translate(-7.91 -94.18)"/><path class="cls-15" d="M136.83,383.47c-1.35.19-2.45.38-3.64-.43C134.86,382.27,135.39,382.34,136.83,383.47Z" transform="translate(-7.91 -94.18)"/><path class="cls-15" d="M122.44,383.86a5,5,0,0,1,3.81-.06A5.32,5.32,0,0,1,122.44,383.86Z" transform="translate(-7.91 -94.18)"/><path class="cls-15" d="M199.45,452.85c2,1.46,2.33,3.25,2.81,5.56A8.29,8.29,0,0,1,199.45,452.85Z" transform="translate(-7.91 -94.18)"/><path class="cls-15" d="M195.69,446.12a23.18,23.18,0,0,1-3.31-5.75C194.91,441.49,195.29,443.55,195.69,446.12Z" transform="translate(-7.91 -94.18)"/><path class="cls-15" d="M185.6,429.57c2.8,1.56,3.43,2.89,3.88,6C188.19,433.6,186.9,431.58,185.6,429.57Z" transform="translate(-7.91 -94.18)"/><path class="cls-2" d="M89.89,201.39a23.53,23.53,0,0,1-.33,2.69c-.4,2.7-.22,6.71-.53,9.18-1,7.71-5.5,11.78-13,12.16-.5,0-1-.21-1.43-.21-.08,3,.08,7.45,0,10.21-.2,4.51-2.8,6.57-6.8,6.55-2.49,0-4.42-1.47-6.49-2.48a1.18,1.18,0,0,1-.5-.45c-.07-.13.16-.19.19-.34,1.2-7,1.2-13.07-1.33-19.83-.47,1.47-.87,2.87-1.28,4.43,0-.77,0,.53,0-.74s-.12-5.1-.11-6.86c-5.8-4.82-8.8-10.09-8.92-17.65,0,0,0,0,0-.05-5.94-11.68,11.87-18.77,22.14-18.09,9.17.61,16.87,8.25,18.34,17.87A18.54,18.54,0,0,1,89.89,201.39Z" transform="translate(-7.91 -94.18)"/><path class="cls-10" d="M74.63,225.19c-2.25-3.4-4.52-6.78-6.78-10.17-2.31,6.81,1,11.53,6.77,14.89C74.63,228.33,74.63,226.76,74.63,225.19Z" transform="translate(-7.91 -94.18)"/><path class="cls-18" d="M95.93,192.45c-.87,2.79-3.58,4.62-6,5.29-5.13,1.43-9.52,1.34-14.59.87-.4,2.63-.79,5.29-1.08,8-1.62.05-2.66.48-4.41.45s-4.17-.64-6.09-.67c-1.24,3.37-3.07,9.37-4,12.19s-.74,2.53-1.39,4.78a2.77,2.77,0,0,0,0-.51,7.91,7.91,0,0,0,0-.8,16.38,16.38,0,0,0-4.17-9.13c-4.82-5.84-7.73-12.78-7-21.14.55-6.09,6.5-13.32,12-15.18C76.63,170.61,88.13,176.52,95.93,192.45Z" transform="translate(-7.91 -94.18)"/><path class="cls-2" d="M66.39,199.73a5.52,5.52,0,0,1,7.37,2.62,5.19,5.19,0,0,1-2.2,7.27A5.64,5.64,0,0,1,64.11,207,5.16,5.16,0,0,1,66.39,199.73Z" transform="translate(-7.91 -94.18)"/><path class="cls-18" d="M62,173.55a13.72,13.72,0,0,1-13.45,14.13,13.12,13.12,0,0,1-14-13.08,13.72,13.72,0,0,1,13.48-14.13A13.11,13.11,0,0,1,62,173.55Z" transform="translate(-7.91 -94.18)"/><path class="cls-10" d="M61,238.69c0,.16-.18.26-.21.33s0,0,0,0,0,0-.05-.05c-.44-.7-1-.92-1.41-1.72a5.19,5.19,0,0,1-.7-3c.23-3-.26-8.22-.13-10.8s.88-2.62,1.2-4.69C62.19,225.67,62.19,231.65,61,238.69Z" transform="translate(-7.91 -94.18)"/><path class="cls-19" d="M58.32,222c-.72-3.79-1.37-5.88-4.18-9.12a29.18,29.18,0,0,1-7-21c1.29,0,1.63.73,1.65,2s-.49,3,.58,4.07c0,0,0,0,0,0a32.22,32.22,0,0,0,4.73,9.56,50.79,50.79,0,0,1,4.19,8c.47,1.05.93,2.1,1.39,3.15a.11.11,0,0,1,0,.06,30.61,30.61,0,0,1-1.28,4.39c0-.2,0-.21,0-.45S58.38,222.33,58.32,222Z" transform="translate(-7.91 -94.18)"/><path class="cls-18" d="M57.84,210.37a4.63,4.63,0,0,1,1.09,3.7,13.11,13.11,0,0,1-1.34,4.62c-.44,1.55-1.36,2.87-1.7,4.46A19.62,19.62,0,0,0,60,213.24a1.38,1.38,0,0,0,0-.64C59.52,211.48,59.14,210.53,57.84,210.37Z" transform="translate(-7.91 -94.18)"/><path class="cls-20" d="M64,172.2c-.86.19-1.31-.62-2-.75-.88-.17-1.5.46-2.15,1.11-3.72,3.74-7.43,7.63-11.48,11.06-.06,0-.17.06-.19.14-.3,1.73-1.57,2.09-3.07,2.66a1.72,1.72,0,0,1,1.71,1.17c2.28,2.31,2.95,2.24,5.21-.12.39-.41.87-.95,1.3-1.44a45.32,45.32,0,0,1,7.79-7.3,19.9,19.9,0,0,0,2.14-2A3.36,3.36,0,0,0,64,172.2Z" transform="translate(-7.91 -94.18)"/><path class="cls-2" d="M87.92,217.76c-1.13-.62-1.8-1.37-.66-2.37s1-2.19.51-3.36-.82-1.66-1.16-2.78-.42-1.95.57-2.8.94-2.42,1-3.52.21-1.35,1.17-1.56a4.28,4.28,0,0,1,.26,2.23,15.82,15.82,0,0,0,.89,9C91.54,215.45,89.69,216.2,87.92,217.76Z" transform="translate(-7.91 -94.18)"/><path class="cls-19" d="M79.32,180.7c-1.81-.68-3-2.08-4.44-3.24s-3.19-.92-4.65-1.92C74.67,173.44,77.2,177.2,79.32,180.7Z" transform="translate(-7.91 -94.18)"/><path class="cls-19" d="M52.45,200.4a9.48,9.48,0,0,1-3.4-7.28c0-.68.1-1.36.92-1.42s.72.73.66,1.34a9.21,9.21,0,0,0,1,4A7.79,7.79,0,0,1,52.45,200.4Z" transform="translate(-7.91 -94.18)"/><path class="cls-19" d="M67.36,183c.37,2,0,3.16-1.93,4.15s-3.24,0-4.72-1.42A6.42,6.42,0,0,0,67.36,183Z" transform="translate(-7.91 -94.18)"/><path class="cls-19" d="M44,164.42a10.91,10.91,0,0,0-2.5,3.64,6,6,0,0,0,.71,6.62c1.62,2.15,3.93,2.68,6.53,2.55a3.25,3.25,0,0,0,1.93-1.11,8.27,8.27,0,0,0,2.46-6.62c-.17-2.3-1-3.22-3-3.45s-4,1.5-4.52,2.92.56,1.79,1.26,2.27,1.23.64.85,1.36-1.14.61-1.74.32c-2.22-1.07-3.29-3.11-1.88-5.46a6.76,6.76,0,0,1,7.13-3.23c2.82.66,3.64,3.24,3.76,6a7.34,7.34,0,0,1-.6,3.45c-1.24,2.51-2.42,4.89-5.64,5.28a8.21,8.21,0,0,1-8.14-3.85c-1.76-2.88-1.78-5.19-.14-8.21C41.19,165.51,42.07,164,44,164.42Z" transform="translate(-7.91 -94.18)"/><path class="cls-12" d="M89.63,270.08c-2,1.44-5.62,2.23-7.7,2.65-4.76,1-13-.12-16.36,3.38-.13-.43-.32-.85-.47-1.27,8-2.21,16-4.21,24-6.28C89.27,269.07,89.5,269.56,89.63,270.08Z" transform="translate(-7.91 -94.18)"/><path class="cls-2" d="M194.13,308.15c-9.09.67-18,.75-27.13,1.51-25,2.09-50.19,4.24-75.18,4.76-1.67,0-2.18.33-3.76-.34s-2-1.26-3.4-3.19a159.11,159.11,0,0,1-15.23-25.54c-1.39-3-2.58-6.21-3.86-9.23,3.4-3.51,11.6-2.42,16.36-3.39,2.08-.42,5.73-1.21,7.7-2.65,3.07,8.24,5.84,16.56,8.39,25,19.55,2.4,39.07,4,58.79,4.95,3.56-1.35,8.07-2.74,11.76-2.61C178.94,297.77,186.69,301.29,194.13,308.15Z" transform="translate(-7.91 -94.18)"/><path class="cls-21" d="M52.87,250.26c-1.21,9.79,2.57,17.47,9.4,24.23Z" transform="translate(-7.91 -94.18)"/><path class="cls-18" d="M59,210.31a4.39,4.39,0,0,1-.71,3.72A13,13,0,0,1,55,217.45c-1.12,1.17-2.55,1.9-3.6,3.14a19.72,19.72,0,0,0,8.29-6.82,1.28,1.28,0,0,0,.27-.58C60.07,212,60.14,211,59,210.31Z" transform="translate(-7.91 -94.18)"/><path class="cls-18" d="M62.66,178.61a6.35,6.35,0,0,1,3.21-3.94,18.6,18.6,0,0,1,6-2.18c2-.74,4.1-.83,6.07-1.71a27.24,27.24,0,0,0-13.71,3.48,2,2,0,0,0-.68.52C62.63,176.06,61.88,177.17,62.66,178.61Z" transform="translate(-7.91 -94.18)"/><path class="cls-1" d="M90.17,417.21c-19.74,0-44-.17-63.72-.56-7.82-.15-12-6.13-11.9-13.54h0c.13-7.41,4.65-13.49,12.52-13.5,19.91,0,44.44-.1,64.3.54,7.86.26,11.49,6.3,11.22,13.67h0C102.32,411.2,98,417.22,90.17,417.21Z" transform="translate(-7.91 -94.18)"/><path class="cls-22" d="M260.53,247.63h-33A6.73,6.73,0,0,0,225,252c-3.12,16.77-7.36,33.34-9.49,50.31a13.23,13.23,0,0,0-.11,2.5,8,8,0,0,0,1.08,4h38.26c6.23-.54,11.65-1,14.7-1.23a35.37,35.37,0,0,0,2.4-2.74c7.42-9.2,8.65-19.52,2.45-30C269.15,266,263.31,257.57,260.53,247.63Z" transform="translate(-7.91 -94.18)"/><path class="cls-23" d="M259.73,247.63a26.75,26.75,0,0,0,6.27,18c6,7.45,10.74,15.56,10.11,26-.39,6.37-6.11,10-6.64,15.94,8.06,1.53,12.42-1.13,13.32-9.94l8.6-50Z" transform="translate(-7.91 -94.18)"/><path class="cls-22" d="M276.38,306.67v.26a2.11,2.11,0,0,1-.13.7,1.87,1.87,0,0,1-1.72,1.16H175.21a1.87,1.87,0,0,1-1.86-1.86v-.26a1.87,1.87,0,0,1,1.86-1.85h99.32A1.87,1.87,0,0,1,276.38,306.67Z" transform="translate(-7.91 -94.18)"/><circle class="cls-24" cx="248.46" cy="181.66" r="7.21"/><path class="cls-25" d="M421.09,288.57q-3.18.84-6.19,1.54a1.07,1.07,0,0,0-.25,0q-.31-.54-.66-1.08c.46-.35.37-1,.14-2.6-.42-3-.73-6.1-1.21-9.14-1-6.23-.34-12.51-.87-18.75-.23-2.72-.6-5.43-.75-8.16-.07-1.36-1.22-2.21-1.49-3.44.55-.76,1.12-1.5,2.29-1.32s2.66.39,4,.56a3,3,0,0,1,1.62.62C418.76,256.41,419.9,269.9,421.09,288.57Z" transform="translate(-7.91 -94.18)"/><path class="cls-26" d="M342.05,239.59A299.86,299.86,0,0,0,373,233.1c.6-4.6.85-8.46-1.9-12.53-7.54,0-14.91-1.45-22.48-1.15-5.79-1.15-11.29-1.53-17.07,0-4.22,1.12-5.73,4.88-7.53,8.22-.89,1.66-1.18,3.54-2.06,5.22.82,3.4,1.66,6.7,5.86,7.49A29.43,29.43,0,0,0,342.05,239.59Z" transform="translate(-7.91 -94.18)"/><path class="cls-26" d="M322,232.86c2.8-2,2.91-5.24,4.74-7.83,2.51-3.57,5-5.54,9.83-5.48,3.93,0,8.12.08,12.09-.12,1.2-6,2.37-12,3.56-18.05.05-.21.21-.43.25-.61.44-2.32.59-3.78-.08-4.64-1.13-1.42-3.93-1.13-4.69-1-3.69.39-10.66-.07-24.54-2.94a74.75,74.75,0,0,0-3.06,30.44A71,71,0,0,0,322,232.86Z" transform="translate(-7.91 -94.18)"/><path class="cls-26" d="M331.23,477.25q-2.19,9.13-4.4,18.28l-13.74-1.9q2.24-9,4.48-18Z" transform="translate(-7.91 -94.18)"/><path class="cls-26" d="M405.57,474.3q-.07,9.31-.13,18.61l-13.9.78q.09-9.18.24-18.37Z" transform="translate(-7.91 -94.18)"/><path class="cls-3" d="M328.57,492.55c-.51-.69-1-1.21-2.07-.56a12.63,12.63,0,0,1-7.48,1.6,6.72,6.72,0,0,1-5.58-3.41c-.51-1-.87-1.16-1.82-.83-7.6,2.67-15.81,5.78-23.23,8.54a4.94,4.94,0,0,0-3.21,2.84h0c-.55,1.3,0,2.52,1.88,2.54,12.82.11,26.59.27,39.46.2,2,0,2.63-.85,2.78-2.67S329,496,329,493.9a.65.65,0,0,0-.08-.38A5.61,5.61,0,0,0,328.57,492.55Z" transform="translate(-7.91 -94.18)"/><path class="cls-3" d="M390.18,491c.53-.68,1-1.2,2.09-.55a12.62,12.62,0,0,0,7.47,1.68,6.79,6.79,0,0,0,5.65-3.35c.53-1,.89-1.14,1.84-.8,7.58,2.75,15.78,5.93,23.17,8.77a4.94,4.94,0,0,1,3.19,2.87h0c.54,1.31,0,2.52-1.91,2.52-12.87,0-26.68,0-39.59-.22-2,0-2.63-.89-2.76-2.7s.37-4.83.38-6.88a.62.62,0,0,1,.1-.38A5.53,5.53,0,0,1,390.18,491Z" transform="translate(-7.91 -94.18)"/><path class="cls-3" d="M397.56,288.52l.27-.82a81.9,81.9,0,0,1-44.72-6.62q-10.59,51.57-22,104.06-10.75,49.37-21.86,97.68l24.84-.24c17-51.94,33.78-103.91,50.9-155.8,2.59,51.54,4.4,103.12,6.32,154.69l26.35.3c1.93-64.71,3.82-129.4,4.84-194.13Z" transform="translate(-7.91 -94.18)"/><path class="cls-16" d="M440.6,204.57l-.05.09a1.24,1.24,0,0,1-.61.76c-.18.11-.39.19-.65.37-.61.42-1.38,0-2.09.05-.12,0-.44,0-.65,0-6.35.53-12.92,1.64-19.26,1.58-2,0-3.16.17-3.79.76s-.71,1.4-.52,2.74c0,.38.13.8.23,1.26,1.07,5,1.57,10.45,3.21,15.48.23.68.6,1.78.78,2.58,0,0,0,0,0,.05s0,.16.08.34v0a164.07,164.07,0,0,1,2.82,18.08c.05.41.1.94.18,1.7,0,0,0,.08,0,.11,1.39,13.05,2.19,26.55,3.19,39.75-1.24.24.28,0-1,.26h-.07c-6.92,1.37-57.92,11.53-69.12-3.53a14.57,14.57,0,0,1-1.08-1.7c-2.66-4.79-2-10.11.94-16.79,0-.11.09-.24.14-.35,3.87-8.81,6.31-20.63,3.65-31,0-.06-.05-.21-.08-.29s0-.05,0-.06a34.73,34.73,0,0,0-1.65-4,45.51,45.51,0,0,0-10.06-13.37l0,0c-.83-.78-.65.19-1.12-.84a.94.94,0,0,1-.06-.15,2.43,2.43,0,0,1-.19-.45c-.81-1.93-.88-7.55-1.44-10.63v0c-.61-3.06-6.31-7.11-6.31-7.11l-13.26-6.7.34-1.3c0-.05,0-.12.05-.18,1.47-5.32,7-23.58,16.07-30.81,5.24-4.19,19.27-10.42,28.06-12.2.86-.16,2.73-.75,3.78-.87h.22c.25,0,.55-.21.7-.1.4.36.6,1,1.1,1.31,6.4,4.35,14.19,2.4,21.08.29h0a.26.26,0,0,1,.1,0,.38.38,0,0,0,.1,0l.47-.14c.4-.13.59-.21.74-.26s0,0,0,0h0a2.74,2.74,0,0,1,.38-.13h.1l0,0h.08a.71.71,0,0,1,.24.06l1.37.32a51.22,51.22,0,0,1,14.55,6.36c.89.55,1.68,1.1,2.53,1.68.31.19.6.4.91.61.79.55,1.58,1.11,2.33,1.69a.23.23,0,0,1,.09.07c.91.69,1.82,1.42,2.69,2.14s1.63,1.39,2.47,2.15c.22.21.42.37.69.63,5.92,5.64,11.29,11.42,14.42,18.79C441.25,190.06,443.26,198.06,440.6,204.57Z" transform="translate(-7.91 -94.18)"/><path class="cls-27" d="M442,210.49h-1c-.39,0-.5.11-.73,0s-.14-.94-.14-1.13c-.05-1.21-.1-2.54-.18-3.94,0-.26,0-.52-.05-.77-.6-9.88-2.48-23.15-9.68-27.56-6-3.71-4.55-2.29-9.06-6.87-2.44-2.46-.92-3.61-2.89-6.26-5-6.72-14.7-10.09-21.91-13.24-.09-.05-.19-.08-.27-.13-1.27-.55-.81-.29-1.6-.68l-.27-.14.13,0,0,0a.05.05,0,0,0-.05,0s0,0,.07-.07,0,0,0,0c.08-.21.87-.37,1-.35s.1,0,.15,0,0,0,0,0h.26l.35,0,1.6.17a51.22,51.22,0,0,1,14.55,6.36c.89.55,1.68,1.1,2.53,1.68.31.19.6.4.91.61.79.55,1.58,1.11,2.33,1.69a.23.23,0,0,1,.09.07c.91.69,1.82,1.42,2.69,2.14s1.63,1.39,2.47,2.15c.22.21.42.37.69.63,5.92,5.64,11.29,11.42,14.42,18.79,2.78,6.48,4.79,14.48,2.13,21l-.05.09h0A37.09,37.09,0,0,1,442,210.49Z" transform="translate(-7.91 -94.18)"/><path class="cls-25" d="M413.49,208c.14,1.7.77,2.82-1.48,3.25-2.52-4-3.36-8.54-5-12.88-.81-2.18-1.52-4.4-2.37-6.52-.52-1.28-.36-2.29,1-2.73s1.77.63,2.06,1.46c.86,2.47,1.92,4.72,2.57,7.21A77.07,77.07,0,0,0,413.49,208Z" transform="translate(-7.91 -94.18)"/><path class="cls-28" d="M385.81,190" transform="translate(-7.91 -94.18)"/><path class="cls-3" d="M408,268.27c-18.6.28-38.3.37-57.06.31a4.93,4.93,0,0,1-5-3.12c-8.9-17.73-18.28-36.8-26.86-54.5-1.07-2.21-.56-3.14,1.86-3.19,18.57-.34,38.21-.62,57-.56a5,5,0,0,1,5,3.15c8.94,17.8,18.36,36.95,27,54.73C410.93,267.31,410.42,268.24,408,268.27Z" transform="translate(-7.91 -94.18)"/><path class="cls-26" d="M396.13,149.16c.6.89-.29,2.24-1.55,2.61a36,36,0,0,1-19.46.63c-.61-.15-1.38-1.18-1.5-1.28-1.68-1.33-7.56-8.74-6-10.26,2.36-2.37,5.41,1.52,8.63-.14a10.19,10.19,0,0,0,4.84-6.56,36.41,36.41,0,0,0,.26-3.67,17.29,17.29,0,0,1,3.75-8c.29,3-.08,3.17.9,7.08a51.62,51.62,0,0,0,4.29,9.91C391.08,140.92,394.55,146.81,396.13,149.16Z" transform="translate(-7.91 -94.18)"/><path class="cls-26" d="M386.46,124.33a3.37,3.37,0,0,1-1.53,1.74c-.57.37-.89.07-1.25.32-1.53,1.06-1.7,3-1.46,4.51.73,4.51-1.86,8.21-5.27,10.38a21.35,21.35,0,0,1-8.43,3.47c-1.71.4-3.57-.63-4.85-1.76a5.81,5.81,0,0,1-.43-.43,55.35,55.35,0,0,1-9.92-14.75,69.66,69.66,0,0,1-4.19-13c3.17-4,20.65-16.06,25.22-12.9,6.42,4.44-.53,11,5.14,14.66,2.32,1.51,3.56-.18,5.69-.53C386.82,118.76,387.47,121.36,386.46,124.33Z" transform="translate(-7.91 -94.18)"/><path class="cls-3" d="M391,128.7a35.91,35.91,0,0,1-1.66-7.87,10.39,10.39,0,0,0-1.31-4.3c.39-7.09.62-18.41-10.5-17.45-11.27-9.78-23.13-3.36-30.22,5.8-3.89,5-4.88,4.11-9.61,6.44,12.87,7,24,4,34.71-5.07.06,5.37,1,11.21,7.07,13.51l5.92-1.93c.37,2.83.11,4.91-2.06,7.08a6.33,6.33,0,0,0,1.23,3.35c1.33,1.57,4.45,3.8,6.48,2.38C391.71,130.15,391.25,129.6,391,128.7Z" transform="translate(-7.91 -94.18)"/><path class="cls-29" d="M382.24,128.49a1.21,1.21,0,0,0-.16.65,6.68,6.68,0,0,0,.15,1.9c.71,4.12-1.86,8.17-5.28,10.26a21.91,21.91,0,0,1-8.43,3.45c-1.71.38-3.57-.61-4.85-1.76a3.25,3.25,0,0,1-.41-.42c1.25-.55,3.15-1.45,4.24-2a46.92,46.92,0,0,0,7.1-4.31c3.13-2.47,4.52-4.67,5-8.26.11-.82.33-1.69.49-2.39a4.57,4.57,0,0,1,.89-1.64c1.49-2.11,2.85-4.07,4.34-6.11a5.53,5.53,0,0,1,.43,1.57C385.7,123,383.61,125.35,382.24,128.49Z" transform="translate(-7.91 -94.18)"/><path class="cls-26" d="M422.36,250.75a289.31,289.31,0,0,1-31-6.07c-.63-4.6-.89-8.45,1.83-12.53,7.57-.12,14.94-1.66,22.53-1.53,5.77-1.28,11.28-1.74,17.09-.26,4.24,1.07,5.74,4.83,7.55,8.17.89,1.65,1.19,3.54,2.07,5.22-.8,3.43-1.65,6.76-5.85,7.6A29.1,29.1,0,0,1,422.36,250.75Z" transform="translate(-7.91 -94.18)"/><path class="cls-26" d="M444.33,233.38a56.06,56.06,0,0,1-1.87,10.35h0c-2.81-2-2.92-5.22-4.74-7.8-2.52-3.56-5.05-5.48-9.84-5.37-3.42.08-7.1.23-10.57.1-.51,0-1.05,0-1.55,0h0c-1.22-6-2.45-12-3.69-18-.05-.21-.19-.4-.24-.63s-.24-.76-.24-1a2.54,2.54,0,0,0-.05-.56c-.2-1.13-.92-2.23.13-3.29a2.86,2.86,0,0,1,1.19-.78,12.43,12.43,0,0,1,3.89-.21c5.92,0,13.43-1,19.77-1.47,1.05-.06,2.28-.06,3.39,0h.69a37.09,37.09,0,0,1,1.41,5.83C443.25,216.87,444.81,227.07,444.33,233.38Z" transform="translate(-7.91 -94.18)"/><path class="cls-25" d="M345,204.76c-.6,1.59-.5,2.87-2.73,2.31-.56-4.72.59-9.16,1-13.78.19-2.32.49-4.63.62-6.92.07-1.37.65-2.22,2-2.05s1.33,1.32,1.24,2.19c-.27,2.61-.26,5.09-.73,7.62A75.62,75.62,0,0,0,345,204.76Z" transform="translate(-7.91 -94.18)"/><path class="cls-26" d="M393.21,232.15s-40.07-4.71-36.34,4.83,34.51,7.7,34.51,7.7Z" transform="translate(-7.91 -94.18)"/><path class="cls-26" d="M328.72,236.91s31.31-1.25,32.13-8.43a3.47,3.47,0,0,0-.43-1.87c-2.86-6.59-14.65-9.9-23.89-7.06-2.92.89-8.27,2.53-9.85,7.42C325.16,231.68,328.2,236.16,328.72,236.91Z" transform="translate(-7.91 -94.18)"/><path class="cls-30" d="M513.21,442.65c6.84-31.34,32.17-51.23,60.19-51.31,5.62,0,11.66,1,14,6.46,2.18,5.05-2.26,9.16-5.39,12.78-7.64,8.84-18.11,13.12-28.77,16.93C539.76,432.35,516.66,442.5,513.21,442.65Z" transform="translate(-7.91 -94.18)"/><path class="cls-30" d="M504.52,438.09c-6.4-31.43-31.45-51.67-59.47-52.15-5.62-.09-11.67.8-14.12,6.27-2.25,5,2.13,9.19,5.21,12.85,7.52,8.94,17.93,13.37,28.54,17.34C478.12,427.42,501.07,437.9,504.52,438.09Z" transform="translate(-7.91 -94.18)"/><path class="cls-31" d="M495.85,410.61c-12.93-36.71-23-74.56-23.3-115.94a66.26,66.26,0,0,1,.63-8.31c.63-5.11,3.06-6.69,6.59-5.62,5.12,1.55,9.34,5.32,13,10.17C509.64,313,517.18,341.1,521,371.5a149.62,149.62,0,0,1-3.31,53.4,45.4,45.4,0,0,1-2,5.37c-3.38-3-3.76-8.14-4.54-12.7-4.38-25.79-5.61-34.27-.87-3C511.22,421.06,499.24,420.23,495.85,410.61Z" transform="translate(-7.91 -94.18)"/><path class="cls-31" d="M516.86,415.1c6.35-31.43,31.36-51.72,59.39-52.24,5.62-.1,11.67.79,14.13,6.25,2.26,5-2.12,9.2-5.19,12.86-7.51,8.95-17.92,13.4-28.52,17.38C543.24,404.39,520.31,414.91,516.86,415.1Z" transform="translate(-7.91 -94.18)"/><path class="cls-30" d="M509.67,384.71c1.58-17-1.62-32.77-3-49A42.79,42.79,0,0,1,510.3,314c4.34-9.53,9.12-11.19,16.33-6.08,4.47,3.17,6.56,7.79,8.13,12.74,7,22.05,1.15,43.87-20,65.34-2.21-1.62-.51-3.91.57-6a92.81,92.81,0,0,0,9.5-30.57c-1.57,10.05-4,20.09-9.39,30C514.19,381.72,513.4,384.53,509.67,384.71Z" transform="translate(-7.91 -94.18)"/><path class="cls-30" d="M479.21,360.27c-5.59-4.19-11.64-7.65-17.22-11.87-3-2.29-8-4.23-6.22-9.7,1.76-5.31,7-4.66,10.78-4.43,17.94,1.06,30.13,11.21,36.29,32.7a79.48,79.48,0,0,1,2.5,33.19C502,394.68,486.66,365.84,479.21,360.27Z" transform="translate(-7.91 -94.18)"/><path class="cls-30" d="M556.13,325.13c-9.45,4.58-14.72,7.14-20.12,13-12.53,13.61-14.11,32.39-15.4,47.79A149.5,149.5,0,0,0,522,421.86a97.36,97.36,0,0,0,20.44-18s19.66-23,21.68-80.07C564.1,323.69,563.47,321.56,556.13,325.13Z" transform="translate(-7.91 -94.18)"/><path class="cls-31" d="M500.51,416.26c4.17-31.8-12.93-59.1-39.27-68.66-5.29-1.92-11.3-3-15.39,1.33-3.77,4-1,9.39.74,13.85,4.21,10.9,12.61,18.48,21.35,25.67C479,397.58,497.31,415,500.51,416.26Z" transform="translate(-7.91 -94.18)"/><path class="cls-32" d="M481,413.35a72.79,72.79,0,0,1,7.48,6.2,84.31,84.31,0,0,1,6.71,7.05,81.79,81.79,0,0,1,5.84,7.78c.89,1.35,1.75,2.73,2.58,4.12s1.59,2.82,2.3,4.28c-.46-.67-.91-1.34-1.34-2l-1.37-2c-.91-1.33-1.84-2.65-2.8-3.94-1.92-2.59-3.89-5.13-6-7.58s-4.24-4.83-6.47-7.15S483.39,415.55,481,413.35Z" transform="translate(-7.91 -94.18)"/><path class="cls-32" d="M487.91,381.14c2.35,6.06,4.6,12.16,6.83,18.25s4.43,12.21,6.51,18.38q1.51,4.65,2.76,9.37a88.9,88.9,0,0,1,2,9.57,69.09,69.09,0,0,1,.85,9.74,55.43,55.43,0,0,1-.78,9.72,66.27,66.27,0,0,0-.83-19.33,132.94,132.94,0,0,0-5-18.76c-2-6.17-4.21-12.27-6.28-18.43S489.87,387.34,487.91,381.14Z" transform="translate(-7.91 -94.18)"/><path class="cls-32" d="M496.55,371c2.35,6.06,4.6,12.15,6.83,18.25s4.43,12.21,6.51,18.38q1.51,4.63,2.75,9.37a86.58,86.58,0,0,1,2,9.57,67.5,67.5,0,0,1,.84,9.74,56.4,56.4,0,0,1-.77,9.72,67.06,67.06,0,0,0-.83-19.34,134.17,134.17,0,0,0-5-18.75c-2-6.17-4.22-12.27-6.28-18.43S498.51,377.24,496.55,371Z" transform="translate(-7.91 -94.18)"/><path class="cls-32" d="M521.6,359.11c-1.74,7.21-3.58,14.39-5.44,21.56s-3.85,14.32-5.59,21.51A161.3,161.3,0,0,0,506.43,424a89.47,89.47,0,0,0,.07,22.12A77.46,77.46,0,0,1,505.29,435a94.11,94.11,0,0,1,.37-11.14c.3-3.71.91-7.39,1.57-11s1.48-7.28,2.37-10.89c1.83-7.19,3.83-14.33,5.82-21.47S519.47,366.21,521.6,359.11Z" transform="translate(-7.91 -94.18)"/><path class="cls-32" d="M534.25,368.53c-1.73,7.21-3.58,14.39-5.43,21.57s-3.86,14.31-5.6,21.5a164.78,164.78,0,0,0-4.14,21.77,89.47,89.47,0,0,0,.07,22.12,77.3,77.3,0,0,1-1.21-11.06,94.11,94.11,0,0,1,.37-11.14,111.12,111.12,0,0,1,1.58-11c.67-3.65,1.48-7.28,2.36-10.89,1.83-7.19,3.83-14.33,5.83-21.46S532.12,375.63,534.25,368.53Z" transform="translate(-7.91 -94.18)"/><path class="cls-32" d="M553.93,404.4c-5.36,5.13-10.79,10.18-16.23,15.21s-11,10-16.33,15.07a164.18,164.18,0,0,0-15.25,16.07,90.43,90.43,0,0,0-11.9,18.65,79.64,79.64,0,0,1,5-10,95.85,95.85,0,0,1,6.34-9.17,110.38,110.38,0,0,1,7.29-8.43c2.54-2.71,5.18-5.33,7.87-7.89,5.43-5.06,11-10,16.51-14.91S548.3,409.22,553.93,404.4Z" transform="translate(-7.91 -94.18)"/><path class="cls-3" d="M538.05,444.27c4.74-.5-1.27,40.8-4.21,58.3-.66,3.92-1.31,5.62-5.61,5.47-8.86-.31-17.73-.2-26.6,0-3.5.06-4.91-1.06-5.33-4.75-1.73-15.32-9.05-52.13-9.59-55.81-.35-2.38.13-3.11,2.35-3.12C492.27,444.32,535.82,444.5,538.05,444.27Z" transform="translate(-7.91 -94.18)"/></svg>