<svg xmlns="http://www.w3.org/2000/svg" viewBox="0 0 786.57 478.13"><defs><style>.cls-1{isolation:isolate;}.cls-2{fill:#eae6ff;}.cls-3{fill:#cdccff;}.cls-4{fill:#d7d7ff;}.cls-5{fill:#bdc6f9;}.cls-6{fill:#8784ef;}.cls-7{fill:#9aa3f4;}.cls-41,.cls-48,.cls-8{fill:none;}.cls-8{stroke:#9aa3f4;stroke-width:1.5px;}.cls-48,.cls-8{stroke-miterlimit:10;}.cls-9{fill:#4a41a3;}.cls-10,.cls-26{fill:#5851bc;}.cls-11,.cls-24{fill:#c4c3fc;}.cls-12,.cls-26,.cls-35{opacity:0.35;}.cls-13,.cls-51{fill:#fff;}.cls-14,.cls-45{opacity:0.25;}.cls-14,.cls-17,.cls-19,.cls-24,.cls-26,.cls-35,.cls-45{mix-blend-mode:multiply;}.cls-15{fill:#fca70c;}.cls-16{fill:#b1affd;}.cls-17{opacity:0.15;}.cls-18{opacity:0.26;}.cls-19{opacity:0.62;}.cls-20{fill:#d5dbda;}.cls-21{fill:#efefef;}.cls-22{fill:#7a7ae5;}.cls-23{fill:#cfcfff;}.cls-24{opacity:0.55;}.cls-25{fill:#a4a4f7;}.cls-27{fill:#a2a7f4;}.cls-28{fill:#9090f4;}.cls-29,.cls-48,.cls-51{opacity:0.45;}.cls-30{fill:#e2deff;}.cls-31{fill:#f9c110;}.cls-32{fill:#5045af;}.cls-33{fill:#ffb9b0;}.cls-34{fill:#7762ef;}.cls-36{fill:#5146af;}.cls-37{fill:#f2f2f2;}.cls-38{fill:#8484ef;}.cls-39{fill:#c4c4f7;}.cls-40{fill:#bbbbf2;}.cls-41{stroke:#c4c4f7;stroke-linecap:round;stroke-linejoin:round;stroke-width:0.75px;}.cls-42{fill:#ed9c80;}.cls-43{fill:#38287c;}.cls-44{fill:#453087;}.cls-45,.cls-47{fill:#ce4a30;}.cls-46{fill:#7a74d1;}.cls-48{stroke:#a4a4f7;}.cls-49{fill:#483a99;}.cls-50{fill:#d5d2ff;}.cls-52{fill:#a9adff;}.cls-53{fill:#f2a181;}.cls-54{fill:#5e5dbb;}.cls-55{fill:#b4b4db;}.cls-56{fill:#6960c4;}.cls-57{fill:#170d54;}.cls-58{fill:#ffbe9d;}.cls-59{fill:#3b2e7a;}.cls-60{fill:#e9e6ff;}.cls-61{fill:#e0d9ff;}.cls-62{opacity:0.3;}.cls-63{fill:#3939d3;}.cls-64{fill:#fefefe;}</style></defs><title>icon-contact</title><g class="cls-1"><g id="Camada_1" data-name="Camada 1"><path class="cls-2" d="M759,316.62c-10.73-29.89-27.61-39-43.67-58.17C695.68,235,682.46,218,687.55,187.89c8.32-49.22,11.88-172-118.43-155.94-46.7,5.75-83.61,41.55-110.46,77.27-22.85,30.41-64,33.09-97,40.17C321,158.1,279.58,171.26,242,190.53c-77.45,39.7-100.58,96.76-97.42,169.77.95,22.06,4.07,56.81,41.33,97.47,50.3,54.87,123.38,62.22,211.34,37,20.14-5.77,39.17-14.82,59-21.63a278.49,278.49,0,0,1,63.64-13.82c50.53-4.88,102.9,4,151.36-11.13a159.67,159.67,0,0,0,67.69-42C762.05,382,770.29,348.17,759,316.62Z" transform="translate(-30.53 -30.52)"/><path class="cls-3" d="M185.89,429.24c0,7.22,91.51,13.07,204.39,13.07s204.38-5.85,204.38-13.07-91.51-13.06-204.38-13.06S185.89,422,185.89,429.24Z" transform="translate(-30.53 -30.52)"/><path class="cls-3" d="M191.61,445.37c0,4.51-23.23,8.17-51.88,8.17s-51.89-3.66-51.89-8.17,23.23-8.17,51.89-8.17S191.61,440.86,191.61,445.37Z" transform="translate(-30.53 -30.52)"/><ellipse class="cls-3" cx="625.23" cy="416.56" rx="87.05" ry="6.47"/><polygon class="cls-4" points="185.77 309.02 182.43 355.84 227.09 355.84 224.01 308.93 185.77 309.02"/><path class="cls-2" d="M225.16,343.65h0a1.43,1.43,0,0,1,1.53-1.3h0a1.31,1.31,0,1,1,0,2.59h0A1.43,1.43,0,0,1,225.16,343.65Zm1.53-.8a.83.83,0,1,0,0,1.6h0a.83.83,0,1,0,0-1.6Zm-1.29.8h0Z" transform="translate(-30.53 -30.52)"/><path class="cls-2" d="M240.39,343.62h0a1.14,1.14,0,0,1,.35-.84,1.66,1.66,0,0,1,1.17-.46h0a1.43,1.43,0,0,1,1.53,1.29,1.19,1.19,0,0,1-.46.93,1.67,1.67,0,0,1-1.07.37h0A1.42,1.42,0,0,1,240.39,343.62Zm1.52-.81a1.17,1.17,0,0,0-.82.32.72.72,0,0,0-.21.48h0a.94.94,0,0,0,1,.8h0a1.19,1.19,0,0,0,.75-.25.74.74,0,0,0,.29-.55,1,1,0,0,0-1-.8Z" transform="translate(-30.53 -30.52)"/><path class="cls-2" d="M233.85,353.06h.43a8.23,8.23,0,0,0,6.34-2.68c2.34-2.79,1.81-6.67,1.79-6.84a.5.5,0,0,0-.56-.42.5.5,0,0,0-.42.56s.48,3.63-1.57,6.07a7.29,7.29,0,0,1-5.61,2.32q-3.63.1-5.43-1.9c-2.18-2.42-1.64-6.41-1.64-6.45a.5.5,0,0,0-.42-.56.5.5,0,0,0-.56.42c0,.18-.61,4.47,1.88,7.25A7.39,7.39,0,0,0,233.85,353.06Z" transform="translate(-30.53 -30.52)"/><polygon class="cls-5" points="206.78 322.14 201.44 356.95 249.93 356.84 245.01 322.05 206.78 322.14"/><path class="cls-6" d="M219.35,411.43a9.84,9.84,0,1,0,9.83,9.84A9.85,9.85,0,0,0,219.35,411.43Zm0,14.4a4.57,4.57,0,1,1,4.58-4.56A4.56,4.56,0,0,1,219.35,425.83Z" transform="translate(-30.53 -30.52)"/><path class="cls-7" d="M217.73,411.43a9.84,9.84,0,1,0,9.83,9.84A9.84,9.84,0,0,0,217.73,411.43Zm0,14.4a4.57,4.57,0,1,1,4.59-4.56A4.57,4.57,0,0,1,217.73,425.83Z" transform="translate(-30.53 -30.52)"/><path class="cls-6" d="M274.91,411.43a9.84,9.84,0,1,0,9.83,9.84A9.84,9.84,0,0,0,274.91,411.43Zm0,14.4a4.57,4.57,0,1,1,4.59-4.56A4.57,4.57,0,0,1,274.91,425.83Z" transform="translate(-30.53 -30.52)"/><path class="cls-7" d="M273.29,411.43a9.84,9.84,0,1,0,9.84,9.84A9.84,9.84,0,0,0,273.29,411.43Zm0,14.4a4.57,4.57,0,1,1,4.59-4.56A4.56,4.56,0,0,1,273.29,425.83Z" transform="translate(-30.53 -30.52)"/><path class="cls-8" d="M349.13,301H319.58a9,9,0,0,0-7.64,4.24L294.08,334" transform="translate(-30.53 -30.52)"/><path class="cls-8" d="M214.69,386.67h66a7.16,7.16,0,0,0,7.07-6L294.62,338a7.15,7.15,0,0,0-7.06-8.29h-79.7a7.15,7.15,0,0,0-7.07,8.29l6.83,42.62A7.17,7.17,0,0,0,214.69,386.67Z" transform="translate(-30.53 -30.52)"/><line class="cls-8" x1="217.18" y1="299.21" x2="217.18" y2="356.15"/><line class="cls-8" x1="260.86" y1="327.68" x2="173.49" y2="327.68"/><line class="cls-8" x1="243.26" y1="299.21" x2="237.61" y2="356.15"/><line class="cls-8" x1="192.4" y1="299.21" x2="197.62" y2="356.15"/><path class="cls-8" d="M286.23,384.08,296.93,400a6.51,6.51,0,0,1-5.41,10.15H204" transform="translate(-30.53 -30.52)"/><rect class="cls-9" x="385.07" y="361.12" width="90.58" height="24.37"/><rect class="cls-10" x="273.83" y="143.16" width="314.01" height="225.91" rx="9.39"/><rect class="cls-11" x="282.6" y="151.4" width="295.51" height="196" rx="5.77"/><path class="cls-10" d="M353.46,383.36h153.8a7.32,7.32,0,0,1,7.32,7.32v8a0,0,0,0,1,0,0H346.13a0,0,0,0,1,0,0v-8A7.32,7.32,0,0,1,353.46,383.36Z"/><g class="cls-12"><rect class="cls-13" x="353.17" y="164.94" width="206.77" height="138.99" rx="9.06"/></g><g class="cls-14"><rect class="cls-15" x="372.82" y="266.46" width="9.01" height="22.61"/><rect class="cls-16" x="393.12" y="246.61" width="9.01" height="42.46"/><rect class="cls-15" x="413.42" y="251.01" width="9.01" height="38.07"/><rect class="cls-16" x="433.71" y="229.51" width="9.01" height="59.57"/><g class="cls-17"><rect class="cls-18" x="393.12" y="246.61" width="4.13" height="42.46"/></g><g class="cls-17"><rect class="cls-18" x="372.82" y="266.46" width="4.13" height="22.61"/></g><g class="cls-19"><rect class="cls-18" x="433.71" y="229.51" width="4.13" height="59.57"/></g><g class="cls-17"><rect class="cls-18" x="413.42" y="251.01" width="4.13" height="38.07"/></g><polygon class="cls-20" points="447.49 295.3 366.88 295.3 366.88 209.47 368.11 209.47 368.11 294.07 447.49 294.07 447.49 295.3"/><polygon class="cls-20" points="375.16 255.88 374.33 254.96 395.42 236.03 414.95 240.27 436.1 216.72 437.02 217.55 415.39 241.62 395.77 237.36 375.16 255.88"/><polygon class="cls-20" points="438.68 221.02 432.71 215.31 440.41 213.25 438.68 221.02"/><rect class="cls-16" x="455.12" y="264.86" width="6.19" height="6.19"/><rect class="cls-15" x="455.12" y="275.7" width="6.19" height="6.19"/><rect class="cls-21" x="463.01" y="278.37" width="19.61" height="3.52"/><rect class="cls-21" x="463.01" y="267.53" width="19.61" height="3.52"/><rect class="cls-16" x="491.5" y="264.86" width="6.19" height="6.19"/><rect class="cls-15" x="491.5" y="275.7" width="6.19" height="6.19"/><rect class="cls-21" x="499.38" y="278.37" width="19.61" height="3.52"/><rect class="cls-21" x="499.38" y="267.53" width="19.61" height="3.52"/><rect class="cls-16" x="524.25" y="264.86" width="6.19" height="6.19"/><rect class="cls-15" x="524.25" y="275.7" width="6.19" height="6.19"/><rect class="cls-21" x="532.14" y="278.37" width="12.9" height="3.52"/><rect class="cls-21" x="532.14" y="267.53" width="12.9" height="3.52"/><rect class="cls-21" x="456.28" y="205.76" width="88.77" height="1.61"/><rect class="cls-21" x="366.88" y="185.95" width="178.17" height="3.69"/><rect class="cls-21" x="456.01" y="210.78" width="89.03" height="1.61"/><rect class="cls-21" x="456.01" y="200.74" width="89.03" height="1.61"/><rect class="cls-21" x="456.01" y="215.8" width="89.03" height="1.61"/><rect class="cls-21" x="456.01" y="220.82" width="89.03" height="1.61"/><rect class="cls-21" x="456.01" y="225.84" width="89.03" height="1.61"/><rect class="cls-21" x="456.01" y="230.86" width="89.03" height="1.61"/><rect class="cls-21" x="456.01" y="235.88" width="89.03" height="1.61"/><rect class="cls-21" x="456.01" y="240.89" width="89.03" height="1.61"/><rect class="cls-21" x="466.91" y="245.91" width="78.13" height="1.61"/><path class="cls-22" d="M581.41,195.45H392.76a9.06,9.06,0,0,0-9.06,9.06v7.93H590.47v-7.93A9.06,9.06,0,0,0,581.41,195.45Z" transform="translate(-30.53 -30.52)"/><path class="cls-23" d="M563.88,204.26a2.61,2.61,0,1,1-2.61-2.61A2.61,2.61,0,0,1,563.88,204.26Z" transform="translate(-30.53 -30.52)"/><circle class="cls-23" cx="541.39" cy="173.74" r="2.61"/><circle class="cls-23" cx="552.03" cy="173.74" r="2.61"/></g><rect class="cls-24" x="298.25" y="195.68" width="206.77" height="138.99" rx="9.06"/><rect class="cls-13" x="302.44" y="190.27" width="206.77" height="138.99" rx="9.06"/><path class="cls-25" d="M530.68,220.79H342a9.06,9.06,0,0,0-9.06,9.06v7.93H539.74v-7.93A9.05,9.05,0,0,0,530.68,220.79Z" transform="translate(-30.53 -30.52)"/><path class="cls-23" d="M513.15,229.59a2.62,2.62,0,1,1-2.61-2.61A2.61,2.61,0,0,1,513.15,229.59Z" transform="translate(-30.53 -30.52)"/><path class="cls-23" d="M523.8,229.59a2.62,2.62,0,1,1-2.62-2.61A2.61,2.61,0,0,1,523.8,229.59Z" transform="translate(-30.53 -30.52)"/><path class="cls-23" d="M534.44,229.59a2.61,2.61,0,1,1-2.61-2.61A2.61,2.61,0,0,1,534.44,229.59Z" transform="translate(-30.53 -30.52)"/><path class="cls-3" d="M347,261.41v80a6.41,6.41,0,0,0,6.26,6.55H518.74a6.41,6.41,0,0,0,6.26-6.55v-80l-92.75,52.28Z" transform="translate(-30.53 -30.52)"/><path class="cls-3" d="M432.25,306.82,347,254.55a6.41,6.41,0,0,1,6.26-6.55H518.74a6.41,6.41,0,0,1,6.26,6.55Z" transform="translate(-30.53 -30.52)"/><path class="cls-26" d="M600.47,173.84H552.05q.5,23.55.8,47.11A18.54,18.54,0,0,1,552,228h-.07c-.64,0-.36.17-.58,1.32a.43.43,0,0,0,0,0c-2,3.2-5.78,4.94-9.5,5.77a.91.91,0,0,0,.06.52,1.2,1.2,0,0,0-.38,1.46c.23.52,3,1.23,6.79.83a18.08,18.08,0,0,0,4.2-1.17,6.52,6.52,0,0,0,1.54-1,5.66,5.66,0,0,0,1.42-.34l.15.14,4.33-1.88s-.47-2.74-.85-4.16a2.6,2.6,0,0,0-.28-.67,197.83,197.83,0,0,0,8.5-30.21c-.79,12.75-5.37,38.66-5.71,39.55a6.65,6.65,0,0,1-5.51,3.87c-1,.08-6.07-.21-5.52,2.11.13.56,2.75,1.74,6.54,2a17.49,17.49,0,0,0,4.33-.42,7.91,7.91,0,0,0,2.7-1.47l.59.78,4.59-1.1s0-1.2,0-2.64a5.88,5.88,0,0,0-1-2.8l.06-2.61,2.55-.3s5.11-16.54,7.54-22.17a50.44,50.44,0,0,0,2.75-7.05,50,50,0,0,0,1.05-8.82,79.08,79.08,0,0,1,3-15.92,2.31,2.31,0,0,1,.44-.92,2.44,2.44,0,0,1,1.67-.59c6.51-.6,9.49.51,13.57-.75,5.36-1.67,5.93-4.1,6.2-4.22A16.87,16.87,0,0,0,600.47,173.84Z" transform="translate(-30.53 -30.52)"/><rect class="cls-27" x="573.7" y="277.08" width="122.09" height="141.18" rx="6.95"/><rect class="cls-28" x="585" y="291.86" width="103.25" height="29" rx="1.77"/><rect class="cls-28" x="585" y="331.14" width="26.55" height="18.41" rx="1.77"/><rect class="cls-28" x="623.35" y="331.14" width="26.55" height="18.41" rx="1.77"/><rect class="cls-28" x="661.7" y="331.14" width="26.55" height="18.41" rx="1.77"/><rect class="cls-28" x="585" y="360.73" width="26.55" height="18.41" rx="1.77"/><rect class="cls-28" x="623.35" y="360.73" width="26.55" height="18.41" rx="1.77"/><rect class="cls-28" x="585" y="390.32" width="26.55" height="18.41" rx="1.77"/><rect class="cls-28" x="623.35" y="390.32" width="26.55" height="18.41" rx="1.77"/><rect class="cls-28" x="661.7" y="360.73" width="26.55" height="48" rx="1.77"/><g class="cls-29"><path class="cls-30" d="M613.65,323.7a3.21,3.21,0,0,1,3.21-3.2h96.83a3.2,3.2,0,0,1,3.21,3.2v22.59a3.21,3.21,0,0,1-3.21,3.21H616.86" transform="translate(-30.53 -30.52)"/><rect class="cls-30" x="583.12" y="329.26" width="26.55" height="18.41" rx="1.77"/><rect class="cls-30" x="621.47" y="329.26" width="26.55" height="18.41" rx="1.77"/><rect class="cls-30" x="659.82" y="329.26" width="26.55" height="18.41" rx="1.77"/><rect class="cls-30" x="583.12" y="358.86" width="26.55" height="18.41" rx="1.77"/><rect class="cls-30" x="621.47" y="358.86" width="26.55" height="18.41" rx="1.77"/><rect class="cls-30" x="583.12" y="388.45" width="26.55" height="18.41" rx="1.77"/><rect class="cls-30" x="621.47" y="388.45" width="26.55" height="18.41" rx="1.77"/></g><rect class="cls-15" x="659.82" y="358.86" width="26.55" height="48" rx="1.77"/><path class="cls-31" d="M692.23,436V394.46a3.2,3.2,0,0,1,3.2-3.21h20.14a3.18,3.18,0,0,1,1.12.21,3.2,3.2,0,0,0-3-2.09H693.56a3.21,3.21,0,0,0-3.21,3.21v41.59a3.19,3.19,0,0,0,2.09,3A3.18,3.18,0,0,1,692.23,436Z" transform="translate(-30.53 -30.52)"/><polygon class="cls-15" points="147.35 341.29 140.97 407.38 203.64 407.39 197.58 341.18 147.35 341.29"/><path class="cls-10" d="M188.81,377.86h0a2.18,2.18,0,0,1,2.34-2h0a2,2,0,1,1,0,4h0A2.19,2.19,0,0,1,188.81,377.86Zm2.34-1.24a1.27,1.27,0,1,0,0,2.46h0a1.27,1.27,0,1,0,0-2.46Zm-2,1.24h0Z" transform="translate(-30.53 -30.52)"/><path class="cls-10" d="M212.16,377.81h0a1.85,1.85,0,0,1,.55-1.29,2.54,2.54,0,0,1,1.8-.71h0a2.2,2.2,0,0,1,2.35,2,1.83,1.83,0,0,1-.72,1.44,2.54,2.54,0,0,1-1.63.56h0A2.21,2.21,0,0,1,212.16,377.81Zm2.35-1.24a1.79,1.79,0,0,0-1.26.49,1.05,1.05,0,0,0-.33.74h0a1.46,1.46,0,0,0,1.6,1.23h0a1.8,1.8,0,0,0,1.15-.39,1.1,1.1,0,0,0,.44-.84,1.46,1.46,0,0,0-1.59-1.23Z" transform="translate(-30.53 -30.52)"/><path class="cls-10" d="M202.15,392.3h.66c4.29-.14,7.57-1.52,9.73-4.11,3.58-4.27,2.77-10.24,2.73-10.49a.76.76,0,0,0-1.5.22s.75,5.56-2.4,9.31c-1.87,2.23-4.77,3.43-8.61,3.55s-6.49-.85-8.33-2.9c-3.35-3.73-2.52-9.85-2.51-9.91a.76.76,0,0,0-1.51-.22c0,.28-.93,6.88,2.88,11.13C195.34,391.15,198.31,392.3,202.15,392.3Z" transform="translate(-30.53 -30.52)"/><path class="cls-32" d="M149.26,222.88c2.42,4.19.33,9.91,2.78,14.09,1,1.67,2.64,3,3.11,4.86a4.24,4.24,0,0,1-6.1,4.78,4.94,4.94,0,0,0-1-.47c-1.21-.36-2.3.72-3.34,1.43a5.13,5.13,0,0,1-4.41.78c-1.87-.63-3-2.52-3.66-4.4-1.75-5.26-.51-11,1.11-16.31.81-2.65,2-5.59,4.6-6.55" transform="translate(-30.53 -30.52)"/><path class="cls-33" d="M205.6,267.44c0,.58.92,1.08.33,2.31-1.31,2.74-5.42,6.52-10.32,4.78-.22.08-27.12,15.63-29.19,15.63s-16.19-13.36-20.81-29.89c-1.1-3.94-.67-8.58,3-10.58a8.75,8.75,0,0,1,5.08,4.52c3.05,5.77,12.21,24.89,14.24,25.61,2.53-1.69,14.85-5.35,24.82-9.58,2.23-1,3.08-1.79,3.87-3.23a32.6,32.6,0,0,1,4.14-6.47c.54-.54,6.44-3.7,6.44-2.67,0,.61-1.73,2.2-4,3.63a5.34,5.34,0,0,0-1.92,2.67c-.39.76,4.23-.63,4.61,1C206,265.36,205.58,267.14,205.6,267.44Z" transform="translate(-30.53 -30.52)"/><path class="cls-34" d="M147.56,249.2a12.12,12.12,0,0,1,8,6.23,25.44,25.44,0,0,1,1.1,2.51c1.43,3.65,3.4,6.95,4.83,10.59a21.33,21.33,0,0,1-6.32,3.05,13.42,13.42,0,0,1-5.89.79,2.8,2.8,0,0,1-1-.22,3.22,3.22,0,0,1-1-.88c-.62-.71-1.21-1.42-1.79-2.15a6,6,0,0,1-1.21-2.06,6.21,6.21,0,0,1,.29-3.21" transform="translate(-30.53 -30.52)"/><g class="cls-35"><path class="cls-34" d="M151.08,259.16a1.15,1.15,0,0,0-.46-.39.82.82,0,0,0-1,.43,2.22,2.22,0,0,0-.2,1.12,15.33,15.33,0,0,0,.69,4.36l-.46,7.69h0a13.41,13.41,0,0,0,5.51-.8c.83-.31,1.73-.63,2.63-1C156.91,266.25,154,262.59,151.08,259.16Z" transform="translate(-30.53 -30.52)"/></g><path class="cls-33" d="M139.16,241.57s-.1,4.81.63,5.13a19.3,19.3,0,0,0,3.11,1l0,10-13.28-2-9.13-5.09s9.49-3.14,9.58-4.09-.53-6.27-.53-6.27" transform="translate(-30.53 -30.52)"/><path class="cls-33" d="M118.75,385.71v0c-3.64,17.22-1.91,40.89-2.72,53.86.19.05,4.94.65,4.94.65s11.24-54.67,13.28-65.14a14.73,14.73,0,0,0,.26-2c.49-7.88-6.61-8.28-10.61-1.77a27,27,0,0,0-1.83,3.52c-.23.51-.44,1-.66,1.59h0a51.47,51.47,0,0,0-1.76,5.5l0,.2c-.17.55-.31,1.11-.44,1.67l0,.13C119,384.53,118.88,385.11,118.75,385.71Z" transform="translate(-30.53 -30.52)"/><path class="cls-33" d="M140,323.88c-.13,1.42-.89,8.21-1.81,16.21-.77,6.73-1.63,14.31-2.3,20.31-.49,4.51-.85,8.1-1,9.79a23,23,0,0,1-.4,2.91v0c-1.71,7.87-7.15,8.33-10.45,6.5a6.32,6.32,0,0,1-1.26-.85,4.17,4.17,0,0,1-1.4-2.32v0c-.21-1.61-.42-3.82-.61-6.44v0s0,0,0,0l0-.05c-.4-5.12-.74-11.69-1.05-18.1-.36-7.86-.58-15.44-.64-19.72,0-.25,0-.48,0-.7-.06-13.12,12-21.52,19.48-17.45l.27.13a2.1,2.1,0,0,0,.28.18c.86.57,1.14,2.52,1.16,4.76C140.26,320.61,140.14,322.4,140,323.88Z" transform="translate(-30.53 -30.52)"/><path class="cls-33" d="M121.69,373.35l-.91-3.43s0,0,0,0a54.73,54.73,0,0,1-1.14,12l0,.2c-.14.54-.27,1.12-.44,1.67l0,.13a9.13,9.13,0,0,0-.39,1.76v0c0,1.55,3.3-5.36,4.06-7l.16-.32-.9-3.6Z" transform="translate(-30.53 -30.52)"/><path class="cls-33" d="M147.65,389v0c-.34,18,5.23,39.25,6.7,52.35.18,0,4.55-.59,4.55-.59s.83-55.26.89-66.18a16.44,16.44,0,0,0-.11-2.08c-.9-8-7.35-6.59-9.84.88a31.13,31.13,0,0,0-1.05,3.95c-.12.57-.22,1.14-.32,1.74v0a58.37,58.37,0,0,0-.65,5.91v.21c-.05.59-.08,1.18-.11,1.77v.13C147.68,387.76,147.66,388.37,147.65,389Z" transform="translate(-30.53 -30.52)"/><path class="cls-33" d="M151.4,381.64a4.83,4.83,0,0,1-1.27-.55,3.66,3.66,0,0,1-1.66-1.95v0c-.48-1.56-1-3.73-1.67-6.29a.06.06,0,0,1,0,0l0-.06c-1.22-5-2.66-11.44-4-17.72-1.65-7.73-3.15-15.22-3.92-19.47-.06-.23-.73-3.33-.78-3.56-2.31-13.17,8-21.76,15.44-19.25l.29.1c1.5.61,1.92,5.89,2.26,9.46s2.87,40.57,3.51,47.26a28.58,28.58,0,0,1,.13,3C159.51,380.82,154.69,382.63,151.4,381.64Z" transform="translate(-30.53 -30.52)"/><path class="cls-33" d="M148.2,376l-1.41-3.19s0,0,0,0a61.34,61.34,0,0,1,1,12.21v.21c0,.57-.05,1.18-.11,1.77v.13a10.4,10.4,0,0,0,0,1.85v0c.26,1.55,2.07-6.15,2.47-8,0-.23.09-.36.09-.36l-1.42-3.36Z" transform="translate(-30.53 -30.52)"/><path class="cls-36" d="M125.3,298.57s-9.67,12.28-8.68,24.63c.42,5.14,1,9.66,1.64,14.83.08.75,1.24,11.61.92,11.62,0,0,19.92,6.15,39.18-1.91,0-1.32,1.54-26.59-8.86-50.68A167.18,167.18,0,0,1,125.3,298.57Z" transform="translate(-30.53 -30.52)"/><path class="cls-34" d="M155.59,270.2c-.08,3.52-2,5.66-4.63,8.63-.34.53-1.18,8.37-1.46,13.59-.15,2.71,1,4.42,0,4.64-3.87,3.37-17.8,6.11-24.19,1.5.67-5.67-1.87-18.17-3.59-24.52-.27-1-.5-1.81-.71-2.44-1.6-4.83-4.48-20.31-2.35-21,.42-.14,1.09-.31,1.85-.54,3.34-1,8.28-2.74,8.28-2.74s2.89,8.56,10.42,9.6c4.11-1.69,3.74-6.89,3.69-9.28,1.35.37,1.94.74,6.11,2,1.16,1.69.16,5.2,2,10.44C151.52,261.37,155.68,265.91,155.59,270.2Z" transform="translate(-30.53 -30.52)"/><path class="cls-33" d="M148.77,221.91s.76,9.31-.83,14.18c-1.17,3.61-6,7-10,6.94-11.11,0-13.1-15.09-13-15.82s16.39-7.07,16.39-7.07Z" transform="translate(-30.53 -30.52)"/><path class="cls-37" d="M149.93,313.69" transform="translate(-30.53 -30.52)"/><path class="cls-32" d="M169.92,446.61c-3.95.71-8.18-.4-9.91-.1-1.43.24-5.11,1.18-6.49-.06s-1.15-5.61.43-6.19a6,6,0,0,0,1,.25,10.88,10.88,0,0,0,4.68-.38c3,1.23,3.12,1.78,6.54,2.47a22.19,22.19,0,0,1,4.36,1.32C172,444.59,172.15,446.21,169.92,446.61Z" transform="translate(-30.53 -30.52)"/><path class="cls-32" d="M127.23,448.35c-4-.67-6.47-2.86-8.2-3.16-1.43-.26-5-1-5.41-2.44-.28-1.09.81-5.66,2.49-5.67a6.59,6.59,0,0,0,.88.58,11.06,11.06,0,0,0,4.54,1.22c2.41,2.18,2.34,2.73,5.32,4.53a22.31,22.31,0,0,1,3.66,2.72C131.67,447.26,129.47,448.73,127.23,448.35Z" transform="translate(-30.53 -30.52)"/><path class="cls-33" d="M69.49,263.56l3.64-4.33,22.2,19.85s10.84-14.42,13.82-18.93c3.28-4.95,6.23-9.19,11-10,1.1.68-.38,18.48-1,18.91-6.7,5-19.74,21.17-23.88,22C90.56,292,69.49,263.56,69.49,263.56Z" transform="translate(-30.53 -30.52)"/><path class="cls-34" d="M121.82,249.34s-4.54.06-6.49,1.67-11.27,16.37-11.27,16.37a6.56,6.56,0,0,0,2.45,5.13,13.55,13.55,0,0,0,6.71,2.91s4.68-4.66,7.32-6.77c1.64-1.32,1.8,1.94,1.8,1.94l8.25-8Z" transform="translate(-30.53 -30.52)"/><path class="cls-32" d="M119.08,249.52c-.25-.13-.49-.27-.73-.41a6.14,6.14,0,0,1-3-3c-.77-2.08-1.14-5.28-.06-7.3.73-1.37,2.11-2.27,3-3.5a10.7,10.7,0,0,0,1.79-6.07,40.15,40.15,0,0,1,.44-6.41c.77-3.59,1.79-7,4.55-9.31,4.43-3.7,13.3-5.9,18.12-1.77.88.75,1.05,1.35,2.24,1.47a8.59,8.59,0,0,1,4,1.18c1.59.92,3.51,2.21,3.28,4.28a7.42,7.42,0,0,1-3,4.4,3.72,3.72,0,0,1-1.71.38c-1.88,0-3.44-1.19-5.29-1a3.52,3.52,0,0,0-2.31,1.28c-.67.82-.58,2-1.35,2.74-1.25,1.23-3.18,1.12-4.66,1.92a1.24,1.24,0,0,0-.79,1.32l-.09,2.33c-.73-.32-.81-1.36-1.41-1.89a1.7,1.7,0,0,0-2.12.14,3.59,3.59,0,0,0-1,2,5.89,5.89,0,0,0,.42,2.78c.48,1.58,1.84,3,2.93,2,.8,1.17-.07,3.13-.1,4.45,0,1,0,3.13,1,3.82s2.33.15,2.38,1.78-1.44,2.67-2.93,2.85a10.93,10.93,0,0,1-4.38-.77A6.94,6.94,0,0,0,124,249a13,13,0,0,1-2.47,1.11A3.82,3.82,0,0,1,119.08,249.52Z" transform="translate(-30.53 -30.52)"/><path class="cls-33" d="M78.74,264.28s-5.22-4.19-5.58-5.33-.43-2.37-.86-3.49a6.5,6.5,0,0,0-3.62-3.6c-1.31-.54-.67-1-2.07-.71-2.11.4-3.12,2.48-4,4.1-3.61,6.9,6.26,8.21,6.61,8.23.72,0,4.39,4.19,4.39,4.19" transform="translate(-30.53 -30.52)"/><path class="cls-38" d="M62.26,260.94l3.57,2.39a1,1,0,0,0,1.39-.32l7.85-13.15-4.65-2.62L62,259.57A1,1,0,0,0,62.26,260.94Z" transform="translate(-30.53 -30.52)"/><path class="cls-39" d="M49.49,233l1.23.84,5-7.25-1.23-.84a4.15,4.15,0,0,0-5.65,1.46h0A4.13,4.13,0,0,0,49.49,233Z" transform="translate(-30.53 -30.52)"/><polygon class="cls-39" points="14.41 211.34 37.29 214.82 42.51 207.2 30.97 187.22 14.41 211.34"/><polygon class="cls-40" points="15.87 211.66 37.29 214.82 39.37 211.78 21.35 203.68 15.87 211.66"/><path class="cls-39" d="M77.22,250.87h0a2.91,2.91,0,0,0,4-1l.93-1.35a2.89,2.89,0,0,0-.48-4.05h0a2.91,2.91,0,0,0-3.95,1l-.93,1.36A2.88,2.88,0,0,0,77.22,250.87Z" transform="translate(-30.53 -30.52)"/><path class="cls-40" d="M77.68,245.48l-.93,1.35a2.71,2.71,0,1,0,4.43,3l.93-1.35.19-.32a2.66,2.66,0,1,1-4.39-3A2.37,2.37,0,0,0,77.68,245.48Z" transform="translate(-30.53 -30.52)"/><path class="cls-25" d="M44.19,242.61h0a1.72,1.72,0,0,0,2.33-.6l15.69-22.87a1.69,1.69,0,0,0-.28-2.37h0a1.71,1.71,0,0,0-2.32.6l-15.7,22.87A1.7,1.7,0,0,0,44.19,242.61Z" transform="translate(-30.53 -30.52)"/><path class="cls-38" d="M62.33,217.2,49.26,236.25a1.71,1.71,0,0,1-2.32.6,1.36,1.36,0,0,1-.4-.43l-2.63,3.82a1.7,1.7,0,0,0,.28,2.37,1.72,1.72,0,0,0,2.33-.6l15.69-22.87A1.81,1.81,0,0,0,62.33,217.2Z" transform="translate(-30.53 -30.52)"/><path class="cls-25" d="M69.84,249.34l1.48,1c2.18,1.49,5.34.67,7.06-1.83l1.47-2.14c1.72-2.5,1.33-5.74-.85-7.22l-1.48-1c-2.19-1.49-5.35-.67-7.06,1.82L69,242.12C67.27,244.62,67.65,247.85,69.84,249.34Z" transform="translate(-30.53 -30.52)"/><path class="cls-38" d="M69.07,242l-2.21,3.21a1.64,1.64,0,0,0,.27,2.29L74,252.19a1.65,1.65,0,0,0,2.24-.58l2.2-3.21a1.64,1.64,0,0,1-2.23.58l-6.89-4.69A1.63,1.63,0,0,1,69.07,242Z" transform="translate(-30.53 -30.52)"/><path class="cls-33" d="M63,257.64a7.16,7.16,0,0,1,1.26-5.37,11.16,11.16,0,0,1,1.28-1.39,1.86,1.86,0,0,1,.77-.51,2.45,2.45,0,0,1,1.67.38,3.08,3.08,0,0,1,1.38,1.36,1.82,1.82,0,0,1-1,2.19.42.42,0,0,0-.19.18.62.62,0,0,0,.13.43,3,3,0,0,1,.53,1.78,1,1,0,0,1-1.23.92c-.27,0-.63-.15-.72.06a.59.59,0,0,0,0,.23,1.93,1.93,0,0,1-.42,1.51.5.5,0,0,1-.33.21,1,1,0,0,1-.34-.05,5,5,0,0,1-1.23-.54" transform="translate(-30.53 -30.52)"/><path class="cls-33" d="M73.13,259.23a27.08,27.08,0,0,1-.43-2.8,6.36,6.36,0,0,0-3-5.25.74.74,0,0,0-.49-.14.55.55,0,0,0-.4.47,1.43,1.43,0,0,0,.1.64c.21.67,1.15,1.91.86,2.6A7.8,7.8,0,0,0,69,258c0,1,.49,2.61,1.67,2.77" transform="translate(-30.53 -30.52)"/><line class="cls-41" x1="16.07" y1="176.15" x2="20.67" y2="187"/><line class="cls-41" x1="6.46" y1="185.8" x2="15.89" y2="192.87"/><line class="cls-41" x1="0.38" y1="198.95" x2="12.11" y2="200.1"/><path class="cls-33" d="M526.74,115.27s-4.21-3-4.36-4.22-3.09-6.31-4-7.32-5.88-2.72-6.93-2.87-7.1.36-6.35,1.19,4.67.52,5.42,1l.75.45s-.75,1-.45,1.64-1.29,1.56-.69,2.62-.24,1,.3,2.08c.89,1.81,3.16,2.82,3.76,2.33.46,1.07,2.18,3.26,3.8,3.11s5.55,3.54,5.55,3.54" transform="translate(-30.53 -30.52)"/><path class="cls-33" d="M591,94.12c.14,2.83-.06,7.75.75,8.48s3.42.62,3.42.62S585.82,115,585,114.39s-11.89-9.66-9.41-10.12,4.92-.37,4.85-1.66l-.21-3.85" transform="translate(-30.53 -30.52)"/><path class="cls-15" d="M601.65,157.25s-18.24,2.07-22.44,2.16-4-2.11-4-2.11c-.21-4.62-1-15.51-1.87-19.21-.81-3.44-1.17-4.71-1.87-8-1.57-7.28-1.5-8.67-3.17-17.65l10.9-8.76s1.13,3.35,5.69,3.41c6.11.07,8-4.2,8-4.2l14.86,9.87,1.39,24-1.77,19.76" transform="translate(-30.53 -30.52)"/><path class="cls-33" d="M591.19,91.55a32.29,32.29,0,0,1-1.28,4.2c-1,2.5-2.39,3.4-5,3.46l-5.58.13c-1.43,0-3.21.09-4.36-.92s-1.17-2.66-1.43-4c-.32-1.76-.59-3.54-.79-5.32a78.45,78.45,0,0,1-.49-10.51,7.6,7.6,0,0,1,.12-1.43,1.17,1.17,0,0,1,.24-.53,1.23,1.23,0,0,1,.67-.26,57.44,57.44,0,0,1,10.56-.68c2.5.07,5.14.37,7.11,1.89s2.93,4,3.78,6.4c.14.38.24.88-.09,1.11" transform="translate(-30.53 -30.52)"/><path class="cls-42" d="M550.28,222.32a38.51,38.51,0,0,0,1.09,4.87c.48,1.24,4.55.09,4.82-.71s-1.28-6.7-1.28-6.7" transform="translate(-30.53 -30.52)"/><path class="cls-43" d="M557.6,227.51c.36,1.34.8,3.9.8,3.9l-4.07,1.77-.66-.62a7.6,7.6,0,0,1-2.26,1.8,16.82,16.82,0,0,1-3.94,1.09c-3.55.38-6.16-.29-6.37-.78-.89-2.06,3.83-2.61,4.76-2.85a6.26,6.26,0,0,0,4.47-4.48c.2-1.07-.06-1.26.54-1.23a1.42,1.42,0,0,1,1,.48,2.57,2.57,0,0,0,2.89.67,3.07,3.07,0,0,0,1.44-1.2A1.77,1.77,0,0,1,557.6,227.51Z" transform="translate(-30.53 -30.52)"/><path class="cls-44" d="M568.26,174.9a68.87,68.87,0,0,1-20.77.49c.9,2.57,3.1,5.88,3.94,9.5,2.77,12,3.73,28.07,4.44,38,0,0-1.33,2.55-5.6.61-6.37-15.74-17.49-47.62-17.38-54.54.13-8.8,22.11-10.93,38.21-13.1" transform="translate(-30.53 -30.52)"/><path class="cls-43" d="M596.33,157.27c5.07,3.7-28.07,17.63-28.07,17.63a55.28,55.28,0,0,1-10.86,1,7.37,7.37,0,0,1-.81-2.05c-.2-1-.09-2-.26-2.93a6.83,6.83,0,0,0-3.31-4.46,14.83,14.83,0,0,0-5.42-1.76c-4.48-.72-12.3-.22-12.3-.22,10-7.34,30.34-8.3,39.83-8.9C577,158.6,595.61,156.74,596.33,157.27Z" transform="translate(-30.53 -30.52)"/><path class="cls-42" d="M560.78,230.69a40.11,40.11,0,0,0,.23,5c.26,1.3,4.47.88,4.87.14s-.1-6.83-.1-6.83" transform="translate(-30.53 -30.52)"/><path class="cls-43" d="M567.1,237.07c.11,1.38.11,4,.11,4l-4.32,1-.55-.74a7.46,7.46,0,0,1-2.53,1.38,17.41,17.41,0,0,1-4.07.4c-3.56-.24-6-1.35-6.14-1.87-.51-2.18,4.22-1.91,5.19-2a6.26,6.26,0,0,0,5.17-3.63c.39-1,.16-1.26.75-1.12a1.43,1.43,0,0,1,.92.64,2.57,2.57,0,0,0,2.73,1.17,3,3,0,0,0,1.62-.94A1.79,1.79,0,0,1,567.1,237.07Z" transform="translate(-30.53 -30.52)"/><path class="cls-44" d="M607.39,156.53a204.59,204.59,0,0,1-22.46.72c-2.86,0-24.55,4.07-26.63,7.74-3.41,6,2.23,41.38,1.71,66.68,0,0,2.6,2.17,7.2.13,1.14-12.43,8.48-41.74,3.42-55.43,12,1.59,21.6,3.17,32.47-.44,2.54-.84,4.45-2.64,5.59-5.93S609.24,159.49,607.39,156.53Z" transform="translate(-30.53 -30.52)"/><path class="cls-15" d="M579.21,103.69s-2.61.14-3.11.18a24,24,0,0,0-6.45,1.22c-2.95,1.09-5,3.84-7.44,6S547.89,124.59,545.65,125,523.75,112,523.75,112l-4.79,4.8s21.32,19.71,27.68,19.74c3.09,0,20.12-8.94,25.56-12.42Z" transform="translate(-30.53 -30.52)"/><path class="cls-45" d="M546.69,132.72c-4.38.25-24.47-15.1-26.8-16.89l-.93.93s21.32,19.71,27.68,19.74c2.58,0,14.82-6.2,22-10.29l1.86-1.08-1.11-6.62S551.35,132.46,546.69,132.72Z" transform="translate(-30.53 -30.52)"/><path class="cls-25" d="M526.23,160.48h48.82l-8.76-28.54a3.73,3.73,0,0,0-3.58-2.65H520a2.43,2.43,0,0,0-2.32,3.14Z" transform="translate(-30.53 -30.52)"/><path class="cls-46" d="M525.61,160.48H573.7L565,131.94a3.75,3.75,0,0,0-3.59-2.65H518.6a2.43,2.43,0,0,0-2.32,3.14l8.38,27.34A1,1,0,0,0,525.61,160.48Z" transform="translate(-30.53 -30.52)"/><g class="cls-14"><path class="cls-47" d="M600.68,117.44c-2.42,11-2.86,19.59-3.54,27.44-8.53,3.31-12,8.24-20.35,12,0,0-6.59-1.1-7.29,1.39-.4,1.43,7.72,2.58,7.72,2.58,7.74,0,28.14-5.62,29.52-6s5.4-26.32,5.56-40.39c0-2,0-4.17-1.3-5.73a7.48,7.48,0,0,0-2.51-1.86c-5.45-2.78-9.48-3.54-15.58-3.93" transform="translate(-30.53 -30.52)"/></g><path class="cls-33" d="M577.94,158.54c-.92-1.16-2.59-1.32-4.06-1.29a32.5,32.5,0,0,0-3.27.26c-.49.07-1.05.19-1.11.72s2.39,0,3.67.37a63.24,63.24,0,0,1-7.54.2,2.5,2.5,0,0,0-.87.09.71.71,0,0,0-.49.67.88.88,0,0,0,.34.57,5.24,5.24,0,0,0,2.6,1.05,20,20,0,0,0,11.47-1" transform="translate(-30.53 -30.52)"/><path class="cls-15" d="M600.15,117.24c-.2,11.74-1,17.12-.8,28.86-5.9,1.26-14.06,7.93-22.41,11.65a4.45,4.45,0,0,0,.28,3.06c.64.23,28.16-6.47,30.35-8.49,2-1.81,4.57-23.83,4.73-37.9,0-2,0-4.17-1.3-5.73a7.48,7.48,0,0,0-2.51-1.86c-5.45-2.78-9.48-3.54-15.58-3.93" transform="translate(-30.53 -30.52)"/><path class="cls-48" d="M550.43,145.37c.18,2.51-2.78,4.53-6.6,4.53s-7.07-2-7.24-4.53,2.78-4.53,6.6-4.53S550.26,142.87,550.43,145.37Z" transform="translate(-30.53 -30.52)"/><ellipse class="cls-25" cx="543.51" cy="145.37" rx="2.52" ry="4.4" transform="translate(346.54 652.29) rotate(-87.77)"/><path class="cls-49" d="M582.59,84c-.09-.44-1.06-.52-2-.4s-3.59.45-4.13.87-.5.72-.79.75-.3-.26-.92-.54a8.19,8.19,0,0,0-3.11,0c-1,.12-1.91.34-1.89.78a2.56,2.56,0,0,0,.39,1.36c.2.12.2.1,1,1.87a1.87,1.87,0,0,0,2.36,1.28c1.61-.35,1.71-2.19,1.83-3s.24-.88.49-.91.41,0,.72.76.54,2.35,2.19,2.44c2.16.12,3.1-.62,3.4-2,.4-1.88.31-1.89.47-2.06a10.18,10.18,0,0,1,1.62.14l0-.56A12.83,12.83,0,0,1,582.59,84Zm-7.84,3.78a1.88,1.88,0,0,1-1.6,2c-1,.13-1.44-.4-2-1.67a3.28,3.28,0,0,1-.32-2.28c.17-.31.7-.3,1.93-.38s1.65-.1,1.85.44A7.25,7.25,0,0,1,574.75,87.82Zm7-1c-.2,1.36-.7,2-2.06,2.18-1.92.23-2.29-.53-2.58-1.45a7,7,0,0,1-.36-1.89c.06-.57.46-.65,1.68-.88s2.83-.51,3.07-.26A3.32,3.32,0,0,1,581.79,86.79Z" transform="translate(-30.53 -30.52)"/><path class="cls-49" d="M595.65,81a21.74,21.74,0,0,0-.54-2.89,9.19,9.19,0,0,0-4.51-5.91,14.42,14.42,0,0,0-10.21-1c-1.87.52-2.56,1.51-3.52,1.48a10.54,10.54,0,0,1-2.61-.86c-7.3-2.63-6.08,4.52-5.3,6.48.34.87,2,1.5,2.22,1.86a22.32,22.32,0,0,1,.33,2.91,1.55,1.55,0,0,0,.91,1.08s0-2.3.08-2.62a2.9,2.9,0,0,1,1.08-2.15,6.59,6.59,0,0,1,2.62-.74,19.9,19.9,0,0,1,5.38.89c1.36,1.17,1.71,3.84,2.1,5.41.17.73.36,1.22.66,1.21.22-2.16,1-2.21,2.27-1.47.69.39,1.07,1.76,1.1,2.92a3.1,3.1,0,0,1-2.18,3.19c-.52.11,1,3.06,1.76,3.79a3.73,3.73,0,0,0,.76.67,3.46,3.46,0,0,0,.88.33l1,.28a2.64,2.64,0,0,0,1.44.12c.77-.21,1.17-1,1.52-1.75.57-1.19,1.23-2.33,1.69-3.56A21.24,21.24,0,0,0,595.65,81Z" transform="translate(-30.53 -30.52)"/><path class="cls-50" d="M727.2,189.24H634.79l11.07-8.19v-40a6,6,0,0,1,6-6H727.2a6,6,0,0,1,6,6V183.2A6,6,0,0,1,727.2,189.24Z" transform="translate(-30.53 -30.52)"/><rect class="cls-51" x="652.45" y="112.32" width="42.23" height="4.04"/><rect class="cls-51" x="652.45" y="118.36" width="42.23" height="4.04"/><rect class="cls-51" x="652.45" y="124.4" width="42.23" height="4.04"/><rect class="cls-51" x="652.45" y="130.28" width="42.23" height="4.04"/><rect class="cls-51" x="652.45" y="137.32" width="29.45" height="4.04"/><rect class="cls-52" x="622.6" y="112.32" width="26.53" height="31.02" rx="3.39"/><rect class="cls-51" x="622.6" y="147.21" width="26.53" height="3.33"/><path class="cls-13" d="M669,163h-9.63a1.19,1.19,0,0,1-1.15-.89l-1.86-6.83a1.21,1.21,0,0,1,1.16-1.52h13.33a1.2,1.2,0,0,1,1.16,1.52l-1.85,6.83A1.2,1.2,0,0,1,669,163Z" transform="translate(-30.53 -30.52)"/><path class="cls-13" d="M670.71,164.51h-11.6a.24.24,0,0,1,0-.48h11.42l4-14.07a.24.24,0,0,1,.23-.17h2.52a.24.24,0,0,1,0,.48H675l-4,14.07A.25.25,0,0,1,670.71,164.51Z" transform="translate(-30.53 -30.52)"/><path class="cls-13" d="M660.89,166.4a1.41,1.41,0,1,1-1.4-1.41A1.4,1.4,0,0,1,660.89,166.4Z" transform="translate(-30.53 -30.52)"/><circle class="cls-13" cx="639.15" cy="135.88" r="1.4"/><path class="cls-50" d="M383.91,133.42H501.65L487.55,123V58.58a7.69,7.69,0,0,0-7.7-7.69H383.91a7.69,7.69,0,0,0-7.69,7.69v67.15A7.69,7.69,0,0,0,383.91,133.42Z" transform="translate(-30.53 -30.52)"/><g class="cls-29"><rect class="cls-13" x="386.45" y="62.83" width="53.81" height="5.15" transform="translate(796.17 100.29) rotate(180)"/><rect class="cls-13" x="386.45" y="70.52" width="53.81" height="5.15" transform="translate(796.17 115.67) rotate(180)"/><rect class="cls-13" x="386.45" y="78.21" width="53.81" height="5.15" transform="translate(796.17 131.06) rotate(180)"/><rect class="cls-13" x="386.45" y="85.71" width="53.81" height="5.15" transform="translate(796.17 146.04) rotate(180)"/><rect class="cls-13" x="386.45" y="93.2" width="53.81" height="5.15" transform="translate(796.17 161.03) rotate(180)"/><rect class="cls-13" x="386.45" y="106.82" width="53.81" height="5.15" transform="translate(796.17 188.27) rotate(180)"/><rect class="cls-13" x="386.45" y="114.93" width="91.83" height="5.15" transform="translate(834.2 204.48) rotate(180)"/></g><rect class="cls-39" x="444.48" y="62.83" width="33.8" height="39.52" rx="4.31" transform="translate(892.23 134.66) rotate(180)"/><rect class="cls-51" x="444.48" y="107.27" width="33.8" height="4.24" transform="translate(892.23 188.27) rotate(180)"/><path class="cls-13" d="M458.05,88.48h12.26a1.54,1.54,0,0,0,1.48-1.13l2.36-8.72a1.53,1.53,0,0,0-1.48-1.93h-17a1.53,1.53,0,0,0-1.48,1.93l2.36,8.72A1.53,1.53,0,0,0,458.05,88.48Z" transform="translate(-30.53 -30.52)"/><path class="cls-13" d="M455.89,90.44h14.77a.3.3,0,0,0,.3-.31.29.29,0,0,0-.3-.3H456.12L451,71.9a.31.31,0,0,0-.3-.22h-3.21a.31.31,0,1,0,0,.61h3l5.14,17.93A.31.31,0,0,0,455.89,90.44Z" transform="translate(-30.53 -30.52)"/><path class="cls-13" d="M468.4,92.84a1.79,1.79,0,1,0,1.78-1.79A1.78,1.78,0,0,0,468.4,92.84Z" transform="translate(-30.53 -30.52)"/><path class="cls-13" d="M455.41,92.84a1.79,1.79,0,1,0,1.78-1.79A1.78,1.78,0,0,0,455.41,92.84Z" transform="translate(-30.53 -30.52)"/><ellipse class="cls-2" cx="734.68" cy="436.5" rx="51.88" ry="5.47"/><path class="cls-7" d="M737.37,459.26a13,13,0,0,1-5.41,4.1c-2.89,1.29-9,1.9-5.62,3s7.37.45,9.38.13a39.31,39.31,0,0,1,6.33-.38c3.13,0,3.15-.22,2.73-3.74C744.2,457.54,738.78,456.52,737.37,459.26Z" transform="translate(-30.53 -30.52)"/><path class="cls-7" d="M794,457.5c-.17,1,1.22,3.94-1.27,6.12s-8.13,4.47-4.39,4.55a21.72,21.72,0,0,0,9.24-1.72c1.9-.94.38-2.42,2.74-3.16,3.11-1,2.47-3.27.86-4.68C799.12,454,794.57,454.33,794,457.5Z" transform="translate(-30.53 -30.52)"/><path class="cls-9" d="M782.1,358.74s7.45-21.91-13.69-39.95c0,0-11.33,4.51-20.4,5a50.24,50.24,0,0,1-10.77-.23s-.6,19.46-.63,29.95Z" transform="translate(-30.53 -30.52)"/><path class="cls-9" d="M734.9,395.12c-.41-9.79,10.21-8.51,14.13-1.19,8.09,15.13-3,50-4.46,66.48-1.52.59-4.07,1-5.6.35a3.89,3.89,0,0,1-1.63-1.8C737.57,438.71,735.34,405.6,734.9,395.12Z" transform="translate(-30.53 -30.52)"/><path class="cls-9" d="M748.66,396.61c-1.22,4-14.78,8.2-13.68-6.35.49-6.46,1.79-42.11,2-45.55s.82-8.46,2.48-9.08c8.31-3.14,23,7.72,20.81,20.62C758.86,364.88,751.19,388.31,748.66,396.61Z" transform="translate(-30.53 -30.52)"/><path class="cls-9" d="M770,402.17c-3.27-9.24,7.37-10.88,13.41-5.18,14.14,13.32,14.69,44.73,18.16,60.94a12.44,12.44,0,0,1-6.18,1.77,2.21,2.21,0,0,1-1.69-.86C787.94,439.41,773.5,412,770,402.17Z" transform="translate(-30.53 -30.52)"/><path class="cls-9" d="M784,399.15c.37,4.17-10.93,12.77-15.38-1.13-2-6.17-10.42-42.61-11.48-45.89s-.76-10,.54-11.25c6.52-6,21.24-.73,24.06,12.06C783.61,361.48,783.21,390.51,784,399.15Z" transform="translate(-30.53 -30.52)"/><path class="cls-53" d="M725.78,239.61c.39-.41.77-.82,1.12-1.26,2.67-3.42,3.06-6.46,5.55-10.44a29.27,29.27,0,0,1,1.8-3.45,14.53,14.53,0,0,1,4-3.3c1.16-.6.16,2,.16,2s1-1.43,1.93-1.32c.37,0,.44,2.21.44,2.59a18.21,18.21,0,0,1-2,8.65,4.44,4.44,0,0,0-.69,2,4.32,4.32,0,0,0,2.34-1.15,2.82,2.82,0,0,1,2.44-.71,6.28,6.28,0,0,1-.47,1c-1.06,2-2.24,4.1-4.28,5.07-1.21.57-2.62.68-3.81,1.31-2.14,1.14-3.18,3.77-5.35,4.85" transform="translate(-30.53 -30.52)"/><rect class="cls-54" x="733.97" y="222.65" width="9.26" height="17.04" rx="0.65" transform="translate(115.89 -297.63) rotate(22.7)"/><rect class="cls-55" x="734.95" y="223.67" width="7.76" height="15.21" transform="translate(115.93 -297.7) rotate(22.7)"/><path class="cls-46" d="M745.35,253.46A50.38,50.38,0,0,0,735,255.21c-7.36,2.21-9.89,5.62-12.43,7C727.51,256,733,242.65,733,242.65s-6.64-5.45-7.4-4.16-28.64,33.9-27.76,39.18c.36,2.18,3.58,4.33,6.44,4.23,7.9-.27,17.08-3.14,26.7-6.29,4.23-1.38,5.53,1.6,5.53,1.6" transform="translate(-30.53 -30.52)"/><path class="cls-56" d="M722.57,262.24s-3.51,7.07-4.57,7.53,2.56-1.47,4.54-3.51,4.68-7.4,4.68-7.4A39.77,39.77,0,0,0,722.57,262.24Z" transform="translate(-30.53 -30.52)"/><path class="cls-53" d="M733.58,228a1.57,1.57,0,0,1,.49,1.11,8.67,8.67,0,0,1-.13,4.69,6.68,6.68,0,0,1-1.89,2.4,14.47,14.47,0,0,1-2.87,2" transform="translate(-30.53 -30.52)"/><path class="cls-57" d="M745.52,216.19c-1.87.53-2.85,2.94-3.48,4.58a25.71,25.71,0,0,0-1.39,6.19,8.42,8.42,0,0,0,.3,4.35,9.71,9.71,0,0,0,1.21,1.9,4.27,4.27,0,0,0,.88.92,1.32,1.32,0,0,0,1.21.2c.58-.22.81-.9,1-1.5,1.07-3.91,2.25-7.86,4.45-11.26" transform="translate(-30.53 -30.52)"/><path class="cls-53" d="M743.45,228.56a1.33,1.33,0,0,0-2.48-.77c-.94,1.07-1.19,3.09-1.24,4.59-.07,1.79,1.32,2.14,2.46,2.4" transform="translate(-30.53 -30.52)"/><path class="cls-46" d="M731,259.88c2.29-2.63,9.59-7,19.33-6.67,6.72.21,25,1.32,27,5.81,1,2.3,2.17,25.82.64,33.93-1.15,6.09-4.1,21.2-4.1,24.84s2,5.21,1,6.27c-2,2.37-16,3.37-22.61,3.37-5.85,0-15.8-1.56-16.31-3.44-.75-2.78,1.14-2.67,1.4-5.59s1-21.84-.08-24.93c-1.94-5.59-2.88-14.71-4.41-18.85C731.81,271.48,728.72,262.52,731,259.88Z" transform="translate(-30.53 -30.52)"/><path class="cls-56" d="M772.9,278.91c.69,1.45,5.43,9.06,5.43,9.06l.19.91c-.12,1.58-.28,3-.48,4.07-1.15,6.09-4.1,21.2-4.1,24.84s1.88,5.14,1,6.27c-1.61,2.19-28,7.1-26.7,1,.11-.55,22.14-17.36,22.26-17.93,1-4.82,1.9-8.29,2.35-11.81C774,286.85,772.2,277.46,772.9,278.91Z" transform="translate(-30.53 -30.52)"/><path class="cls-58" d="M745,244.8s-.06,7.65-.37,8a12,12,0,0,1-1.82,1s1.08,6.65,2.75,6.16,12.66-6.05,12.66-6.05-1.56-.64-1.56-1.25S758.18,240,758.18,240" transform="translate(-30.53 -30.52)"/><path class="cls-58" d="M752.68,217c-1.6.44-5.83-.43-7,1.31s-2.19,6-2.63,7.15c-.87,2.32-1.43,4.8-2.07,7.19-.82,3.12-2.18,8.83.87,11.44a4.08,4.08,0,0,0,2.36,1.19c1.44.26,2.88.56,4.32.82,2.24.4,4.72.87,6.94.15,3-1,4.6-5,5.36-7.82l4.37-15.89Z" transform="translate(-30.53 -30.52)"/><path class="cls-59" d="M744.77,262.92s-.64,29.85-1.86,48L747.3,317l3-7.58a231,231,0,0,0-2.86-46.27Z" transform="translate(-30.53 -30.52)"/><path class="cls-59" d="M743.76,260.3l.1.41a8.38,8.38,0,0,0,.91,2.21h0l2.69.21s1.84-1,2.08-2-3-2.72-3-2.72l-.39.15a5.91,5.91,0,0,0-2.35,1.69Z" transform="translate(-30.53 -30.52)"/><path class="cls-13" d="M756.89,250.77a11.27,11.27,0,0,1,3.07,3.12c-1.38,3.17-4.51,8.8-8,11.36a15.55,15.55,0,0,0-5.47-6.83S755.93,256.74,756.89,250.77Z" transform="translate(-30.53 -30.52)"/><path class="cls-13" d="M746.53,258.42a11.58,11.58,0,0,0-5.36,5.09,25.71,25.71,0,0,1,.73-9.45s2.21-2.82,3-2.88A14.92,14.92,0,0,0,746.53,258.42Z" transform="translate(-30.53 -30.52)"/><path class="cls-53" d="M747,325.06c-3.33.5-4.56,1.74-6.45,3.6a.71.71,0,0,0-.28.55c0,.27.36.39.62.43,1.55.25,1.81-.74,3.26-1.35,1-.4,1.95-.83,2.92-1.25" transform="translate(-30.53 -30.52)"/><path class="cls-60" d="M735.63,300.74l11.82,37.9a1.35,1.35,0,0,1-1.25,1.9l-24.67,2.16a2.27,2.27,0,0,1-2.07-1.59l-12.71-37.32c-.32-1,1.15-2.47,2.14-2.47l24.67-2.17A2.3,2.3,0,0,1,735.63,300.74Z" transform="translate(-30.53 -30.52)"/><path class="cls-61" d="M734.82,301.73,746.47,339a1.36,1.36,0,0,1-1.25,1.91l-24.67,2.16a2.3,2.3,0,0,1-2.07-1.59l-11.65-37.31a1.35,1.35,0,0,1,1.25-1.9l24.67-2.17A2.32,2.32,0,0,1,734.82,301.73Z" transform="translate(-30.53 -30.52)"/><polygon class="cls-13" points="684.58 270.01 685.45 273.28 696.99 272.26 696.04 269 684.58 270.01"/><path class="cls-13" d="M717.29,297.48l1.16,3.7,5.51-.51L722.8,297a3.75,3.75,0,0,0-3.65-2.63A2.25,2.25,0,0,0,717.29,297.48Zm1.22-.07a1.26,1.26,0,0,1,1-1.76,2.09,2.09,0,0,1,2.05,1.47,1.27,1.27,0,0,1-1,1.77A2.11,2.11,0,0,1,718.51,297.41Z" transform="translate(-30.53 -30.52)"/><path class="cls-58" d="M756.35,322.41c-2.58.54-9.48,2.6-10.21,2.94a30.94,30.94,0,0,0-4.39,3.25c-2.6,2.61-1.27,3.82-2.29,7.35a1.76,1.76,0,0,0-.07.56c0,.37.5.69,1,.34.27.46,1.07.18,1.46-.32,0,.35.49.58,1.28.14.43-.24.35-.22,1.35-1.1a10,10,0,0,1,2.8-1.71,21.9,21.9,0,0,0,2.74-1.25c1.05-.69,2.92-.86,3.84-3.85a3,3,0,0,1,1.44-1.44l4.22-2.64" transform="translate(-30.53 -30.52)"/><path class="cls-46" d="M772.26,273.87c1.09,3.91,5.66,31,5.66,31l-25.71,18.62,2.13,5.63s30.77-10.33,33.2-17.39,2.31-39-6.24-50.15c-2.72-3.56-8.17-5.36-8.17-5.36" transform="translate(-30.53 -30.52)"/><path class="cls-53" d="M745.88,332.18l-1.07.88a5.19,5.19,0,0,0-1,1,22.43,22.43,0,0,1-1.82,2.1,20,20,0,0,1,1.64-2.26,4.44,4.44,0,0,1,1.05-.93C745.09,332.65,745.49,332.42,745.88,332.18Z" transform="translate(-30.53 -30.52)"/><path class="cls-53" d="M744.47,330.47a6.54,6.54,0,0,0-1.16,1.3,9.89,9.89,0,0,0-.92,1.46,17.43,17.43,0,0,1-1.73,3.07c.48-1.08,1-2.1,1.52-3.16a6.81,6.81,0,0,1,1-1.47A4.76,4.76,0,0,1,744.47,330.47Z" transform="translate(-30.53 -30.52)"/><path class="cls-53" d="M742.84,329.09a15.21,15.21,0,0,1-1.06,1.34,4.91,4.91,0,0,0-.79,1.46,31.92,31.92,0,0,0-1.13,3.2,10.9,10.9,0,0,1,.91-3.29,4.71,4.71,0,0,1,.89-1.47C742,329.9,742.49,329.54,742.84,329.09Z" transform="translate(-30.53 -30.52)"/><path class="cls-59" d="M762.48,235.68c-1-.59-1.78-1.21-2.43-.25-.35.52-.56,1.22-1.16,1.4a1.2,1.2,0,0,1-1.35-1,3.45,3.45,0,0,1,.23-1.81c.4-1.3.81-2.6,1.21-3.91a5.82,5.82,0,0,0,.28-3.91,4.21,4.21,0,0,0-1.23-1.58,13.08,13.08,0,0,0-6-2.57,64.29,64.29,0,0,1-6.46-1.32,7.05,7.05,0,0,1-2.46-1.24,5.36,5.36,0,0,1-1.74-4,8.26,8.26,0,0,1,1.26-4.24,6.92,6.92,0,0,0,.65,1.47,5.49,5.49,0,0,1,1.17-1.84c.63,3.5,15.36,2.33,18.81,3.87,2.38,1.07,4.36,1.77,4.28,5.64a1.4,1.4,0,0,0,.47.61c2.11,1.95,3,4.31,3.3,7.82.32,4.29-2.18,8.94-4.63,12.47a7.84,7.84,0,0,1-1.82,2.18,4.76,4.76,0,0,1-3.42.77c-1.06-.2-3.16-.11-3.18-1.19,0-.77,1.64-2.15,2.1-2.78" transform="translate(-30.53 -30.52)"/><path class="cls-58" d="M758.62,239.74a1.35,1.35,0,0,0,2,1.53,4.64,4.64,0,0,0,2.94-3.61c.35-1.85-.65-3.71-2.34-3.23a2.5,2.5,0,0,0-1.61,2.44" transform="translate(-30.53 -30.52)"/><path class="cls-53" d="M745.05,245.45l4.73.87a6.59,6.59,0,0,1-4.79,1.77" transform="translate(-30.53 -30.52)"/><g class="cls-62"><polyline class="cls-63" points="234.46 133.9 240.79 137.09 237.63 129.32"/><path class="cls-63" d="M245.35,154.49c0,7,6,12.63,13.38,12.63s13.38-5.65,13.38-12.63-6-12.63-13.38-12.63S245.35,147.52,245.35,154.49Z" transform="translate(-30.53 -30.52)"/><path class="cls-64" d="M255.45,150.34v9a1,1,0,0,0,1.42.82l7.82-4.52a.94.94,0,0,0,0-1.63l-7.82-4.52A1,1,0,0,0,255.45,150.34Z" transform="translate(-30.53 -30.52)"/></g><g class="cls-62"><polyline class="cls-63" points="672.46 229.94 666.13 233.12 669.29 225.35"/><path class="cls-63" d="M722.63,250.52c0,7-6,12.63-13.38,12.63s-13.38-5.65-13.38-12.63,6-12.63,13.38-12.63S722.63,243.55,722.63,250.52Z" transform="translate(-30.53 -30.52)"/><path class="cls-64" d="M706.86,256.57c2.92.05,5.87.09,8.55-.09.85-.06,1.58-1.33.55-1.73a1.87,1.87,0,0,0,1.07-.87.85.85,0,0,0-.52-1.14c1,.24,1.41-1.28.62-1.77a2.15,2.15,0,0,0,.85-1.29,1.26,1.26,0,0,0-.61-1.33,2.33,2.33,0,0,0-1-.17l-3.64,0a7.5,7.5,0,0,0-.54-5.32c-.29-.47-1.07-1-1.69-.67s-.42,1.19-.39,1.72a6,6,0,0,1-3.31,5.52S706.89,254.15,706.86,256.57Z" transform="translate(-30.53 -30.52)"/><rect class="cls-64" x="670.86" y="218.89" width="4.41" height="7.16"/></g><g class="cls-62"><polyline class="cls-63" points="469.92 120.33 474.54 115.34 468.21 116.58"/><path class="cls-63" d="M483.33,152a9.72,9.72,0,1,0,9.71-9.16A9.45,9.45,0,0,0,483.33,152Z" transform="translate(-30.53 -30.52)"/><path class="cls-64" d="M491.18,156.4c1.91,0,3.84.06,5.6-.07.56,0,1-1,.36-1.25a1.29,1.29,0,0,0,.7-.64.62.62,0,0,0-.34-.82c.66.17.92-.93.41-1.28a1.7,1.7,0,0,0,.56-.94,1,1,0,0,0-.41-1,1.44,1.44,0,0,0-.69-.12l-2.38,0a6,6,0,0,0-.35-3.86c-.19-.34-.7-.75-1.11-.49s-.27.87-.25,1.26a4.44,4.44,0,0,1-2.17,4S491.2,154.64,491.18,156.4Z" transform="translate(-30.53 -30.52)"/><rect class="cls-64" x="457.07" y="120.68" width="2.89" height="5.19"/></g><g class="cls-62"><path class="cls-63" d="M545.63,83.91a14.27,14.27,0,1,0-3.25,3l5.54,3Z" transform="translate(-30.53 -30.52)"/><path class="cls-13" d="M528.41,71.07a3.49,3.49,0,0,1,4.94.05l.89.91.92-.9a3.49,3.49,0,0,1,4.9,5l-3.4,3.35,0,0a3.41,3.41,0,0,1-1.91,1,3.46,3.46,0,0,1-3-1L528.35,76A3.5,3.5,0,0,1,528.41,71.07Z" transform="translate(-30.53 -30.52)"/></g></g></g></svg>