<svg id="Camada_1" data-name="Camada 1" xmlns="http://www.w3.org/2000/svg" viewBox="0 0 199.91 57.96"><defs><style>.cls-1{fill:#fff;}</style></defs><title>logo-wt</title><path class="cls-1" d="M70.93,35.89,49.33,11.44a2,2,0,0,0-3.46.93L43.45,24.45,8.8,8.82a1.92,1.92,0,0,0-2.41,2.77l32.12,51a2.46,2.46,0,0,0,3.65.59L70.61,39.83A2.74,2.74,0,0,0,70.93,35.89Zm-20.62-13a.85.85,0,0,1,1.5-.41l7.68,9.17-9.87-4.44ZM61,40.43l-16,12.64L47.7,36.4l-5.92-2.71-3.26,18.4L19.47,21.79a.82.82,0,0,1,1-1.18L60.72,38.49A1.14,1.14,0,0,1,61,40.43Z" transform="translate(-6.08 -8.64)"/><path class="cls-1" d="M90,50.72H85.8a1.84,1.84,0,0,1-1.72-1.21L75.42,25.74H79a4,4,0,0,1,3.77,2.69l5.16,14.92,5.14-14.92a4,4,0,0,1,3.77-2.69h3.6L91.76,49.51A1.84,1.84,0,0,1,90,50.72Z" transform="translate(-6.08 -8.64)"/><path class="cls-1" d="M133.58,50.72A2.77,2.77,0,0,1,130.81,48V40.59c0-2.22-.94-3.33-2.84-3.33a2.62,2.62,0,0,0-2.44,1.27,4.69,4.69,0,0,0-.76,2.39v7A2.77,2.77,0,0,1,122,50.72H119V32.44h5.81V34A6,6,0,0,1,129.7,32a6.78,6.78,0,0,1,3.23.74,5.86,5.86,0,0,1,2,1.66,8.78,8.78,0,0,1,1.08,2.09,8.44,8.44,0,0,1,.47,1.75c0,.39.06.68.06.88V50.72Z" transform="translate(-6.08 -8.64)"/><path class="cls-1" d="M157,32.33a2.77,2.77,0,0,1,2.76,2.76v7.37q0,3.33,2.84,3.33A2.62,2.62,0,0,0,165,44.51a4.66,4.66,0,0,0,.76-2.39v-7a2.77,2.77,0,0,1,2.77-2.76h3V50.61h-5.81V49a6,6,0,0,1-4.93,2.06,6.78,6.78,0,0,1-3.23-.73,5.87,5.87,0,0,1-2-1.67A10,10,0,0,1,154,44.86c0-.39-.06-.69-.06-.89V32.33Z" transform="translate(-6.08 -8.64)"/><path class="cls-1" d="M138.46,37.74v-2a3.33,3.33,0,0,1,3.33-3.32h0v-.79A4,4,0,0,1,145,27.7l2.59-.56v5.3h4.36v1a4.36,4.36,0,0,1-4.36,4.35h0v5.73c0,.06,0,.14,0,.25a4.2,4.2,0,0,0,.16.58,3.16,3.16,0,0,0,.35.74,1.76,1.76,0,0,0,.72.59,1.32,1.32,0,0,0,.41.09,3,3,0,0,1,2.66,2.93v1.86a33.44,33.44,0,0,1-3.58.21c-.38,0-.74,0-1.09,0a6.59,6.59,0,0,1-1.59-.43,5.7,5.7,0,0,1-1.83-1.07A6.29,6.29,0,0,1,142.41,47a9,9,0,0,1-.62-3.5V37.74Z" transform="translate(-6.08 -8.64)"/><path class="cls-1" d="M199.82,34V32.44h5.83V50.72h-5.83v-1.6a6.92,6.92,0,0,1-5.39,2.08,8.69,8.69,0,0,1-6.53-2.83,9.93,9.93,0,0,1,0-13.59A8.69,8.69,0,0,1,194.43,32,6.85,6.85,0,0,1,199.82,34Zm-4.44,11.87a4.39,4.39,0,0,0,3.17-1.23,4.38,4.38,0,0,0,0-6.17,4.39,4.39,0,0,0-3.17-1.23,4.29,4.29,0,0,0-3.09,1.23,4.38,4.38,0,0,0,0,6.17A4.29,4.29,0,0,0,195.38,45.89Z" transform="translate(-6.08 -8.64)"/><path class="cls-1" d="M184.69,32.21h0a5.09,5.09,0,0,0-.91.09,10.34,10.34,0,0,0-1.3.37,3.79,3.79,0,0,0-1.49,1,4.15,4.15,0,0,0-1,1.72V32.44h-3.53a2.24,2.24,0,0,0-2.24,2.25v16h5.77v-7.9a6,6,0,0,1,1.31-3.52,4.29,4.29,0,0,1,3.46-1.77Z" transform="translate(-6.08 -8.64)"/><path class="cls-1" d="M116.67,41.75v2.1H103.91a3.76,3.76,0,0,0,3.5,2,9,9,0,0,0,2.41-.31,4.86,4.86,0,0,1,4.17.71l1.45,1.05a9.51,9.51,0,0,1-8,3.86,9.79,9.79,0,0,1-7-2.83,9.39,9.39,0,0,1,0-13.59,9.71,9.71,0,0,1,7-2.83A9,9,0,0,1,114,34.59,9.56,9.56,0,0,1,116.67,41.75Zm-5.6-1.82a3.45,3.45,0,0,0-3.66-2.67,3.56,3.56,0,0,0-3.71,2.67Z" transform="translate(-6.08 -8.64)"/><path class="cls-1" d="M87.32,59.33h1.09l2.08,5.44h-.83l-.39-1h-2.8l-.4,1h-.83Zm.55.74-1.14,3H89Z" transform="translate(-6.08 -8.64)"/><path class="cls-1" d="M95.35,64.88a2.83,2.83,0,0,1-2-.83,2.74,2.74,0,0,1,0-4,2.82,2.82,0,0,1,2-.82,3.23,3.23,0,0,1,1.22.22,2.74,2.74,0,0,1,.8.44,2.66,2.66,0,0,1,.43.47l-.56.4a2.23,2.23,0,0,0-1.89-.83,2.07,2.07,0,0,0-1.5.61,2.07,2.07,0,0,0,0,3,2,2,0,0,0,1.5.63,2.21,2.21,0,0,0,.87-.17,1.48,1.48,0,0,0,.57-.4,2.24,2.24,0,0,0,.31-.47,1,1,0,0,0,.15-.39l0-.17H95.9v-.7h2.16v.71a3.06,3.06,0,0,1-.26.84,2.55,2.55,0,0,1-.39.62,2.63,2.63,0,0,1-1,.65,2.77,2.77,0,0,1-.48.13l-.37.05Z" transform="translate(-6.08 -8.64)"/><path class="cls-1" d="M101.4,64.06h2.8v.71h-3.57V59.33h3.57V60h-2.8v1.73H104v.71h-2.6Z" transform="translate(-6.08 -8.64)"/><path class="cls-1" d="M110.72,63.5V59.33h.77v5.44h-.78l-3.17-4.18v4.18h-.77V59.33h.78Z" transform="translate(-6.08 -8.64)"/><path class="cls-1" d="M115.79,60H114v-.7h4.4V60h-1.82v4.74h-.77Z" transform="translate(-6.08 -8.64)"/><path class="cls-1" d="M121.63,64.06h2.81v.71h-3.58V59.33h3.58V60h-2.81v1.73h2.6v.71h-2.6Z" transform="translate(-6.08 -8.64)"/><path class="cls-1" d="M128.83,64.88a2.41,2.41,0,0,1-2.06-.94l.55-.44A2.34,2.34,0,0,0,128,64a2.1,2.1,0,0,0,.89.2,1.57,1.57,0,0,0,.6-.1.89.89,0,0,0,.37-.25,1.68,1.68,0,0,0,.16-.26.45.45,0,0,0,.06-.2.58.58,0,0,0-.33-.51,3.5,3.5,0,0,0-.8-.35l-.93-.33a2.09,2.09,0,0,1-.8-.57,1.41,1.41,0,0,1-.33-1,1.31,1.31,0,0,1,.08-.43,1.77,1.77,0,0,1,.28-.46,1.24,1.24,0,0,1,.57-.38,2.49,2.49,0,0,1,.91-.14,2.16,2.16,0,0,1,1.86.8l-.28.21c-.11.09-.2.15-.25.2a1.89,1.89,0,0,0-1.39-.51,1.17,1.17,0,0,0-.71.2.65.65,0,0,0-.3.58.71.71,0,0,0,.24.54,1.37,1.37,0,0,0,.59.34l.76.26c.28.1.53.2.77.31a1.53,1.53,0,0,1,.59.48,1.28,1.28,0,0,1,.24.77,1.06,1.06,0,0,1-.11.45,1.64,1.64,0,0,1-.32.47,1.6,1.6,0,0,1-.62.38A2.54,2.54,0,0,1,128.83,64.88Z" transform="translate(-6.08 -8.64)"/><path class="cls-1" d="M140.51,60.09a3,3,0,0,1,0,3.91,2.56,2.56,0,0,1-2,.77h-2.06V59.33h2.06A2.55,2.55,0,0,1,140.51,60.09ZM138.58,60h-1.32v4h1.32a1.74,1.74,0,0,0,1.37-.55,2.05,2.05,0,0,0,.51-1.45,2.1,2.1,0,0,0-.51-1.47A1.75,1.75,0,0,0,138.58,60Z" transform="translate(-6.08 -8.64)"/><path class="cls-1" d="M145.07,59.33h1.09l2.07,5.44h-.82l-.4-1h-2.8l-.39,1H143Zm.54.74-1.14,3h2.27Z" transform="translate(-6.08 -8.64)"/><path class="cls-1" d="M153.68,64.77V59.33h.77v5.44Z" transform="translate(-6.08 -8.64)"/><path class="cls-1" d="M161.12,63.5V59.33h.77v5.44h-.78l-3.17-4.18v4.18h-.77V59.33H158Z" transform="translate(-6.08 -8.64)"/><path class="cls-1" d="M165.36,60.06a2.94,2.94,0,0,1,4.07,0,2.79,2.79,0,0,1,0,4,2.91,2.91,0,0,1-4.07,0,2.79,2.79,0,0,1,0-4Zm.55,3.48a2,2,0,0,0,1.48.63,2.12,2.12,0,1,0-2.1-2.12A2,2,0,0,0,165.91,63.54Z" transform="translate(-6.08 -8.64)"/><path class="cls-1" d="M175.21,64.77h-1.1L172,59.33h.83l1.79,4.7,1.79-4.7h.83Z" transform="translate(-6.08 -8.64)"/><path class="cls-1" d="M180.45,59.33h1.09l2.07,5.44h-.82l-.4-1h-2.8l-.39,1h-.83Zm.54.74-1.13,3h2.26Z" transform="translate(-6.08 -8.64)"/><path class="cls-1" d="M188.14,65.55l-.19,0,.12-.67a2.76,2.76,0,0,1-1.78-.92,2.69,2.69,0,0,1-.72-1.87,2.64,2.64,0,0,1,.85-2,2.84,2.84,0,0,1,2.05-.82,2.87,2.87,0,0,1,1.7.52,2.72,2.72,0,0,1,1.05,1.36h-.88a2.13,2.13,0,0,0-.77-.86,1.94,1.94,0,0,0-1.1-.32,2.07,2.07,0,0,0-1.5.61,2.09,2.09,0,0,0,0,3,2.08,2.08,0,0,0,1.5.63,2,2,0,0,0,1.1-.33,2.07,2.07,0,0,0,.77-.86h.88a2.7,2.7,0,0,1-1,1.31,2.82,2.82,0,0,1-1.59.57l-.07.4h.06l.12.06.15.1a.5.5,0,0,1,.11.18.75.75,0,0,1-.2.83,1,1,0,0,1-.55.16,4.12,4.12,0,0,1-.51,0v-.49a1.51,1.51,0,0,0,.39,0,.4.4,0,0,0,.25-.06.3.3,0,0,0,.06-.22.19.19,0,0,0-.08-.18.33.33,0,0,0-.16-.09Z" transform="translate(-6.08 -8.64)"/><path class="cls-1" d="M195.17,59.33h1.09l2.08,5.44h-.83l-.39-1h-2.8l-.4,1h-.83Zm1.27-1.19c.21,0,.31-.14.32-.44h.64a2.19,2.19,0,0,1-.13.64.71.71,0,0,1-.27.35l-.26.13a.78.78,0,0,1-.22,0,2.16,2.16,0,0,1-.79-.22,2.39,2.39,0,0,0-.73-.21c-.21,0-.31.15-.32.44H194a2,2,0,0,1,.13-.64.67.67,0,0,1,.27-.35l.26-.13a.78.78,0,0,1,.22,0,2.22,2.22,0,0,1,.83.22A2.51,2.51,0,0,0,196.44,58.14Zm.41,4.89-1.13-3-1.13,3Z" transform="translate(-6.08 -8.64)"/><path class="cls-1" d="M201.08,60.06a2.94,2.94,0,0,1,4.07,0,2.79,2.79,0,0,1,0,4,2.91,2.91,0,0,1-4.07,0,2.79,2.79,0,0,1,0-4Zm.55,3.48a2,2,0,0,0,1.49.63,2.12,2.12,0,0,0,0-4.23,2.11,2.11,0,0,0-1.49,3.6Z" transform="translate(-6.08 -8.64)"/></svg>