<svg id="Camada_1" data-name="Camada 1" xmlns="http://www.w3.org/2000/svg" xmlns:xlink="http://www.w3.org/1999/xlink" viewBox="0 0 257.14 74.56"><defs><style>.cls-1{fill:url(#Gradiente_sem_nome_103);}.cls-2{fill:url(#Gradiente_sem_nome_103-2);}.cls-3{fill:url(#Gradiente_sem_nome_103-3);}.cls-4{fill:url(#Gradiente_sem_nome_103-4);}.cls-5{fill:url(#Gradiente_sem_nome_103-5);}.cls-6{fill:url(#Gradiente_sem_nome_103-6);}.cls-7{fill:url(#Gradiente_sem_nome_103-7);}.cls-8{fill:url(#Gradiente_sem_nome_103-8);}.cls-9{fill:#9627b0;}</style><linearGradient id="Gradiente_sem_nome_103" x1="60.45" y1="34.27" x2="61.21" y2="141.71" gradientUnits="userSpaceOnUse"><stop offset="0" stop-color="#602bc1"/><stop offset="1" stop-color="#9627b0"/></linearGradient><linearGradient id="Gradiente_sem_nome_103-2" x1="123.67" y1="48.08" x2="124.06" y2="96.19" xlink:href="#Gradiente_sem_nome_103"/><linearGradient id="Gradiente_sem_nome_103-3" x1="174.69" y1="47.66" x2="175.11" y2="95.78" xlink:href="#Gradiente_sem_nome_103"/><linearGradient id="Gradiente_sem_nome_103-4" x1="219.8" y1="47.29" x2="220.19" y2="95.4" xlink:href="#Gradiente_sem_nome_103"/><linearGradient id="Gradiente_sem_nome_103-5" x1="197.22" y1="47.47" x2="197.61" y2="95.59" xlink:href="#Gradiente_sem_nome_103"/><linearGradient id="Gradiente_sem_nome_103-6" x1="261.81" y1="46.94" x2="262.21" y2="95.06" xlink:href="#Gradiente_sem_nome_103"/><linearGradient id="Gradiente_sem_nome_103-7" x1="241.17" y1="47.11" x2="241.57" y2="95.23" xlink:href="#Gradiente_sem_nome_103"/><linearGradient id="Gradiente_sem_nome_103-8" x1="148.19" y1="52.71" x2="148.41" y2="77.47" xlink:href="#Gradiente_sem_nome_103"/></defs><title>logo-bk</title><path class="cls-1" d="M101.77,57.77,74,26.32a2.58,2.58,0,0,0-4.46,1.2L66.43,43.06,21.86,23a2.46,2.46,0,0,0-3.1,3.56L60.07,92.06a3.18,3.18,0,0,0,4.7.77l36.59-30A3.53,3.53,0,0,0,101.77,57.77ZM75.26,41a1.1,1.1,0,0,1,1.92-.54l9.88,11.8L74.37,46.55ZM89,63.61,68.34,79.87,71.9,58.43l-7.62-3.49L60.09,78.6l-24.51-39a1.06,1.06,0,0,1,1.32-1.53l51.74,23A1.47,1.47,0,0,1,89,63.61Z" transform="translate(-18.36 -22.72)"/><path class="cls-2" d="M126.35,76.84h-5.44a2.36,2.36,0,0,1-2.22-1.55L107.55,44.72h4.6A5.15,5.15,0,0,1,117,48.18l6.63,19.18,6.61-19.18a5.13,5.13,0,0,1,4.85-3.46h4.63L128.57,75.29A2.37,2.37,0,0,1,126.35,76.84Z" transform="translate(-18.36 -22.72)"/><path class="cls-3" d="M182.35,76.84a3.55,3.55,0,0,1-3.55-3.55V63.81q0-4.28-3.66-4.28A3.39,3.39,0,0,0,172,61.17a6.08,6.08,0,0,0-1,3.08v9a3.55,3.55,0,0,1-3.55,3.55h-3.92V53.33H171v2a7.71,7.71,0,0,1,6.34-2.65,8.6,8.6,0,0,1,4.16.95,7.46,7.46,0,0,1,2.63,2.14,10.43,10.43,0,0,1,1.38,2.68,11.55,11.55,0,0,1,.61,2.24c.05.51.08.89.08,1.14v15Z" transform="translate(-18.36 -22.72)"/><path class="cls-4" d="M212.44,53.19A3.55,3.55,0,0,1,216,56.75v9.47q0,4.27,3.66,4.28a3.39,3.39,0,0,0,3.14-1.64,6.06,6.06,0,0,0,1-3.07v-9a3.56,3.56,0,0,1,3.56-3.56h3.92V76.7h-7.48v-2a7.69,7.69,0,0,1-6.33,2.66,8.72,8.72,0,0,1-4.16-1,7.69,7.69,0,0,1-2.63-2.14,10.77,10.77,0,0,1-1.38-2.68,11.07,11.07,0,0,1-.61-2.25c-.05-.51-.08-.89-.08-1.14v-15Z" transform="translate(-18.36 -22.72)"/><path class="cls-5" d="M188.64,60.16V57.61a4.28,4.28,0,0,1,4.28-4.28h0v-1A5.2,5.2,0,0,1,197,47.24l3.33-.73v6.82H206v1.22a5.61,5.61,0,0,1-5.61,5.61h0v7.36a2.63,2.63,0,0,0,0,.33,4.47,4.47,0,0,0,.2.74,4.18,4.18,0,0,0,.45,1,2.38,2.38,0,0,0,.93.76,1.88,1.88,0,0,0,.52.11,3.8,3.8,0,0,1,3.42,3.77v2.39a42.84,42.84,0,0,1-4.6.27c-.49,0-.95,0-1.4,0a8.89,8.89,0,0,1-2-.56,7,7,0,0,1-2.36-1.38,7.75,7.75,0,0,1-1.77-2.78,11.55,11.55,0,0,1-.8-4.49V60.16Z" transform="translate(-18.36 -22.72)"/><path class="cls-6" d="M267.56,55.36v-2h7.5V76.84h-7.5V74.78c-1.59,1.77-3.9,2.67-6.93,2.68a11.16,11.16,0,0,1-8.4-3.64,12.74,12.74,0,0,1,0-17.48,11.18,11.18,0,0,1,8.4-3.63Q265.18,52.71,267.56,55.36Zm-5.72,15.28a5.62,5.62,0,0,0,4.08-1.59,5.61,5.61,0,0,0,0-7.93,5.62,5.62,0,0,0-4.08-1.59,5.47,5.47,0,0,0-4,1.59,5.61,5.61,0,0,0,0,7.93A5.47,5.47,0,0,0,261.84,70.64Z" transform="translate(-18.36 -22.72)"/><path class="cls-7" d="M248.1,53h0a6.47,6.47,0,0,0-1.18.12,13.64,13.64,0,0,0-1.66.48,5,5,0,0,0-1.93,1.24A5.59,5.59,0,0,0,242,57.1V53.33h-4.53a2.89,2.89,0,0,0-2.9,2.89V76.84H242V66.68a7.64,7.64,0,0,1,1.69-4.52,5.56,5.56,0,0,1,4.45-2.29Z" transform="translate(-18.36 -22.72)"/><path class="cls-8" d="M160.61,65.3V68H144.2a4.83,4.83,0,0,0,4.49,2.63,11.62,11.62,0,0,0,3.11-.41,6.27,6.27,0,0,1,5.36.92L159,72.5a12.25,12.25,0,0,1-10.23,5,12.62,12.62,0,0,1-9.07-3.64,12.08,12.08,0,0,1,0-17.48,12.53,12.53,0,0,1,9.07-3.63,11.53,11.53,0,0,1,8.34,3.38Q160.6,59.48,160.61,65.3ZM153.4,63a4.43,4.43,0,0,0-4.71-3.44A4.58,4.58,0,0,0,143.92,63Z" transform="translate(-18.36 -22.72)"/><path class="cls-9" d="M122.86,87.92h1.4l2.67,7h-1.06l-.51-1.33h-3.6l-.51,1.33h-1.07Zm.7,1-1.46,3.81H125Z" transform="translate(-18.36 -22.72)"/><path class="cls-9" d="M133.18,95.05A3.65,3.65,0,0,1,130.54,94a3.56,3.56,0,0,1,0-5.13,3.65,3.65,0,0,1,2.64-1.06,4.18,4.18,0,0,1,1.57.28,3,3,0,0,1,1.59,1.18l-.73.51a2.89,2.89,0,0,0-2.43-1.07,2.71,2.71,0,0,0-1.93.79,2.69,2.69,0,0,0,0,3.85,2.65,2.65,0,0,0,1.93.8,2.83,2.83,0,0,0,1.12-.21,1.93,1.93,0,0,0,.74-.51,3.2,3.2,0,0,0,.4-.61,1.59,1.59,0,0,0,.19-.5l0-.22H133.9v-.91h2.77v.92a4.35,4.35,0,0,1-.33,1.09,3.51,3.51,0,0,1-.51.78,3.21,3.21,0,0,1-1.28.85,3.5,3.5,0,0,1-.62.16,3.24,3.24,0,0,1-.47.06Z" transform="translate(-18.36 -22.72)"/><path class="cls-9" d="M141,94h3.61v.91H140v-7h4.6v.91H141v2.22h3.34V92H141Z" transform="translate(-18.36 -22.72)"/><path class="cls-9" d="M153,93.29V87.92h1v7h-1l-4.07-5.38v5.38h-1v-7h1Z" transform="translate(-18.36 -22.72)"/><path class="cls-9" d="M159.48,88.83h-2.33v-.91h5.66v.91h-2.34v6.09h-1Z" transform="translate(-18.36 -22.72)"/><path class="cls-9" d="M167,94h3.61v.91H166v-7h4.6v.91H167v2.22h3.34V92H167Z" transform="translate(-18.36 -22.72)"/><path class="cls-9" d="M176.25,95.05a3.12,3.12,0,0,1-2.66-1.2l.72-.56a2.89,2.89,0,0,0,.86.59,2.51,2.51,0,0,0,1.14.26,2.28,2.28,0,0,0,.78-.12,1.14,1.14,0,0,0,.47-.32c.09-.13.16-.25.21-.34a.73.73,0,0,0,.07-.25.77.77,0,0,0-.43-.67,4.4,4.4,0,0,0-1-.44c-.4-.13-.8-.27-1.2-.43a2.59,2.59,0,0,1-1-.73,1.81,1.81,0,0,1-.42-1.22,1.64,1.64,0,0,1,.11-.56,2.13,2.13,0,0,1,.35-.58,1.54,1.54,0,0,1,.73-.49,3.25,3.25,0,0,1,1.18-.19,2.79,2.79,0,0,1,2.39,1l-.36.26-.33.26A2.38,2.38,0,0,0,176,88.7a1.63,1.63,0,0,0-.92.26.85.85,0,0,0-.38.75.94.94,0,0,0,.3.7,1.89,1.89,0,0,0,.76.43l1,.34a10,10,0,0,1,1,.39,1.92,1.92,0,0,1,.76.62,1.61,1.61,0,0,1,.31,1,1.52,1.52,0,0,1-.13.57,2.38,2.38,0,0,1-.41.6,2.12,2.12,0,0,1-.81.5A3.53,3.53,0,0,1,176.25,95.05Z" transform="translate(-18.36 -22.72)"/><path class="cls-9" d="M191.27,88.9a3.49,3.49,0,0,1,.92,2.51,3.53,3.53,0,0,1-.92,2.52,3.26,3.26,0,0,1-2.52,1H186.1v-7h2.65A3.26,3.26,0,0,1,191.27,88.9Zm-2.47-.07h-1.71V94h1.71a2.27,2.27,0,0,0,1.75-.71,3,3,0,0,0,0-3.75A2.24,2.24,0,0,0,188.8,88.83Z" transform="translate(-18.36 -22.72)"/><path class="cls-9" d="M197.13,87.92h1.41l2.66,7h-1.06l-.51-1.33H196l-.5,1.33h-1.07Zm.7,1-1.46,3.81h2.91Z" transform="translate(-18.36 -22.72)"/><path class="cls-9" d="M208.21,94.92v-7h1v7Z" transform="translate(-18.36 -22.72)"/><path class="cls-9" d="M217.78,93.29V87.92h1v7h-1l-4.07-5.38v5.38h-1v-7h1Z" transform="translate(-18.36 -22.72)"/><path class="cls-9" d="M223.23,88.86a3.77,3.77,0,0,1,5.24,0,3.59,3.59,0,0,1,0,5.13,3.77,3.77,0,0,1-5.24,0,3.59,3.59,0,0,1,0-5.13Zm.71,4.48a2.68,2.68,0,0,0,3.82,0,2.71,2.71,0,1,0-4.62-1.92A2.65,2.65,0,0,0,223.94,93.34Z" transform="translate(-18.36 -22.72)"/><path class="cls-9" d="M235.9,94.92h-1.41l-2.67-7h1.07l2.31,6,2.3-6h1.07Z" transform="translate(-18.36 -22.72)"/><path class="cls-9" d="M242.64,87.92h1.41l2.66,7h-1.06l-.51-1.33h-3.6l-.5,1.33H240Zm.7,1-1.46,3.81h2.91Z" transform="translate(-18.36 -22.72)"/><path class="cls-9" d="M252.54,95.92l-.25,0,.16-.86a3.59,3.59,0,0,1-2.3-1.19,3.48,3.48,0,0,1-.92-2.4,3.43,3.43,0,0,1,1.1-2.56A3.65,3.65,0,0,1,253,87.8a3.7,3.7,0,0,1,2.18.67,3.56,3.56,0,0,1,1.35,1.76h-1.13a2.73,2.73,0,0,0-1-1.11A2.53,2.53,0,0,0,253,88.7a2.73,2.73,0,0,0-1.94.79A2.73,2.73,0,0,0,253,94.14a2.52,2.52,0,0,0,1.41-.41,2.79,2.79,0,0,0,1-1.11h1.13a3.51,3.51,0,0,1-1.25,1.69,3.79,3.79,0,0,1-2,.73l-.09.5.07,0,.15.07a.94.94,0,0,1,.19.14.57.57,0,0,1,.15.23,1,1,0,0,1-.25,1.07,1.34,1.34,0,0,1-.72.2c-.22,0-.44,0-.65,0V96.6a1.88,1.88,0,0,0,.51.06.48.48,0,0,0,.31-.08.37.37,0,0,0,.09-.29.28.28,0,0,0-.11-.23.5.5,0,0,0-.21-.12Z" transform="translate(-18.36 -22.72)"/><path class="cls-9" d="M261.58,87.92H263l2.67,7h-1.06l-.51-1.33h-3.6L260,94.92h-1.06Zm1.63-1.53c.27,0,.4-.18.41-.56h.82a2.33,2.33,0,0,1-.16.81.92.92,0,0,1-.34.45,2.64,2.64,0,0,1-.34.17.86.86,0,0,1-.28,0,3.05,3.05,0,0,1-1-.27,2.8,2.8,0,0,0-.93-.28c-.27,0-.4.19-.41.56h-.82a2.33,2.33,0,0,1,.16-.81.91.91,0,0,1,.35-.46,1.9,1.9,0,0,1,.33-.16.92.92,0,0,1,.29,0,3,3,0,0,1,1.07.28A3.22,3.22,0,0,0,263.21,86.39Zm.54,6.29-1.47-3.81-1.45,3.81Z" transform="translate(-18.36 -22.72)"/><path class="cls-9" d="M269.18,88.86a3.77,3.77,0,0,1,5.24,0,3.59,3.59,0,0,1,0,5.13,3.77,3.77,0,0,1-5.24,0,3.59,3.59,0,0,1,0-5.13Zm.71,4.48a2.68,2.68,0,0,0,3.82,0,2.71,2.71,0,1,0-4.62-1.92A2.65,2.65,0,0,0,269.89,93.34Z" transform="translate(-18.36 -22.72)"/></svg>